<?xml version="1.0" encoding="UTF-8" standalone="no"?>
<!DOCTYPE svg PUBLIC "-//W3C//DTD SVG 1.1//EN" "http://www.w3.org/Graphics/SVG/1.1/DTD/svg11.dtd">
<svg width="100%" height="100%" viewBox="0 0 100 100" version="1.1" xmlns="http://www.w3.org/2000/svg" xmlns:xlink="http://www.w3.org/1999/xlink" xml:space="preserve" xmlns:serif="http://www.serif.com/" style="fill-rule:evenodd;clip-rule:evenodd;stroke-linejoin:round;stroke-miterlimit:2;">
    <g transform="matrix(0.983502,-0.180899,0.180899,0.983502,-8.22038,9.87032)">
        <path d="M54.973,77.203L64.457,63.035L64.891,62.387L65.539,62.82L70.075,65.859L70.723,66.293L70.289,66.941L55.242,89.418L54.864,89.985L54.25,89.684L52.106,88.629L29.977,77.742L29.281,77.398L29.625,76.699L32.035,71.801L32.379,71.102L33.078,71.445L48.027,78.801C46.766,75.797 45.563,72.758 44.438,69.688C43.07,65.953 41.824,62.18 40.742,58.376C39.84,55.204 39.039,51.977 38.402,48.715C37.762,45.45 37.285,42.153 37.027,38.848C36.66,34.133 36.75,29.485 37.492,24.953C38.238,20.406 39.637,15.984 41.891,11.742L42.442,10.707L42.809,10.019L43.496,10.383L48.32,12.941L49.012,13.309L48.645,13.996L48.094,15.031C46.172,18.648 45,22.426 44.383,26.308C43.766,30.207 43.707,34.222 44.024,38.296C44.262,41.347 44.707,44.398 45.301,47.425C45.895,50.456 46.641,53.46 47.481,56.41C48.551,60.171 49.785,63.898 51.145,67.582C52.348,70.843 53.633,74.046 54.973,77.199L54.973,77.203ZM65.321,64.547L55.473,79.258L54.68,80.442L54.114,79.133C52.536,75.489 51.044,71.813 49.684,68.121C48.313,64.398 47.063,60.633 45.985,56.84C45.133,53.852 44.38,50.805 43.774,47.727C43.169,44.645 42.716,41.531 42.473,38.414C42.149,34.238 42.208,30.106 42.848,26.066C43.493,22.011 44.716,18.07 46.719,14.3L46.903,13.953L43.458,12.124L43.274,12.472C41.102,16.562 39.751,20.824 39.032,25.202C38.313,29.597 38.227,34.124 38.587,38.729C38.841,41.967 39.309,45.202 39.934,48.413C40.563,51.627 41.352,54.811 42.243,57.944C43.317,61.717 44.552,65.452 45.903,69.143C47.255,72.838 48.731,76.498 50.286,80.112L49.223,81.12L33.09,73.182L31.368,76.682L52.798,87.225L54.329,87.979L68.563,66.717L65.321,64.547Z" style="fill:rgb(249,147,42);fill-rule:nonzero;"/>
    </g>
</svg>
