<?xml version="1.0" encoding="UTF-8" standalone="no"?>
<!DOCTYPE svg PUBLIC "-//W3C//DTD SVG 1.1//EN" "http://www.w3.org/Graphics/SVG/1.1/DTD/svg11.dtd">
<svg width="100%" height="100%" viewBox="0 0 100 100" version="1.1" xmlns="http://www.w3.org/2000/svg" xmlns:xlink="http://www.w3.org/1999/xlink" xml:space="preserve" xmlns:serif="http://www.serif.com/" style="fill-rule:evenodd;clip-rule:evenodd;stroke-linejoin:round;stroke-miterlimit:2;">
    <g transform="matrix(-1.54907,0,0,1.54907,105.759,-49.5062)">
        <g>
            <g transform="matrix(1,0,0,1,-14,23)">
                <path d="M45.703,36.117C44.734,34.594 43.086,33.683 40.805,33.418C38.035,33.094 35.957,32.965 33.398,32.965C33.078,32.965 32.664,32.941 32.188,32.918C30.066,32.805 26.867,32.633 25.414,34.012C24.906,34.496 24.645,35.117 24.652,35.793C24.414,37.387 24.504,38.945 24.59,40.449C24.641,41.293 24.688,42.164 24.68,43.027C24.676,43.5 24.652,43.965 24.625,44.429C24.543,46.011 24.461,47.648 25.145,49.308C26.594,52.82 29.855,52.476 32.727,52.172L33.242,52.117C33.738,52.117 34.848,51.824 34.879,51.797C35,51.765 35.277,51.82 35.723,51.968C35.449,54.406 34.676,56.226 33.242,57.824C32.801,58.312 32.129,58.812 31.414,59.343C30.016,60.383 28.434,61.558 28.082,63.121C27.867,64.066 28.227,64.992 29.086,65.726C30.125,66.613 31.871,67.164 33.27,67.164C33.758,67.164 34.207,67.097 34.563,66.953C35.508,66.718 37.285,66.133 38.555,64.859C43.996,59.097 46.641,52.015 46.641,43.214L46.637,41.464C46.867,39.245 46.551,37.445 45.703,36.116L45.703,36.117Z" style="fill:rgb(69,69,69);fill-rule:nonzero;"/>
            </g>
            <g transform="matrix(1,0,0,1,-14,23)">
                <path d="M74.488,36.117C73.519,34.594 71.871,33.683 69.59,33.418C66.82,33.094 64.742,32.965 62.183,32.965C61.863,32.965 61.449,32.941 60.973,32.918C58.851,32.805 55.652,32.633 54.199,34.012C53.691,34.496 53.43,35.117 53.437,35.793C53.199,37.387 53.289,38.945 53.375,40.449C53.426,41.293 53.473,42.164 53.465,43.027C53.461,43.5 53.437,43.965 53.41,44.429C53.328,46.011 53.246,47.648 53.93,49.308C55.379,52.82 58.64,52.476 61.512,52.172L62.027,52.117C62.523,52.117 63.633,51.824 63.664,51.797C63.785,51.765 64.062,51.82 64.508,51.968C64.234,54.406 63.461,56.226 62.027,57.824C61.586,58.312 60.914,58.812 60.199,59.343C58.801,60.383 57.219,61.558 56.867,63.121C56.652,64.066 57.012,64.992 57.871,65.726C58.91,66.613 60.656,67.164 62.055,67.164C62.543,67.164 62.992,67.097 63.348,66.953C64.293,66.718 66.07,66.133 67.34,64.859C72.781,59.097 75.426,52.015 75.426,43.214L75.422,41.464C75.652,39.245 75.336,37.445 74.488,36.116L74.488,36.117Z" style="fill:rgb(69,69,69);fill-rule:nonzero;"/>
            </g>
        </g>
    </g>
</svg>
