<?xml version="1.0" encoding="UTF-8"?>
<svg width="100pt" height="100pt" version="1.1" viewBox="0 0 100 100" xmlns="http://www.w3.org/2000/svg">
 <path d="m93.793 66.25c-0.15625-2.4375-1.3125-3.5273-2.2539-4.0156-0.97266-0.50391-2.168-0.59766-3.5586-0.29297l0.003906-0.97266c0.066406-0.23828 0.10547-0.48047 0.10547-0.73438 0-3.8242-8.082-5.8867-15.684-5.8867-2.0742 0-4.1836 0.15625-6.1562 0.45703-2.832-4.418-6.1016-7.0508-9.293-8.5586l-0.5-0.58203-0.011719 0.027344c-1.6094-2.1523-5.1406-4.4727-8.8125-6.0859-5.2188-2.293-11.301-3.4258-12.918-1.2734-0.19531 0.21094-0.37109 0.44141-0.50391 0.71094l-2.1445 4.3672-4.1133-1.8086c-0.4375-0.83984-1.1172-1.5234-1.9844-1.9453l-8.9922-4.375c-1.0703-0.51953-2.2812-0.59375-3.4062-0.20703s-2.0312 1.1914-2.5547 2.2617l-4.375 8.9922c-0.51953 1.0703-0.59375 2.2812-0.20703 3.4062 0.38672 1.125 1.1914 2.0312 2.2617 2.5547l8.9922 4.375c0.61719 0.30078 1.2812 0.45313 1.9453 0.45313 0.40234 0 0.80078-0.070313 1.1953-0.17969l3.7773 1.6602-2.2266 4.5352 0.050782 0.027344c-0.87891 2.7148 4.6562 6.7734 10.734 9.4453 6.2109 2.7305 13.125 4.0703 14.32 1.3555l-0.027344-0.011719 9-23.973h0.023438c2.0938 1.1602 4.207 2.9375 6.1523 5.5977-3.4648 0.98828-5.9102 2.5547-5.9102 4.6602 0 0.25391 0.039063 0.49609 0.10547 0.73438v7.9531c0 6.8984 6.6367 12.512 14.797 12.512h1.5625c5.7578 0 10.746-2.8008 13.191-6.875 2.582-0.82812 7.75-3.1445 7.4141-8.3086zm-58.117-27.012c0.019531-0.042969 0.054688-0.085937 0.085938-0.125 0.31641-0.42969 1.2148-0.66797 2.5664-0.63672 0.63672 0.015626 1.375 0.09375 2.2031 0.23828 1.8242 0.32422 4.0625 0.98047 6.5742 2.0859 2.3594 1.0352 4.2734 2.1602 5.7188 3.2227 0.55859 0.41016 1.0391 0.8125 1.4531 1.1953-6.3164-1.8906-11.703 0.027344-11.801 0.0625l-0.34766 0.12891c-4.6523-2.4766-6.9141-5.1289-6.4531-6.1719zm-20.66 11.199l5.2109 2.5352 1.9609 0.95312 0.27344 0.13281c-0.17578 0.35156-0.41016 0.65625-0.6875 0.91406-0.31641 0.28906-0.6875 0.51953-1.1016 0.66406-0.46484 0.16016-0.94922 0.19531-1.4258 0.13672-0.33594-0.042969-0.66797-0.12891-0.98047-0.28125l-8.9922-4.375c-0.75781-0.36719-1.3242-1.0078-1.5977-1.8047-0.27344-0.79688-0.22266-1.6484 0.14453-2.4062l4.375-8.9922c0.36719-0.75781 1.0078-1.3242 1.8047-1.5977 0.33594-0.11719 0.68359-0.17578 1.0312-0.17578 0.47266 0 0.94141 0.10547 1.375 0.32031l8.9922 4.375c0.12891 0.0625 0.24219 0.14453 0.35937 0.21875 0.57422 0.37891 1.0117 0.92578 1.2422 1.5859 0.11328 0.32422 0.15625 0.66016 0.16016 0.99219 0.003906 0.47656-0.085937 0.94922-0.29688 1.3867l-0.62891-0.30469-1.9609-0.95312-4.8555-2.3633c-0.34375-0.16797-0.75391-0.023438-0.92188 0.31641-0.16797 0.34375-0.023438 0.75391 0.31641 0.92188l4.9062 2.3867 1.9609 0.95312 0.58203 0.28516-1.293 2.6602-0.47656-0.23438-1.9609-0.95312-5.0078-2.4375c-0.34375-0.16797-0.75391-0.023437-0.92188 0.31641-0.16797 0.34375-0.023437 0.75391 0.31641 0.92188l5.0586 2.4609 1.9609 0.95312 0.42969 0.21094-1.293 2.6602-0.32422-0.16016-1.9609-0.95312-5.1602-2.5117c-0.34375-0.16797-0.75391-0.023437-0.92188 0.31641-0.17578 0.34766-0.035156 0.75781 0.30859 0.92578zm8.0156 5.0898c0.23438-0.28125 0.45312-0.57812 0.61719-0.91797l0.19531-0.40625 0.17188-0.35156 1.7266-3.5469 0.17187-0.35547 1.7266-3.5469 0.17188-0.35547 0.21094-0.43359c0.22266-0.45312 0.35547-0.93359 0.41406-1.4219l2.6641 1.1719-5.5352 11.273zm23.211 17.953l-0.011719 0.03125h0.007812c-0.71484 1.1094-5.793 0.86328-12.543-2.1016-6.5469-2.875-10.152-6.3281-10.055-7.6953 0.003906-0.074219 0.015625-0.14453 0.042969-0.20703l-0.019532-0.007812 2.1484-4.3711 0.95703-1.9531 5.5703-11.348 0.875-1.7812 1.5195-3.0898c1.0938 2.0508 4.2344 4.3555 7.7422 6.1055 0.51563 0.25781 1.0391 0.50391 1.5664 0.73438 0.39844 0.17578 0.80078 0.33984 1.2031 0.5 3.6016 1.4258 7.4141 2.2422 9.7852 1.793zm12.246-23.566c-0.89062-0.61328-1.7891-1.1133-2.6758-1.5156-0.0625 0.058593-0.12891 0.11328-0.21484 0.16016-0.13281 0.078125-0.30859 0.14062-0.5 0.19531-0.26953 0.078125-0.59766 0.125-0.97266 0.15234-1.375 0.09375-3.418-0.17188-5.9219-0.94141-0.77344-0.23828-1.5898-0.52734-2.4414-0.86719-0.39453-0.15625-0.79297-0.32031-1.2031-0.5-0.36328-0.16016-0.71094-0.32031-1.0508-0.48438 1.75-0.46094 6.7969-1.4219 12.242 0.86328 1.1289 0.47266 2.2773 1.0938 3.4141 1.8828 2.0469 1.418 4.0664 3.4062 5.9023 6.1484 0.25781 0.38281 0.50781 0.77734 0.75781 1.1875 0.58203 0.96094 1.1367 2.0117 1.668 3.1484 0.17187 0.37109 0.34766 0.73828 0.51562 1.125l0.082032 0.125c0.28125-0.011719 0.25-0.023438 0.54297-0.023438 0.20313 0 0.40625 0.003907 0.60547 0.007813 2.1484 0.066406 3.9375 0.49219 4.6914 1.0703 0.16406-0.40625 1.0703-0.71875 2.1758-0.71875 1.2188 0 2.207 0.37891 2.207 0.84766s-0.98828 0.84766-2.207 0.84766c-0.73828 0-1.3867-0.14062-1.7852-0.35156-0.019531 0.92969-2.5547 1.6836-5.6836 1.6836-3.1406 0-5.6875-0.75781-5.6875-1.6953 0-0.60938 1.0898-1.1445 2.7148-1.4414 0.35156-0.066406 0.73047-0.11719 1.1289-0.16016-0.17578-0.39453-0.35547-0.78125-0.53906-1.1562-0.54297-1.1133-1.1094-2.1328-1.6992-3.0664-0.25391-0.40234-0.51172-0.79297-0.76953-1.1641-1.6719-2.3711-3.4766-4.1055-5.2969-5.3594zm-0.35156 9.8359c0.4375-1.1172 2.3477-2.2422 5.2891-3.0312 0.58984 0.90234 1.1562 1.8984 1.7031 2.9883-2.9883 0.58203-4.9297 1.5117-4.9297 2.5625 0 0.10547 0.023437 0.21094 0.0625 0.31641-1.1367-0.58203-1.8711-1.2266-2.1211-1.8672-0.0625-0.16016-0.10547-0.32422-0.10547-0.48438-0.003906-0.16016 0.039063-0.32031 0.10156-0.48438zm28.543 6.2852v2.8867c0 0.67578-0.085938 1.332-0.22266 1.9766-0.21875 1.0117-0.60156 1.9766-1.125 2.875-2.1836 3.75-6.7969 6.3516-12.141 6.3516h-1.5625c-7.4375 0-13.488-5.0273-13.488-11.203v-6.1289c2.6445 2.1758 8.5898 3.3281 14.27 3.3281 5.4375 0 11.121-1.0547 13.914-3.0586 0.125-0.089844 0.24219-0.17969 0.35547-0.27344zm0-5.3164c-0.25 0.64062-0.98438 1.2852-2.1211 1.8672 0.039062-0.10547 0.0625-0.21094 0.0625-0.31641 0-1.7656-5.4688-3.1992-12.211-3.1992-1.3164 0-2.582 0.054688-3.7695 0.15625-0.52734-1.1562-1.0781-2.2266-1.6523-3.2148 1.6445-0.22656 3.4609-0.35938 5.4219-0.35938 7.8438 0 13.477 2.0703 14.27 4.0977 0.0625 0.16016 0.10547 0.32422 0.10547 0.48438s-0.042968 0.32422-0.10547 0.48438zm1.3047 8.2031v-3.4375c0.89453-0.3125 1.6367-0.40234 1.9883-0.22266 0.21875 0.11328 0.375 0.56641 0.41797 1.207 0.10938 1.6758-1.0898 2.8828-2.4805 3.707 0.046875-0.41016 0.074219-0.82812 0.074219-1.2539zm-0.80859 4.0391c0.16406-0.40234 0.30469-0.8125 0.41797-1.2344 2.7695-1.3203 4.168-3.1523 4.0234-5.3359-0.074219-1.1406-0.4375-1.8906-1.082-2.2227-0.70703-0.36719-1.6875-0.23438-2.5547 0.023437v-0.98047c0.97266-0.25 2.0938-0.34375 2.9883 0.12109 0.94531 0.48828 1.4922 1.5273 1.5898 3 0.23828 3.6094-2.8047 5.5977-5.3828 6.6289z"/>
</svg>
