<?xml version="1.0" encoding="UTF-8"?>
<svg width="100pt" height="100pt" version="1.1" viewBox="0 0 100 100" xmlns="http://www.w3.org/2000/svg">
 <path d="m24.602 31.801h3.1992l1.6992 55.699c0 0.5 0.5 1 1 1h39.898c0.5 0 1-0.39844 1-1l1.6992-55.699h3.1992c0.30078 0 0.5-0.10156 0.69922-0.30078 0.19922-0.19922 0.30078-0.5 0.30078-0.69922l-0.39844-9.3008c0-0.5-0.5-1-1-1h-2.1016l-1.7969-9c-0.10156-0.5-0.5-0.80078-1-0.80078h-41.199c-0.5 0-0.89844 0.30078-1 0.80078l-1.6992 8.8984h-2.1016c-0.5 0-1 0.39844-1 1l-0.39844 9.3008c0 0.30078 0.10156 0.5 0.30078 0.69922 0.097656 0.20312 0.39844 0.40234 0.69922 0.40234zm44.797 54.699h-38l-1.6992-54.699h41.301zm-38.797-73.801h39.602l1.5 7.6992h-42.602zm-4.7031 9.6992h48.898l0.30078 7.3008h-49.496z"/>
</svg>
