<?xml version="1.0" encoding="UTF-8"?>
<svg width="100pt" height="100pt" version="1.1" viewBox="0 0 100 100" xmlns="http://www.w3.org/2000/svg">
 <g>
  <path d="m70.199 34.199c-0.60156-0.10156-1.1016-0.19922-1.6016-0.19922l-1.3008-6.6016c-0.10156-0.39844-0.39844-0.69922-0.80078-0.80078-17.898-3.8984-32.898 0-33.102 0-0.39844 0.10156-0.60156 0.39844-0.69922 0.80078l-1.3008 7c-1.1016 0.19922-1.6016 0.30078-1.6992 0.30078-0.39844 0.10156-0.80078 0.5-0.80078 0.89844l-0.30078 7c0 0.30078 0.10156 0.60156 0.30078 0.80078 0.19922 0.19922 0.5 0.30078 0.80078 0.30078 0 0 0.80078-0.10156 2.1992-0.19922l0.30078 8.6992c-0.80078 0.10156-1.1992 0.10156-1.1992 0.10156-0.5 0.10156-0.89844 0.5-0.89844 1l0.80078 20.699c0 0.5 0.39844 0.89844 0.80078 1 0 0 0.5 0.10156 1.3008 0.19922l0.30078 8.1992c0 0.5 0.39844 0.89844 0.89844 1 0 0 0.19922 0 0.5 0.10156l0.39844 3.1016c0.10156 0.39844 0.39844 0.80078 0.80078 0.89844 0.10156 0 5.8984 1.1016 14.301 1.1016 4.1992 0 9.1016-0.30078 14.102-1.1016 0.39844-0.10156 0.80078-0.39844 0.80078-0.89844l0.39844-3.1992h0.39844c0.5-0.10156 0.89844-0.5 0.89844-1l0.30078-8.3008c0.39844 0 0.80078-0.10156 1.1992-0.10156 0.5-0.10156 0.89844-0.5 0.89844-1l0.69922-20.801c0-0.5-0.39844-1-0.89844-1-0.39844 0-0.80078-0.10156-1.1992-0.10156l0.30078-8.8008c0.69922 0.10156 1.3984 0.19922 2.1992 0.30078h0.10156c0.19922 0 0.5-0.10156 0.69922-0.30078 0.19922-0.19922 0.30078-0.5 0.30078-0.80078l-0.30078-7.3984c-0.097656-0.49609-0.39844-0.89844-0.89844-0.89844zm-35.598-5.8984c3.3984-0.80078 16.5-3 30.801 0l1 5.3008c-14.898-1.6992-27.102-0.60156-33 0.30078zm28.5 58.199c-12.5 1.8008-23.398 0.39844-26.301 0l-0.19922-1.8984c2.6992 0.30078 7.3008 0.60156 13.199 0.60156 4 0 8.6016-0.19922 13.5-0.60156zm1.6992-4.1016c-14.398 1.6016-26.398 0.39844-29.5 0l-0.30078-7c1.6016 0.19922 3.8008 0.30078 6.6016 0.5 2.5 1.6992 5.3984 2.6992 8.5 2.6992 3.1016 0 6.1016-1 8.6016-2.8008 2.1016-0.10156 4.1992-0.30078 6.3984-0.5zm2.3984-9.3984c-3 0.30078-6 0.5-8.8984 0.69922-0.19922 0-0.39844 0.10156-0.5 0.19922-2.1992 1.6992-4.8984 2.6016-7.6992 2.6016-2.6992 0-5.3008-0.80078-7.5-2.5-0.19922-0.10156-0.30078-0.19922-0.5-0.19922-4.6016-0.19922-7.6992-0.60156-9.1016-0.69922l-0.80078-19.102c1.6016-0.10156 5.1016-0.39844 9.6992-0.60156 0.19922 0 0.39844-0.10156 0.60156-0.19922 2.1992-1.6016 4.8008-2.5 7.6016-2.5 2.6992 0 5.3008 0.80078 7.5 2.3984 0.19922 0.10156 0.39844 0.19922 0.60156 0.19922 3.3984 0.10156 6.6992 0.30078 9.8008 0.60156zm-1.3984-21.199c-2.3984-0.19922-4.8008-0.30078-7.3984-0.39844-2.5-1.6992-5.3984-2.6016-8.3984-2.6016s-6 0.89844-8.5 2.6992c-3 0.10156-5.5 0.30078-7.3008 0.39844l-0.30078-8.8008c6.3984-0.60156 19.199-1.3008 32.199-0.10156zm-35.102-10.402l0.19922-5c3.3984-0.60156 17.898-2.8984 36.5-0.60156 0.10156 0 0.19922 0.10156 0.30078 0.10156h0.10156c0.39844 0.10156 0.89844 0.10156 1.3008 0.19922l0.19922 5.3984c-16.801-2.1953-34-0.59766-38.602-0.097656z"/>
  <path d="m46.301 18.602c-0.60156 0.5-1.3008 1.1992-1.3008 2.5 0 0.60156 0.39844 1 1 1s1-0.39844 1-1c0-0.39844 0.19922-0.60156 0.69922-1 0.60156-0.5 1.3008-1.1992 1.3008-2.5 0-1.3008-0.80078-2-1.3008-2.5s-0.69922-0.60156-0.69922-1c0-0.39844 0.19922-0.60156 0.69922-1 0.60156-0.5 1.3008-1.1992 1.3008-2.5 0-0.60156-0.39844-1-1-1s-1 0.39844-1 1c0 0.39844-0.19922 0.60156-0.69922 1-0.5 0.39844-1.3008 1.0977-1.3008 2.3984s0.80078 2 1.3008 2.5 0.69922 0.60156 0.69922 1c0 0.5-0.19922 0.69922-0.69922 1.1016z"/>
  <path d="m51.801 18.602c-0.60156 0.5-1.3008 1.1992-1.3008 2.5 0 0.60156 0.39844 1 1 1s1-0.39844 1-1c0-0.39844 0.19922-0.60156 0.69922-1 0.60156-0.5 1.3008-1.1992 1.3008-2.5 0-1.3008-0.80078-2-1.3008-2.5s-0.69922-0.60156-0.69922-1c0-0.39844 0.19922-0.60156 0.69922-1 0.60156-0.5 1.3008-1.1992 1.3008-2.5 0-0.60156-0.39844-1-1-1s-1 0.39844-1 1c0 0.39844-0.19922 0.60156-0.69922 1-0.60156 0.5-1.3008 1.1992-1.3008 2.5 0 1.3008 0.80078 2 1.3008 2.5s0.69922 0.60156 0.69922 1c0 0.39844-0.19922 0.59766-0.69922 1z"/>
 </g>
</svg>
