<?xml version="1.0" encoding="UTF-8"?>
<svg width="100pt" height="100pt" version="1.1" viewBox="0 0 100 100" xmlns="http://www.w3.org/2000/svg">
 <g>
  <path d="m89.02 63.34c-0.27734-0.4375-0.72656-0.73438-1.2344-0.82031-6.7148-1.1133-13.57-1.1094-20.285 0.015625-0.49609 0.097656-0.92578 0.40234-1.1797 0.83984-0.25391 0.42969-0.31641 0.94922-0.17578 1.4297l5.2109 17.375-3.4258 11.98c-0.13672 0.46094-0.078126 0.95703 0.16016 1.375 0.25 0.41797 0.65234 0.71875 1.125 0.83984 2.7383 0.60156 5.5352 0.89062 8.3398 0.85547 2.8594 0.003906 5.7109-0.27734 8.5156-0.83594 0.48438-0.10547 0.90625-0.40234 1.1641-0.82422 0.25391-0.42187 0.32422-0.93359 0.19531-1.4102l-3.4297-11.98 5.2148-17.375c0.14453-0.49609 0.070312-1.0273-0.19531-1.4648zm-17.125 29.91 2.6602-9.3203h6.25l2.6445 9.3047-0.003907-0.003906c-3.8281 0.55859-7.7188 0.5625-11.551 0.019531zm8.9297-12.895h-6.2891l-4.375-14.625c4.9961-0.60938 10.043-0.60547 15.035 0.019531z"/>
  <path d="m58.93 39.285c0.019531-4.1055-1.1484-8.1289-3.3672-11.586-2.2188-3.4531-5.3906-6.1914-9.1328-7.8789v-10.891c-0.007813-2.957-2.4023-5.3516-5.3594-5.3594h-7.1406c-2.957 0.007813-5.3516 2.4023-5.3594 5.3594v10.895-0.003907c-3.7422 1.6875-6.9141 4.4258-9.1328 7.8789-2.2188 3.457-3.3867 7.4805-3.3672 11.586l-0.019531 0.55469c0 0.41016-0.019531 0.82031 0.019531 1.2305v0.16016c0 0.28516 0 0.89453 0.019532 1.8203 0.070312 3.7695 0.30469 12.555 1.2305 23.07v0.003906c0.8125 9.6719 2.1914 19.293 4.125 28.805 0.019532 0.12109 0.054688 0.24219 0.10938 0.35547 0.023437 0.09375 0.066406 0.17578 0.125 0.25 0.035156 0.089844 0.089843 0.16797 0.16016 0.23438 0.070312 0.10547 0.16016 0.19531 0.26562 0.26562 0.070312 0.066406 0.14844 0.12109 0.23438 0.16016 0.089844 0.054688 0.18359 0.09375 0.28516 0.125 0.089844 0.042969 0.1875 0.070313 0.28516 0.089844 4.7539 1.293 9.6641 1.8984 14.59 1.8047 4.9258 0.09375 9.8359-0.51172 14.59-1.8047 0.097656-0.019531 0.19531-0.046875 0.28516-0.089844 0.10156-0.03125 0.19531-0.070312 0.28516-0.125 0.085938-0.039062 0.16406-0.09375 0.23438-0.16016 0.35156-0.26953 0.58594-0.66797 0.66016-1.1055 1.9336-9.5117 3.3125-19.133 4.125-28.805 0.94531-10.855 1.1602-19.73 1.2148-23.02v-0.054688c0.019531-0.89453 0.035157-1.5 0.035157-1.7852v-0.19531c0.035156-0.41016 0.019531-0.82031 0.019531-1.2305zm-26.785-30.355c0-0.98438 0.80078-1.7852 1.7852-1.7852h7.1445-0.003907c0.98438 0 1.7852 0.80078 1.7852 1.7852v10.41c-3.5586 0.39062-7.1523 0.39062-10.711 0zm21.965 56.875h-0.003906c-0.76172 9.1953-2.043 18.34-3.8359 27.391v0.019532c-4.1797 1.0234-8.4688 1.5039-12.77 1.4297-4.3008 0.074219-8.5898-0.40625-12.77-1.4297v-0.019532c-1.793-9.0508-3.0742-18.195-3.8359-27.391-0.78516-8.75-1.0703-16.27-1.1797-20.645 5.8867 0.86328 11.832 1.2852 17.785 1.2695 5.9453 0.015624 11.883-0.41016 17.77-1.2695-0.089843 4.1602-0.375 11.734-1.1641 20.645zm1.2461-24.895v0.60938c-11.84 1.7383-23.871 1.7383-35.711 0v-0.60938c-0.027343-0.32031-0.03125-0.64062-0.019531-0.96484 0.019531-0.21484 0.019531-0.44531 0.019531-0.66016-0.019531-3.5469 1.0273-7.0156 3.0039-9.9609 1.9766-2.9453 4.793-5.2305 8.082-6.5547 2.2461 0.30469 4.5078 0.45312 6.7695 0.44531 2.2617 0.007812 4.5234-0.14062 6.7695-0.44531 3.2891 1.3242 6.1055 3.6094 8.082 6.5547 1.9766 2.9453 3.0234 6.4141 3.0039 9.9609 0 0.21484 0 0.44531 0.019531 0.66016 0.011719 0.32422 0.007812 0.64453-0.019531 0.96484z"/>
 </g>
</svg>
