<?xml version="1.0" encoding="UTF-8"?>
<svg width="100pt" height="100pt" version="1.1" viewBox="0 0 100 100" xmlns="http://www.w3.org/2000/svg">
 <path d="m63.891 4.1836c-5.2422 0.17578-10.211 2.375-13.867 6.1406-3.6523 3.7617-5.707 8.793-5.7266 14.039v8.3125c-0.074219-0.015625-0.14844-0.023437-0.22656-0.023437h-13.113c-0.34766 0-0.68359 0.13672-0.9375 0.375-0.25391-0.23828-0.58984-0.375-0.9375-0.375h-13.109c-0.51953 0-0.99609 0.29688-1.2227 0.76562s-0.16406 1.0273 0.16016 1.4336l6.5586 8.2305v0.003907c0.046875 0.058593 0.10156 0.11328 0.15625 0.16406v7.8828h-9.4414v-0.003906c-0.43359 0-0.84766 0.17578-1.1484 0.48828-0.29688 0.30859-0.45703 0.73047-0.4375 1.1641 0.15625 3.7188 2.9531 6.7891 6.6367 7.3008h3.375c0.46484 4.4023 4.1797 7.7461 8.6094 7.7461h0.55469v20.68c-0.003907 3.0117 2.1367 5.5977 5.0938 6.1523 2.957 0.55859 5.8906-1.0742 6.9805-3.8789l4.1562-10.652c0.33594 2.5508 1.3398 4.9688 2.9102 7.0078 0.1875 0.24609 0.28906 0.55078 0.28906 0.86328v4.6094c0 0.85547 0.33984 1.6758 0.94531 2.2812 0.60547 0.60547 1.4258 0.94531 2.2812 0.94531h33.746c0.85547 0 1.6758-0.33984 2.2812-0.94531s0.94531-1.4258 0.94531-2.2812v-31.297c0-1.6953-0.42578-3.3633-1.2344-4.8516 1.4219-5.1875 0.78516-10.719-1.7812-15.445-1.0156-1.875-1.5508-3.9727-1.5469-6.1055v-10.555c-0.023438-5.4766-2.2617-10.715-6.207-14.516-3.9453-3.8008-9.2617-5.8438-14.734-5.6602zm-4.9023 13.02v0.003906c5.0781 5.1641 11.754 8.4609 18.945 9.3477v6.5586c-0.17578 7.2578-6.1094 13.051-13.371 13.051-7.2578 0-13.195-5.793-13.367-13.051v-7.4102c3.625-1.6719 6.4258-4.7305 7.7773-8.4883zm-42.078 17.262h11.227l-5.6133 7.0469zm14.988 0h11.234l-5.6172 7.0469zm-1.8789 0.54688 6.4375 8.0781c0.046875 0.058594 0.10156 0.11328 0.16016 0.16406v7.8828h-13.18v-7.8828h-0.003906c0.058594-0.050781 0.11328-0.10547 0.16016-0.16406zm14.23 0.95312 0.003906 0.003906c-0.14844 1.7695-0.66016 3.4922-1.5117 5.0547-1.6836 3.1016-2.5508 6.582-2.5195 10.113h-1.8008v-7.8828c0.058594-0.050781 0.10938-0.10547 0.16016-0.16406zm14.379 11.125v0.003906c3.793 1.6094 8.0781 1.6094 11.867 0v5.4336l-5.9336 3.0195-5.9336-3.0195zm-46.215 5.8516h36.789v1.7695l0.003906 0.003906c-0.78906 1.8945-2.5 3.2422-4.5234 3.5625h-27.324c-2.6797-0.42969-4.7188-2.6289-4.9453-5.332zm38.602 0h4.4883v9.0195c0.003906 0.39844 0.21875 0.76953 0.5625 0.97266 0.34375 0.20703 0.77344 0.21484 1.125 0.023437l1.3516-0.74609 4.8203 8.8711h-0.003906c0.24219 0.44141 0.70312 0.71484 1.2031 0.71484 0.50391 0 0.96484-0.27344 1.2031-0.71484l4.8203-8.8711 1.3516 0.74609h-0.003906c0.35547 0.19141 0.78516 0.1875 1.1289-0.019531 0.34766-0.20312 0.5625-0.57422 0.5625-0.97656v-9.0117h4.4883v16.059h-7.8828c-0.48438-0.003906-0.95312 0.19141-1.2969 0.53516-0.34766 0.34375-0.53906 0.80859-0.53906 1.2969v4.9258c0 0.48438 0.19141 0.95312 0.53906 1.2969 0.34375 0.34375 0.8125 0.53516 1.2969 0.53516h11.199c0.14844 3.0391-0.78906 6.0312-2.6445 8.4414-0.43359 0.5625-0.66797 1.2539-0.66797 1.9648v6.0273h-25.691c-0.375 0-0.73438-0.14844-1.0039-0.41406-0.26562-0.26563-0.41406-0.625-0.41406-1.0039v-4.6094c0-0.71094-0.23828-1.4023-0.67187-1.9648-3.7812-4.918-3.4961-11.836 0.67969-16.422zm28.914 0.027344v0.003906c4.332 0.375 7.6562 4 7.6562 8.3477v31.293c0 0.78125-0.63281 1.4141-1.4102 1.418h-6.2422v-6.0273h-0.003906c0-0.3125 0.10547-0.61328 0.29297-0.85938 2.2188-2.8789 3.2812-6.4805 2.9844-10.102 0.33594-0.33984 0.52344-0.80078 0.52344-1.2773v-4.9258c0-1.0117-0.81641-1.8281-1.8281-1.832h-1.9688zm-22.625 0.91016 6.5312 3.3203-6.5312 3.625zm14.512 0v6.9453l-6.5312-3.625zm-22.613 4.0234v9.0391l-7.0703 18.098-0.83594-21.438 0.003906 0.003907c-0.050781-1.3047-0.5625-2.5508-1.4414-3.5195h4.957c1.6602-0.22656 3.2031-0.99219 4.3906-2.1797zm15.359 0.96484 4.4414 2.4648-4.4414 8.1758-4.4414-8.1758zm-42.137 1.2148h13.34l0.003906 0.003907c2.0039 0.003906 3.6523 1.5859 3.7305 3.5898l0.089844 2.3477h-10.371c-3.4297 0-6.3281-2.5352-6.7812-5.9375zm9.1445 7.7461h8.082l0.78906 20.508 0.003906 0.003906c0.050782 1.1953-0.38281 2.3594-1.1992 3.2305-0.82031 0.87109-1.9531 1.375-3.1484 1.3984-1.1953 0.023438-2.3477-0.4375-3.1992-1.2734-0.85156-0.83984-1.3281-1.9844-1.3242-3.1797zm38.656 2.9766h11.664v4.9258h-11.664z"/>
</svg>
