<?xml version="1.0" encoding="UTF-8"?>
<svg width="100pt" height="100pt" version="1.1" viewBox="0 0 100 100" xmlns="http://www.w3.org/2000/svg">
 <g>
  <path d="m63.906 4.1836c-5.2461 0.17578-10.215 2.375-13.871 6.1367-3.6523 3.7617-5.707 8.7969-5.7266 14.043v8.3125c-0.078125-0.015625-0.15234-0.023437-0.22656-0.023437h-13.113c-0.35156 0-0.6875 0.13281-0.94141 0.37891-0.25-0.24609-0.58984-0.37891-0.9375-0.37891h-13.117c-0.51953 0-0.99219 0.30078-1.2188 0.76953-0.22656 0.46875-0.16406 1.0234 0.16016 1.4336l6.5547 8.2266c0.046875 0.058594 0.10156 0.11719 0.15625 0.16797v7.8828h-9.4492c-0.42969 0-0.84375 0.17578-1.1406 0.48828s-0.45703 0.73047-0.4375 1.1602c0.15625 3.7188 2.9492 6.7891 6.6328 7.3008h3.3828c0.46484 4.4062 4.1797 7.75 8.6094 7.75h0.54688v20.68c-0.003906 3.0078 2.1367 5.5898 5.0938 6.1484 2.9531 0.55469 5.8867-1.0742 6.9766-3.875l4.1562-10.656c0.33594 2.5508 1.3438 4.9688 2.9141 7.0078 0.1875 0.24609 0.29297 0.55078 0.29297 0.86328v4.6133c0 1.7773 1.4453 3.2227 3.2266 3.2188h33.75c1.7812 0.003907 3.2227-1.4414 3.2266-3.2188v-31.297c0-1.6992-0.42578-3.3672-1.2344-4.8594 1.4219-5.1836 0.78516-10.715-1.7773-15.441-1.0195-1.8711-1.5508-3.9727-1.5508-6.1055v-10.555c-0.023438-5.4766-2.2617-10.715-6.207-14.516-3.9453-3.8008-9.2617-5.8438-14.734-5.6602zm1.3945 1.918h-0.003906c4.7344 0.18359 9.2188 2.1836 12.52 5.5859 3.3008 3.3984 5.168 7.9375 5.2148 12.676v10.555c0 2.4336 0.60938 4.8281 1.7695 6.9648 2.0898 3.8477 2.7891 8.3008 1.9727 12.605-1.9336-2.1367-4.6797-3.3555-7.5586-3.3516h-5.9727l-0.92578 0.46875v-5.4336l-0.003906 0.003906c4.6172-2.7344 7.4453-7.6992 7.4453-13.062v-6.5547c0-0.91406-0.68359-1.6875-1.5938-1.8008-6.7852-0.83594-13.086-3.9453-17.875-8.8242-0.44141-0.44141-1.0742-0.63281-1.6836-0.49609-0.60938 0.13281-1.1094 0.56641-1.3203 1.1562-1.1875 3.3008-3.6484 5.9883-6.8359 7.457-0.64453 0.29688-1.0586 0.94141-1.0625 1.6523v7.4102c0.003906 5.3633 2.832 10.328 7.4453 13.062v5.4336l-0.92578-0.46875h-13.859l-0.003906-0.003906c-0.03125-3.2305 0.76172-6.4141 2.3008-9.2539 1.1602-2.1367 1.7695-4.5312 1.7695-6.9648v-10.555c0.050781-4.9883 2.1172-9.7461 5.7305-13.188 3.6133-3.4375 8.4648-5.2695 13.449-5.0742zm-6.293 11.105v-0.003906c5.0742 5.168 11.754 8.4648 18.945 9.3516v6.5625c0 7.3906-5.9922 13.379-13.379 13.379s-13.375-5.9883-13.375-13.379v-7.4102c3.6289-1.6719 6.4375-4.7305 7.7891-8.4883zm-42.086 17.258h11.234l-5.6172 7.0508zm14.988 0h11.234l-5.6133 7.0508zm-1.875 0.55078 6.4336 8.0742-0.003906-0.003906c0.050781 0.0625 0.10156 0.11719 0.16016 0.16797v7.8828h-13.18v-7.8828c0.058594-0.050781 0.11328-0.10547 0.16016-0.16797zm14.234 0.94922h-0.003906c-0.14453 1.7695-0.65625 3.4961-1.5039 5.0586-1.6875 3.1016-2.5586 6.582-2.5273 10.113h-1.8008v-7.8828h-0.003906c0.058593-0.050781 0.11328-0.10547 0.16016-0.16797zm14.379 11.129h-0.003907c3.7891 1.6094 8.0742 1.6094 11.867 0v5.4336l-5.9336 3.0195-5.9375-3.0195zm-46.223 5.8477h36.793v1.7734l-0.003906 0.003906c-0.78516 1.8906-2.4961 3.2383-4.5195 3.5586h-27.32c-2.6836-0.42188-4.7305-2.6289-4.9531-5.3359zm38.602 0h4.4922v9.0195h-0.003906c0 0.40625 0.21094 0.78125 0.5625 0.98437 0.34766 0.20703 0.78125 0.21094 1.1367 0.015626l1.3438-0.74609 4.8203 8.8711c0.23828 0.4375 0.69922 0.71094 1.1992 0.71094 0.50391 0 0.96484-0.27344 1.2031-0.71094l4.8203-8.8711 1.3398 0.74609c0.35547 0.19531 0.78516 0.19141 1.1367-0.015626 0.34766-0.20312 0.5625-0.57812 0.5625-0.98437v-9.0195h4.4922v16.066h-7.8906c-1.0117 0-1.832 0.82031-1.832 1.832v4.9258c0 1.0117 0.82031 1.832 1.832 1.8359h11.203c0.14844 3.0352-0.78516 6.0273-2.6406 8.4375-0.43359 0.56641-0.67188 1.2578-0.67188 1.9688v6.0273h-25.699v-0.003906c-0.78125 0-1.4102-0.63281-1.4102-1.4141v-4.6094c-0.003907-0.71094-0.23828-1.4023-0.67188-1.9688-3.7852-4.9141-3.5039-11.836 0.67188-16.422zm28.922 0.03125h-0.003907c4.332 0.375 7.6602 4 7.6602 8.3477v31.297c0 0.375-0.15234 0.73828-0.41797 1-0.26172 0.26562-0.625 0.41797-1 0.41797h-6.2422v-6.0273c0-0.3125 0.10156-0.61328 0.29297-0.86328 2.2148-2.875 3.2812-6.4766 2.9844-10.098 0.33594-0.34375 0.52344-0.80078 0.52734-1.2812v-4.9258c-0.003906-1.0078-0.82031-1.8281-1.832-1.832h-1.9688zm-22.621 0.91016 6.5312 3.3203-6.5312 3.625zm14.512 0v6.9453l-6.5312-3.625zm-22.621 4.0234v9.0391l-7.0703 18.098-0.82422-21.441-0.003907 0.007813c-0.050781-1.3086-0.5625-2.5547-1.4414-3.5195h4.957c1.6602-0.23438 3.1953-0.99609 4.3789-2.1797zm15.363 0.96484 4.4375 2.4648-4.4375 8.1758-4.4414-8.1758zm-42.141 1.2148h13.34l-0.003906 0.003906c2.0078-0.003906 3.6602 1.582 3.7383 3.5898l0.089844 2.3477h-10.371c-3.4336 0-6.3359-2.5391-6.7891-5.9375zm9.1523 7.75h8.0781l0.78906 20.508c0.050781 1.1953-0.38281 2.3594-1.1992 3.2305-0.82031 0.87109-1.9531 1.375-3.1484 1.3984-1.1953 0.023438-2.3477-0.4375-3.1992-1.2773-0.85156-0.83594-1.3281-1.9844-1.3242-3.1797zm38.652 2.9766h11.668v4.9258h-11.668z"/>
  <path d="m73.332 29.41c0.003907-0.48047-0.18359-0.94531-0.52344-1.2852-0.33594-0.34375-0.79688-0.53516-1.2773-0.53516s-0.94141 0.19141-1.2812 0.53516c-0.33984 0.33984-0.52734 0.80469-0.52344 1.2852-0.003906 0.48047 0.18359 0.94141 0.52344 1.2852 0.33984 0.33984 0.80078 0.53516 1.2812 0.53516s0.94141-0.19531 1.2773-0.53516c0.33984-0.34375 0.52734-0.80469 0.52344-1.2852z"/>
  <path d="m59.426 29.41c0-0.99609-0.80469-1.8047-1.8008-1.8047s-1.8047 0.80859-1.8047 1.8047 0.80859 1.8008 1.8047 1.8008 1.8008-0.80469 1.8008-1.8008z"/>
  <path d="m68.508 36.203c0.14063-0.48047-0.13281-0.98438-0.61328-1.125-0.47656-0.14453-0.98047 0.12891-1.125 0.60938-0.28516 0.97266-1.1797 1.6406-2.1914 1.6406-1.0156 0-1.9062-0.66797-2.1953-1.6406-0.14844-0.47266-0.64453-0.73828-1.1211-0.59766-0.47266 0.14062-0.74609 0.63672-0.61328 1.1133 0.51172 1.7383 2.1133 2.9375 3.9297 2.9375s3.4141-1.1992 3.9297-2.9375z"/>
 </g>
</svg>
