<?xml version="1.0" encoding="UTF-8"?>
<svg width="100pt" height="100pt" version="1.1" viewBox="0 0 100 100" xmlns="http://www.w3.org/2000/svg">
 <g>
  <path d="m40.312 32.84c0.59766 0 1.1211-0.29688 1.4453-0.74609 0.015626 0 0.035157 0.003906 0.050782 0.003906 0.58594 0 1.2031-0.09375 1.7539-0.33203 0.40234-0.17188 0.58984-0.64062 0.41797-1.043s-0.64062-0.58984-1.043-0.41797c-0.29297 0.125-0.62109 0.17578-0.94141 0.19141-0.003906-0.007813-0.003906-0.015625-0.007813-0.027344 0.19531-0.13672 0.375-0.29297 0.52734-0.48828 0.26562-0.34766 0.20312-0.84766-0.14453-1.1133-0.34766-0.26563-0.84766-0.20313-1.1133 0.14453-0.15234 0.19531-0.34766 0.27344-0.5625 0.30078-0.125-0.027344-0.25-0.042969-0.38281-0.042969-0.98438 0-1.7812 0.79688-1.7812 1.7812 0 0.99219 0.79688 1.7891 1.7812 1.7891z"/>
  <path d="m26.062 29.277c-0.13281 0-0.25781 0.015625-0.38281 0.042968-0.21094-0.027343-0.41016-0.10547-0.5625-0.30078-0.26563-0.34766-0.76563-0.41406-1.1133-0.14453-0.34766 0.26562-0.41406 0.76562-0.14453 1.1133 0.15234 0.19922 0.33203 0.35156 0.52734 0.48828-0.003907 0.007813-0.003907 0.011719-0.007813 0.019532-0.33594-0.011719-0.67188-0.0625-0.93359-0.17969-0.40234-0.17969-0.87109 0-1.0469 0.40234-0.17969 0.39844 0 0.86719 0.40234 1.0469 0.51562 0.23047 1.1367 0.32031 1.7344 0.32031 0.023438 0 0.046875-0.003907 0.070313-0.003907 0.32422 0.45703 0.85547 0.75781 1.457 0.75781 0.98438 0 1.7812-0.79688 1.7812-1.7812s-0.79688-1.7812-1.7812-1.7812z"/>
  <path d="m27.316 21.859c-0.11328-0.019531-2.7344-0.46094-4.7148 0.93359-0.35937 0.25391-0.44531 0.74609-0.19141 1.1055 0.15625 0.21875 0.39844 0.33594 0.64844 0.33594 0.15625 0 0.31641-0.046875 0.45703-0.14453 1.4336-1.0117 3.5039-0.67188 3.5273-0.66797 0.43359 0.074219 0.83984-0.21484 0.91797-0.64453 0.074218-0.42969-0.21094-0.83984-0.64453-0.91797z"/>
  <path d="m40.152 23.426c0.019531-0.003906 2.1016-0.33594 3.5234 0.66797 0.14062 0.097656 0.29688 0.14453 0.45703 0.14453 0.25 0 0.49609-0.11719 0.64844-0.33594 0.25391-0.35938 0.16797-0.85156-0.19141-1.1055-1.9805-1.3945-4.6055-0.95312-4.7148-0.93359-0.43359 0.078125-0.71875 0.48828-0.64453 0.91797 0.078125 0.42969 0.48828 0.71484 0.92188 0.64453z"/>
  <path d="m90.398 51.68c0.82031 0.45703 1.7383 0.70312 2.6992 0.70312 3.1172 0 5.6523-2.5352 5.6523-5.6523 0-3.1094-2.5352-5.6445-5.6523-5.6445-2.8438 0-5.1953 2.1133-5.582 4.8516h-10.34c-0.30078 0-0.57422 0.16797-0.71094 0.4375-0.13281 0.26953-0.10547 0.58984 0.074218 0.83203l7.8047 10.453v9.0234l-7.3438 3.3867h-4.7227l-5.793-3.3398v-11.762c3.5039-0.39453 6.2383-3.375 6.2383-6.9844v-2.9375c3.0547-0.39062 5.4219-3 5.4219-6.1562 0-3.4258-2.7891-6.2148-6.2148-6.2148-3.1562 0-5.7656 2.3672-6.1562 5.418h-6.3203c-0.4375 0-0.79297 0.35547-0.79297 0.79297v9.1016c0 3.6094 2.7344 6.5859 6.2383 6.9844v11.766l-5.793 3.3398h-5.25c-0.13672-0.16016-0.26562-0.3125-0.39453-0.45703-0.03125-0.035156-0.058594-0.0625-0.089844-0.097656-0.003906-0.003907-0.007813-0.007813-0.007813-0.011719-4.957-5.5312-10.359-8.2266-14.211-9.5352v-5.4414c5.1875-1.8945 9.2773-6.0195 10.996-8.8867 0.46094-0.76953 0.89453-1.7148 1.2969-2.7969 2.3398-0.035156 4.5391-1.7344 5.4961-4.3359 1.2148-3.3086-0.066406-6.9062-2.8594-8.0195 1.7852-5.9844 1.1523-15.504-3.6289-22.27-3.8008-5.3828-9.6406-8.2266-16.895-8.2266-4.4219 0-8.3125 1.0469-11.539 3.0586-1.1094-0.84375-3.043-1.5547-5.1211-0.46094-0.14063-0.30859-0.33984-0.64062-0.64844-0.96484-0.95312-1.0039-2.4883-1.5156-4.5664-1.5273-1.6641 0-3.1094 0.73047-4.3398 2.1914-6.2812 7.4648-5.1055 32.438-3.1211 43.531 1.0117 5.5273-0.28516 12.492-2.5703 13.801-0.25781 0.14844-0.41406 0.42969-0.39844 0.73047 0.015625 0.29688 0.19531 0.5625 0.46875 0.68359 1.7539 0.78125 3.5781 1.168 5.3789 1.168 2.4727 0 4.9102-0.73047 7.082-2.168 3.4961-2.3203 5.7969-6.1523 6.2695-10.293 2.0117 1.8906 4.6172 3.707 7.5859 4.793l0.003907 5.4414c-8.5625 2.8828-22.77 11.785-26.184 39.125-0.027344 0.22656 0.042969 0.45312 0.19141 0.625 0.15234 0.16797 0.36719 0.26562 0.59375 0.26562h65.871 0.003906c1.1602-0.003906 2.0742-0.40234 2.7148-1.1875 1.8281-2.2344 1.2695-7.4766-0.44922-16.301l8.25-2.3945c2.0898-0.53516 2.8555-2.0938 2.6914-3.4062-0.039062-0.30469-0.13281-0.58594-0.25391-0.84766h11.887c0.4375 0 0.79297-0.35547 0.79297-0.79297v-4.207c0-0.4375-0.35547-0.79297-0.79297-0.79297h-0.085937l-7.3438-3.3867v-9.0234zm-9.3672-1.1094h8.2109l-4.1055 5.5zm12.066-7.8984c2.2422 0 4.0625 1.8203 4.0625 4.0547 0 2.2422-1.8242 4.0625-4.0625 4.0625-0.61328 0-1.1992-0.14453-1.7383-0.40625l2.375-3.1836c0.17969-0.24219 0.20703-0.5625 0.074219-0.83203-0.13672-0.26953-0.41016-0.4375-0.71094-0.4375h-3.9805c0.37109-1.8516 2.0156-3.2578 3.9805-3.2578zm-1.582 4.8516-1.0898 1.457-10.578 0.003906-1.0898-1.457zm-19.582-13.262c2.5508 0 4.6289 2.0742 4.6289 4.6289 0 2.2812-1.6602 4.1797-3.8359 4.5547v-4.5586c0-0.4375-0.35547-0.79297-0.79297-0.79297h-4.5508c0.375-2.1758 2.2695-3.832 4.5508-3.832zm-5.4414 5.418c0.007812 0 0.011718 0.003906 0.015624 0.003906 0.007813 0 0.011719-0.003906 0.015626-0.003906h4.6055v1.8438h-10.879v-1.8438zm-6.2422 8.3047v-4.875h10.887v4.875c0 3-2.4414 5.4414-5.4414 5.4414-3.0039 0.003907-5.4453-2.4375-5.4453-5.4414zm5.4414 20.121 3.4062 1.9648h-6.8164zm-12.039 24.496c1.1602-1.1211 3.0859-1.9609 4.8281-2.4102-0.17969 3.3008-0.10547 6.4023 0.53906 8.2227h-5.3516zm6.1328-13.914c-0.53125-0.91406-1.1211-1.8711-1.7344-2.8203h2.9453c-0.71094 0.89844-1.0898 2.1484-1.2109 2.8203zm-0.38281 2.5898c-0.29688 2.0938-0.61719 4.6797-0.81641 7.2539-1.5547 0.34766-3.4375 1.0273-4.9414 2.043l-0.042969-18.281c1.8711 2.418 4.2539 6.0039 5.8008 8.9844zm-17.523-18.484-1.2539 2.0273-0.99609-2.9922c0.70703 0.26953 1.4609 0.58984 2.25 0.96484zm-12.059 7.3125c0.92969 0.046875 1.9141 0.23047 2.9609 0.54688v4.2539zm-1.543-1.543c-0.46094 0.046875-0.91406 0.11328-1.3516 0.22266l0.63281-1.8984c0-0.003907 0.003906-0.003907 0.003906-0.007813l1.4219-4.2578 3.0859 6.1992c-0.95312-0.21094-1.8672-0.3125-2.75-0.3125-0.32812 0-0.64844 0.027344-0.96484 0.054688-0.027344 0-0.050781-0.003906-0.078125 0zm6.0938 2.0742c0.99219-0.32422 1.9805-0.5 2.9727-0.51953l-2.9727 4.8008zm3.168-2.1094c-0.8125 0-1.625 0.085937-2.4297 0.25781l3.1055-6.1758 2.0859 6.2461c-0.92578-0.21875-1.8438-0.32812-2.7617-0.32812zm17.914-30.562c-0.63281 1.7188-1.9922 2.9336-3.4492 3.2188 0.76562-2.5312 1.3711-5.6289 1.7617-9.0703 1.8008 0.92969 2.5664 3.4609 1.6875 5.8516zm-6.293-28.828c4.0156 5.6875 4.9141 13.438 3.8594 19.02-1.9102-5.6094-4.332-9.4375-7.3516-11.617 1.0469-0.66797 1.4297-1.2969 1.4648-1.3516 0.21484-0.375 0.089844-0.84375-0.28125-1.0703-0.37109-0.22266-0.85547-0.10156-1.0859 0.26172-0.015625 0.023438-1.4922 2.25-7.375 2.25-6.0586 0-11.027-6.3164-11.074-6.3789-0.26953-0.34766-0.76562-0.41016-1.1133-0.14062s-0.41016 0.76562-0.14453 1.1133c0.14062 0.18359 2.3242 2.957 5.6562 4.957-0.84375 0.23047-2.1523 0.44922-4.0977 0.44922-4.0781 0-6.3945-3.6719-6.4141-3.707-0.23047-0.37109-0.71484-0.49219-1.0898-0.26172-0.375 0.23047-0.49219 0.71875-0.26172 1.0898 0.054688 0.089844 0.73047 1.1641 1.9844 2.2344-4.2344 3.4023-6.5039 7.8828-7.7148 11.805-0.98047-5.6367-0.074219-13.238 3.8281-18.734 3.5156-4.9531 8.7695-7.4688 15.609-7.4688 6.8086 0 12.059 2.543 15.602 7.5508zm-33.969 32.051c-1.457-0.28516-2.8164-1.5-3.4492-3.2188-0.87891-2.3906-0.11328-4.9219 1.6875-5.8516 0.38672 3.4375 0.99609 6.5391 1.7617 9.0703zm5.4141-37.152c-1.4922 1.1406-2.8203 2.5078-3.957 4.1094-0.17969 0.25391-0.34375 0.51953-0.51172 0.78516-0.31641-0.53906-0.62891-1.2773-0.60156-2.0586 0.027344-0.79297 0.38672-1.5 1.1055-2.1602 1.6445-1.5117 3.1055-1.1484 3.9648-0.67578zm-7.2969 54.676c-2.9414 1.9492-6.4375 2.4102-9.7539 1.3281 2.3555-2.8125 3.1602-9.4414 2.2344-14.5-2.4023-13.402-2.5078-35.953 2.7695-42.227 0.92578-1.0977 1.9688-1.6289 3.1172-1.625 1.582 0.007812 2.7578 0.35547 3.3945 1.0078 0.30078 0.30859 0.42969 0.625 0.48438 0.85156-1.0273 0.94922-1.5703 2.0469-1.6133 3.2695-0.054687 1.5977 0.78516 2.9531 1.293 3.625-3.4766 6.4688-3.7812 14.523-2.1289 20.051h-0.003907c-2.793 1.1133-4.0742 4.7109-2.8594 8.0195 0.95703 2.6055 3.1562 4.3047 5.4961 4.3359 0.40234 1.082 0.83594 2.0273 1.2969 2.7969 0.46875 0.78125 1.1172 1.6523 1.9102 2.5469-0.003906 4.1953-2.1484 8.2031-5.6367 10.52zm5.0977-13.883c-1.5898-2.6445-2.8906-7.7852-3.4922-13.758 0.87109-4.2695 3.0156-10.098 8.2539-14.117 1.1797 0.71484 2.6641 1.2656 4.4453 1.2656 3.4688 0 5.2188-0.65234 5.9766-1.0586 1.4648 0.63672 3.082 1.0586 4.7969 1.0586 2.4961 0 4.3125-0.38281 5.6289-0.87109 3.4961 2.1055 6.2031 6.6094 8.2617 13.754-0.60156 5.957-1.9023 11.082-3.4883 13.727-2.1211 3.5352-8.1172 9.1406-15.191 9.1406-7.0742 0-13.074-5.6055-15.191-9.1406zm15.191 10.727c1.3672 0 2.6953-0.19922 3.9688-0.53125v5.3398l-3.9883 7.9258-3.9453-7.9258-0.003906-5.3398c1.2773 0.33594 2.6016 0.53125 3.9688 0.53125zm-7.0273 9.2773-1.2617-2.0469c0.78125-0.36719 1.543-0.6875 2.2656-0.96094zm-2.6836-1.3242 2.0312 3.2891-1.0078 3.0156c-0.10156 0.30078-0.011718 0.62891 0.22266 0.84375 0.23438 0.21094 0.57422 0.26172 0.85938 0.13281 0.63672-0.29297 1.3125-0.48437 2.0156-0.59375l4.8906 7.9297c0.027343 0.046875 0.066406 0.085938 0.10156 0.125 0.007812 0.007812 0.011719 0.015625 0.019531 0.023438 0.0625 0.0625 0.14062 0.11328 0.22266 0.14844 0.019531 0.007813 0.039062 0.015625 0.058593 0.023437 0.085938 0.03125 0.17969 0.054688 0.27344 0.054688 0.097656 0 0.1875-0.023438 0.27344-0.054688 0.019532-0.007812 0.039063-0.015624 0.058594-0.023437 0.082031-0.039063 0.15625-0.085937 0.21875-0.14844 0.007812-0.007813 0.011719-0.015626 0.019531-0.027344 0.035157-0.039063 0.070313-0.078125 0.097657-0.12109l4.8789-7.8789c0.70312 0.11328 1.4141 0.29688 2.1289 0.5625 0.28516 0.10547 0.60938 0.039062 0.82812-0.17188 0.21875-0.21094 0.29688-0.53125 0.20312-0.82031l-1.0117-3.0352 2.0234-3.2656c2.7617 1.4922 5.8125 3.6797 8.7148 6.8711l0.070313 28.027h-36.895v-28.082c2.8711-3.1484 5.8984-5.3242 8.7031-6.8242zm-10.289 27.629h-8.6953c1.9961-8.3672 5.1562-14.48 8.6953-18.938zm-9.0547 1.5859h9.0547v5.6914h-10.047c0.26953-2.0039 0.60938-3.8945 0.99219-5.6914zm74.078-14.137-8.9688 2.6016c-0.039063 0.011719-0.070313 0.039062-0.10547 0.054688-0.050781 0.023437-0.10156 0.042968-0.14453 0.074218-0.042969 0.03125-0.070313 0.070313-0.10547 0.10547-0.035156 0.039063-0.070313 0.070313-0.097656 0.11328-0.027344 0.042969-0.042969 0.09375-0.058594 0.14062s-0.039063 0.089844-0.046875 0.14062c-0.007812 0.050782-0.003906 0.10547 0 0.16016 0 0.042969-0.007812 0.082032 0 0.12109 1.6055 8.1328 2.3789 13.914 0.91797 15.699-0.21094 0.25781-0.59766 0.60547-1.4961 0.60938h-7.75c-1.207-1.6367-0.99219-9.4492 0.55078-19.227 0.027344-0.45313 0.50391-2.1211 1.2227-2.6602 0.58203-0.43359 1.3477-0.65625 2.2812-0.65625 1.4805 0 4.1289-0.003906 6.7305-0.003906h0.003907c0.39844 0 0.40234 0.14844 0.40625 0.21875 0.007812 0.17188-0.125 0.50781-0.54688 0.54297l-3.8828 0.69141c-0.43359 0.078125-0.71875 0.48828-0.64062 0.92188 0.066406 0.38281 0.40234 0.65234 0.78125 0.65234 0.046875 0 0.09375-0.003907 0.14062-0.011719l3.8047-0.67969c1.2422-0.097656 1.9688-1.207 1.9297-2.1797-0.003906-0.050781-0.011719-0.10547-0.019531-0.15625h5.3164c0.87109 0 1.2539 0.5625 1.3125 1.043 0.070312 0.58203-0.28125 1.3633-1.5352 1.6836zm13.945-4.3086h-35.57c-0.63281-0.92969-1.2695-1.8164-1.8789-2.6172h37.449zm-11.777-4.207 4.3477-2.0039 4.3477 2.0039z"/>
  <path d="m36.379 33.887c-0.11719-0.42188-0.55859-0.66406-0.98047-0.54688-1.4414 0.40625-2.8906 0.40625-4.3281 0-0.41797-0.11719-0.85937 0.125-0.98047 0.54688s0.125 0.85938 0.54688 0.98047c0.85938 0.24219 1.7344 0.36719 2.5977 0.36719s1.7383-0.125 2.5977-0.36719c0.42188-0.12109 0.66797-0.55859 0.54688-0.98047z"/>
 </g>
</svg>
