<?xml version="1.0" encoding="UTF-8" standalone="no"?>
<!DOCTYPE svg PUBLIC "-//W3C//DTD SVG 1.1//EN" "http://www.w3.org/Graphics/SVG/1.1/DTD/svg11.dtd">
<svg width="100%" height="100%" viewBox="0 0 60 60" version="1.1" xmlns="http://www.w3.org/2000/svg" xmlns:xlink="http://www.w3.org/1999/xlink" xml:space="preserve" xmlns:serif="http://www.serif.com/" style="fill-rule:evenodd;clip-rule:evenodd;stroke-linejoin:round;stroke-miterlimit:2;">
    <g id="Artboard1" transform="matrix(1,0,0,1,-20,-29)">
        <rect x="20" y="29" width="60" height="60" style="fill:none;"/>
        <g transform="matrix(0.785287,0,0,0.785287,12.9841,11.9496)">
            <g>
                <g transform="matrix(0.878712,0,0,0.878712,2.56438,12.7756)">
                    <path d="M46.629,44.066C46.496,44.418 46.422,44.789 46.422,45.164C46.422,45.441 46.465,45.718 46.539,45.988C33.129,47.336 22.727,56.375 22.727,67.297C22.727,67.711 23.063,68.047 23.477,68.047L76.524,68.047C76.938,68.047 77.274,67.711 77.274,67.297C77.274,56.375 66.872,47.336 53.462,45.992C53.536,45.722 53.579,45.445 53.579,45.168C53.579,44.789 53.505,44.422 53.372,44.07C56.193,43.75 58.99,42.976 58.99,41.371C58.99,39.09 53.341,38.484 50.001,38.484C46.661,38.484 41.013,39.093 41.013,41.371C41.013,42.972 43.81,43.75 46.63,44.066L46.629,44.066ZM75.754,66.546L24.246,66.546C24.754,55.87 36.113,47.312 50,47.312C63.887,47.312 75.246,55.871 75.754,66.546ZM51.777,44.214C51.941,44.452 52.078,44.773 52.078,45.163C52.078,45.347 52.047,45.527 51.98,45.706C51.277,45.667 50.625,45.648 49.996,45.648C49.371,45.648 48.718,45.667 48.011,45.706C47.949,45.527 47.914,45.347 47.914,45.163C47.914,44.769 48.05,44.452 48.214,44.214C48.332,44.222 48.457,44.218 48.578,44.222C49.078,44.245 49.558,44.257 49.996,44.257C50.433,44.257 50.914,44.245 51.414,44.222C51.535,44.218 51.66,44.222 51.777,44.214ZM50,39.98C54.355,39.98 57.047,40.839 57.461,41.366C57.097,41.827 55,42.542 51.574,42.714C51.554,42.714 51.539,42.718 51.519,42.718C51.136,42.737 50.73,42.741 50.316,42.745C50.105,42.749 49.898,42.749 49.691,42.745C49.277,42.741 48.867,42.734 48.488,42.718C48.468,42.718 48.453,42.714 48.433,42.714C45,42.546 42.902,41.827 42.539,41.37C42.953,40.843 45.644,39.98 50,39.98Z" style="fill-rule:nonzero;"/>
                </g>
                <g transform="matrix(0.878712,0,0,0.878712,2.56438,12.7756)">
                    <path d="M35.75,53.289C31.707,55.941 29.07,59.293 27.914,63.254C27.797,63.652 28.027,64.066 28.426,64.183C28.496,64.203 28.566,64.215 28.637,64.215C28.961,64.215 29.262,64.004 29.356,63.676C30.41,60.066 32.836,56.996 36.574,54.543C36.922,54.316 37.016,53.851 36.789,53.504C36.563,53.16 36.098,53.062 35.75,53.289Z" style="fill-rule:nonzero;"/>
                </g>
                <g transform="matrix(0.878712,0,0,0.878712,2.56438,12.7756)">
                    <path d="M43.375,49.652C42.609,49.757 41.84,50.062 41.332,50.261L41.07,50.363C40.68,50.507 40.48,50.937 40.625,51.328C40.734,51.632 41.023,51.82 41.328,51.82C41.414,51.82 41.504,51.804 41.586,51.773L41.879,51.66C42.32,51.484 42.988,51.222 43.578,51.14C43.988,51.082 44.273,50.703 44.219,50.293C44.164,49.879 43.781,49.59 43.375,49.652Z" style="fill-rule:nonzero;"/>
                </g>
                <g transform="matrix(0.878712,0,0,0.878712,2.56438,12.7756)">
                    <path d="M64.551,40.785C64.676,40.867 64.817,40.902 64.957,40.902C65.203,40.902 65.446,40.781 65.59,40.558L71.91,30.734C72.133,30.387 72.035,29.922 71.684,29.699C71.336,29.476 70.871,29.578 70.649,29.926L64.328,39.75C64.102,40.097 64.199,40.562 64.551,40.785Z" style="fill-rule:nonzero;"/>
                </g>
                <g transform="matrix(0.878712,0,0,0.878712,2.56438,12.7756)">
                    <path d="M76.32,51.145C76.406,51.145 76.496,51.129 76.582,51.098L86.613,47.348C86.999,47.204 87.199,46.77 87.054,46.383C86.91,45.997 86.476,45.801 86.089,45.942L76.058,49.692C75.672,49.836 75.472,50.27 75.617,50.657C75.73,50.957 76.015,51.145 76.32,51.145Z" style="fill-rule:nonzero;"/>
                </g>
                <g transform="matrix(0.878712,0,0,0.878712,2.56438,12.7756)">
                    <path d="M34.414,40.562C34.559,40.785 34.801,40.906 35.047,40.906C35.187,40.906 35.328,40.867 35.453,40.789C35.801,40.566 35.902,40.101 35.68,39.753L29.359,29.929C29.133,29.581 28.672,29.48 28.324,29.703C27.976,29.925 27.875,30.39 28.098,30.738L34.414,40.562Z" style="fill-rule:nonzero;"/>
                </g>
                <g transform="matrix(0.878712,0,0,0.878712,2.56438,12.7756)">
                    <path d="M13.387,47.344L23.418,51.094C23.504,51.125 23.594,51.141 23.68,51.141C23.984,51.141 24.27,50.953 24.383,50.653C24.527,50.266 24.332,49.832 23.941,49.688L13.91,45.942C13.524,45.801 13.09,45.996 12.946,46.383C12.801,46.77 12.996,47.199 13.387,47.344Z" style="fill-rule:nonzero;"/>
                </g>
                <g transform="matrix(0.878712,0,0,0.878712,2.56438,12.7756)">
                    <path d="M84.203,79.848L84.203,77.2C84.203,75.133 82.43,73.45 80.25,73.45L79.902,73.45L79.902,72.43C79.902,70.887 78.348,69.676 76.363,69.676L23.636,69.676C21.652,69.676 20.097,70.887 20.097,72.43L20.097,73.45L19.749,73.45C17.57,73.45 15.796,75.133 15.796,77.2L15.796,79.848C15.796,80.262 16.132,80.598 16.546,80.598L83.452,80.598C83.866,80.598 84.202,80.262 84.202,79.848L84.203,79.848ZM21.598,72.43C21.598,71.836 22.438,71.176 23.637,71.176L76.364,71.176C77.567,71.176 78.403,71.836 78.403,72.43L78.403,73.449L21.598,73.449L21.598,72.43ZM82.703,79.098L17.297,79.098L17.297,77.2C17.297,75.957 18.399,74.95 19.75,74.95L80.254,74.95C81.606,74.95 82.707,75.957 82.707,77.2L82.703,79.098Z" style="fill-rule:nonzero;"/>
                </g>
            </g>
        </g>
    </g>
</svg>
