<?xml version="1.0" encoding="UTF-8"?>
<svg width="100pt" height="100pt" version="1.1" viewBox="0 0 100 100" xmlns="http://www.w3.org/2000/svg">
 <path d="m50 23c-3.2891 0-6 2.7109-6 6 0 1.6758 0.71875 3.1875 1.8438 4.2812-16.148 1.9766-28.824 15.281-29.781 31.719h-4.0625c-1.1055 0-2 0.89453-2 2v8c0 1.1016 0.89453 2 2 2h76c1.1055 0 2-0.89844 2-2v-8c0-1.1055-0.89453-2-2-2h-4.0625c-0.95703-16.438-13.633-29.742-29.781-31.719 1.125-1.0938 1.8438-2.6055 1.8438-4.2812 0-3.2891-2.7109-6-6-6zm0 4c1.1289 0 2 0.87109 2 2s-0.87109 2-2 2-2-0.87109-2-2 0.87109-2 2-2zm0 10c15.914 0 28.902 12.352 29.938 28h-59.875c1.0352-15.648 14.023-28 29.938-28zm-36 32h72v4h-72z"/>
</svg>
