<?xml version="1.0" encoding="UTF-8"?>
<svg width="100pt" height="100pt" version="1.1" viewBox="0 0 100 100" xmlns="http://www.w3.org/2000/svg">
 <path d="m45.766 3.5352c-0.097656 0.015625-0.19531 0.046875-0.28125 0.09375l-10.5 4.7812-7.5938 3.4375-9.7812 4.4375v0.03125c-0.023437 0.011719-0.042969 0.019532-0.0625 0.03125-0.054687 0.027344-0.10938 0.058594-0.15625 0.09375v0.03125c-0.023437 0.011719-0.042969 0.019532-0.0625 0.03125v0.03125c-0.023437 0.011719-0.042969 0.019532-0.0625 0.03125-0.011719 0.03125-0.023437 0.0625-0.03125 0.09375-0.011719 0.019532-0.023437 0.042969-0.03125 0.0625-0.023437 0.03125-0.042969 0.0625-0.0625 0.09375v0.0625 0.03125c-0.011719 0.019532-0.023437 0.042969-0.03125 0.0625-0.003906 0.042969-0.003906 0.085938 0 0.125-0.003906 0.03125-0.003906 0.0625 0 0.09375v27.375c-0.003906 0.32812 0.17969 0.62891 0.46875 0.78125l4.1562 2.0625-3.8125 1.75-9.625 4.375-0.15625 0.0625c-0.03125 0.019532-0.0625 0.039063-0.09375 0.0625-0.11719 0.078125-0.21484 0.1875-0.28125 0.3125-0.011719 0.019532-0.023437 0.039063-0.03125 0.0625-0.023437 0.03125-0.042969 0.0625-0.0625 0.09375-0.023437 0.082032-0.03125 0.16406-0.03125 0.25v0.03125c-0.003906 0.050782-0.003906 0.10547 0 0.15625v27.281c-0.003906 0.32031 0.1875 0.63281 0.46875 0.78125l27.594 13.719 0.0625 0.03125h0.03125c0.039063 0.023438 0.082031 0.046875 0.125 0.0625h0.03125c0.019531 0.011719 0.042969 0.023438 0.0625 0.03125h0.03125 0.15625c0.12109-0.011718 0.23828-0.039062 0.34375-0.09375 0.042969-0.015625 0.085937-0.039062 0.125-0.0625 0.019531-0.011718 0.042969-0.019531 0.0625-0.03125l27.469-13.656c0.054687-0.027344 0.10938-0.058594 0.15625-0.09375l27.5-13.625c0.28125-0.14844 0.47266-0.46094 0.46875-0.78125v-27.188c0.089844-0.28906 0.015625-0.62109-0.1875-0.84375v-0.03125c-0.019531-0.011718-0.042969-0.023437-0.0625-0.03125v-0.03125c-0.0625-0.0625-0.13672-0.11719-0.21875-0.15625l-17.688-8.1562v-14.406c0.027344-0.14453 0.015625-0.29688-0.03125-0.4375v-0.0625c-0.019531-0.03125-0.039063-0.0625-0.0625-0.09375-0.011719-0.019531-0.019531-0.042968-0.03125-0.0625-0.019531-0.03125-0.039063-0.0625-0.0625-0.09375-0.011719-0.011718-0.019531-0.019531-0.03125-0.03125-0.011719-0.011718-0.019531-0.019531-0.03125-0.03125-0.011719-0.011718-0.019531-0.019531-0.03125-0.03125-0.011719-0.011718-0.019531-0.019531-0.03125-0.03125-0.011719-0.011718-0.019531-0.019531-0.03125-0.03125h-0.0625c-0.011719-0.011718-0.019531-0.019531-0.03125-0.03125-0.011719-0.011718-0.019531-0.019531-0.03125-0.03125-0.011719-0.011718-0.019531-0.019531-0.03125-0.03125l-27.469-12.656c-0.13672-0.066406-0.28516-0.10156-0.4375-0.09375zm0.0625 1.8438 25.438 11.719-8.1875 4.0625-25.656-11.969zm-10.5 4.7812 25.75 12-5.6875 2.8438h-0.03125l-25.562-12.312zm-7.625 3.4688 0.09375 0.03125h0.03125l25.531 12.344-7.75 3.8438-25.625-12.719zm-8.8438 4.875 11.25 5.5938 14.656 7.2812v25.5l-25.906-12.844zm53.562 0v25.5l-25.906 12.875v-25.531l7.6875-3.8125 0.125 4.4688c0.011719 0.29297 0.17188 0.5625 0.42188 0.71094 0.25391 0.15234 0.5625 0.16797 0.82812 0.039062l7.8438-3.9375c0.28906-0.14844 0.46875-0.45312 0.46875-0.78125l0.03125-5.3125zm-10.25 5.0938-0.03125 3.9062-6.0938 3.0625-0.125-3.875zm12 10.031 15.281 7.0312-8.1562 4.0625-7.125-3.3125zm16.406 8.4375v25.5l-25.875 12.875v-25.5l7.6562-3.8125 0.125 4.4375c0.015625 0.58984 0.75781 1.0234 1.2812 0.75l7.8125-3.9375c0.29297-0.14062 0.49609-0.45703 0.5-0.78125l0.03125-5.3125zm-16.406 1.2812 5.0938 2.375-4 2-1.7188 0.84375-3.2188-1.5625 3.3438-1.6562c0.30078-0.14062 0.49609-0.44531 0.5-0.78125zm6.1875 3.8125-0.03125 3.9062-6.125 3.0938-0.125-3.9062 2.875-1.4062zm-12.031 0.84375 3.2188 1.5625-7.75 3.8438-3.1875-1.5938zm-44.562 0.40625 21.469 10.656h0.03125c0.039063 0.023438 0.082031 0.046875 0.125 0.0625h0.03125c0.019531 0.011719 0.042969 0.023438 0.0625 0.03125h0.03125c0.050781 0.003906 0.10547 0.003906 0.15625 0 0.12109-0.007812 0.23828-0.039062 0.34375-0.09375 0.066406-0.023437 0.12891-0.054687 0.1875-0.09375l2.1562-1.0625 3.2812 1.5312-4.7188 2.375-1.0312 0.5-25.531-12.344zm-5.5312 2.5 0.09375 0.03125c0.011719 0.011719 0.019531 0.019532 0.03125 0.03125l25.562 12.312-7.75 3.8438-25.625-12.719zm40.25 1.9688 3.3438 1.5312-4.5625 2.2812-3.5938 1.7812-3.3125-1.5625zm-49.094 2.9375 25.906 12.875v25.5l-25.906-12.875zm53.562 0v25.469l-25.906 12.906v-25.531l7.6562-3.7812 0.125 4.4062c0.015625 0.58984 0.75781 1.0234 1.2812 0.75l7.8438-3.9375c0.27344-0.14453 0.46094-0.44141 0.46875-0.75l0.03125-5.3125zm-10.25 5.0938-0.03125 3.875-6.125 3.0625-0.09375-3.8438 1.6875-0.84375z"/>
</svg>
