<?xml version="1.0" encoding="UTF-8"?>
<svg width="100pt" height="100pt" version="1.1" viewBox="0 0 100 100" xmlns="http://www.w3.org/2000/svg">
 <path d="m50 16.906 9.707-7.0586c1.0117-0.73438 2.3125-0.9375 3.4961-0.53906l32.672 10.891c1.3867 0.46094 2.3945 1.668 2.6016 3.1172 0.20703 1.4492-0.41797 2.8906-1.6211 3.7227l-7.7891 5.4102 7.8594 5.7148c1.1719 0.85156 1.7656 2.2852 1.5469 3.7188-0.22266 1.4297-1.2227 2.6172-2.5977 3.0742l-9.3359 3.1133v28.07c0 1.6641-1.0625 3.1406-2.6406 3.668l-32.672 10.891c-0.79297 0.26562-1.6523 0.26562-2.4453 0l-32.672-10.891c-1.5898-0.53125-2.6562-2.0234-2.6406-3.6992l0.24609-27.953-9.582-3.1953c-1.375-0.45703-2.375-1.6445-2.5977-3.0742-0.22266-1.4297 0.375-2.8672 1.5469-3.7188l7.8594-5.7148-7.7891-5.4102c-1.1992-0.83203-1.8281-2.2734-1.6211-3.7227 0.20703-1.4492 1.2148-2.6562 2.6016-3.1172l32.672-10.891c1.1836-0.39453 2.4844-0.19141 3.4961 0.53906l9.707 7.0586zm-32.672 59.23 30.738 10.246v-36.539l-7.8281 5.4961c-1.0039 0.70312-2.2812 0.89062-3.4414 0.50391l-19.234-6.4102zm65.34-26.781-19.469 6.4883c-1.1641 0.38672-2.4414 0.19922-3.4453-0.50391l-7.8242-5.4961v36.539l30.738-10.246zm-69.184-13.984-8.1367 5.918 32.672 10.891 8.3359-5.8516-32.867-10.957zm73.023 0-32.867 10.957 8.3359 5.8516 32.672-10.891-8.1367-5.918zm-69.184-2.793 32.672-10.891 32.672 10.891-32.672 10.891zm36.512-13.684 32.41 10.805 8.3984-5.832-32.672-10.891zm-7.6836 0-8.1367-5.918-32.672 10.891 8.3984 5.832z" fill-rule="evenodd"/>
</svg>
