<?xml version="1.0" encoding="UTF-8"?>
<svg width="100pt" height="100pt" version="1.1" viewBox="0 0 100 100" xmlns="http://www.w3.org/2000/svg">
 <path d="m92.172 66.188l-5.5977-3.1797-10.055-36.469-5.9258 1.6367-6.9766-25.297-32.953 9.0898 6.9766 25.297-2.7461 0.75781-9.0938-32.98c-0.67969-2.4648-2.8516-4.2383-5.4023-4.4102 0 0-9.3828-0.62891-9.5156-0.62891-3.1602-0.0039062-5.8047 2.4648-6.0156 5.6172-0.22266 3.3164 2.293 6.1953 5.6055 6.4219l4.8398 0.32422 18.645 67.621c-4.9531 0.61719-8.8008 4.8516-8.8008 9.9648 0 5.5391 4.5078 10.047 10.047 10.047s10.047-4.5078 10.047-10.047c0-1.8789-0.51953-3.6367-1.4219-5.1406l38.188-10.527 4.2031 2.3867c5.5156 2.5469 8.1172-2.1367 8.1172-2.1367 0.76172-1.3359 2.0859-5.6797-2.1641-8.3477zm-33.441-30.648l2.3164 8.4023-7.3125 2.0195-2.3164-8.4023zm-6.8828-25.324l2.3867 8.6445-7.3125 2.0195-2.3828-8.6484zm-16.332 4.5039l7.1172-1.9648 2.9062 10.547 11.117-3.0664-2.9102-10.543 7.1172-1.9609 6.4805 23.406-25.352 6.9883zm14 23.359l2.8398 10.305 11.113-3.0664-2.8398-10.305 13.137-3.6211 8.25 29.926-37.383 10.309-8.25-29.922zm-14.309 57.977c-3.3633 0-6.1016-2.7383-6.1016-6.1016s2.7383-6.1016 6.1016-6.1016 6.1016 2.7383 6.1016 6.1016c0 3.3672-2.7383 6.1016-6.1016 6.1016zm55.703-23.465c-0.46094 0.66406-1.3711 1.3047-2.7422 0.65234l-5.625-3.1914-41.809 11.523c-0.78906-0.52344-1.6562-0.9375-2.5781-1.2227l-19.785-71.73-7.6328-0.51562c-1.1484-0.078125-2.0156-1.0703-1.9375-2.2188 0.074219-1.1016 0.99219-1.9414 2.0781-1.9414 0.046875 0 9.2461 0.61719 9.2461 0.61719 0.88281 0.0625 1.6328 0.67188 1.8672 1.5234l19.559 70.938 40.711-11.227c0.63672-0.19141 1.2656 0.015625 1.582 0.19531l6.375 3.6211c1.0078 0.57031 1.2617 1.9766 0.69141 2.9766zm-42.43-10.391l-2.7656 0.76172 4.375-7.707 7.707 4.3789-2.7656 0.76172 1.2734 4.6211-6.5547 1.8086zm18.844-5.1953l-2.7656 0.76172 4.375-7.707 7.707 4.375-2.7656 0.76172 1.2734 4.6211-6.5547 1.8086zm-32.117 28.984c-2.1875 0-3.9648 1.7773-3.9648 3.9648s1.7773 3.9648 3.9648 3.9648 3.9648-1.7773 3.9648-3.9648c0-2.1836-1.7812-3.9648-3.9648-3.9648zm0 5.957c-1.0977 0-1.9922-0.89453-1.9922-1.9922s0.89453-1.9922 1.9922-1.9922c1.0977 0 1.9922 0.89453 1.9922 1.9922s-0.89453 1.9922-1.9922 1.9922z"/>
</svg>
