<?xml version="1.0" encoding="UTF-8"?>
<svg width="100pt" height="100pt" version="1.1" viewBox="0 0 100 100" xmlns="http://www.w3.org/2000/svg">
 <g>
  <path d="m40 35c-1.1055 0-2-0.89453-2-2v-9c0-1.1055 0.89453-2 2-2s2 0.89453 2 2v9c0 0.53125-0.21094 1.0391-0.58594 1.4141s-0.88281 0.58594-1.4141 0.58594z"/>
  <path d="m60 35c-1.1055 0-2-0.89453-2-2v-9c0-1.1055 0.89453-2 2-2s2 0.89453 2 2v9c0 0.53125-0.21094 1.0391-0.58594 1.4141s-0.88281 0.58594-1.4141 0.58594z"/>
  <path d="m40 62c-0.80469-0.003906-1.5312-0.49219-1.8398-1.2344-0.30859-0.74609-0.13672-1.6055 0.42969-2.1758 0.78125-0.77344 2.0391-0.77344 2.8203 0 0.56641 0.57031 0.73828 1.4297 0.42969 2.1758-0.30859 0.74219-1.0352 1.2305-1.8398 1.2344z"/>
  <path d="m60 62c-0.80469-0.003906-1.5312-0.49219-1.8398-1.2344-0.30859-0.74609-0.13672-1.6055 0.42969-2.1758 0.78125-0.77344 2.0391-0.77344 2.8203 0 0.56641 0.57031 0.73828 1.4297 0.42969 2.1758-0.30859 0.74219-1.0352 1.2305-1.8398 1.2344z"/>
  <path d="m40 53c-0.80859 0-1.5391-0.48438-1.8477-1.2305-0.3125-0.74609-0.14062-1.6055 0.42578-2.1797 0.79688-0.75 2.0391-0.75 2.832 0 0.56641 0.57031 0.73828 1.4297 0.42969 2.1758-0.30859 0.74219-1.0352 1.2305-1.8398 1.2344z"/>
  <path d="m50 62c-0.80859 0-1.5391-0.48438-1.8477-1.2305-0.3125-0.74609-0.14062-1.6055 0.42578-2.1797 0.79688-0.74609 2.0352-0.74609 2.832 0 0.375 0.375 0.58594 0.87891 0.58984 1.4102 0 0.53125-0.21094 1.0391-0.58594 1.4141s-0.88281 0.58594-1.4141 0.58594z"/>
  <path d="m50 53c-0.80859 0-1.5391-0.48438-1.8477-1.2305-0.3125-0.74609-0.14062-1.6055 0.42578-2.1797 0.79688-0.75 2.0391-0.75 2.832 0 0.56641 0.57031 0.73828 1.4297 0.42969 2.1758-0.30859 0.74219-1.0352 1.2305-1.8398 1.2344z"/>
  <path d="m60 53c-1.1055 0-2-0.89453-2-2 0-0.52734 0.20703-1.0352 0.57812-1.4102 0.79688-0.75 2.0391-0.75 2.832 0 0.56641 0.57031 0.73828 1.4297 0.42969 2.1758-0.30859 0.74219-1.0352 1.2305-1.8398 1.2344z"/>
  <path d="m66 72h-32c-3.3125 0-6-2.6875-6-6v-32c0-3.3125 2.6875-6 6-6h32c3.3125 0 6 2.6875 6 6v32c0 3.3125-2.6875 6-6 6zm-32-40c-1.1055 0-2 0.89453-2 2v32c0 0.53125 0.21094 1.0391 0.58594 1.4141s0.88281 0.58594 1.4141 0.58594h32c0.53125 0 1.0391-0.21094 1.4141-0.58594s0.58594-0.88281 0.58594-1.4141v-32c0-0.53125-0.21094-1.0391-0.58594-1.4141s-0.88281-0.58594-1.4141-0.58594z"/>
  <path d="m70 43h-40c-1.1055 0-2-0.89453-2-2s0.89453-2 2-2h40c1.1055 0 2 0.89453 2 2s-0.89453 2-2 2z"/>
 </g>
</svg>
