<?xml version="1.0" encoding="UTF-8"?>
<svg width="100pt" height="100pt" version="1.1" viewBox="0 0 100 100" xmlns="http://www.w3.org/2000/svg">
 <g>
  <path d="m42.375 43.609h-19.512c-1.4609 0-2.6484 1.1875-2.6484 2.6445v15.188c0 1.4609 1.1875 2.6484 2.6484 2.6484h19.512c1.4609 0 2.6445-1.1875 2.6445-2.6484v-15.188c0.003907-1.457-1.1836-2.6445-2.6445-2.6445zm1.0273 17.828c0 0.56641-0.46094 1.0273-1.0273 1.0273l-19.512 0.003906c-0.55469 0-1.0273-0.47266-1.0273-1.0273v-15.188c0-0.55469 0.46875-1.0273 1.0273-1.0273h19.512c0.56641 0 1.0273 0.46094 1.0273 1.0273z"/>
  <path d="m90.977 77.977h-1.6836l-4.4102-41.383c-0.45703-4.3008-3.9609-7.5703-8.2422-7.7852v-4.3398h3.6016c1.4023 0 2.5469-1.1406 2.5469-2.543v-10.512c0-1.4023-1.1406-2.543-2.5469-2.543l-20.883-0.003906c-1.4023 0-2.5469 1.1406-2.5469 2.543v10.516c0 1.4023 1.1406 2.543 2.5469 2.543h3.5977v4.3203l-17.422 0.003907v-2.1562h7.9688c0.44531 0 0.8125-0.36328 0.8125-0.8125v-8.8789c0-2.8633-2.332-5.1953-5.1992-5.1953h-21.438c-2.8672 0-5.1992 2.332-5.1992 5.1953v11.945c-3.8984 0.58203-6.9414 3.7148-7.3633 7.707l-4.4102 41.379h-1.6836c-3.6211 0-6.5664 2.9453-6.5664 6.5664 0 3.6328 2.9453 6.5859 6.5664 6.5859h81.949c3.6211 0 6.5664-2.9531 6.5664-6.5859 0.003907-3.6172-2.9414-6.5664-6.5625-6.5664zm-32.543-56.051v-10.512c0-0.50781 0.41406-0.92578 0.92578-0.92578h20.879c0.50781 0 0.92578 0.41406 0.92578 0.92578v10.516c0 0.50781-0.41797 0.92578-0.92578 0.92578l-20.879-0.003907c-0.51172 0-0.92578-0.41797-0.92578-0.92578zm6.1445 2.543h10.445v4.3203h-10.445zm-11.887-7.5234v8.0703h-7.1562v-8.0703c0-1.9727 1.6055-3.5781 3.5781-3.5781 1.9727 0 3.5781 1.6055 3.5781 3.5781zm-25.012-3.5781h17.672c-0.88672 0.93359-1.4375 2.1914-1.4375 3.5781v21.09h-19.812v-21.09c0-1.9727 1.6055-3.5781 3.5781-3.5781zm-10.949 23.398c0.33594-3.168 2.6953-5.6641 5.7539-6.2344v7.5h-1.8359c-0.44531 0-0.8125 0.36328-0.8125 0.8125s0.36328 0.8125 0.8125 0.8125h26.719c0.44531 0 0.8125-0.36328 0.8125-0.8125s-0.36328-0.8125-0.8125-0.8125h-1.8359v-7.625h30.664c3.6484 0 6.6875 2.7344 7.0742 6.3594l4.3945 41.211h-75.328zm74.246 52.746h-81.953c-2.7266 0-4.9453-2.2305-4.9453-4.9688 0-2.7266 2.2188-4.9453 4.9453-4.9453h81.949c2.7266 0 4.9453 2.2188 4.9453 4.9453 0.003906 2.7383-2.2148 4.9688-4.9414 4.9688z"/>
  <path d="m54.766 43.812h-2.5312c-1.4023 0-2.543 1.1523-2.543 2.5664v2.5078c0 1.4023 1.1406 2.5469 2.543 2.5469h2.5312c1.4023 0 2.543-1.1445 2.543-2.5469v-2.5078c0.003906-1.3945-1.1641-2.5664-2.543-2.5664zm0.92578 5.0742c0 0.5-0.42188 0.92578-0.92578 0.92578h-2.5312c-0.50781 0-0.92578-0.41406-0.92578-0.92578v-2.5078c0-0.52344 0.41797-0.94531 0.92578-0.94531h2.5312c0.49219 0 0.92578 0.44141 0.92578 0.94531z"/>
  <path d="m65.707 43.812h-2.5312c-1.3789 0-2.5469 1.1758-2.5469 2.5664v2.5078c0 1.4023 1.1406 2.5469 2.5469 2.5469h2.5312c1.4023 0 2.5469-1.1445 2.5469-2.5469v-2.5078c-0.003906-1.4141-1.1445-2.5664-2.5469-2.5664zm0.92578 5.0742c0 0.51172-0.41406 0.92578-0.92578 0.92578h-2.5312c-0.5 0-0.92578-0.42188-0.92578-0.92578v-2.5078c0-0.50391 0.42969-0.94531 0.92578-0.94531h2.5312c0.51172 0 0.92578 0.42188 0.92578 0.94531z"/>
  <path d="m76.648 43.812h-2.5078c-1.4023 0-2.5469 1.1523-2.5469 2.5664v2.5078c0 1.4023 1.1406 2.5469 2.5469 2.5469h2.5078c1.4023 0 2.5469-1.1445 2.5469-2.5469v-2.5078c-0.003906-1.4141-1.1445-2.5664-2.5469-2.5664zm0.92187 5.0742c0 0.51172-0.41406 0.92578-0.92578 0.92578h-2.5078c-0.51172 0-0.92578-0.41406-0.92578-0.92578v-2.5078c0-0.52344 0.41406-0.94531 0.92578-0.94531h2.5078c0.51172 0 0.92578 0.42188 0.92578 0.94531z"/>
  <path d="m54.766 53.527h-2.5312c-1.4023 0-2.543 1.1406-2.543 2.5469v2.5312c0 1.4023 1.1406 2.5469 2.543 2.5469h2.5312c1.3789 0 2.543-1.1641 2.543-2.5469v-2.5312c0.003906-1.4062-1.1406-2.5469-2.543-2.5469zm0.92578 5.0742c0 0.49219-0.42969 0.92578-0.92578 0.92578h-2.5312c-0.5 0-0.92578-0.42188-0.92578-0.92578v-2.5312c0-0.51172 0.41797-0.92578 0.92578-0.92578h2.5312c0.5 0 0.92578 0.42188 0.92578 0.92578z"/>
  <path d="m65.707 53.527h-2.5312c-1.4023 0-2.5469 1.1406-2.5469 2.5469v2.5312c0 1.3789 1.1641 2.5469 2.5469 2.5469h2.5312c1.4023 0 2.5469-1.1406 2.5469-2.5469v-2.5312c-0.003906-1.4062-1.1445-2.5469-2.5469-2.5469zm0.92578 5.0742c0 0.5-0.42187 0.92578-0.92578 0.92578h-2.5312c-0.49219 0-0.92578-0.42969-0.92578-0.92578v-2.5312c0-0.5 0.42188-0.92578 0.92578-0.92578h2.5312c0.51172 0 0.92578 0.41406 0.92578 0.92578z"/>
  <path d="m54.766 63.242h-2.5312c-1.4023 0-2.543 1.1406-2.543 2.5469v2.5117c0 1.3984 1.1406 2.543 2.543 2.543h2.5312c1.4023 0 2.543-1.1406 2.543-2.543v-2.5117c0.003906-1.4062-1.1406-2.5469-2.543-2.5469zm0.92578 5.0586c0 0.5-0.42188 0.92188-0.92578 0.92188h-2.5312c-0.50781 0-0.92578-0.41406-0.92578-0.92188v-2.5117c0-0.50781 0.41797-0.92187 0.92578-0.92187h2.5312c0.5 0 0.92578 0.42187 0.92578 0.92187z"/>
  <path d="m65.707 63.242h-2.5312c-1.4023 0-2.5469 1.1406-2.5469 2.5469v2.5117c0 1.3984 1.1406 2.543 2.5469 2.543h2.5312c1.4023 0 2.5469-1.1406 2.5469-2.543v-2.5117c-0.003906-1.4062-1.1445-2.5469-2.5469-2.5469zm0.92578 5.0586c0 0.50781-0.41406 0.92188-0.92578 0.92188h-2.5312c-0.5 0-0.92578-0.42188-0.92578-0.92188v-2.5117c0-0.5 0.42188-0.92187 0.92578-0.92187h2.5312c0.51172 0 0.92578 0.41406 0.92578 0.92187z"/>
  <path d="m76.648 53.527h-2.5078c-1.4023 0-2.5469 1.1406-2.5469 2.5469v12.227c0 1.3984 1.1406 2.543 2.5469 2.543h2.5078c1.4023 0 2.5469-1.1406 2.5469-2.543v-12.227c-0.003906-1.4062-1.1445-2.5469-2.5469-2.5469zm0.92187 14.773c0 0.50781-0.41406 0.92188-0.92578 0.92188h-2.5078c-0.51172 0-0.92578-0.41406-0.92578-0.92188v-12.227c0-0.51172 0.41406-0.92578 0.92578-0.92578h2.5078c0.51172 0 0.92578 0.41406 0.92578 0.92578z"/>
  <path d="m78.73 12.113h-17.859c-0.44922 0-0.8125 0.35938-0.8125 0.8125v7.4922c0 0.44531 0.35938 0.80859 0.8125 0.80859h17.859c0.44531 0 0.8125-0.35937 0.8125-0.80859l-0.003907-7.4961c0-0.44531-0.36328-0.80859-0.80859-0.80859zm-0.80859 7.4922h-16.242v-5.8711h16.242z"/>
  <path d="m29.52 19.938h8.9805c0.44922 0 0.8125-0.35938 0.8125-0.8125 0-0.44531-0.35938-0.80859-0.8125-0.80859h-8.9805c-0.44922 0-0.8125 0.35938-0.8125 0.80859 0 0.45312 0.36328 0.8125 0.8125 0.8125z"/>
  <path d="m29.52 24.121h8.9805c0.44922 0 0.8125-0.35938 0.8125-0.80859s-0.35938-0.8125-0.8125-0.8125h-8.9805c-0.44922 0-0.8125 0.36328-0.8125 0.8125s0.36328 0.80859 0.8125 0.80859z"/>
  <path d="m29.52 28.289h8.9805c0.44922 0 0.8125-0.36328 0.8125-0.8125 0-0.44922-0.35938-0.80859-0.8125-0.80859h-8.9805c-0.44922 0-0.8125 0.35938-0.8125 0.80859 0 0.44531 0.36328 0.8125 0.8125 0.8125z"/>
  <path d="m29.52 32.473h8.9805c0.44922 0 0.8125-0.36328 0.8125-0.8125 0-0.44531-0.35938-0.8125-0.8125-0.8125h-8.9805c-0.44922 0-0.8125 0.36328-0.8125 0.8125 0 0.44922 0.36328 0.8125 0.8125 0.8125z"/>
 </g>
</svg>
