<?xml version="1.0" encoding="UTF-8"?>
<svg width="100pt" height="100pt" version="1.1" viewBox="0 0 100 100" xmlns="http://www.w3.org/2000/svg">
 <g>
  <path d="m89.16 57.148-0.097656-0.023438v-36.812c0-7.2578-3.8711-13.961-10.156-17.59s-14.027-3.6289-20.312 0-10.156 10.332-10.156 17.59v36.812l-0.097656 0.023438c-5.6133 1.293-9.8555 5.9023-10.684 11.602h-15.781v-6.25h4.6875c2.5898 0 4.6875-2.0977 4.6875-4.6875v-6.25c0-2.5898-2.0977-4.6875-4.6875-4.6875h-18.75c-2.5898 0-4.6875 2.0977-4.6875 4.6875v6.25c0 2.5898 2.0977 4.6875 4.6875 4.6875h4.6875v6.25h-2.7578c-1.7734-0.003906-3.4023 1-4.1914 2.5898l-5.3867 10.773c-0.10937 0.21875-0.16406 0.45703-0.16406 0.69922v15.625c0 0.41406 0.16406 0.8125 0.45703 1.1055s0.69141 0.45703 1.1055 0.45703h96.875c0.41406 0 0.8125-0.16406 1.1055-0.45703s0.45703-0.69141 0.45703-1.1055v-27.602c0.019531-6.5312-4.4766-12.207-10.84-13.688zm7.7148 13.688v7.2891h-7.8125c-0.86328 0-1.5625 0.69922-1.5625 1.5625v2.9688l-3.125-15.625v-7.7969l4.0625 0.95703c4.9492 1.1484 8.4531 5.5625 8.4375 10.645zm-40.625-12.344 8.8867-2.0859 0.30078 0.30078c1.8281 1.8281 4.7969 1.8281 6.625 0l0.30078-0.30078 8.8867 2.0938v7.125h-25zm-3.125-24.539c-0.96484-0.55469-1.5625-1.5859-1.5625-2.7031v-1.5625c0-0.86328 0.69922-1.5625 1.5625-1.5625zm3.125-6.1797c4.9688-0.65234 9.7773-2.2148 14.18-4.6094l7.0234-3.8281 1.875 3.7344c0.48438 0.96094 1.1328 1.832 1.9219 2.5664v8.7383c0 6.9023-5.5977 12.5-12.5 12.5s-12.5-5.5977-12.5-12.5zm29.688 3.4766c0 1.1172-0.59766 2.1484-1.5625 2.7031v-5.8281c0.41406 0 0.8125 0.16406 1.1055 0.45703s0.45703 0.69141 0.45703 1.1055zm-17.188 18.75c0.52344 0 1.043-0.027344 1.5625-0.078125v4.1211l-0.45703 0.45703c-0.60938 0.60938-1.6016 0.60938-2.2109 0l-0.45703-0.46094v-4.1172c0.51953 0.050781 1.0391 0.078125 1.5625 0.078125zm4.6875 3.4492v-4.168c2.6797-0.85156 5.0781-2.4023 6.9531-4.5 1.8711-2.0938 3.1445-4.6523 3.6875-7.4102 0.65625-0.14453 1.2852-0.39453 1.8594-0.73828v19.758zm-21.875-33.137c0-6.1406 3.2773-11.816 8.5938-14.887 5.3164-3.0664 11.871-3.0664 17.188 0 5.3164 3.0703 8.5938 8.7461 8.5938 14.887v4.4844c-1.6641-0.44141-3.0586-1.582-3.8242-3.125l-2.582-5.1836c-0.19141-0.37891-0.52734-0.66406-0.92969-0.79297-0.40625-0.125-0.84375-0.082031-1.2188 0.12109l-8.4375 4.6055c-5.3359 2.9062-11.305 4.4805-17.383 4.5781zm0 16.32c0.57422 0.34375 1.2031 0.59375 1.8594 0.73828 0.54297 2.7578 1.8164 5.3164 3.6875 7.4102 1.875 2.0977 4.2734 3.6484 6.9531 4.5v4.1719l-12.5 2.9375zm-2.5 23.559 4.0625-0.95703v7.7969l-0.55078 2.7578c-0.83203-0.67578-1.8711-1.043-2.9414-1.0391h-8.7852c0.79688-4.2305 4.0195-7.5898 8.2148-8.5586zm-41.25-0.81641c-0.86328 0-1.5625-0.69922-1.5625-1.5625v-6.25c0-0.86328 0.69922-1.5625 1.5625-1.5625h18.75c0.41406 0 0.8125 0.16406 1.1055 0.45703s0.45703 0.69141 0.45703 1.1055v6.25c0 0.41406-0.16406 0.8125-0.45703 1.1055s-0.69141 0.45703-1.1055 0.45703h-4.6875v-1.5625c0-2.5898-2.0977-4.6875-4.6875-4.6875s-4.6875 2.0977-4.6875 4.6875v1.5625zm7.8125-1.5625c0-0.86328 0.69922-1.5625 1.5625-1.5625s1.5625 0.69922 1.5625 1.5625v10.938h-3.125zm-12.5 26.562h32.812c0.86328 0 1.5625-0.69922 1.5625-1.5625s-0.69922-1.5625-1.5625-1.5625h-31.848l4.2578-8.5117c0.26172-0.53125 0.80469-0.86719 1.3945-0.86328h39.891c0.58984-0.003906 1.1328 0.33203 1.3945 0.86328l4.2578 8.5117h-13.098c-0.86328 0-1.5625 0.69922-1.5625 1.5625s0.69922 1.5625 1.5625 1.5625h14.062v12.5h-53.125zm56.25 12.5v-14.062c0.003906-0.24219-0.050781-0.48047-0.15625-0.69922l-4.2188-8.4492 0.96875-4.9141h25.562l5.625 28.125zm37.5 0h-6.25v-15.625h6.25z"/>
  <path d="m62.5 31.25v-1.5625c0-0.86328-0.69922-1.5625-1.5625-1.5625s-1.5625 0.69922-1.5625 1.5625v1.5625c0 0.86328 0.69922 1.5625 1.5625 1.5625s1.5625-0.69922 1.5625-1.5625z"/>
  <path d="m76.562 32.812c0.41406 0 0.8125-0.16406 1.1055-0.45703s0.45703-0.69141 0.45703-1.1055v-1.5625c0-0.86328-0.69922-1.5625-1.5625-1.5625s-1.5625 0.69922-1.5625 1.5625v1.5625c0 0.41406 0.16406 0.8125 0.45703 1.1055s0.69141 0.45703 1.1055 0.45703z"/>
  <path d="m68.75 45.043c1.5859 0.003906 3.1094-0.62891 4.2305-1.75 0.58984-0.61328 0.58203-1.5898-0.019531-2.1914-0.60156-0.60156-1.5781-0.60937-2.1914-0.019531-1.1172 1.1133-2.9219 1.1133-4.0391 0-0.61328-0.58984-1.5898-0.58203-2.1914 0.019531-0.60156 0.60156-0.60937 1.5781-0.019531 2.1914 1.1211 1.1211 2.6445 1.7539 4.2305 1.75z"/>
 </g>
</svg>
