<?xml version="1.0" encoding="UTF-8"?>
<svg width="100pt" height="100pt" version="1.1" viewBox="0 0 100 100" xmlns="http://www.w3.org/2000/svg">
 <path d="m77.02 63.793v-12.395c0-9.0156-6.4922-18.25-17.066-19.73 4.5039-3.1484 7.4492-8.3711 7.4492-14.266 0-9.5938-7.8047-17.402-17.406-17.402-9.5977 0-17.402 7.8086-17.402 17.402 0 5.8984 2.9531 11.121 7.457 14.27-9.1875 1.3125-17.07 9.2109-17.07 19.727v12.395h-21.832v14.883h7.3672v21.324h83.895v-21.324h6.4375v-14.883zm-40.887-46.391c0-7.6562 6.207-13.863 13.863-13.863s13.863 6.207 13.863 13.863-6.207 13.859-13.863 13.859c-7.6562 0.003906-13.863-6.2031-13.863-13.859zm-9.6094 33.996c0-0.95313 0.085937-1.8867 0.24219-2.7969 0.16016 0.21484 0.41016 0.35156 0.69531 0.35156 0.48047 0 0.87109-0.39062 0.87109-0.86719 0-0.48047-0.39062-0.87109-0.87109-0.87109-0.15625 0-0.30469 0.046875-0.42969 0.11719 0.42578-1.6719 1.1133-3.2344 2.0078-4.6562 0.13672 0.089844 0.29688 0.14062 0.46875 0.14062 0.48047 0 0.86719-0.39062 0.86719-0.86719 0-0.28125-0.13281-0.52734-0.33984-0.6875 0.25-0.3125 0.50391-0.62109 0.77344-0.91797 0.15234 0.25391 0.42578 0.42578 0.74219 0.42578 0.48047 0 0.87109-0.39062 0.87109-0.86719 0-0.3125-0.16406-0.58594-0.41406-0.73828 0.29688-0.26562 0.60547-0.51953 0.92188-0.76172 0.16016 0.19141 0.39453 0.3125 0.66406 0.3125 0.48047 0 0.86719-0.39062 0.86719-0.87109 0-0.15234-0.042969-0.29688-0.11328-0.42578 1.3984-0.85938 2.9414-1.5117 4.5781-1.9219-0.035156 0.09375-0.054687 0.19141-0.054687 0.29688 0 0.48047 0.39062 0.86719 0.86719 0.86719 0.48047 0 0.87109-0.39062 0.87109-0.86719 0-0.23047-0.089844-0.4375-0.23438-0.59375 0.82812-0.12891 1.6758-0.19531 2.5352-0.19531h0.5625c-0.29688 0.14062-0.50781 0.4375-0.50781 0.78906 0 0.48047 0.39062 0.86719 0.87109 0.86719 0.48047 0 0.86719-0.39062 0.86719-0.86719 0-0.35156-0.20703-0.64844-0.50781-0.78906h3.3633c-0.29688 0.14062-0.50391 0.4375-0.50391 0.78516 0 0.48047 0.39062 0.86719 0.86719 0.86719 0.48047 0 0.87109-0.39062 0.87109-0.86719 0-0.35156-0.20703-0.64844-0.50391-0.78516h3.3672c-0.29688 0.14062-0.50391 0.4375-0.50391 0.78516 0 0.48047 0.39062 0.86719 0.87109 0.86719 0.48047 0 0.86719-0.39062 0.86719-0.86719 0-0.34766-0.20703-0.64844-0.50391-0.78516h3.3594c-0.29688 0.14062-0.50391 0.4375-0.50391 0.78516 0 0.48047 0.39062 0.86719 0.87109 0.86719s0.87109-0.39062 0.87109-0.86719c0-0.34766-0.20703-0.64453-0.50391-0.78516h0.65625c0.83203 0 1.6445 0.0625 2.4414 0.18359-0.14844 0.15625-0.24219 0.36719-0.24219 0.60156 0 0.48047 0.39062 0.86719 0.86719 0.86719 0.48047 0 0.86719-0.39062 0.86719-0.86719 0-0.11328-0.023437-0.21875-0.0625-0.32031 1.6445 0.39844 3.1953 1.0469 4.6016 1.9023-0.085937 0.13672-0.13672 0.29297-0.13672 0.46484 0 0.48047 0.39062 0.87109 0.86719 0.87109 0.28516 0 0.53516-0.14062 0.69531-0.35547 0.32422 0.24609 0.63672 0.50781 0.9375 0.77734-0.26953 0.14844-0.45312 0.42969-0.45312 0.76172 0 0.48047 0.39062 0.86719 0.86719 0.86719 0.33594 0 0.62109-0.19141 0.76562-0.46875 0.27344 0.29688 0.53516 0.60938 0.78516 0.92578-0.23047 0.15625-0.37891 0.42188-0.37891 0.71875 0 0.48047 0.39062 0.86719 0.87109 0.86719 0.19141 0 0.36719-0.0625 0.51172-0.16797 0.90234 1.4375 1.5938 3.0195 2.0195 4.7148-0.13672-0.089844-0.30078-0.14453-0.47656-0.14453-0.48047 0-0.87109 0.39062-0.87109 0.87109s0.39062 0.86719 0.87109 0.86719c0.30469 0 0.57422-0.15625 0.72656-0.39453 0.16016 0.92188 0.25 1.8711 0.25 2.8398v12.395h-9.3008l0.015625-2.5508c0.046875 0.007812 0.089844 0.011719 0.13672 0.011719 0.48047 0 0.86719-0.39063 0.86719-0.86719 0-0.48047-0.39063-0.86719-0.86719-0.86719-0.046875 0-0.089844 0.007813-0.13672 0.011719v-2.3789c0.046875 0.007813 0.089844 0.015625 0.13672 0.015625 0.48047 0 0.86719-0.39062 0.86719-0.86719 0-0.48047-0.39063-0.86719-0.86719-0.86719-0.046875 0-0.089844 0.007813-0.13672 0.015625v-2.3867c0.046875 0.007813 0.089844 0.015625 0.13672 0.015625 0.48047 0 0.86719-0.39062 0.86719-0.86719 0-0.48047-0.39063-0.86719-0.86719-0.86719-0.046875 0-0.089844 0.007813-0.13672 0.011719v-1.0938h-1.0586c0.003906-0.03125 0.011718-0.066406 0.011718-0.10156v-0.003907-0.003906c0-0.48047-0.39062-0.86719-0.86719-0.86719-0.48047 0-0.87109 0.39062-0.87109 0.86719v0.003906 0.003907c0 0.035156 0.007813 0.066406 0.011719 0.10156h-0.074219v13.555l-22.652-0.007813v-13.559h-0.12109c0.003906-0.03125 0.011718-0.066406 0.011718-0.10156v-0.003907-0.003906c0-0.48047-0.39062-0.86719-0.87109-0.86719-0.48047 0-0.86719 0.39062-0.86719 0.86719v0.003906 0.003907c0 0.035156 0.007813 0.066406 0.011719 0.10156h-1.0117v1.0977c-0.054687-0.011719-0.11328-0.015626-0.17188-0.015626-0.48047 0-0.86719 0.39063-0.86719 0.86719 0 0.48047 0.39063 0.86719 0.86719 0.86719 0.058594 0 0.11719-0.007813 0.17188-0.019532v2.3906c-0.054687-0.011719-0.11328-0.015625-0.17188-0.015625-0.48047 0-0.86719 0.39062-0.86719 0.86719 0 0.48047 0.39063 0.86719 0.86719 0.86719 0.058594 0 0.11719-0.007812 0.17188-0.015625v2.3867c-0.054687-0.011719-0.11328-0.015625-0.17188-0.015625-0.48047 0-0.86719 0.39062-0.86719 0.86719 0 0.48047 0.39063 0.86719 0.86719 0.86719 0.058594 0 0.11719-0.007813 0.17188-0.015625v2.5664h-9.2969zm62.348 28.57c-0.47656 0.003906-0.85938 0.39062-0.85938 0.86719 0 0.47656 0.38672 0.86328 0.85938 0.86719v2.3555c-0.47656 0.003906-0.85938 0.39062-0.85938 0.86719 0 0.48047 0.38672 0.86328 0.85938 0.86719v2.3633c-0.47656 0.003906-0.85938 0.39062-0.85938 0.86719 0 0.48047 0.38672 0.86328 0.85938 0.86719v2.3594c-0.47656 0.003906-0.85938 0.39062-0.85938 0.86719 0 0.47656 0.38672 0.86328 0.85938 0.86719v2.4648l-76.812 0.011719v-17.684h0.20312v0.011718c0 0.48047 0.39062 0.87109 0.87109 0.87109 0.48047 0 0.87109-0.39062 0.87109-0.87109v-0.011718h2.3594v0.011718c0 0.48047 0.39062 0.87109 0.86719 0.87109 0.48047 0 0.87109-0.39062 0.87109-0.87109v-0.011718h2.3516v0.011718c0 0.48047 0.39062 0.87109 0.86719 0.87109 0.48047 0 0.87109-0.39062 0.87109-0.87109v-0.011718h2.3594v0.011718c0 0.48047 0.39062 0.87109 0.87109 0.87109s0.86719-0.39062 0.86719-0.87109v-0.011718h2.3633v0.011718c0 0.48047 0.39062 0.87109 0.86719 0.87109 0.48047 0 0.86719-0.39062 0.86719-0.87109v-0.011718h2.3516v0.011718c0 0.48047 0.39062 0.87109 0.87109 0.87109s0.86719-0.39062 0.86719-0.87109v-0.011718h2.3594v0.011718c0 0.48047 0.39062 0.87109 0.86719 0.87109 0.48047 0 0.87109-0.39062 0.87109-0.87109v-0.011718h2.3594v0.011718c0 0.48047 0.39062 0.87109 0.86719 0.87109 0.48047 0 0.87109-0.39062 0.87109-0.87109v-0.011718h2.3516v0.011718c0 0.48047 0.39062 0.87109 0.87109 0.87109s0.86719-0.39062 0.86719-0.87109v-0.011718h2.3672v0.011718c0 0.48047 0.39062 0.87109 0.87109 0.87109s0.87109-0.39062 0.87109-0.87109v-0.011718h2.3594v0.011718c0 0.48047 0.39062 0.87109 0.86719 0.87109 0.48047 0 0.86719-0.39062 0.86719-0.87109v-0.011718h2.3555c0 0.003906-0.003906 0.007812-0.003906 0.011718 0 0.48047 0.39062 0.87109 0.86719 0.87109 0.48047 0 0.87109-0.39062 0.87109-0.87109v-0.011718h2.3594c0 0.003906-0.003906 0.007812-0.003906 0.011718 0 0.48047 0.39062 0.87109 0.87109 0.87109s0.86719-0.39062 0.86719-0.87109v-0.011718h2.3594v0.011718c0 0.48047 0.39063 0.87109 0.86719 0.87109 0.48047 0 0.86719-0.39062 0.86719-0.87109v-0.011718h2.3516v0.011718c0 0.48047 0.39062 0.87109 0.87109 0.87109 0.48047 0 0.86719-0.39062 0.86719-0.87109 0-0.003906-0.003906-0.007812-0.003906-0.011718h2.3594v0.011718c0 0.48047 0.39062 0.87109 0.87109 0.87109 0.48047 0 0.86719-0.39062 0.86719-0.87109 0-0.003906-0.003906-0.007812-0.003906-0.011718h2.3633v0.011718c0 0.48047 0.39062 0.87109 0.86719 0.87109 0.48047 0 0.86719-0.39062 0.86719-0.87109v-0.011718h2.3516c0 0.003906-0.003906 0.007812-0.003906 0.011718 0 0.48047 0.39062 0.87109 0.87109 0.87109s0.86719-0.39062 0.86719-0.87109v-0.011718h2.3594c0 0.003906-0.003906 0.007812-0.003906 0.011718 0 0.48047 0.39062 0.87109 0.87109 0.87109s0.86719-0.39062 0.86719-0.87109v-0.011718h1.1758v1.1914zm6.4375-4.832h-90.617v-7.8047h90.617zm-58.484-37.289c0-0.48047 0.39062-0.86719 0.86719-0.86719 0.48047 0 0.87109 0.39062 0.87109 0.86719 0 0.48047-0.39062 0.87109-0.87109 0.87109-0.47656-0.003906-0.86719-0.39453-0.86719-0.87109zm4.0977 0c0-0.48047 0.39062-0.86719 0.86719-0.86719 0.48047 0 0.87109 0.39062 0.87109 0.86719 0 0.48047-0.39062 0.87109-0.87109 0.87109-0.47656-0.003906-0.86719-0.39453-0.86719-0.87109zm4.0898 0c0-0.48047 0.39062-0.86719 0.87109-0.86719 0.48047 0 0.86719 0.39062 0.86719 0.86719 0 0.48047-0.39062 0.87109-0.86719 0.87109-0.48437-0.003906-0.87109-0.39453-0.87109-0.87109zm-10.543 4.1016c0 0.48047-0.39062 0.86719-0.86719 0.86719-0.48047 0-0.87109-0.39062-0.87109-0.86719 0-0.48047 0.39062-0.87109 0.87109-0.87109 0.47656 0 0.86719 0.39062 0.86719 0.87109zm2.3555 0c0-0.48047 0.39062-0.87109 0.86719-0.87109 0.48047 0 0.87109 0.39062 0.87109 0.87109s-0.39062 0.86719-0.87109 0.86719c-0.47656 0-0.86719-0.38672-0.86719-0.86719zm-4.3984 2.0469c0 0.48047-0.39062 0.86719-0.87109 0.86719-0.48047 0-0.87109-0.39062-0.87109-0.86719 0-0.48047 0.39062-0.86719 0.87109-0.86719 0.48437 0 0.87109 0.38672 0.87109 0.86719zm2.3555-4.0977c0-0.48047 0.39062-0.87109 0.86719-0.87109 0.48047 0 0.87109 0.39062 0.87109 0.87109 0 0.48047-0.39062 0.86719-0.87109 0.86719-0.47656 0.003906-0.86719-0.38281-0.86719-0.86719zm0 4.0977c0-0.48047 0.39062-0.86719 0.86719-0.86719 0.48047 0 0.87109 0.39062 0.87109 0.86719 0 0.48047-0.39062 0.86719-0.87109 0.86719-0.47656 0-0.86719-0.38672-0.86719-0.86719zm10.23-2.0469c0-0.48047 0.39062-0.87109 0.87109-0.87109 0.48047 0 0.86719 0.39062 0.86719 0.87109s-0.39062 0.86719-0.86719 0.86719c-0.48437 0-0.87109-0.38672-0.87109-0.86719zm-4.0898 0c0-0.48047 0.39062-0.87109 0.86719-0.87109 0.48047 0 0.87109 0.39062 0.87109 0.87109s-0.39062 0.86719-0.87109 0.86719c-0.47656 0-0.86719-0.38672-0.86719-0.86719zm-2.0469-2.0508c0-0.48047 0.39062-0.87109 0.86719-0.87109 0.48047 0 0.87109 0.39062 0.87109 0.87109 0 0.48047-0.39062 0.86719-0.87109 0.86719-0.48047 0.003906-0.86719-0.38281-0.86719-0.86719zm4.0938 0c0-0.48047 0.39062-0.87109 0.87109-0.87109 0.48047 0 0.86719 0.39062 0.86719 0.87109 0 0.48047-0.39062 0.86719-0.86719 0.86719-0.48047 0.003906-0.87109-0.38281-0.87109-0.86719zm-4.0938 4.0977c0-0.48047 0.39062-0.86719 0.86719-0.86719 0.48047 0 0.87109 0.39062 0.87109 0.86719 0 0.48047-0.39062 0.86719-0.87109 0.86719-0.48047 0-0.86719-0.38672-0.86719-0.86719zm4.0938 0c0-0.48047 0.39062-0.86719 0.87109-0.86719 0.48047 0 0.86719 0.39062 0.86719 0.86719 0 0.48047-0.39062 0.86719-0.86719 0.86719-0.48047 0-0.87109-0.38672-0.87109-0.86719zm4.0938-4.0977c0-0.48047 0.39062-0.87109 0.86719-0.87109 0.48047 0 0.87109 0.39062 0.87109 0.87109 0 0.48047-0.39062 0.86719-0.87109 0.86719-0.47656 0.003906-0.86719-0.38281-0.86719-0.86719zm0 4.0977c0-0.48047 0.39062-0.86719 0.86719-0.86719 0.48047 0 0.87109 0.39062 0.87109 0.86719 0 0.48047-0.39062 0.86719-0.87109 0.86719-0.47656 0-0.86719-0.38672-0.86719-0.86719zm-12.594 2.043c0 0.48047-0.39062 0.86719-0.86719 0.86719-0.48047 0-0.87109-0.39062-0.87109-0.86719 0-0.48047 0.39062-0.86719 0.87109-0.86719 0.47656 0 0.86719 0.38672 0.86719 0.86719zm2.3555 0c0-0.48047 0.39062-0.86719 0.86719-0.86719 0.48047 0 0.87109 0.39062 0.87109 0.86719 0 0.48047-0.39062 0.86719-0.87109 0.86719-0.47656 0-0.86719-0.38672-0.86719-0.86719zm-6.4453 0c0 0.48047-0.39062 0.87109-0.86719 0.87109-0.48047 0-0.86719-0.39062-0.86719-0.86719 0-0.48047 0.39062-0.87109 0.86719-0.87109 0.47656-0.003906 0.86719 0.38672 0.86719 0.86719zm2.0469 2.0469c0 0.48047-0.39062 0.86719-0.87109 0.86719-0.48047 0-0.87109-0.39062-0.87109-0.86719 0-0.48047 0.39062-0.87109 0.87109-0.87109 0.48437 0.003906 0.87109 0.39062 0.87109 0.87109zm2.3555 0c0-0.48047 0.39062-0.87109 0.86719-0.87109 0.48047 0 0.87109 0.39062 0.87109 0.87109 0 0.48047-0.39062 0.86719-0.87109 0.86719-0.47656 0.003906-0.86719-0.38672-0.86719-0.86719zm10.23-2.0469c0-0.48047 0.39062-0.86719 0.87109-0.86719 0.48047 0 0.86719 0.39062 0.86719 0.86719 0 0.48047-0.39062 0.86719-0.86719 0.86719-0.48437 0-0.87109-0.38672-0.87109-0.86719zm-4.0898 0c0-0.48047 0.39062-0.87109 0.86719-0.87109 0.48047 0 0.87109 0.39062 0.87109 0.86719 0 0.48047-0.39062 0.87109-0.87109 0.87109-0.47656 0-0.86719-0.38672-0.86719-0.86719zm-2.0469 2.0469c0-0.48047 0.39062-0.87109 0.86719-0.87109 0.48047 0 0.87109 0.39062 0.87109 0.87109 0 0.48047-0.39062 0.86719-0.87109 0.86719-0.48047 0.003906-0.86719-0.38672-0.86719-0.86719zm4.0938 0c0-0.48047 0.39062-0.87109 0.87109-0.87109 0.48047 0 0.86719 0.39062 0.86719 0.87109 0 0.48047-0.39062 0.86719-0.86719 0.86719-0.48047 0.003906-0.87109-0.38672-0.87109-0.86719zm4.0938 0c0-0.48047 0.39062-0.87109 0.86719-0.87109 0.48047 0 0.87109 0.39062 0.87109 0.87109 0 0.48047-0.39062 0.86719-0.87109 0.86719-0.47656 0.003906-0.86719-0.38672-0.86719-0.86719zm-16.684 2.0508c0 0.48438-0.39062 0.875-0.86719 0.875-0.48047 0-0.86719-0.39062-0.86719-0.86719 0-0.48438 0.39062-0.875 0.86719-0.875 0.47656-0.003906 0.86719 0.38281 0.86719 0.86719zm4.0898 0c0 0.48438-0.39062 0.875-0.86719 0.875-0.48047 0-0.87109-0.39062-0.87109-0.86719 0-0.48438 0.39062-0.875 0.87109-0.875 0.47656-0.003906 0.86719 0.38281 0.86719 0.86719zm14.645-12.289c0-0.48047 0.39062-0.86719 0.87109-0.86719s0.87109 0.39062 0.87109 0.86719c0 0.48047-0.39062 0.87109-0.87109 0.87109-0.48047-0.003906-0.87109-0.39453-0.87109-0.87109zm8.1836 0c0-0.48047 0.39062-0.86719 0.86719-0.86719 0.48047 0 0.87109 0.39062 0.87109 0.86719 0 0.48047-0.39062 0.87109-0.87109 0.87109-0.47656-0.003906-0.86719-0.39453-0.86719-0.87109zm4.0977 0c0-0.48047 0.39062-0.86719 0.87109-0.86719s0.86719 0.39062 0.86719 0.86719c0 0.48047-0.39062 0.87109-0.86719 0.87109-0.48438-0.003906-0.87109-0.39453-0.87109-0.87109zm-12.281 4.1016c0-0.48047 0.39062-0.87109 0.87109-0.87109s0.87109 0.39062 0.87109 0.87109-0.39062 0.86719-0.87109 0.86719-0.87109-0.38672-0.87109-0.86719zm8.1836 0c0-0.48047 0.39062-0.87109 0.86719-0.87109 0.48047 0 0.87109 0.39062 0.87109 0.87109s-0.39062 0.86719-0.87109 0.86719c-0.47656 0-0.86719-0.38672-0.86719-0.86719zm4.0977 0c0-0.48047 0.39062-0.87109 0.87109-0.87109s0.86719 0.39062 0.86719 0.87109-0.39062 0.86719-0.86719 0.86719c-0.48438 0-0.87109-0.38672-0.87109-0.86719zm-10.234-2.0508c0-0.48047 0.39062-0.87109 0.87109-0.87109s0.86719 0.39062 0.86719 0.87109c0 0.48047-0.39063 0.86719-0.86719 0.86719-0.48047 0.003906-0.87109-0.38281-0.87109-0.86719zm4.0977 0c0-0.48047 0.39063-0.87109 0.87109-0.87109 0.48047 0 0.87109 0.39062 0.87109 0.87109 0 0.48047-0.39062 0.86719-0.87109 0.86719-0.48438 0.003906-0.87109-0.38281-0.87109-0.86719zm-4.0977 4.0977c0-0.48047 0.39062-0.86719 0.87109-0.86719s0.86719 0.39062 0.86719 0.86719c0 0.48047-0.39063 0.86719-0.86719 0.86719-0.48047 0-0.87109-0.38672-0.87109-0.86719zm4.0977 0c0-0.48047 0.39063-0.86719 0.87109-0.86719 0.48047 0 0.87109 0.39062 0.87109 0.86719 0 0.48047-0.39062 0.86719-0.87109 0.86719-0.48438 0-0.87109-0.38672-0.87109-0.86719zm4.0938-4.0977c0-0.48047 0.39063-0.87109 0.86719-0.87109 0.48047 0 0.86719 0.39062 0.86719 0.87109 0 0.48047-0.39063 0.86719-0.86719 0.86719-0.48047 0.003906-0.86719-0.38281-0.86719-0.86719zm0 4.0977c0-0.48047 0.39063-0.86719 0.86719-0.86719 0.48047 0 0.86719 0.39062 0.86719 0.86719 0 0.48047-0.39063 0.86719-0.86719 0.86719-0.48047 0-0.86719-0.38672-0.86719-0.86719zm4.0898-4.0977c0-0.48047 0.39062-0.87109 0.87109-0.87109s0.86719 0.39062 0.86719 0.87109c0 0.48047-0.39063 0.86719-0.86719 0.86719-0.48047 0.003906-0.87109-0.38281-0.87109-0.86719zm0 4.0977c0-0.48047 0.39062-0.86719 0.87109-0.86719s0.86719 0.39062 0.86719 0.86719c0 0.48047-0.39063 0.86719-0.86719 0.86719-0.48047 0-0.87109-0.38672-0.87109-0.86719zm4.0977 0c0-0.48047 0.39063-0.86719 0.86719-0.86719 0.48047 0 0.86719 0.39062 0.86719 0.86719 0 0.48047-0.39063 0.86719-0.86719 0.86719s-0.86719-0.38672-0.86719-0.86719zm-18.426 2.043c0-0.48047 0.39062-0.86719 0.87109-0.86719s0.87109 0.39062 0.87109 0.86719c0 0.48047-0.39062 0.86719-0.87109 0.86719s-0.87109-0.38672-0.87109-0.86719zm8.1836 0c0-0.48047 0.39062-0.86719 0.86719-0.86719 0.48047 0 0.87109 0.39062 0.87109 0.86719 0 0.48047-0.39062 0.86719-0.87109 0.86719-0.47656 0-0.86719-0.38672-0.86719-0.86719zm4.0977 0c0-0.48047 0.39062-0.86719 0.87109-0.86719s0.86719 0.39062 0.86719 0.86719c0 0.48047-0.39062 0.86719-0.86719 0.86719-0.48438 0-0.87109-0.38672-0.87109-0.86719zm-10.234 2.0469c0-0.48047 0.39062-0.87109 0.87109-0.87109s0.86719 0.39062 0.86719 0.87109c0 0.48047-0.39063 0.86719-0.86719 0.86719-0.48047 0.003906-0.87109-0.38672-0.87109-0.86719zm4.0977 0c0-0.48047 0.39063-0.87109 0.87109-0.87109 0.48047 0 0.87109 0.39062 0.87109 0.87109 0 0.48047-0.39062 0.86719-0.87109 0.86719-0.48438 0.003906-0.87109-0.38672-0.87109-0.86719zm4.0938 0c0-0.48047 0.39063-0.87109 0.86719-0.87109 0.48047 0 0.86719 0.39062 0.86719 0.87109 0 0.48047-0.39063 0.86719-0.86719 0.86719-0.48047 0.003906-0.86719-0.38672-0.86719-0.86719zm10.227-2.0469c0-0.48047 0.39062-0.86719 0.87109-0.86719s0.86719 0.39062 0.86719 0.86719c0 0.48047-0.39062 0.86719-0.86719 0.86719-0.48047 0-0.87109-0.38672-0.87109-0.86719zm-6.1367 2.0469c0-0.48047 0.39062-0.87109 0.87109-0.87109s0.86719 0.39062 0.86719 0.87109c0 0.48047-0.39063 0.86719-0.86719 0.86719-0.48047 0.003906-0.87109-0.38672-0.87109-0.86719zm4.0977 0c0-0.48047 0.39063-0.87109 0.86719-0.87109 0.48047 0 0.86719 0.39062 0.86719 0.87109 0 0.48047-0.39063 0.86719-0.86719 0.86719-0.47656 0.003906-0.86719-0.38672-0.86719-0.86719zm-14.332-10.238c0-0.48047 0.39062-0.86719 0.86719-0.86719 0.48047 0 0.86719 0.39062 0.86719 0.86719 0 0.48047-0.39062 0.87109-0.86719 0.87109-0.47656-0.003906-0.86719-0.39453-0.86719-0.87109zm0 4.1016c0-0.48047 0.39062-0.87109 0.86719-0.87109 0.48047 0 0.86719 0.39062 0.86719 0.87109s-0.39062 0.86719-0.86719 0.86719c-0.47656 0-0.86719-0.38672-0.86719-0.86719zm0 4.0898c0-0.48047 0.39062-0.86719 0.86719-0.86719 0.48047 0 0.86719 0.39062 0.86719 0.86719 0 0.48047-0.39062 0.86719-0.86719 0.86719-0.47656 0-0.86719-0.38672-0.86719-0.86719zm12.281-4.0898c0-0.48047 0.39062-0.87109 0.86719-0.87109 0.48047 0 0.86719 0.39062 0.86719 0.87109s-0.39062 0.86719-0.86719 0.86719c-0.47656 0-0.86719-0.38672-0.86719-0.86719zm0 4.0898c0-0.48047 0.39062-0.86719 0.86719-0.86719 0.48047 0 0.86719 0.39062 0.86719 0.86719 0 0.48047-0.39062 0.86719-0.86719 0.86719-0.47656 0-0.86719-0.38672-0.86719-0.86719zm-31.02 8.1953c0 0.48047-0.39062 0.86719-0.86719 0.86719-0.48047 0-0.87109-0.39062-0.87109-0.86719 0-0.48047 0.39062-0.87109 0.87109-0.87109 0.47656 0 0.86719 0.39062 0.86719 0.87109zm-4.0898 0c0 0.48047-0.39062 0.86719-0.86719 0.86719-0.48047 0-0.86719-0.39062-0.86719-0.86719 0-0.48047 0.39062-0.87109 0.86719-0.87109 0.47656 0 0.86719 0.39062 0.86719 0.87109zm-2.0469-2.0469c0 0.48047-0.39062 0.86719-0.87109 0.86719-0.48047 0-0.86719-0.39063-0.86719-0.86719 0-0.48047 0.38672-0.86719 0.86719-0.86719 0.48047-0.003906 0.87109 0.38672 0.87109 0.86719zm4.0938 0c0 0.48047-0.39062 0.86719-0.87109 0.86719-0.48047 0-0.87109-0.39063-0.87109-0.86719 0-0.48047 0.39062-0.86719 0.87109-0.86719 0.48437-0.003906 0.87109 0.38672 0.87109 0.86719zm-4.0938 4.0938c0 0.48047-0.39062 0.86719-0.87109 0.86719-0.48047 0-0.86719-0.39063-0.86719-0.86719 0-0.48047 0.38672-0.86719 0.86719-0.86719 0.48047 0 0.87109 0.39063 0.87109 0.86719zm4.0938 0c0 0.48047-0.39062 0.86719-0.87109 0.86719-0.48047 0-0.87109-0.39063-0.87109-0.86719 0-0.48047 0.39062-0.86719 0.87109-0.86719 0.48437 0 0.87109 0.39063 0.87109 0.86719zm8.4961-6.1406c0-0.48438 0.39062-0.875 0.86719-0.875 0.48047 0 0.87109 0.39062 0.87109 0.86719 0 0.48438-0.39062 0.875-0.87109 0.875-0.47656 0-0.86719-0.39062-0.86719-0.86719zm4.0898 0c0-0.48438 0.39062-0.875 0.87109-0.875 0.48047 0 0.86719 0.39062 0.86719 0.86719 0 0.48438-0.39062 0.875-0.86719 0.875-0.48437 0-0.87109-0.39062-0.87109-0.86719zm0 4.0938c0-0.48047 0.39062-0.87109 0.87109-0.87109 0.48047 0 0.86719 0.39062 0.86719 0.87109s-0.39062 0.86719-0.86719 0.86719c-0.48437 0.003907-0.87109-0.38672-0.87109-0.86719zm-4.0898 0c0-0.48047 0.39062-0.87109 0.86719-0.87109 0.48047 0 0.87109 0.39062 0.87109 0.87109s-0.39062 0.86719-0.87109 0.86719c-0.47656 0.003907-0.86719-0.38672-0.86719-0.86719zm-2.0469-2.0469c0-0.48047 0.39062-0.86719 0.86719-0.86719 0.48047 0 0.87109 0.39063 0.87109 0.86719 0 0.48047-0.39062 0.86719-0.87109 0.86719-0.48047 0.003906-0.86719-0.38672-0.86719-0.86719zm4.0938 0c0-0.48047 0.39062-0.86719 0.87109-0.86719 0.48047 0 0.86719 0.39063 0.86719 0.86719 0 0.48047-0.39062 0.86719-0.86719 0.86719-0.48047 0.003906-0.87109-0.38672-0.87109-0.86719zm-4.0938 4.0938c0-0.48047 0.39062-0.86719 0.86719-0.86719 0.48047 0 0.87109 0.39063 0.87109 0.86719 0 0.48047-0.39062 0.86719-0.87109 0.86719-0.48047 0.003906-0.86719-0.38281-0.86719-0.86719zm4.0938 0c0-0.48047 0.39062-0.86719 0.87109-0.86719 0.48047 0 0.86719 0.39063 0.86719 0.86719 0 0.48047-0.39062 0.86719-0.86719 0.86719-0.48047 0.003906-0.87109-0.38281-0.87109-0.86719zm4.0938-4.0938c0-0.48047 0.39062-0.86719 0.86719-0.86719 0.48047 0 0.87109 0.39063 0.87109 0.86719 0 0.48047-0.39062 0.86719-0.87109 0.86719-0.47656 0.003906-0.86719-0.38672-0.86719-0.86719zm0 4.0938c0-0.48047 0.39062-0.86719 0.86719-0.86719 0.48047 0 0.87109 0.39063 0.87109 0.86719 0 0.48047-0.39062 0.86719-0.87109 0.86719-0.47656 0.003906-0.86719-0.38281-0.86719-0.86719zm-12.594 2.043c0 0.48047-0.39062 0.86719-0.86719 0.86719-0.48047 0-0.87109-0.39062-0.87109-0.86719 0-0.48047 0.39062-0.87109 0.87109-0.87109 0.47656 0.003906 0.86719 0.39453 0.86719 0.87109zm-4.0898 0c0 0.48047-0.39062 0.86719-0.86719 0.86719-0.48047 0-0.86719-0.39062-0.86719-0.86719 0-0.48047 0.39062-0.87109 0.86719-0.87109 0.47656 0.003906 0.86719 0.39453 0.86719 0.87109zm-2.0469 2.0508c0 0.48047-0.39062 0.86719-0.87109 0.86719-0.48047 0-0.86719-0.39063-0.86719-0.86719 0-0.48047 0.38672-0.86719 0.86719-0.86719 0.48047-0.003906 0.87109 0.38672 0.87109 0.86719zm4.0938 0c0 0.48047-0.39062 0.86719-0.87109 0.86719-0.48047 0-0.87109-0.39063-0.87109-0.86719 0-0.48047 0.39062-0.86719 0.87109-0.86719 0.48437-0.003906 0.87109 0.38672 0.87109 0.86719zm12.586-2.0508c0-0.48047 0.39062-0.87109 0.87109-0.87109 0.48047 0 0.86719 0.39062 0.86719 0.87109s-0.39062 0.86719-0.86719 0.86719c-0.48437 0.003906-0.87109-0.38672-0.87109-0.86719zm-4.0898 0c0-0.48047 0.39062-0.87109 0.86719-0.87109 0.48047 0 0.87109 0.39062 0.87109 0.87109s-0.39062 0.86719-0.87109 0.86719c-0.47656 0.003906-0.86719-0.38672-0.86719-0.86719zm-2.0469 2.0508c0-0.48047 0.39062-0.86719 0.86719-0.86719 0.48047 0 0.87109 0.39063 0.87109 0.86719 0 0.48047-0.39062 0.86719-0.87109 0.86719-0.48047 0-0.86719-0.38672-0.86719-0.86719zm4.0938 0c0-0.48047 0.39062-0.86719 0.87109-0.86719 0.48047 0 0.86719 0.39063 0.86719 0.86719 0 0.48047-0.39062 0.86719-0.86719 0.86719-0.48047 0-0.87109-0.38672-0.87109-0.86719zm4.0938 0c0-0.48047 0.39062-0.86719 0.86719-0.86719 0.48047 0 0.87109 0.39063 0.87109 0.86719 0 0.48047-0.39062 0.86719-0.87109 0.86719-0.47656 0-0.86719-0.38672-0.86719-0.86719zm-16.684 2.0469c0 0.48047-0.39062 0.86719-0.86719 0.86719-0.48047 0-0.86719-0.39062-0.86719-0.86719 0-0.48047 0.39062-0.86719 0.86719-0.86719 0.47656 0 0.86719 0.38672 0.86719 0.86719zm4.0898 0c0 0.48047-0.39062 0.86719-0.86719 0.86719-0.48047 0-0.87109-0.39062-0.87109-0.86719 0-0.48047 0.39062-0.86719 0.87109-0.86719 0.47656 0 0.86719 0.38672 0.86719 0.86719zm6.4531 0c0-0.48047 0.39062-0.86719 0.86719-0.86719 0.48047 0 0.87109 0.39062 0.87109 0.86719 0 0.48047-0.39062 0.86719-0.87109 0.86719-0.47656 0-0.86719-0.38672-0.86719-0.86719zm4.0898 0c0-0.48047 0.39062-0.86719 0.87109-0.86719 0.48047 0 0.86719 0.39062 0.86719 0.86719 0 0.48047-0.39062 0.86719-0.86719 0.86719-0.48437 0-0.87109-0.38672-0.87109-0.86719zm-28.965 18.414c0 0.48047-0.39062 0.86719-0.86719 0.86719-0.48047 0-0.87109-0.39062-0.87109-0.86719 0-0.48047 0.39062-0.87109 0.87109-0.87109 0.47656 0.003906 0.86719 0.39062 0.86719 0.87109zm4.0938 0c0 0.48047-0.39062 0.86719-0.87109 0.86719s-0.86719-0.39062-0.86719-0.86719c0-0.48047 0.39062-0.87109 0.86719-0.87109 0.48438 0.003906 0.87109 0.39062 0.87109 0.87109zm4.0938 0c0 0.48047-0.39062 0.86719-0.86719 0.86719-0.48047 0-0.87109-0.39062-0.87109-0.86719 0-0.48047 0.39062-0.87109 0.87109-0.87109 0.48047 0.003906 0.86719 0.39062 0.86719 0.87109zm4.0977 0c0 0.48047-0.39062 0.86719-0.87109 0.86719-0.48047 0-0.86719-0.39062-0.86719-0.86719 0-0.48047 0.38672-0.87109 0.86719-0.87109 0.48047 0.003906 0.87109 0.39062 0.87109 0.87109zm4.0938 0c0 0.48047-0.39062 0.86719-0.87109 0.86719-0.48047 0-0.87109-0.39062-0.87109-0.86719 0-0.48047 0.39062-0.87109 0.87109-0.87109 0.48437 0.003906 0.87109 0.39062 0.87109 0.87109zm4.0938 0c0 0.48047-0.39062 0.86719-0.87109 0.86719-0.48047 0-0.86719-0.39062-0.86719-0.86719 0-0.48047 0.39062-0.87109 0.86719-0.87109 0.48437 0.003906 0.87109 0.39062 0.87109 0.87109zm4.0938 0c0 0.48047-0.39062 0.86719-0.87109 0.86719-0.48047 0-0.86719-0.39062-0.86719-0.86719 0-0.48047 0.39062-0.87109 0.86719-0.87109 0.48047 0.003906 0.87109 0.39062 0.87109 0.87109zm4.0938 0c0 0.48047-0.39062 0.86719-0.86719 0.86719-0.48047 0-0.87109-0.39062-0.87109-0.86719 0-0.48047 0.39062-0.87109 0.87109-0.87109 0.48047 0.003906 0.86719 0.39062 0.86719 0.87109zm4.0938 0c0 0.48047-0.39062 0.86719-0.87109 0.86719-0.48047 0-0.86719-0.39062-0.86719-0.86719 0-0.48047 0.39062-0.87109 0.86719-0.87109 0.48047 0.003906 0.87109 0.39062 0.87109 0.87109zm-34.805 2.043c0 0.48047-0.39062 0.87109-0.87109 0.87109s-0.87109-0.39062-0.87109-0.87109c0-0.48047 0.39062-0.86719 0.87109-0.86719s0.87109 0.38672 0.87109 0.86719zm8.1875 0c0 0.48047-0.39062 0.87109-0.87109 0.87109s-0.86719-0.39062-0.86719-0.87109c0-0.48047 0.39063-0.86719 0.86719-0.86719 0.48047 0 0.87109 0.38672 0.87109 0.86719zm4.0938 0c0 0.48047-0.39062 0.87109-0.86719 0.87109-0.48047 0-0.87109-0.39062-0.87109-0.87109 0-0.48047 0.39063-0.86719 0.87109-0.86719 0.48047 0 0.86719 0.38672 0.86719 0.86719zm-10.23 2.0469c0 0.48047-0.39062 0.87109-0.86719 0.87109-0.48047 0-0.87109-0.39062-0.87109-0.87109s0.39062-0.86719 0.87109-0.86719c0.47656 0 0.86719 0.38672 0.86719 0.86719zm4.0938 0c0 0.48047-0.39062 0.87109-0.87109 0.87109s-0.86719-0.39062-0.86719-0.87109 0.39062-0.86719 0.86719-0.86719c0.48438 0 0.87109 0.38672 0.87109 0.86719zm4.0938 0c0 0.48047-0.39062 0.87109-0.86719 0.87109-0.48047 0-0.87109-0.39062-0.87109-0.87109s0.39062-0.86719 0.87109-0.86719c0.48047 0 0.86719 0.38672 0.86719 0.86719zm10.234-2.0469c0 0.48047-0.39062 0.87109-0.86719 0.87109-0.48047 0-0.87109-0.39062-0.87109-0.87109 0-0.48047 0.39062-0.86719 0.87109-0.86719 0.47656 0 0.86719 0.38672 0.86719 0.86719zm4.0938 0c0 0.48047-0.39062 0.87109-0.87109 0.87109-0.48047 0-0.86719-0.39062-0.86719-0.87109 0-0.48047 0.39062-0.86719 0.86719-0.86719 0.48438 0 0.87109 0.38672 0.87109 0.86719zm-8.1836 0c0 0.48047-0.39062 0.87109-0.86719 0.87109-0.48047 0-0.86719-0.39062-0.86719-0.87109 0-0.48047 0.39062-0.86719 0.86719-0.86719 0.47656 0 0.86719 0.38672 0.86719 0.86719zm-2.0469 2.0469c0 0.48047-0.39062 0.87109-0.87109 0.87109-0.48047 0-0.86719-0.39062-0.86719-0.87109s0.38672-0.86719 0.86719-0.86719c0.48047 0 0.87109 0.38672 0.87109 0.86719zm4.0938 0c0 0.48047-0.39062 0.87109-0.87109 0.87109-0.48047 0-0.87109-0.39062-0.87109-0.87109s0.39062-0.86719 0.87109-0.86719c0.48437 0 0.87109 0.38672 0.87109 0.86719zm4.0938 0c0 0.48047-0.39062 0.87109-0.87109 0.87109-0.48047 0-0.86719-0.39062-0.86719-0.87109s0.39062-0.86719 0.86719-0.86719c0.48437 0 0.87109 0.38672 0.87109 0.86719zm10.23-2.0469c0 0.48047-0.39062 0.87109-0.86719 0.87109-0.48047 0-0.87109-0.39062-0.87109-0.87109 0-0.48047 0.39062-0.86719 0.87109-0.86719 0.47656 0 0.86719 0.38672 0.86719 0.86719zm-4.0898 0c0 0.48047-0.39062 0.87109-0.87109 0.87109-0.48047 0-0.86719-0.39062-0.86719-0.87109 0-0.48047 0.39062-0.86719 0.86719-0.86719 0.48047 0 0.87109 0.38672 0.87109 0.86719zm-2.0469 2.0469c0 0.48047-0.39062 0.87109-0.87109 0.87109-0.48047 0-0.86719-0.39062-0.86719-0.87109s0.39062-0.86719 0.86719-0.86719c0.48047 0 0.87109 0.38672 0.87109 0.86719zm4.0938 0c0 0.48047-0.39062 0.87109-0.86719 0.87109-0.48047 0-0.87109-0.39062-0.87109-0.87109s0.39062-0.86719 0.87109-0.86719c0.48047 0 0.86719 0.38672 0.86719 0.86719zm4.0938 0c0 0.48047-0.39062 0.87109-0.87109 0.87109-0.48047 0-0.86719-0.39062-0.86719-0.87109s0.39062-0.86719 0.86719-0.86719c0.48047 0 0.87109 0.38672 0.87109 0.86719zm-34.805 2.0508c0 0.48047-0.39062 0.86719-0.87109 0.86719s-0.87109-0.39062-0.87109-0.86719c0-0.48047 0.39062-0.87109 0.87109-0.87109s0.87109 0.39062 0.87109 0.87109zm8.1875 0c0 0.48047-0.39062 0.86719-0.87109 0.86719s-0.86719-0.39062-0.86719-0.86719c0-0.48047 0.39063-0.87109 0.86719-0.87109 0.48047 0 0.87109 0.39062 0.87109 0.87109zm4.0938 0c0 0.48047-0.39062 0.86719-0.86719 0.86719-0.48047 0-0.87109-0.39062-0.87109-0.86719 0-0.48047 0.39063-0.87109 0.87109-0.87109 0.48047 0 0.86719 0.39062 0.86719 0.87109zm4.1016 0c0 0.48047-0.39062 0.86719-0.86719 0.86719-0.48047 0-0.86719-0.39062-0.86719-0.86719 0-0.48047 0.39062-0.87109 0.86719-0.87109 0.47656 0 0.86719 0.39062 0.86719 0.87109zm4.0898 0c0 0.48047-0.39062 0.86719-0.86719 0.86719-0.48047 0-0.87109-0.39062-0.87109-0.86719 0-0.48047 0.39062-0.87109 0.87109-0.87109 0.47656 0 0.86719 0.39062 0.86719 0.87109zm4.0938 0c0 0.48047-0.39062 0.86719-0.87109 0.86719-0.48047 0-0.86719-0.39062-0.86719-0.86719 0-0.48047 0.39062-0.87109 0.86719-0.87109 0.48438 0 0.87109 0.39062 0.87109 0.87109zm4.0977 0c0 0.48047-0.39062 0.86719-0.87109 0.86719-0.48047 0-0.86719-0.39062-0.86719-0.86719 0-0.48047 0.39062-0.87109 0.86719-0.87109 0.48047 0 0.87109 0.39062 0.87109 0.87109zm4.0898 0c0 0.48047-0.39062 0.86719-0.86719 0.86719-0.48047 0-0.87109-0.39062-0.87109-0.86719 0-0.48047 0.39062-0.87109 0.87109-0.87109 0.47656 0 0.86719 0.39062 0.86719 0.87109zm-32.754 4.1016c0 0.48047-0.39062 0.87109-0.87109 0.87109s-0.87109-0.39062-0.87109-0.87109 0.39062-0.86719 0.87109-0.86719c0.48047-0.003907 0.87109 0.38672 0.87109 0.86719zm8.1875 0c0 0.48047-0.39062 0.87109-0.87109 0.87109s-0.86719-0.39062-0.86719-0.87109 0.39063-0.86719 0.86719-0.86719c0.48047-0.003907 0.87109 0.38672 0.87109 0.86719zm4.0938 0c0 0.48047-0.39062 0.87109-0.86719 0.87109-0.48047 0-0.87109-0.39062-0.87109-0.87109s0.39063-0.86719 0.87109-0.86719c0.48047-0.003907 0.86719 0.38672 0.86719 0.86719zm-10.23-2.0508c0 0.48047-0.39062 0.87109-0.86719 0.87109-0.48047 0-0.87109-0.39063-0.87109-0.87109 0-0.48047 0.39062-0.86719 0.87109-0.86719 0.47656 0 0.86719 0.39062 0.86719 0.86719zm4.0938 0c0 0.48047-0.39062 0.87109-0.87109 0.87109s-0.86719-0.39063-0.86719-0.87109c0-0.48047 0.39062-0.86719 0.86719-0.86719 0.48438 0 0.87109 0.39062 0.87109 0.86719zm-4.0938 4.0977c0 0.48047-0.39062 0.87109-0.86719 0.87109-0.48047 0-0.87109-0.39062-0.87109-0.87109s0.39062-0.86719 0.87109-0.86719c0.47656 0 0.86719 0.38672 0.86719 0.86719zm4.0938 0c0 0.48047-0.39062 0.87109-0.87109 0.87109s-0.86719-0.39062-0.86719-0.87109 0.39062-0.86719 0.86719-0.86719c0.48438 0 0.87109 0.38672 0.87109 0.86719zm4.0938-4.0977c0 0.48047-0.39062 0.87109-0.86719 0.87109-0.48047 0-0.87109-0.39063-0.87109-0.87109 0-0.48047 0.39062-0.86719 0.87109-0.86719 0.48047 0 0.86719 0.39062 0.86719 0.86719zm0 4.0977c0 0.48047-0.39062 0.87109-0.86719 0.87109-0.48047 0-0.87109-0.39062-0.87109-0.87109s0.39062-0.86719 0.87109-0.86719c0.48047 0 0.86719 0.38672 0.86719 0.86719zm10.234-2.0469c0 0.48047-0.39062 0.87109-0.86719 0.87109-0.48047 0-0.87109-0.39062-0.87109-0.87109s0.39062-0.86719 0.87109-0.86719c0.47656-0.003907 0.86719 0.38672 0.86719 0.86719zm4.0938 0c0 0.48047-0.39062 0.87109-0.87109 0.87109-0.48047 0-0.86719-0.39062-0.86719-0.87109s0.39062-0.86719 0.86719-0.86719c0.48438-0.003907 0.87109 0.38672 0.87109 0.86719zm-8.1836 0c0 0.48047-0.39062 0.87109-0.86719 0.87109-0.48047 0-0.86719-0.39062-0.86719-0.87109s0.39062-0.86719 0.86719-0.86719c0.47656-0.003907 0.86719 0.38672 0.86719 0.86719zm-2.0469-2.0508c0 0.48047-0.39062 0.87109-0.87109 0.87109-0.48047 0-0.86719-0.39063-0.86719-0.87109 0-0.48047 0.38672-0.86719 0.86719-0.86719 0.48047 0 0.87109 0.39062 0.87109 0.86719zm4.0938 0c0 0.48047-0.39062 0.87109-0.87109 0.87109-0.48047 0-0.87109-0.39063-0.87109-0.87109 0-0.48047 0.39062-0.86719 0.87109-0.86719 0.48437 0 0.87109 0.39062 0.87109 0.86719zm-4.0938 4.0977c0 0.48047-0.39062 0.87109-0.87109 0.87109-0.48047 0-0.86719-0.39062-0.86719-0.87109s0.38672-0.86719 0.86719-0.86719c0.48047 0 0.87109 0.38672 0.87109 0.86719zm4.0938 0c0 0.48047-0.39062 0.87109-0.87109 0.87109-0.48047 0-0.87109-0.39062-0.87109-0.87109s0.39062-0.86719 0.87109-0.86719c0.48437 0 0.87109 0.38672 0.87109 0.86719zm4.0938-4.0977c0 0.48047-0.39062 0.87109-0.87109 0.87109-0.48047 0-0.86719-0.39063-0.86719-0.87109 0-0.48047 0.39062-0.86719 0.86719-0.86719 0.48437 0 0.87109 0.39062 0.87109 0.86719zm0 4.0977c0 0.48047-0.39062 0.87109-0.87109 0.87109-0.48047 0-0.86719-0.39062-0.86719-0.87109s0.39062-0.86719 0.86719-0.86719c0.48437 0 0.87109 0.38672 0.87109 0.86719zm10.23-2.0469c0 0.48047-0.39062 0.87109-0.86719 0.87109-0.48047 0-0.87109-0.39062-0.87109-0.87109s0.39062-0.86719 0.87109-0.86719c0.47656-0.003907 0.86719 0.38672 0.86719 0.86719zm-4.0898 0c0 0.48047-0.39062 0.87109-0.87109 0.87109-0.48047 0-0.86719-0.39062-0.86719-0.87109s0.39062-0.86719 0.86719-0.86719c0.48047-0.003907 0.87109 0.38672 0.87109 0.86719zm-2.0469-2.0508c0 0.48047-0.39062 0.87109-0.87109 0.87109-0.48047 0-0.86719-0.39063-0.86719-0.87109 0-0.48047 0.39062-0.86719 0.86719-0.86719 0.48047 0 0.87109 0.39062 0.87109 0.86719zm4.0938 0c0 0.48047-0.39062 0.87109-0.86719 0.87109-0.48047 0-0.87109-0.39063-0.87109-0.87109 0-0.48047 0.39062-0.86719 0.87109-0.86719 0.48047 0 0.86719 0.39062 0.86719 0.86719zm-4.0938 4.0977c0 0.48047-0.39062 0.87109-0.87109 0.87109-0.48047 0-0.86719-0.39062-0.86719-0.87109s0.39062-0.86719 0.86719-0.86719c0.48047 0 0.87109 0.38672 0.87109 0.86719zm4.0938 0c0 0.48047-0.39062 0.87109-0.86719 0.87109-0.48047 0-0.87109-0.39062-0.87109-0.87109s0.39062-0.86719 0.87109-0.86719c0.48047 0 0.86719 0.38672 0.86719 0.86719zm4.0938-4.0977c0 0.48047-0.39062 0.87109-0.87109 0.87109-0.48047 0-0.86719-0.39063-0.86719-0.87109 0-0.48047 0.39062-0.86719 0.86719-0.86719 0.48047 0 0.87109 0.39062 0.87109 0.86719zm0 4.0977c0 0.48047-0.39062 0.87109-0.87109 0.87109-0.48047 0-0.86719-0.39062-0.86719-0.87109s0.39062-0.86719 0.86719-0.86719c0.48047 0 0.87109 0.38672 0.87109 0.86719zm-34.805 2.043c0 0.48047-0.39062 0.87109-0.87109 0.87109s-0.87109-0.39062-0.87109-0.87109 0.39062-0.86719 0.87109-0.86719 0.87109 0.38672 0.87109 0.86719zm8.1875 0c0 0.48047-0.39062 0.87109-0.87109 0.87109s-0.86719-0.39062-0.86719-0.87109 0.39063-0.86719 0.86719-0.86719c0.48047 0 0.87109 0.38672 0.87109 0.86719zm4.0938 0c0 0.48047-0.39062 0.87109-0.86719 0.87109-0.48047 0-0.87109-0.39062-0.87109-0.87109s0.39063-0.86719 0.87109-0.86719c0.48047 0 0.86719 0.38672 0.86719 0.86719zm8.1914 0c0 0.48047-0.39062 0.87109-0.86719 0.87109-0.48047 0-0.87109-0.39062-0.87109-0.87109s0.39062-0.86719 0.87109-0.86719c0.47656 0 0.86719 0.38672 0.86719 0.86719zm4.0938 0c0 0.48047-0.39062 0.87109-0.87109 0.87109-0.48047 0-0.86719-0.39062-0.86719-0.87109s0.39062-0.86719 0.86719-0.86719c0.48438 0 0.87109 0.38672 0.87109 0.86719zm-8.1836 0c0 0.48047-0.39062 0.87109-0.86719 0.87109-0.48047 0-0.86719-0.39062-0.86719-0.87109s0.39062-0.86719 0.86719-0.86719c0.47656 0 0.86719 0.38672 0.86719 0.86719zm16.371 0c0 0.48047-0.39062 0.87109-0.86719 0.87109-0.48047 0-0.87109-0.39062-0.87109-0.87109s0.39062-0.86719 0.87109-0.86719c0.47656 0 0.86719 0.38672 0.86719 0.86719zm-4.0898 0c0 0.48047-0.39062 0.87109-0.87109 0.87109-0.48047 0-0.86719-0.39062-0.86719-0.87109s0.39062-0.86719 0.86719-0.86719c0.48047 0 0.87109 0.38672 0.87109 0.86719zm-24.566-12.289c0 0.48047-0.39062 0.87109-0.87109 0.87109-0.48047 0-0.86719-0.39062-0.86719-0.87109 0-0.48047 0.39062-0.86719 0.86719-0.86719 0.48047 0 0.87109 0.38672 0.87109 0.86719zm0 4.0977c0 0.48047-0.39062 0.86719-0.87109 0.86719-0.48047 0-0.86719-0.39062-0.86719-0.86719 0-0.48047 0.39062-0.87109 0.86719-0.87109 0.48047 0 0.87109 0.39062 0.87109 0.87109zm0 4.1016c0 0.48047-0.39062 0.87109-0.87109 0.87109-0.48047 0-0.86719-0.39062-0.86719-0.87109s0.39062-0.86719 0.86719-0.86719c0.48047-0.003907 0.87109 0.38672 0.87109 0.86719zm0 4.0898c0 0.48047-0.39062 0.87109-0.87109 0.87109-0.48047 0-0.86719-0.39062-0.86719-0.87109s0.39062-0.86719 0.86719-0.86719c0.48047 0 0.87109 0.38672 0.87109 0.86719zm31.02-45.027c0-0.48438 0.39062-0.875 0.87109-0.875s0.87109 0.39062 0.87109 0.86719c0 0.48438-0.39062 0.875-0.87109 0.875s-0.87109-0.39062-0.87109-0.86719zm0 4.0938c0-0.48047 0.39062-0.87109 0.87109-0.87109s0.87109 0.39062 0.87109 0.87109-0.39062 0.86719-0.87109 0.86719c-0.48047 0.003907-0.87109-0.38672-0.87109-0.86719zm8.1836-4.0938c0-0.48438 0.39062-0.875 0.86719-0.875 0.48047 0 0.87109 0.39062 0.87109 0.86719 0 0.48438-0.39062 0.875-0.87109 0.875-0.47656 0-0.86719-0.39062-0.86719-0.86719zm0 4.0938c0-0.48047 0.39062-0.87109 0.86719-0.87109 0.48047 0 0.87109 0.39062 0.87109 0.87109s-0.39062 0.86719-0.87109 0.86719c-0.47656 0.003907-0.86719-0.38672-0.86719-0.86719zm-6.1367-2.0469c0-0.48047 0.39062-0.86719 0.87109-0.86719s0.86719 0.39063 0.86719 0.86719c0 0.48047-0.39063 0.86719-0.86719 0.86719-0.48047 0.003906-0.87109-0.38672-0.87109-0.86719zm4.0977 0c0-0.48047 0.39063-0.86719 0.87109-0.86719 0.48047 0 0.87109 0.39063 0.87109 0.86719 0 0.48047-0.39062 0.86719-0.87109 0.86719-0.48438 0.003906-0.87109-0.38672-0.87109-0.86719zm-4.0977 4.0938c0-0.48047 0.39062-0.86719 0.87109-0.86719s0.86719 0.39063 0.86719 0.86719c0 0.48047-0.39063 0.86719-0.86719 0.86719-0.48047 0.003906-0.87109-0.38281-0.87109-0.86719zm4.0977 0c0-0.48047 0.39063-0.86719 0.87109-0.86719 0.48047 0 0.87109 0.39063 0.87109 0.86719 0 0.48047-0.39062 0.86719-0.87109 0.86719-0.48438 0.003906-0.87109-0.38281-0.87109-0.86719zm4.0938-4.0938c0-0.48047 0.39063-0.86719 0.86719-0.86719 0.48047 0 0.86719 0.39063 0.86719 0.86719 0 0.48047-0.39063 0.86719-0.86719 0.86719-0.48047 0.003906-0.86719-0.38672-0.86719-0.86719zm0 4.0938c0-0.48047 0.39063-0.86719 0.86719-0.86719 0.48047 0 0.86719 0.39063 0.86719 0.86719 0 0.48047-0.39063 0.86719-0.86719 0.86719-0.48047 0.003906-0.86719-0.38281-0.86719-0.86719zm10.227-6.1406c0-0.48438 0.39062-0.875 0.87109-0.875s0.86719 0.39062 0.86719 0.86719c0 0.48438-0.39062 0.875-0.86719 0.875-0.48047 0-0.87109-0.39062-0.87109-0.86719zm0 4.0938c0-0.48047 0.39062-0.87109 0.87109-0.87109s0.86719 0.39062 0.86719 0.87109-0.39062 0.86719-0.86719 0.86719c-0.48047 0.003907-0.87109-0.38672-0.87109-0.86719zm-2.0391-2.0469c0-0.48047 0.39063-0.86719 0.86719-0.86719 0.48047 0 0.86719 0.39063 0.86719 0.86719 0 0.48047-0.39063 0.86719-0.86719 0.86719-0.47656 0.003906-0.86719-0.38672-0.86719-0.86719zm0 4.0938c0-0.48047 0.39063-0.86719 0.86719-0.86719 0.48047 0 0.86719 0.39063 0.86719 0.86719 0 0.48047-0.39063 0.86719-0.86719 0.86719-0.47656 0.003906-0.86719-0.38281-0.86719-0.86719zm4.0938-4.0938c0-0.48047 0.39063-0.86719 0.87109-0.86719 0.48047 0 0.87109 0.39063 0.87109 0.86719 0 0.48047-0.39062 0.86719-0.87109 0.86719-0.48438 0.003906-0.87109-0.38672-0.87109-0.86719zm0 4.0938c0-0.48047 0.39063-0.86719 0.87109-0.86719 0.48047 0 0.87109 0.39063 0.87109 0.86719 0 0.48047-0.39062 0.86719-0.87109 0.86719-0.48438 0.003906-0.87109-0.38281-0.87109-0.86719zm-22.52 2.043c0-0.48047 0.39062-0.87109 0.87109-0.87109s0.87109 0.39062 0.87109 0.87109-0.39062 0.86719-0.87109 0.86719c-0.48047 0.003906-0.87109-0.38672-0.87109-0.86719zm8.1836 0c0-0.48047 0.39062-0.87109 0.86719-0.87109 0.48047 0 0.87109 0.39062 0.87109 0.87109s-0.39062 0.86719-0.87109 0.86719c-0.47656 0.003906-0.86719-0.38672-0.86719-0.86719zm-6.1367 2.0508c0-0.48047 0.39062-0.86719 0.87109-0.86719s0.86719 0.39063 0.86719 0.86719c0 0.48047-0.39063 0.86719-0.86719 0.86719-0.48047 0-0.87109-0.38672-0.87109-0.86719zm4.0977 0c0-0.48047 0.39063-0.86719 0.87109-0.86719 0.48047 0 0.87109 0.39063 0.87109 0.86719 0 0.48047-0.39062 0.86719-0.87109 0.86719-0.48438 0-0.87109-0.38672-0.87109-0.86719zm4.0938 0c0-0.48047 0.39063-0.86719 0.86719-0.86719 0.48047 0 0.86719 0.39063 0.86719 0.86719 0 0.48047-0.39063 0.86719-0.86719 0.86719-0.48047 0-0.86719-0.38672-0.86719-0.86719zm10.227-2.0508c0-0.48047 0.39062-0.87109 0.87109-0.87109s0.86719 0.39062 0.86719 0.87109-0.39062 0.86719-0.86719 0.86719c-0.48047 0.003906-0.87109-0.38672-0.87109-0.86719zm-2.0391 2.0508c0-0.48047 0.39063-0.86719 0.86719-0.86719 0.48047 0 0.86719 0.39063 0.86719 0.86719 0 0.48047-0.39063 0.86719-0.86719 0.86719s-0.86719-0.38672-0.86719-0.86719zm4.0938 0c0-0.48047 0.39063-0.86719 0.87109-0.86719 0.48047 0 0.87109 0.39063 0.87109 0.86719 0 0.48047-0.39062 0.86719-0.87109 0.86719-0.48438 0-0.87109-0.38672-0.87109-0.86719zm-22.52 2.0469c0-0.48047 0.39062-0.86719 0.87109-0.86719s0.87109 0.39062 0.87109 0.86719c0 0.48047-0.39062 0.86719-0.87109 0.86719s-0.87109-0.38672-0.87109-0.86719zm8.1836 0c0-0.48047 0.39062-0.86719 0.86719-0.86719 0.48047 0 0.87109 0.39062 0.87109 0.86719 0 0.48047-0.39062 0.86719-0.87109 0.86719-0.47656 0-0.86719-0.38672-0.86719-0.86719zm12.281 0c0-0.48047 0.39062-0.86719 0.87109-0.86719s0.86719 0.39062 0.86719 0.86719c0 0.48047-0.39062 0.86719-0.86719 0.86719-0.48047 0-0.87109-0.38672-0.87109-0.86719zm-16.68 18.414c0 0.48047-0.39063 0.86719-0.86719 0.86719-0.48047 0-0.87109-0.39062-0.87109-0.86719 0-0.48047 0.39062-0.87109 0.87109-0.87109 0.48047 0.003906 0.86719 0.39062 0.86719 0.87109zm4.0977 0c0 0.48047-0.39062 0.86719-0.87109 0.86719s-0.87109-0.39062-0.87109-0.86719c0-0.48047 0.39062-0.87109 0.87109-0.87109 0.48047 0.003906 0.87109 0.39062 0.87109 0.87109zm4.0938 0c0 0.48047-0.39062 0.86719-0.86719 0.86719-0.48047 0-0.86719-0.39062-0.86719-0.86719 0-0.48047 0.39062-0.87109 0.86719-0.87109 0.47656 0.003906 0.86719 0.39062 0.86719 0.87109zm4.0938 0c0 0.48047-0.39062 0.86719-0.86719 0.86719-0.48047 0-0.87109-0.39062-0.87109-0.86719 0-0.48047 0.39063-0.87109 0.87109-0.87109 0.47656 0.003906 0.86719 0.39062 0.86719 0.87109zm4.0938 0c0 0.48047-0.39062 0.86719-0.86719 0.86719-0.48047 0-0.86719-0.39062-0.86719-0.86719 0-0.48047 0.39062-0.87109 0.86719-0.87109 0.47656 0.003906 0.86719 0.39062 0.86719 0.87109zm4.0938 0c0 0.48047-0.39062 0.86719-0.87109 0.86719s-0.87109-0.39062-0.87109-0.86719c0-0.48047 0.39062-0.87109 0.87109-0.87109 0.48047 0.003906 0.87109 0.39062 0.87109 0.87109zm4.0977 0c0 0.48047-0.39062 0.86719-0.87109 0.86719-0.48047 0-0.86719-0.39062-0.86719-0.86719 0-0.48047 0.39062-0.87109 0.86719-0.87109 0.47656 0.003906 0.87109 0.39062 0.87109 0.87109zm4.0938 0c0 0.48047-0.39062 0.86719-0.86719 0.86719-0.48047 0-0.87109-0.39062-0.87109-0.86719 0-0.48047 0.39062-0.87109 0.87109-0.87109 0.47656 0.003906 0.86719 0.39062 0.86719 0.87109zm4.0898 0c0 0.48047-0.39062 0.86719-0.86719 0.86719-0.48047 0-0.86719-0.39062-0.86719-0.86719 0-0.48047 0.39062-0.87109 0.86719-0.87109 0.48047 0.003906 0.86719 0.39062 0.86719 0.87109zm-34.801 2.043c0 0.48047-0.39062 0.87109-0.87109 0.87109s-0.87109-0.39062-0.87109-0.87109c0-0.48047 0.39062-0.86719 0.87109-0.86719s0.87109 0.38672 0.87109 0.86719zm8.1836 0c0 0.48047-0.39062 0.87109-0.87109 0.87109-0.48047 0-0.86719-0.39062-0.86719-0.87109 0-0.48047 0.39062-0.86719 0.86719-0.86719 0.48047 0 0.87109 0.38672 0.87109 0.86719zm4.0977 0c0 0.48047-0.39062 0.87109-0.86719 0.87109-0.48047 0-0.87109-0.39062-0.87109-0.87109 0-0.48047 0.39062-0.86719 0.87109-0.86719 0.47656 0 0.86719 0.38672 0.86719 0.86719zm-10.234 2.0469c0 0.48047-0.39063 0.87109-0.86719 0.87109-0.48047 0-0.87109-0.39062-0.87109-0.87109s0.39062-0.86719 0.87109-0.86719 0.86719 0.38672 0.86719 0.86719zm4.0977 0c0 0.48047-0.39062 0.87109-0.87109 0.87109s-0.87109-0.39062-0.87109-0.87109 0.39062-0.86719 0.87109-0.86719 0.87109 0.38672 0.87109 0.86719zm4.0938 0c0 0.48047-0.39062 0.87109-0.86719 0.87109-0.48047 0-0.86719-0.39062-0.86719-0.87109s0.39062-0.86719 0.86719-0.86719c0.47656 0 0.86719 0.38672 0.86719 0.86719zm10.227-2.0469c0 0.48047-0.39062 0.87109-0.86719 0.87109-0.48047 0-0.87109-0.39062-0.87109-0.87109 0-0.48047 0.39062-0.86719 0.87109-0.86719s0.86719 0.38672 0.86719 0.86719zm4.0977 0c0 0.48047-0.39062 0.87109-0.86719 0.87109-0.48047 0-0.87109-0.39062-0.87109-0.87109 0-0.48047 0.39062-0.86719 0.87109-0.86719 0.47656 0 0.86719 0.38672 0.86719 0.86719zm-10.23 2.0469c0 0.48047-0.39062 0.87109-0.86719 0.87109-0.48047 0-0.87109-0.39062-0.87109-0.87109s0.39063-0.86719 0.87109-0.86719c0.47656 0 0.86719 0.38672 0.86719 0.86719zm4.0938 0c0 0.48047-0.39062 0.87109-0.86719 0.87109-0.48047 0-0.86719-0.39062-0.86719-0.87109s0.39062-0.86719 0.86719-0.86719c0.47656 0 0.86719 0.38672 0.86719 0.86719zm4.0938 0c0 0.48047-0.39062 0.87109-0.87109 0.87109s-0.87109-0.39062-0.87109-0.87109 0.39062-0.86719 0.87109-0.86719 0.87109 0.38672 0.87109 0.86719zm10.23-2.0469c0 0.48047-0.38672 0.87109-0.86719 0.87109s-0.87109-0.39062-0.87109-0.87109c0-0.48047 0.39062-0.86719 0.87109-0.86719s0.86719 0.38672 0.86719 0.86719zm4.0977 0c0 0.48047-0.39062 0.87109-0.86719 0.87109-0.48047 0-0.87109-0.39062-0.87109-0.87109 0-0.48047 0.39062-0.86719 0.87109-0.86719 0.47656 0 0.86719 0.38672 0.86719 0.86719zm-8.1836 0c0 0.48047-0.39062 0.87109-0.86719 0.87109-0.48047 0-0.86719-0.39062-0.86719-0.87109 0-0.48047 0.39062-0.86719 0.86719-0.86719 0.47656 0 0.86719 0.38672 0.86719 0.86719zm-2.0469 2.0469c0 0.48047-0.39062 0.87109-0.87109 0.87109-0.48047 0-0.86719-0.39062-0.86719-0.87109s0.39062-0.86719 0.86719-0.86719c0.47656 0 0.87109 0.38672 0.87109 0.86719zm4.0938 0c0 0.48047-0.39062 0.87109-0.86719 0.87109-0.48047 0-0.87109-0.39062-0.87109-0.87109s0.39062-0.86719 0.87109-0.86719c0.47656 0 0.86719 0.38672 0.86719 0.86719zm4.0898 0c0 0.48047-0.39062 0.87109-0.86719 0.87109-0.48047 0-0.86719-0.39062-0.86719-0.87109s0.39062-0.86719 0.86719-0.86719c0.48047 0 0.86719 0.38672 0.86719 0.86719zm-34.801 2.0508c0 0.48047-0.39062 0.86719-0.87109 0.86719s-0.87109-0.39062-0.87109-0.86719c0-0.48047 0.39062-0.87109 0.87109-0.87109s0.87109 0.39062 0.87109 0.87109zm8.1836 0c0 0.48047-0.39062 0.86719-0.87109 0.86719-0.48047 0-0.86719-0.39062-0.86719-0.86719 0-0.48047 0.39062-0.87109 0.86719-0.87109 0.48047 0 0.87109 0.39062 0.87109 0.87109zm4.0977 0c0 0.48047-0.39062 0.86719-0.86719 0.86719-0.48047 0-0.87109-0.39062-0.87109-0.86719 0-0.48047 0.39062-0.87109 0.87109-0.87109 0.47656 0 0.86719 0.39062 0.86719 0.87109zm8.1836 0c0 0.48047-0.39062 0.86719-0.86719 0.86719-0.48047 0-0.87109-0.39062-0.87109-0.86719 0-0.48047 0.39062-0.87109 0.87109-0.87109s0.86719 0.39062 0.86719 0.87109zm4.0977 0c0 0.48047-0.39062 0.86719-0.86719 0.86719-0.48047 0-0.87109-0.39062-0.87109-0.86719 0-0.48047 0.39062-0.87109 0.87109-0.87109 0.47656 0 0.86719 0.39062 0.86719 0.87109zm4.1016 0c0 0.48047-0.39062 0.86719-0.86719 0.86719-0.48047 0-0.86719-0.39062-0.86719-0.86719 0-0.48047 0.39062-0.87109 0.86719-0.87109 0.47656 0 0.86719 0.39062 0.86719 0.87109zm4.0859 0c0 0.48047-0.38672 0.86719-0.86719 0.86719s-0.87109-0.39062-0.87109-0.86719c0-0.48047 0.39062-0.87109 0.87109-0.87109s0.86719 0.39062 0.86719 0.87109zm4.0977 0c0 0.48047-0.39062 0.86719-0.86719 0.86719-0.48047 0-0.87109-0.39062-0.87109-0.86719 0-0.48047 0.39062-0.87109 0.87109-0.87109 0.47656 0 0.86719 0.39062 0.86719 0.87109zm-36.848 4.1016c0 0.48047-0.39062 0.87109-0.87109 0.87109s-0.87109-0.39062-0.87109-0.87109 0.39062-0.86719 0.87109-0.86719c0.48047-0.003907 0.87109 0.38672 0.87109 0.86719zm8.1836 0c0 0.48047-0.39062 0.87109-0.87109 0.87109-0.48047 0-0.86719-0.39062-0.86719-0.87109s0.39062-0.86719 0.86719-0.86719c0.48047-0.003907 0.87109 0.38672 0.87109 0.86719zm4.0977 0c0 0.48047-0.39062 0.87109-0.86719 0.87109-0.48047 0-0.87109-0.39062-0.87109-0.87109s0.39062-0.86719 0.87109-0.86719c0.47656-0.003907 0.86719 0.38672 0.86719 0.86719zm-10.234-2.0508c0 0.48047-0.39063 0.87109-0.86719 0.87109-0.48047 0-0.87109-0.39063-0.87109-0.87109 0-0.48047 0.39062-0.86719 0.87109-0.86719s0.86719 0.39062 0.86719 0.86719zm4.0977 0c0 0.48047-0.39062 0.87109-0.87109 0.87109s-0.87109-0.39063-0.87109-0.87109c0-0.48047 0.39062-0.86719 0.87109-0.86719s0.87109 0.39062 0.87109 0.86719zm-4.0977 4.0977c0 0.48047-0.39063 0.87109-0.86719 0.87109-0.48047 0-0.87109-0.39062-0.87109-0.87109s0.39062-0.86719 0.87109-0.86719 0.86719 0.38672 0.86719 0.86719zm4.0977 0c0 0.48047-0.39062 0.87109-0.87109 0.87109s-0.87109-0.39062-0.87109-0.87109 0.39062-0.86719 0.87109-0.86719 0.87109 0.38672 0.87109 0.86719zm4.0938-4.0977c0 0.48047-0.39062 0.87109-0.86719 0.87109-0.48047 0-0.86719-0.39063-0.86719-0.87109 0-0.48047 0.39062-0.86719 0.86719-0.86719 0.47656 0 0.86719 0.39062 0.86719 0.86719zm0 4.0977c0 0.48047-0.39062 0.87109-0.86719 0.87109-0.48047 0-0.86719-0.39062-0.86719-0.87109s0.39062-0.86719 0.86719-0.86719c0.47656 0 0.86719 0.38672 0.86719 0.86719zm10.227-2.0469c0 0.48047-0.39062 0.87109-0.86719 0.87109-0.48047 0-0.87109-0.39062-0.87109-0.87109s0.39062-0.86719 0.87109-0.86719c0.48047-0.003907 0.86719 0.38672 0.86719 0.86719zm4.0977 0c0 0.48047-0.39062 0.87109-0.86719 0.87109-0.48047 0-0.87109-0.39062-0.87109-0.87109s0.39062-0.86719 0.87109-0.86719c0.47656-0.003907 0.86719 0.38672 0.86719 0.86719zm-10.23-2.0508c0 0.48047-0.39062 0.87109-0.86719 0.87109-0.48047 0-0.87109-0.39063-0.87109-0.87109 0-0.48047 0.39063-0.86719 0.87109-0.86719 0.47656 0 0.86719 0.39062 0.86719 0.86719zm4.0938 0c0 0.48047-0.39062 0.87109-0.86719 0.87109-0.48047 0-0.86719-0.39063-0.86719-0.87109 0-0.48047 0.39062-0.86719 0.86719-0.86719 0.47656 0 0.86719 0.39062 0.86719 0.86719zm-4.0938 4.0977c0 0.48047-0.39062 0.87109-0.86719 0.87109-0.48047 0-0.87109-0.39062-0.87109-0.87109s0.39063-0.86719 0.87109-0.86719c0.47656 0 0.86719 0.38672 0.86719 0.86719zm4.0938 0c0 0.48047-0.39062 0.87109-0.86719 0.87109-0.48047 0-0.86719-0.39062-0.86719-0.87109s0.39062-0.86719 0.86719-0.86719c0.47656 0 0.86719 0.38672 0.86719 0.86719zm4.0938-4.0977c0 0.48047-0.39062 0.87109-0.87109 0.87109s-0.87109-0.39063-0.87109-0.87109c0-0.48047 0.39062-0.86719 0.87109-0.86719s0.87109 0.39062 0.87109 0.86719zm0 4.0977c0 0.48047-0.39062 0.87109-0.87109 0.87109s-0.87109-0.39062-0.87109-0.87109 0.39062-0.86719 0.87109-0.86719 0.87109 0.38672 0.87109 0.86719zm10.23-2.0469c0 0.48047-0.38672 0.87109-0.86719 0.87109s-0.87109-0.39062-0.87109-0.87109 0.39062-0.86719 0.87109-0.86719c0.48047-0.003907 0.86719 0.38672 0.86719 0.86719zm4.0977 0c0 0.48047-0.39062 0.87109-0.86719 0.87109-0.48047 0-0.87109-0.39062-0.87109-0.87109s0.39062-0.86719 0.87109-0.86719c0.47656-0.003907 0.86719 0.38672 0.86719 0.86719zm-8.1836 0c0 0.48047-0.39062 0.87109-0.86719 0.87109-0.48047 0-0.86719-0.39062-0.86719-0.87109s0.39062-0.86719 0.86719-0.86719c0.47656-0.003907 0.86719 0.38672 0.86719 0.86719zm-2.0469-2.0508c0 0.48047-0.39062 0.87109-0.87109 0.87109-0.48047 0-0.86719-0.39063-0.86719-0.87109 0-0.48047 0.39062-0.86719 0.86719-0.86719 0.47656 0 0.87109 0.39062 0.87109 0.86719zm4.0938 0c0 0.48047-0.39062 0.87109-0.86719 0.87109-0.48047 0-0.87109-0.39063-0.87109-0.87109 0-0.48047 0.39062-0.86719 0.87109-0.86719 0.47656 0 0.86719 0.39062 0.86719 0.86719zm-4.0938 4.0977c0 0.48047-0.39062 0.87109-0.87109 0.87109-0.48047 0-0.86719-0.39062-0.86719-0.87109s0.39062-0.86719 0.86719-0.86719c0.47656 0 0.87109 0.38672 0.87109 0.86719zm4.0938 0c0 0.48047-0.39062 0.87109-0.86719 0.87109-0.48047 0-0.87109-0.39062-0.87109-0.87109s0.39062-0.86719 0.87109-0.86719c0.47656 0 0.86719 0.38672 0.86719 0.86719zm4.0898-4.0977c0 0.48047-0.39062 0.87109-0.86719 0.87109-0.48047 0-0.86719-0.39063-0.86719-0.87109 0-0.48047 0.39062-0.86719 0.86719-0.86719 0.48047 0 0.86719 0.39062 0.86719 0.86719zm0 4.0977c0 0.48047-0.39062 0.87109-0.86719 0.87109-0.48047 0-0.86719-0.39062-0.86719-0.87109s0.39062-0.86719 0.86719-0.86719c0.48047 0 0.86719 0.38672 0.86719 0.86719zm-34.801 2.043c0 0.48047-0.39062 0.87109-0.87109 0.87109s-0.87109-0.39062-0.87109-0.87109 0.39062-0.86719 0.87109-0.86719 0.87109 0.38672 0.87109 0.86719zm8.1836 0c0 0.48047-0.39062 0.87109-0.87109 0.87109-0.48047 0-0.86719-0.39062-0.86719-0.87109s0.39062-0.86719 0.86719-0.86719c0.48047 0 0.87109 0.38672 0.87109 0.86719zm4.0977 0c0 0.48047-0.39062 0.87109-0.86719 0.87109-0.48047 0-0.87109-0.39062-0.87109-0.87109s0.39062-0.86719 0.87109-0.86719c0.47656 0 0.86719 0.38672 0.86719 0.86719zm8.1836 0c0 0.48047-0.39062 0.87109-0.86719 0.87109-0.48047 0-0.87109-0.39062-0.87109-0.87109s0.39062-0.86719 0.87109-0.86719 0.86719 0.38672 0.86719 0.86719zm4.0977 0c0 0.48047-0.39062 0.87109-0.86719 0.87109-0.48047 0-0.87109-0.39062-0.87109-0.87109s0.39062-0.86719 0.87109-0.86719c0.47656 0 0.86719 0.38672 0.86719 0.86719zm8.1875 0c0 0.48047-0.38672 0.87109-0.86719 0.87109s-0.87109-0.39062-0.87109-0.87109 0.39062-0.86719 0.87109-0.86719 0.86719 0.38672 0.86719 0.86719zm4.0977 0c0 0.48047-0.39062 0.87109-0.86719 0.87109-0.48047 0-0.87109-0.39062-0.87109-0.87109s0.39062-0.86719 0.87109-0.86719c0.47656 0 0.86719 0.38672 0.86719 0.86719zm-8.1836 0c0 0.48047-0.39062 0.87109-0.86719 0.87109-0.48047 0-0.86719-0.39062-0.86719-0.87109s0.39062-0.86719 0.86719-0.86719c0.47656 0 0.86719 0.38672 0.86719 0.86719zm-26.309-45.027c0-0.48438 0.39062-0.875 0.86719-0.875 0.48047 0 0.86719 0.39062 0.86719 0.86719 0 0.48438-0.39062 0.875-0.86719 0.875-0.47656 0-0.86719-0.39062-0.86719-0.86719zm0 4.0938c0-0.48047 0.39062-0.87109 0.86719-0.87109 0.48047 0 0.86719 0.39062 0.86719 0.87109s-0.39062 0.86719-0.86719 0.86719c-0.47656 0.003907-0.86719-0.38672-0.86719-0.86719zm0 4.0898c0-0.48047 0.39062-0.87109 0.86719-0.87109 0.48047 0 0.86719 0.39062 0.86719 0.87109s-0.39062 0.86719-0.86719 0.86719c-0.47656 0.003906-0.86719-0.38672-0.86719-0.86719zm0 4.0977c0-0.48047 0.39062-0.86719 0.86719-0.86719 0.48047 0 0.86719 0.39062 0.86719 0.86719 0 0.48047-0.39062 0.86719-0.86719 0.86719-0.47656 0-0.86719-0.38672-0.86719-0.86719zm1.7383 20.457c0 0.48047-0.39062 0.87109-0.86719 0.87109-0.48047 0-0.86719-0.39062-0.86719-0.87109 0-0.48047 0.39062-0.86719 0.86719-0.86719s0.86719 0.38672 0.86719 0.86719zm0 4.0977c0 0.48047-0.39062 0.86719-0.86719 0.86719-0.48047 0-0.86719-0.39062-0.86719-0.86719 0-0.48047 0.39062-0.87109 0.86719-0.87109s0.86719 0.39062 0.86719 0.87109zm0 4.1016c0 0.48047-0.39062 0.87109-0.86719 0.87109-0.48047 0-0.86719-0.39062-0.86719-0.87109s0.39062-0.86719 0.86719-0.86719c0.47656-0.003907 0.86719 0.38672 0.86719 0.86719zm0 4.0898c0 0.48047-0.39062 0.87109-0.86719 0.87109-0.48047 0-0.86719-0.39062-0.86719-0.87109s0.39062-0.86719 0.86719-0.86719 0.86719 0.38672 0.86719 0.86719zm10.543-45.027c0-0.48438 0.39062-0.875 0.86719-0.875 0.48047 0 0.86719 0.39062 0.86719 0.86719 0 0.48438-0.39062 0.875-0.86719 0.875-0.47656 0-0.86719-0.39062-0.86719-0.86719zm0 4.0938c0-0.48047 0.39062-0.87109 0.86719-0.87109 0.48047 0 0.86719 0.39062 0.86719 0.87109s-0.39062 0.86719-0.86719 0.86719c-0.47656 0.003907-0.86719-0.38672-0.86719-0.86719zm0 4.0898c0-0.48047 0.39062-0.87109 0.86719-0.87109 0.48047 0 0.86719 0.39062 0.86719 0.87109s-0.39062 0.86719-0.86719 0.86719c-0.47656 0.003906-0.86719-0.38672-0.86719-0.86719zm0 4.0977c0-0.48047 0.39062-0.86719 0.86719-0.86719 0.48047 0 0.86719 0.39062 0.86719 0.86719 0 0.48047-0.39062 0.86719-0.86719 0.86719-0.47656 0-0.86719-0.38672-0.86719-0.86719zm1.7422 20.457c0 0.48047-0.39062 0.87109-0.86719 0.87109-0.48047 0-0.86719-0.39062-0.86719-0.87109 0-0.48047 0.39062-0.86719 0.86719-0.86719 0.47656 0 0.86719 0.38672 0.86719 0.86719zm0 4.0977c0 0.48047-0.39062 0.86719-0.86719 0.86719-0.48047 0-0.86719-0.39062-0.86719-0.86719 0-0.48047 0.39062-0.87109 0.86719-0.87109 0.47656 0 0.86719 0.39062 0.86719 0.87109zm0 4.1016c0 0.48047-0.39062 0.87109-0.86719 0.87109-0.48047 0-0.86719-0.39062-0.86719-0.87109s0.39062-0.86719 0.86719-0.86719c0.47656-0.003907 0.86719 0.38672 0.86719 0.86719zm0 4.0898c0 0.48047-0.39062 0.87109-0.86719 0.87109-0.48047 0-0.86719-0.39062-0.86719-0.87109s0.39062-0.86719 0.86719-0.86719c0.47656 0 0.86719 0.38672 0.86719 0.86719z"/>
</svg>
