<?xml version="1.0" encoding="UTF-8"?>
<svg width="100pt" height="100pt" version="1.1" viewBox="0 0 100 100" xmlns="http://www.w3.org/2000/svg">
 <g>
  <path d="m18.75 18.75c0.007812 3.8203 1.4102 7.5039 3.9414 10.359 2.5352 2.8555 6.0273 4.6836 9.8203 5.1445l1.8633 11.188v6.1211c0 0.41406 0.16406 0.8125 0.45703 1.1055s0.69141 0.45703 1.1055 0.45703h6.2734v-3.125h-4.7109v-3.125h25v3.125h-10.938v3.125h12.5c0.41406 0 0.8125-0.16406 1.1055-0.45703s0.45703-0.69141 0.45703-1.1055v-6.1211l1.8633-11.188c4.668-0.55469 8.8359-3.1758 11.352-7.1445 2.5195-3.9648 3.1172-8.8555 1.6328-13.312-1.4883-4.457-4.8984-8.0078-9.293-9.6719-4.3945-1.6641-9.3008-1.2617-13.367 1.0938-0.097656-0.054688-0.20312-0.09375-0.30469-0.14844-0.48437-0.27344-0.98047-0.51562-1.4922-0.73437-0.070313-0.03125-0.14062-0.050782-0.21094-0.078126h-0.003907c-3.7109-1.5078-7.8672-1.5078-11.582 0-0.078125 0.03125-0.15625 0.054688-0.23828 0.085938h0.003906c-0.49609 0.21094-0.98047 0.44922-1.4492 0.71094-0.11328 0.0625-0.23438 0.10547-0.34766 0.17187-4.832-2.793-10.789-2.793-15.621-0.003906-4.8359 2.7891-7.8125 7.9453-7.8164 13.527zm18.512 25-1.5781-9.4609c2.2891-0.17969 4.5117-0.86328 6.5039-2.0078 0.097656 0.054688 0.20312 0.09375 0.30469 0.14844 0.48437 0.26953 0.98047 0.51562 1.4922 0.73437 0.070313 0.03125 0.14453 0.050782 0.21484 0.078126 3.6992 1.5039 7.8359 1.5117 11.539 0.019531 0.09375-0.035157 0.1875-0.0625 0.27734-0.097657 0.46875-0.19531 0.90625-0.42578 1.3477-0.66016 0.14844-0.078125 0.30469-0.13672 0.44922-0.21875v-0.003906c1.9922 1.1445 4.2148 1.8281 6.5039 2.0078l-1.5781 9.4609zm-0.53125-29.926c0.37109 0.1875 0.80078 0.21875 1.1953 0.085937 0.39453-0.13281 0.71875-0.41406 0.90234-0.78516 0.99219-1.957 2.4766-3.6172 4.3125-4.8125 0.48047-0.32031 0.98047-0.60156 1.5-0.84766l0.03125-0.015625c3.9531-1.8164 8.5586-1.4844 12.211 0.875 1.8477 1.2148 3.3359 2.8945 4.3203 4.8711 0.17969 0.375 0.50391 0.66016 0.89844 0.79297 0.39453 0.13672 0.82813 0.10547 1.1992-0.078125 0.375-0.1875 0.65625-0.51172 0.78906-0.90625 0.12891-0.39453 0.097656-0.82812-0.089844-1.1992-0.84766-1.6875-1.9883-3.207-3.375-4.4883 3.8672-1.7109 8.3359-1.3516 11.879 0.95703 3.543 2.3047 5.6797 6.2461 5.6797 10.477 0 4.2266-2.1367 8.168-5.6797 10.473-3.543 2.3086-8.0117 2.668-11.879 0.95703 1.3203-1.2109 2.4258-2.6445 3.2578-4.2305 0.20703-0.37109 0.25391-0.80469 0.12891-1.207-0.12109-0.40625-0.39844-0.74219-0.77344-0.9375-0.375-0.19531-0.8125-0.23047-1.2109-0.097657-0.40234 0.13281-0.73047 0.42188-0.91406 0.80078-1.0039 1.918-2.4883 3.5391-4.3086 4.7109-0.41797 0.26953-0.85547 0.51562-1.3047 0.73438-0.074219 0.035156-0.14453 0.078125-0.21875 0.11328-3.9414 1.793-8.5273 1.457-12.164-0.89453-1.8477-1.2109-3.3359-2.8906-4.3203-4.8672-0.17969-0.375-0.50391-0.66016-0.89844-0.79688-0.39453-0.13281-0.82813-0.10547-1.1992 0.082032-0.375 0.18359-0.65625 0.51172-0.78906 0.90625-0.12891 0.39453-0.097656 0.82422 0.089844 1.1992 0.84766 1.6875 1.9961 3.207 3.3828 4.4844-3.8672 1.7109-8.3359 1.3516-11.875-0.95703-3.543-2.3047-5.6797-6.2461-5.6797-10.473s2.1367-8.168 5.6797-10.477c3.5391-2.3047 8.0078-2.6641 11.875-0.95703-1.3672 1.2617-2.5 2.7539-3.3438 4.4102-0.1875 0.36719-0.21875 0.79688-0.089843 1.1914 0.12891 0.39453 0.41016 0.72266 0.78125 0.90625z"/>
  <path d="m45.336 50h3.1016v3.125h-3.1016z"/>
  <path d="m18.66 62.648c0.57812 3.0195 2.0742 5.793 4.2852 7.9336 2.8164 3.0312 6.8516 4.6289 10.98 4.3477l9.0156 9.0156-4.3125 4.3125h0.003906c-1.8047 1.8359-1.793 4.7812 0.027344 6.6016 1.8203 1.8203 4.7656 1.832 6.6016 0.027344l4.3125-4.3125 4.3125 4.3125h-0.003907c1.832 1.832 4.8008 1.832 6.6289 0 1.832-1.8281 1.832-4.7969 0-6.6289l-4.3125-4.3125 9.0156-9.0156h0.003906c4.125 0.27344 8.1562-1.3242 10.977-4.3477 4.875-4.875 5.8633-11.812 2.2109-15.469-2.0156-1.8906-4.832-2.668-7.5312-2.0781-3.0234 0.57812-5.7969 2.0742-7.9375 4.2852-3.0273 2.8203-4.625 6.8555-4.3438 10.984l-9.0156 9.0156-9.0156-9.0156c0.28125-4.1328-1.3203-8.1641-4.3516-10.984-2.1406-2.2109-4.9102-3.707-7.9336-4.2852-2.6992-0.58984-5.5195 0.1875-7.5352 2.0781-1.8945 2.0117-2.6719 4.832-2.082 7.5352zm24.391 30.031c-0.61719 0.58984-1.5938 0.58984-2.2109 0-0.60938-0.61328-0.60938-1.6016 0-2.2109l4.3164-4.3125 2.2109 2.2109zm18.324-22.746c0.38672-0.38672 0.54297-0.94531 0.41406-1.4727-0.65625-2.7266 0.66016-6.2344 3.3594-8.9297 1.6797-1.75 3.8594-2.9453 6.2383-3.4141 1.7031-0.40625 3.5 0.042968 4.8086 1.2031 2.3945 2.3984 1.3828 7.4531-2.2109 11.051-2.6953 2.6953-6.1992 4.0195-8.9297 3.3555-0.52734-0.125-1.082 0.03125-1.4688 0.41406l-9.5938 9.5938-2.2109-2.2031zm-38.43-12.613c1.3125-1.1602 3.1094-1.6094 4.8125-1.2031 2.3789 0.46875 4.5586 1.6641 6.2383 3.4141 2.6953 2.6953 4.0156 6.1992 3.3594 8.9297h-0.003907c-0.125 0.52734 0.03125 1.0859 0.41406 1.4688l15.117 15.117 5.418 5.4219c0.30859 0.28906 0.48828 0.69141 0.49609 1.1133 0.003906 0.42578-0.16016 0.83203-0.45703 1.1328-0.30078 0.29688-0.70703 0.46094-1.1328 0.45703-0.42188-0.007813-0.82422-0.18359-1.1133-0.49219l-20.535-20.539c-0.29297-0.29297-0.69141-0.45703-1.1055-0.45703-0.125 0-0.24609 0.015625-0.36719 0.042968-2.7305 0.66406-6.2344-0.66016-8.9297-3.3555-1.75-1.6797-2.9414-3.8555-3.4141-6.2383-0.40625-1.7031 0.042968-3.5 1.2031-4.8125z"/>
 </g>
</svg>
