<?xml version="1.0" encoding="UTF-8"?>
<svg width="100pt" height="100pt" version="1.1" viewBox="0 0 100 100" xmlns="http://www.w3.org/2000/svg">
 <g>
  <path d="m50 64.344c-18.359 0-33.281 14.938-33.281 33.281 0 0.89062 0.71875 1.6094 1.6094 1.6094h63.344c0.89062 0 1.6094-0.71875 1.6094-1.6094 0-18.344-14.922-33.281-33.281-33.281zm-10.312 31.672v-18.812c0-0.89062-0.71875-1.6094-1.6094-1.6094s-1.6094 0.71875-1.6094 1.6094v18.828h-16.484c0.84375-15.828 13.984-28.438 30.016-28.438s29.172 12.609 30.016 28.438h-40.328z"/>
  <path d="m30 23.281v13.031c0 0.17188 0.03125 0.32812 0.078125 0.48438-0.40625 1.5625-0.625 3.1562-0.625 4.7812 0 10.609 8.7969 19.25 19.609 19.25 10.828 0 19.625-8.6406 19.625-19.25 0-1.9375-0.29688-3.8438-0.85938-5.6719-0.046875-0.14062-0.10938-0.26562-0.1875-0.375v-12.25c3.0938-2.25 4.6875-6.0156 4.0781-9.8594-0.6875-4.3906-4.2656-7.875-8.7031-8.4531-1.8281-0.23438-3.6562 0.015625-5.3281 0.71875-1.8281-3-5.1406-4.9219-8.7188-4.9219-3.6406 0-6.9688 1.9531-8.7812 5.0312-1.6719-0.75-3.5469-1.0469-5.4062-0.82812-4.5156 0.53125-8.1562 4.0156-8.8594 8.4688-0.60938 3.8281 0.98438 7.6094 4.0781 9.8438zm19.078 34.328c-9.0312 0-16.391-7.1875-16.391-16.031 0-1.2344 0.14062-2.4688 0.4375-3.6562h31.922c0.28125 1.1875 0.4375 2.4219 0.4375 3.6562-0.015625 8.8438-7.3594 16.031-16.406 16.031zm-19.969-43.688c0.46875-2.9844 3.0156-5.4219 6.0469-5.7656 1.7344-0.20312 3.4062 0.21875 4.8281 1.2031 0.40625 0.28125 0.9375 0.35938 1.4062 0.21875 0.48438-0.15625 0.85938-0.51562 1.0312-0.98438 1-2.75 3.625-4.5938 6.5469-4.5938 2.8594 0 5.4844 1.7969 6.5 4.4688 0.17188 0.45312 0.54688 0.8125 1.0156 0.95312 0.46875 0.15625 0.96875 0.078125 1.375-0.1875 1.4062-0.92188 3.0469-1.2812 4.75-1.0625 2.9844 0.39062 5.4688 2.8125 5.9375 5.7656 0.45312 2.8594-0.85938 5.6406-3.3281 7.1094-0.48438 0.29688-0.79688 0.8125-0.79688 1.3906v12.281h-31.188v-10.75h15.594c0.89062 0 1.6094-0.71875 1.6094-1.6094s-0.71875-1.6094-1.6094-1.6094h-16.828c-2.1719-1.5469-3.3125-4.1562-2.8906-6.8281z"/>
  <path d="m49.375 82.156c0 2.875-4.3125 2.875-4.3125 0s4.3125-2.875 4.3125 0"/>
  <path d="m49.375 90.766c0 2.875-4.3125 2.875-4.3125 0s4.3125-2.875 4.3125 0"/>
 </g>
</svg>
