<?xml version="1.0" encoding="UTF-8"?>
<svg width="100pt" height="100pt" version="1.1" viewBox="0 0 100 100" xmlns="http://www.w3.org/2000/svg">
 <g>
  <path d="m90.121 41.094c-0.35938-1.2656-1.0039-2.4336-1.8789-3.418-0.054688-0.082031-0.13672-0.19922-0.21484-0.20703-1.4609-0.125-2.2969-1.3828-3.5273-1.9414l0.003906 0.003906c-1.3594-0.71094-2.918-0.92188-4.418-0.59766-1.6406 0.45312-3.4023-0.03125-4.582-1.2617-1.2188-1.043-2.3008-2.2344-3.2227-3.5469-1.6016-2.4258-3.9609-4.2578-6.707-5.2031-0.55859-0.25-1.1758-0.32031-1.7773-0.20312-0.70312 0.085938-1.4219 0.011719-2.0938-0.22656-1.332-0.32031-2.7148-0.34766-4.0625-0.089844-1.7969 0.32422-3.4609 1.1641-4.793 2.418-0.25391 0.24609-0.5 0.5-0.74219 0.75781-2.3594 2.5078-5.2734 2.8789-8.4688 2.2383l0.003906 0.003906c-1.3633-0.34375-2.75-0.58203-4.1484-0.71094-2.918-0.1875-5.7695 0.90625-7.8164 2.9922-0.65625 0.61719-1.2656 1.2812-1.8242 1.9844-0.96484 1.0508-2.2461 1.7578-3.6484 2.0195-3.3086 0.83984-6.4492 2.2461-9.2773 4.1562-2.7578 2.1289-4.9141 4.9375-6.2578 8.1523-0.49219 1.3164-0.84375 2.6797-1.0469 4.0703-0.054688 0.25391-0.10938 0.5-0.16406 0.75 0.03125 0.99219 0.078125 1.9844 0.10156 2.9766v0.003906c0.050781 1.0469 0.23828 2.082 0.55859 3.0859 0.63281 1.2695 1.3477 2.5 2.1406 3.6797 2.2695 3.4609 5.4961 4.5234 9.4219 4.0273 1.3672-0.24609 2.75-0.39062 4.1406-0.4375 1.5938-0.41016 3.2109-0.71094 4.8438-0.90625 1.2617-0.14844 2.8438-0.49219 3.8555 0.5 1.0273 1.0078 1.2188 2.8164 1.3945 4.1523 0.18359 1.3203 0.28906 2.6523 0.31641 3.9844 0.26562 0.37109 0.70703 0.57812 1.1602 0.54297 3.082-0.41406 6.1211 0.046875 9.1758 0.30078 1.6914 0.23828 3.4023 0.30859 5.1094 0.20312 1.4609-0.03125 2.9219 0.074219 4.3633 0.31641 2.3984 0.16406 4.8086 0.13672 7.2031-0.082031 2.0469-0.3125 4.1172-0.42578 6.1836-0.34375 1.0039 0.10938 2.0234 0.09375 3.0234-0.042969 0.79688-0.14453 1.6172-0.14062 2.4141 0.015626 2.8828-0.84375 2.9805-5.4531 3.8594-7.9219 0.26562-0.76562 0.64062-1.4922 1.1094-2.1523-0.15234-0.17188 0.085938-0.55859 0.26953-0.76172 1.4023-1.5156 2.5977-3.25 4.3672-4.3828h0.003906c0.81641-0.50391 1.5312-1.1484 2.1172-1.9062 0.94141-1.2422 1.9609-2.4258 2.9023-3.668h-0.003907c0.65625-1.0742 1.1133-2.2578 1.3555-3.4922 1.0391-3.3984-0.19922-6.582-0.72266-9.832zm-7.7227-3.75c0.16016 0.050781 0.42187-0.011719 0.40625 0.27344-0.007813 0.070312-0.046876 0.13281-0.10547 0.17187-0.058594 0.039063-0.12891 0.050782-0.19531 0.03125-0.1875-0.03125-0.36328-0.097656-0.41406-0.30859 0.011718-0.066407 0.054687-0.125 0.11328-0.16016 0.058594-0.03125 0.13281-0.035156 0.19531-0.003906zm-2.8633-0.23828c0.62109 0.011719 1.3203-0.20312 1.8047 0.6875l-0.003906 0.003906c-0.54297 0.29297-1.1523 0.45312-1.7695 0.45703-0.42578 0.011719-0.61328-0.35547-0.64844-0.69922-0.039063-0.39453 0.30859-0.45313 0.61328-0.44922zm-24.301-10.422c0.30078-0.14062 0.63672-0.44141 0.94922-0.11719 0.36719 0.37891-0.054688 0.61328-0.26953 0.85156-0.25391 0.30469-0.54297 0.57812-0.85547 0.82031-0.32422 0.22656-0.69141-0.035156-0.66406-0.47656v-0.003907c0.03125-0.49609 0.36719-0.92187 0.83984-1.0742zm-21.754 6.1016c0.39453-0.19922 0.65234 0.16797 0.86719 0.42578 0.55859 0.67187-0.23438 0.92969-0.46094 1.3516h-0.003907c-0.054687 0.14453-0.17578 0.25391-0.32031 0.30078-0.14844 0.042969-0.30859 0.019531-0.4375-0.0625-0.29297-0.15625-0.49609-0.44141-0.54297-0.76953 0.13672-0.51172 0.45703-0.95312 0.89844-1.2461zm-1.2695 2.4492c0.49609-0.019531 0.69922 0.33984 0.76172 0.75781 0.03125 0.10156 0.015625 0.21094-0.050781 0.29687-0.0625 0.085938-0.16406 0.13672-0.26953 0.13672-0.36328-0.125-0.75391-0.27734-0.78125-0.75-0.019532-0.21484 0.12891-0.40625 0.33984-0.44141zm10.738 37.711c-0.30078-0.52344-0.35938-1.1562-0.16406-1.7266 0.042969-0.25781 0.27734-0.44141 0.53906-0.41797 0.25781 0.019531 0.46094 0.22656 0.48047 0.48438 0.042968 0.33594 0.13672 0.6875-0.29688 0.89062-0.50781 0.23828-0.22266 0.41797 0.082032 0.55078 0.20703 0.089844 0.48047 0.0625 0.5625 0.34766-0.42578 0.11719-0.92578 0.25-1.2031-0.12891zm4.3984 1.1367c1.3906 0.19141 2.8633-0.32031 4.2266 0.39844-1.3945-0.27734-2.8516 0.50781-4.2266-0.39844zm7.1094 0.64453c0.52734-0.12109 0.96484-0.375 1.418 0.078126-0.46484 0.13672-0.96875 0.10937-1.418-0.074219zm20.102-0.71875c-0.17188 0.011719-0.44922 0.089844-0.41016-0.23437l0.003906 0.003906c0.007812-0.26172 0.20703-0.48047 0.46484-0.51172 0.19531 0.027344 0.40625 0.089844 0.42578 0.32031 0.027343 0.32031-0.22656 0.40625-0.48438 0.42578zm2.7617-6.6836c-0.51562 1.5703-1.0859 3.1172-1.6289 4.6758v0.003906c-0.019531 0.097656-0.050781 0.19531-0.089844 0.28516-0.14062 0.21875-0.41016 0.31641-0.65625 0.23438-0.10156-0.003907-0.19531-0.050782-0.26172-0.12891s-0.09375-0.17969-0.078125-0.27734c0.089843-0.44531-0.007813-0.90625-0.27734-1.2734-0.089844 0.10156-0.18359 0.15625-0.20703 0.23438-0.42969 1.3945-0.42969 1.3945-1.9023 1.3672-0.20312-0.003906-0.40234-0.003906-0.60547-0.015624-4.3828-0.21875-8.7617-0.45313-13.145-0.64844-0.96875-0.042969-1.9414 0.0625-3.2383 0.11328 0.57031 0.45312 0.875 0.60156 1.2305 0.47266l0.003906 0.003906c0.48438-0.13281 0.99609-0.16797 1.4961-0.10156 4.1836 0.1875 8.3477 0.6875 12.543 0.63281 0.70703 0.019531 1.4102 0.074218 2.1133 0.16406 0.29687 0.027344 0.63672 0.023438 0.62109 0.46484-0.003906 0.31641-0.22656 0.58594-0.53125 0.65234-0.625 0.20312-1.2891 0.26953-1.9414 0.19922-1.4062-0.1875-2.8281-0.17578-4.2266 0.03125-1.0469 0.17188-2.1133 0.19531-3.1641 0.066407-3.9062-0.4375-7.8125-0.90234-11.738-1.0625-2.0039-0.082031-4.0078-0.48047-6.0312-0.082031h0.003906c-0.48438 0.1875-1.0273 0.082031-1.4102-0.26563 0.29688-0.30859 0.69141-0.27734 1.0781-0.31641 0.99609-0.10156 1.9844-0.25 3.1875-0.40625h0.003906c-0.46875-0.36719-1.0781-0.50781-1.6602-0.38281-0.73828 0.003906-1.6172 0.58984-2.168 0.058594-0.58203-0.5625-0.14453-1.5391-0.23828-2.3281-0.070313-0.62109 0.16016-1.3164-0.44531-1.8555-0.28125 0.48047-0.023437 0.93359-0.074219 1.3672-0.046874 0.39062-0.011718 0.85938-0.58594 0.88672-0.60938 0.03125-0.55469-0.42578-0.60156-0.82812-0.074218-0.61328 0.17578-1.2969-0.42187-1.9453-0.35938 0.83594 0.007812 1.5781-0.085938 2.3008v-0.003906c-0.007812 0.30859-0.24609 0.5625-0.55469 0.58984-0.39453 0.078125-0.50391-0.19141-0.64453-0.47656-0.23828-0.47266 0.023438-1.0703-0.34375-1.5469-0.4375 0.59375 0.22266 1.4336-0.49609 1.9453-0.61328-0.89844 0.11719-2.0742-0.78125-2.8867h-0.003907c-0.066406 1.125-0.054687 2.2578 0.042969 3.3828 0.10547 0.69531 0.1875 1.2305-0.65234 1.6562h0.003906c0.58594 0.19922 1.2188 0.24219 1.8281 0.12109-0.14453-0.17969-0.27734-0.36719-0.39844-0.5625-0.13672-0.25391-0.375-0.5625-0.023438-0.78516 0.29297-0.1875 0.43359 0.13672 0.56641 0.33203 0.27344 0.39453 0.33984 0.14844 0.41406-0.11719 0.09375-0.32812 0.30078-0.54297 0.65625-0.46484 0.34766 0.074218 0.45312 0.34766 0.44141 0.68359v-0.003906c-0.003907 0.25391 0.003906 0.50391 0.03125 0.75781 0.054687 0.55078-0.09375 0.875-0.73438 0.8125-0.60156-0.058594-1.207-0.089844-1.8086-0.089844-1.168 0.003906-1.1602 0.015625-1.293-1.1523-0.19531-1.7539-0.40234-3.5039-0.61328-5.2539-0.03125-0.27344 0.011719-0.64453-0.57422-0.58594 0.19531 2.0664 0.39062 4.1367 0.60156 6.3633h-0.003906c-0.36328-0.30078-0.58203-0.74609-0.58984-1.2188-0.36719-1.4961-0.10156-3.1172-0.89453-4.5312h-0.003906c-0.085937-0.1875-0.046875-0.41406 0.097656-0.56641 0.55078-0.65625 1.082-1.3555 2.0586-1.3477 1.293-0.007813 2.5781-0.11328 3.8555-0.31641 1.7461-0.26172 3.5039-0.34766 5.2656-0.45312 2.8594-0.16797 5.7109-0.53125 8.5703-0.76172 1.3555-0.10938 2.7266-0.027344 4.0742-0.16406v0.003907c2.7852-0.39453 5.6133-0.42969 8.4102-0.10547 1.3359 0.042969 2.6484 0.34766 3.8672 0.89062 0.085937 0.73047-1.0586 0.24219-0.86719 1.0352 0.35938 0.3125 0.76562 0.066407 1.1406 0.046875v-0.003906c1.1094-0.070312 2.2266 0.03125 3.3047 0.30078 1.3398 0.35156 1.6289 0.82812 1.1836 2.1836zm3.7461-6.5664c0.31641-0.67187 0.53516-1.4023 1.4883-1.4531 0.19531-0.011719 0.37109-0.32031 0.5625-0.48438l0.003906 0.003907c1.3711-1.1914 2.6445-2.4922 3.8047-3.8906 0.19141-0.22656 0.26562-0.6875 0.875-0.54297-0.375 0.99219-0.89062 1.9258-1.5234 2.7773-1.1094 1.0781-2.3633 2.0078-3.5117 3.0508-1.3086 1.1836-2.9414 2.0547-3.7383 3.7461-0.24219 0.51172-0.54688 0.60547-1.0664 0.38672-1.207-0.51172-2.4375-0.95703-3.6484-1.4609-0.51562-0.21484-0.64453-0.79688-0.18359-1 0.67969-0.38281 1.2734-0.89453 1.7461-1.5117 0.046875 0.94531-0.54688 1.5625-0.51562 2.5312v0.003906c0.57031-0.58203 0.99219-1.2891 1.2305-2.0664 0.33203-0.84766 0.70312-1.668 1.1016-2.4805 0.17188-0.42578 0.51953-0.76172 0.94922-0.91797 0.45703-0.15234 0.95312 0.054687 1.168 0.48438 0.28516 0.49219-0.21875 0.53516-0.50781 0.69141-0.10156 0.035156-0.17969 0.12109-0.21094 0.23047-0.027344 0.10547 0 0.21875 0.070312 0.30469 0.57422 0.36328 1.0742-0.16797 1.5625-0.089844 0.17188-0.67187 0.33203-1.1992 0.43359-1.7383 0.1875-0.66016-0.085938-1.3633-0.66797-1.7266-0.60547-0.32422-1.3594-0.15234-1.7695 0.39844-0.18359 0.17188-0.33203 0.375-0.5 0.56641-0.98438 1.2305-2.0703 2.3828-3.2422 3.4414 0.51172-2.1094 1.5508-3.7539 2.2383-5.7852-0.69141 0.81641-1.293 1.6953-1.8047 2.6328 0.007813-0.91406 0.19922-1.8164 0.56641-2.6523 0.19531-0.75781 1.0039-1.3164 0.78906-2.4609-1.1055 1.4727-1.7734 3.2266-1.9297 5.0625-0.11719 1.7109-0.57422 3.3828-1.3477 4.918-0.32422 0.69141-0.69922 0.93359-1.3867 0.74609-0.3125-0.085937-0.72656 0.12109-0.96875-0.38672 0.55469-0.54297 0.90625-1.2656 0.98047-2.0391 0.26172-1.3828 0.99219-2.6406 1.207-4.0469 0.058594-0.29688 0.25-0.55078 0.51953-0.69141 0.60938-0.40234 0.21484-0.73438-0.10156-1.0664-0.71484 0.57812-1.207 1.3867-1.3828 2.2852-0.5625 1.6016-0.65625 3.3555-1.6875 4.8203-0.44141 0.625-0.80859 0.91797-1.5859 0.74219-1.6797-0.35938-3.3945-0.51562-5.1094-0.46484-0.99609 0.023438-1.9922 0.003906-3.043 0.003906l0.003906 0.003906c0.042968-0.29297 0.054687-0.58984 0.03125-0.88672-0.44141-1.8633-0.80859-3.7422-1.1289-5.6289v0.003906c-0.12891-0.64844-0.40234-1.2578-0.80078-1.7812-0.17188-0.23828-0.45703-0.52344-0.75-0.36719-0.36719 0.19531-0.15234 0.50391 0.039063 0.75391 0.089843 0.11719 0.23438 0.35156 0.20703 0.37891-0.96875 0.94141 0.050781 1.6641 0.34766 2.3672 0.65234 1.3672 1.0156 2.8516 1.0742 4.3672 0 0.26562 0.125 0.63672-0.32812 0.69141v-0.003906c-0.1875-0.085938-0.3125-0.26562-0.33203-0.47266-0.085938-0.33594 0.13281-0.5625 0.26953-0.82813l0.003906 0.003907c0.078125-0.13672 0.09375-0.30078 0.039063-0.44531-0.054688-0.14844-0.17188-0.26172-0.32031-0.30859-0.46875-0.17578-0.42578 0.1875-0.4375 0.50391-0.015625 0.39453-0.50391 0.60938-0.41406 1.082 0.050781 0.27344 0.074218 0.63672-0.30859 0.75781-0.19141 0.089844-0.42188 0.035157-0.55078-0.13281-0.22656-0.29688-0.1875-0.71484 0.085937-0.96484 0.47266-0.375 0.25391-0.8125 0.23438-1.2461-0.10547-0.95703-0.35938-1.8867-0.75391-2.7617-0.19922-0.63281-0.85547-1.0117-1.5039-0.86719 1.2969 1.7344 0.74609 3.6758 1.1133 5.457v0.003906c0.007812 0.050781 0.007812 0.10156 0.003906 0.14844 0.007813 0.28906-0.11328 0.50391-0.41797 0.49609-0.22266-0.003906-0.31641-0.20312-0.37891-0.41016-0.125-0.40234 0.19922-1-0.49219-1.2344-0.078125 2.0039-0.078125 2.0078-2.1406 2.168-0.45312 0.035157-0.90625 0.027344-1.3594 0.058594-0.58984 0.042969-0.78516-0.25781-0.82031-0.80859l0.003907 0.007813c0.03125-0.94531-0.0625-1.8906-0.28125-2.8125 0.85937 0.72266 0.17187 1.7969 0.98047 2.3008 0.089844-0.125 0.1875-0.19531 0.19141-0.26953h-0.003906c-0.10547-2.1133-0.52734-4.2031-1.25-6.1953-0.070312-0.24609-0.27344-0.55078-0.51172-0.47266-0.77734 0.25781-0.97266-0.49219-1.4648-0.83203h0.003906c-0.050781 0.16016-0.070312 0.32812-0.066406 0.49609 0.046875 0.25 0.13672 0.48828 0.26562 0.70312 1.5586 2.3047 1.1719 5.0547 1.7383 7.5859h-0.003906c0.027344 0.097657 0.011718 0.20312-0.042969 0.28906-0.054687 0.085937-0.14453 0.14844-0.24219 0.16406-0.32813 0.0625-0.44922-0.14062-0.47656-0.42188-0.046875-0.50391-0.042969-1.0156-0.13672-1.5078-0.039062-0.98438-0.35547-1.9375-0.91797-2.7461 0.26172 1.5625 0.41797 3.1406 0.46875 4.7266-2.7891-0.070313-5.5 0.17969-8.2109 0.375h0.003906c-0.45703 0.0625-0.91406-0.11328-1.2109-0.46484-1.7422-1.8828-3.793-3.457-6.0625-4.6523l0.042969 0.042969c-1.2617-0.33594-2.543-0.59766-3.8398-0.78516-2.3633-0.46094-2.3477-0.54297-3.4141 1.4297-0.03125 0.058594 0.042969 0.17578 0.09375 0.35156 0.55469-0.027343 0.98438-0.42187 1.4922-0.57812 0.67188-0.36719 1.4727-0.41797 2.1875-0.14063 0.91797 0.52734 1.8164 1.0898 2.6953 1.6797 0.30469 0.20703 0.71094 0.42969 0.60156 0.94141-0.55469 0.27344-1.2148-0.13672-1.8672 0.36328 0.54297 0.25781 0.4375 1.2344 0.99219 1.1211 0.8125-0.16797 1.6562 1.2695 2.3711-0.070312 0 0 2.3633-0.078125 2.4766-0.082031-1.2852-1.8789-3.5625-2.2695-5.1016-3.6523 2.6289 0.71875 4.957 2.2578 6.6523 4.3945-1.2852 0.45703-2.5234 1.0273-3.707 1.7031-0.25781 0.16797-0.58594 0.17188-0.84375 0.011719-0.85547-0.30859-1.7617-0.44531-2.668-0.40625-1.2539 0.03125-2.5039 0.21484-3.7148 0.54688-1.625 0.27344-3.2344 0.62891-4.8672 0.88672-1.0312 0.1875-2.0938 0.17969-3.1211-0.027343-1.0781-0.16016-1.9922-0.875-2.4102-1.8789 0.77734 0.042969 1.5469 0.18359 2.2891 0.41016 0.19531 0.046875 0.42188 0.03125 0.48438-0.21094 0.066406-0.25781-0.13672-0.35156-0.33594-0.39453l0.003906-0.003906c-0.82812-0.21484-1.668-0.38672-2.5117-0.50781-0.75-0.023437-1.375-0.57031-1.5039-1.3086 0.71875-0.027344 1.4375 0.10156 2.1016 0.37109 0.69531 0.26953 1.4609 0.30078 2.1719 0.089844-0.36719-0.55469-0.82422-0.37891-1.1875-0.47266-1.3008-0.33984-1.2852-0.35938-1.1797-1.7383 0.21484-0.82422 0.20312-1.6875-0.03125-2.5039-0.38281 1.1719-0.56641 2.4023-0.54297 3.6328-2.1562-0.31641-2.2891-0.44141-2.5703-2.4453 0.41406-0.23438 0.91016 0.45703 1.3281-0.11328-0.21875-0.35938-0.61328-0.32812-0.92188-0.46875-1.1523-0.52344-1.6133-1.3711-0.96484-2.4102 0.48047-0.76953 0.17578-1.0312-0.30078-1.4297-1.5273-1.2773-1.1641-0.99609-0.61719-2.6484v0.003906c0.18359-0.46875 0.39844-0.92578 0.64062-1.3672 0.19531-0.28516 0.16406-0.66797-0.070312-0.91797-0.51172 0.39844-0.86719 0.96094-1.0039 1.5977-0.19922 0.5625-0.26953 1.2344-0.8125 1.582-0.57422 0.36719-0.53516 0.70312-0.39062 1.3398 0.24609 1.1016 0.48828 2.3281-0.73438 3.2695 0.60547 0.10547 0.89453 0.71094 1.4141 0.58594 0.65625-0.16016 0.71875 0.19141 0.90625 0.66406 0.28906 0.72656-0.38281 1.5586-0.16797 1.8789l0.003906-0.003907c0.44922 0.51562 0.78125 1.125 0.97266 1.7812 0.046875 0.19531 0.054688 0.39844 0.023438 0.59766-0.15234 0.57031 0.13672 0.72656 0.62109 0.74609 1.5234 0.054688 2.4102 1.0195 3.293 2.3711-0.77344-0.28125-1.3867-0.46094-1.9648-0.72266v-0.003907c-1.6406-0.69922-3.0156-1.9102-3.9141-3.457-1.0703-1.8828-1.6758-3.9961-1.7695-6.1602-0.011718-0.60156-0.33203-1.207-0.16016-1.7969h0.003906c0.35156-1.0469 0.59375-2.1289 0.72266-3.2266-0.003907-0.19531 0.12891-0.36719 0.32031-0.41406 0.90234-0.26562 1.082-0.40625 0.82812-1.043-0.17188-0.41406-0.097656-0.89062 0.18359-1.2383 0.27344-0.42188 0.51953-0.86328 0.73438-1.3203 0.94922-2.3906 2.8633-3.9688 4.6992-5.6094 0.21875-0.19531 0.5-0.54688 0.76562-0.34375 0.62109 0.47656 1.0391 0.015624 1.5039-0.21094 1.3125-0.64453 2.5742-1.4219 3.9297-1.9453 1.7305-0.66406 3.5273-1.5859 5.3555-0.15625 0.015625 0.011718 0.082031-0.046876 0.17578-0.10547 0.011719-0.76172-1.0742-0.63281-1.1641-1.3516h0.003906c0.94531-0.6875 1.8281-1.457 2.6406-2.293 0.24219 0.60156-0.039062 0.86719-0.48047 1.1289-0.26562 0.15625 0.03125 1.3906 0.21875 1.3047 0.88672-0.39062 1.1758 0.65234 1.9102 0.70703 0.39062-0.31641 0.42188-1.0781 1.0859-1.1016 0.64453-0.023438 0.58203-0.3125 0.4375-0.78125-0.18359-0.58984 0.22656-0.97656 0.66406-1.2305 0.45312-0.26562 0.53906 0.30078 0.79688 0.48047v-0.003906c0.12109 0.09375 0.23438 0.19531 0.34375 0.30078 0.10547 0.11328 0.27734 0.12891 0.40625 0.042969 0.20703-0.14844 0.15625-0.35547 0.054687-0.53516h-0.003906c-0.074219-0.13281-0.17188-0.25391-0.28516-0.35156-0.53516-0.44922-0.58594-0.89062-0.039063-1.3828v0.003907c0.085938-0.0625 0.14062-0.15625 0.14844-0.26172 0.007812-0.10547-0.03125-0.20703-0.10547-0.28125-0.47656-0.24219-0.69141 0.27344-1.0469 0.375-0.36328 0.09375-0.73438-0.12109-0.83594-0.48438-0.13672-0.38281 0.22656-0.29297 0.46094-0.29297 0.10547 0.007813 0.20312-0.039062 0.25781-0.12891 0.054688-0.085938 0.050782-0.19922-0.003906-0.28516-0.30859-0.53516 0.027344-0.71484 0.42188-0.89453 0.49609-0.24609 1.0273-0.41406 1.5742-0.5 1.8555-0.23437 3.7383-0.050781 5.5117 0.53906 1.1836 0.46094 2.4727 0.58984 3.7227 0.36719 1.7383-0.41797 3.6055-0.44141 5.1641-1.4961 0.058593-0.039063 0.17969 0.003906 0.32422 0.011719 0.30078 0.83984-0.92188 1.3125-0.60547 2.1602 0.14453 0 0.26953 0.039062 0.32812-0.007813v-0.003906c0.15625-0.125 0.29297-0.27344 0.41016-0.4375 0.73047-1.0469 0.72656-1.0469 1.918-0.5 0.050781 0.023437 0.16016-0.078125 0.24609-0.12109-0.066406-0.50781-0.61719-0.64453-0.81641-1.0508-0.125-0.25391-0.15625-0.48828 0.10938-0.65234 0.25-0.15234 0.52344-0.13672 0.58203 0.19141 0.089844 0.48047 0.23047 0.625 0.79297 0.55859 0.625-0.070312 0.96875 0.29297 0.4375 0.92578h0.003906c-0.078125 0.0625-0.125 0.15625-0.13281 0.25391-0.007813 0.10156 0.027344 0.19922 0.09375 0.27344 0.14062 0.15234 0.36719 0.19531 0.55469 0.10938 0.92578-0.51562 1.5859-1.4062 1.8203-2.4414-0.22266-0.066406-0.38281 0.0625-0.54297 0.17578h-0.003906c-0.15234 0.12891-0.3125 0.25-0.48438 0.35938-0.35938 0.17188-1.0312-0.19141-1.0078-0.57422 0.035157-0.625 0.60547-0.89063 0.98828-1.2695v-0.003906c0.14063-0.15234 0.33594-0.23828 0.53906-0.24219 0.20703-0.003906 0.40625 0.078126 0.55078 0.22656 0.59375 0.46875 1.1797 0.94141 1.7812 1.3984 0.24609 0.1875 0.59375 0.33594 0.82422 0.085938 0.29297-0.31641-0.066406-0.53906-0.28125-0.71094-0.47266-0.37891-0.97266-0.71875-1.457-1.082l0.003906-0.003906c-0.51172-0.3125-0.85547-0.83594-0.94141-1.4297 0.69531-0.20703 1.418-0.30078 2.1445-0.27344 0.39844-0.011719 1.1133-0.082031 1.1523 0.042969 0.35156 1.1211 0.89062 0.58203 1.4531 0.25391 0.37891-0.16406 0.80859-0.16016 1.1797 0.015625 0.82812 0.23438 1.6211 0.57812 2.3516 1.0273 1.457 0.91406 2.8398 1.9336 4.1445 3.0508 0.51953 0.46875 1.4297 0.66406 1.1094 1.6992-0.03125 0.10547 0.19922 0.33984 0.35156 0.45312 1.6172 1.1992 3.2656 2.3594 4.8594 3.5859 0.55469 0.42578 1.9023 0.22656 1.3945 1.5977 0.39453 0.39063 0.71094 0.85156 0.93359 1.3594 0.21484 0.33594 0.35938 0.76562 0.80859 0.85156 0.625 0.11719 0.21875-0.56641 0.51953-0.71484 0.13281-0.066406 0.26953-0.18359 0.40234-0.17969 0.58594 0.011719 1.2031-0.28516 1.7422 0.1875 0.30078 0.26172 0.59375 0.44922 0.71875-0.16406l-0.003907-0.003906c0.054688-0.20703 0.24219-0.34766 0.45313-0.34766 1.2148-0.046875 0.085937-0.73828 0.24609-1.0117v0.003906c1.3828-0.4375 2.8672 0.26953 3.3945 1.6211 0.16016 0.25781 0.36719 0.48438 0.60938 0.67188 0.62109 0.58203 0.32031 1.5586 0.92969 2.1406-0.67578 0.24219-0.49219 0.80469-0.38281 1.2461h-0.003906c0.25781 1.3398 0.3125 2.7109 0.16016 4.0703-0.097656 1.4844 0 3.082-0.86719 4.3711-0.58984 0.875 0.019531 0.98047 0.48828 1.2617-0.26562 0.14453-0.48828 0.36328-0.63281 0.62891-1.2461 1.7148-2.6484 3.3125-4.1875 4.7734-0.26953 0.25391-0.56641 0.94531-0.8125-0.035157-0.035156-0.14844-0.28125-0.11328-0.35547 0.015625v-0.003906c-0.76562 1.0117-1.3086 2.1758-1.5898 3.4141 0.48828-0.125 0.55469-0.46094 0.67188-0.71484zm-1.9375-4.2266c0.4375-0.41797 0.79297-0.55859 1.1484-0.25391l0.003906 0.003906c0.16797 0.11719 0.27344 0.30859 0.28516 0.51562 0.011719 0.20703-0.070312 0.40625-0.22656 0.54297-0.37109-0.24609-0.72656-0.48438-1.207-0.80469zm-63.254 6.3594c-0.5625-0.24609-0.875-0.84766-0.75-1.4492 0.44531 0.35547 0.71484 0.88281 0.75 1.4492zm-3.0078-7.1875c-0.027344-0.39453-0.003907-0.78906-0.003907-1.3594 1.0664 0.55859 1.1211 0.57031 0.98047 1.3281-0.085938 0.47266 0.1875 1.332-0.58203 1.2969-0.61328-0.03125-0.35938-0.80078-0.39062-1.2656zm76.738-9.1719c-0.007813 2.1836-0.039063 4.375-1.6289 6.1445-0.027343-0.14453-0.10937-0.30469-0.066406-0.42188h0.003906c0.57031-1.7188 0.89844-3.5117 0.96875-5.3203 0.042969-0.73828 0.125-1.4766 0.19531-2.2852 0.67188 0.55859 0.53125 1.2617 0.52734 1.8828z"/>
  <path d="m41.207 58.402c0.33984-0.10938 0.13672-0.48047 0.36328-0.62891 1.2852 0.66797 1.3281 2.6289 3.1172 3.0352h-0.003906c-0.39453-1.2383-1.0195-2.3945-1.8438-3.4023-0.96484-1.6016-2.3242-2.9258-3.9453-3.8477-0.4375-0.25-0.94141-0.34766-1.4375-0.27734-0.35547 0.0625-0.71875 0.054688-0.84766 0.47656v-0.003906c-0.17188 0.37891-0.09375 0.82422 0.20312 1.1172 0.20312 0.21484 0.42969 0.41406 0.67188 0.58984 0.097656 0.082031 0.23047 0.10547 0.35156 0.070312 0.125-0.035156 0.22266-0.12891 0.26172-0.25 0.10156-0.22266-0.097656-0.69531 0.43359-0.5625 0.35547 0.089844 0.75391 0.31641 0.69141 0.69141-0.17578 1.0352 0.40234 1.4883 1.1836 1.9453 0.35156 0.20703 0.54297 0.69531 0.80078 1.0469z"/>
  <path d="m33.918 58c0.74219-0.17969 1.5273-0.03125 2.1523 0.41016 1.1055 0.66016 2.1562 1.4023 3.1484 2.2266 0.44531-0.46875 0.082031-0.65234-0.10547-0.83203-1.2773-1.3008-2.8789-2.2422-4.6406-2.7188-0.28906-0.070313-0.63672-0.14844-0.81641 0.16406-0.1875 0.33203 0.20703 0.52344 0.30078 0.79297z"/>
  <path d="m69.105 59.723c0.035156 0.10156 0.039062 0.22266 0.10156 0.26953 0.050781 0.054687 0.125 0.082031 0.19922 0.082031 0.074219-0.003907 0.14453-0.035157 0.19531-0.089844 0.56641-0.53906 0.67578-1.3438 1.1328-1.9492v-0.003906c0.035156-0.066406 0.035156-0.14453 0.007813-0.21484-0.03125-0.070312-0.089844-0.125-0.16016-0.14844-0.11719-0.03125-0.34375 0.007812-0.39453 0.089843-0.37891 0.64844-0.72656 1.3125-1.082 1.9648z"/>
  <path d="m32.883 57.098c0.042969-0.73047-0.45312-0.9375-0.83984-1.207-0.17188-0.11719-0.4375-0.33984-0.60547-0.011719v0.003906c-0.12109 0.23047-0.03125 0.51563 0.19531 0.64844 0.35938 0.21875 0.64844 0.58594 1.25 0.56641z"/>
  <path d="m75.691 36.473c0.16406 0.70703 0.60938 1.3164 1.2305 1.6836-0.089844-0.73828-0.55469-1.3711-1.2305-1.6836z"/>
  <path d="m48.285 62.004c0.082032-0.56641-0.058594-1.1406-0.39453-1.6055-0.26172 0.5625-0.097656 1.2305 0.39453 1.6055z"/>
  <path d="m31.496 62.285c-0.22656-0.035156-0.38281 0.054688-0.38281 0.28906 0 0.19141 0.046875 0.39062 0.30078 0.40625h-0.003906c0.097656 0.015625 0.19531-0.007813 0.27344-0.0625 0.078125-0.058594 0.12891-0.14453 0.14453-0.24219 0.003906-0.19531-0.14062-0.36328-0.33203-0.39062z"/>
 </g>
</svg>
