<?xml version="1.0" encoding="UTF-8"?>
<svg width="100pt" height="100pt" version="1.1" viewBox="0 0 100 100" xmlns="http://www.w3.org/2000/svg">
 <g>
  <path d="m83.863 81.754c-0.88672-5.4844-4.1641-10.324-8.9844-13.277-5.8711-3.5977-11.988-6.0508-13.961-6.8008v-3.3242c2.9453-2.7148 4.9258-6.5195 5.3945-10.805 2.6328-0.34766 4.6875-2.7539 4.6875-5.6914 0-2.9023-1.9922-5.2891-4.5703-5.6953v-7.7266l6.9453-2.6289c1.2852-0.47656 2.2852-1.4414 2.7461-2.6523 0.43359-1.1484 0.35547-2.3789-0.22656-3.4648-2.7344-5.1523-9.6992-13.762-25.648-13.762h-0.47656c-15.957 0-22.922 8.6094-25.656 13.754-1.2891 2.375-0.046875 5.1797 2.5039 6.125l6.9375 2.6289v7.7305c-2.5781 0.41016-4.5703 2.7969-4.5703 5.6914 0 2.918 2.0312 5.3125 4.6484 5.6875 0.36719 4.0078 2.1719 7.8008 5.0898 10.578 0.11719 0.10938 0.24219 0.20703 0.35938 0.3125v3.2422c-1.9766 0.75391-8.1055 3.207-13.977 6.8047-4.8125 2.957-8.082 7.7969-8.9688 13.277-0.0625 0.39453 0.10547 0.79297 0.43359 1.0234 7.6289 5.2891 15.348 8.7148 23.129 10.293 0.12891 0.058593 0.26953 0.09375 0.42188 0.09375 0.011718 0 0.019531-0.003907 0.03125-0.007813 3.1641 0.61328 6.3398 0.92969 9.5234 0.92969 11.164 0 22.434-3.7656 33.734-11.297 0.33984-0.23438 0.51562-0.63672 0.45312-1.0391zm-48.211-54.215c4.6133-1.8242 9.4336-2.7383 14.262-2.75 0.03125 0.003907 0.054688 0.019532 0.085938 0.019532s0.058594-0.015625 0.085938-0.015625c4.8242 0.011719 9.6445 0.92578 14.258 2.75v0.15234c0 0.003907-0.003906 0.011719-0.003906 0.015626 0 0.003906 0.003906 0.007812 0.003906 0.011718v0.011719c0 0.019531-0.007812 0.035156-0.007812 0.054687 0.011718 0.14844 0.007812-0.42969 0.007812 7.0312-4.6523-1.7383-9.5-2.6055-14.344-2.6055-4.8477 0-9.6914 0.86719-14.348 2.6055zm33.266 14.309c0 1.7305-1.0625 3.1758-2.4844 3.5664v-7.1484c1.418 0.39453 2.4844 1.8477 2.4844 3.582zm-42.969-21.191c2.5156-4.7383 8.9492-12.656 23.832-12.656h0.44922c14.871 0 21.305 7.918 23.824 12.66 0.29297 0.55078 0.33594 1.1719 0.11719 1.7461-0.24219 0.64453-0.80078 1.168-1.5273 1.4414l-6.3906 2.4219c-0.11328-0.17188-0.27344-0.30859-0.46875-0.39062-0.45312-0.1875-0.91406-0.35938-1.3711-0.53125 3.2461-2.125 3.8398-4.5508 3.8672-4.6719 0.125-0.55469-0.21875-1.1016-0.77344-1.2344-0.55859-0.13281-1.1133 0.21094-1.2539 0.76172-0.023437 0.10156-0.67188 2.4336-4.4883 4.2422-1.1602-0.34766-2.3281-0.64453-3.5078-0.88672 3.0312-4.6914 1.3984-9.3281 1.3203-9.543-0.19922-0.53906-0.79297-0.81641-1.332-0.61719-0.53906 0.19531-0.81641 0.79297-0.625 1.332 0.066406 0.18359 1.5078 4.375-1.625 8.4141-1.6445-0.24609-3.2969-0.37891-4.9531-0.41797v-8.3516c0-0.57422-0.46484-1.043-1.043-1.043-0.57422 0-1.043 0.46484-1.043 1.043v8.3516c-1.6562 0.042969-3.3086 0.17578-4.9531 0.41797-3.1289-4.0391-1.6914-8.2305-1.625-8.4102 0.19922-0.53906-0.078125-1.1367-0.61719-1.3398-0.54297-0.19922-1.1367 0.078125-1.3398 0.61719-0.078125 0.21484-1.7109 4.8516 1.3203 9.5391-1.1758 0.24219-2.3477 0.53906-3.5078 0.88672-3.8047-1.7969-4.4531-4.1094-4.4844-4.2344-0.12891-0.55469-0.68359-0.90234-1.2383-0.78125-0.5625 0.125-0.91797 0.67969-0.79297 1.2422 0.027344 0.12109 0.61328 2.5469 3.8633 4.6758-0.46094 0.17188-0.91797 0.34375-1.375 0.53125-0.19531 0.082031-0.35547 0.21875-0.46875 0.39062l-6.3945-2.4219c-1.3867-0.51172-2.0742-1.9336-1.3945-3.1836zm5.1211 21.191c0-1.707 1.0312-3.1328 2.4844-3.5547v7.1172c-1.4219-0.39453-2.4844-1.8359-2.4844-3.5625zm4.5664 4.168v-8.9492c9.2852-3.6758 19.422-3.6797 28.707-0.003906v8.5078c0 4.6328-1.9961 8.7695-5.1484 11.516-0.023437 0.019531-0.050781 0.035156-0.070312 0.058593-2.3086 1.9883-5.2227 3.2383-8.4375 3.3828-3.9258 0.1875-7.668-1.2031-10.523-3.9219-2.918-2.7734-4.5273-6.5352-4.5273-10.59zm15.148 16.598c2.9688-0.13281 5.7109-1.0938 8.0508-2.6406v3.9375c0 0.60156-0.36719 1.1445-0.9375 1.3906-2.2031 0.9375-4.5312 1.4688-6.957 1.5703-0.32031 0.011718-0.63672 0.023437-0.96875 0.023437-2.7578 0-5.4062-0.53125-7.8867-1.5898-0.55859-0.22656-0.91797-0.76953-0.91797-1.3828v-3.875c2.9336 1.8945 6.2891 2.7305 9.6172 2.5664zm-24.59 7.6367c5.0508-3.0938 10.434-5.3672 12.887-6.3398v0.007813c0 1.4648 0.87109 2.7656 2.2031 3.3047 1.4766 0.62891 3.0156 1.0781 4.5977 1.3672l-3.8164 1.668c-1.8164 0.79297-2.9883 2.5898-2.9883 4.5742v15.938c-6.9883-1.5625-13.918-4.668-20.77-9.332 0.9375-4.6133 3.7852-8.6641 7.8867-11.188zm14.969 20.941v-16.359c0-1.1562 0.68359-2.2031 1.7383-2.6641l7.3164-3.1992c0.27734-0.003906 0.54688-0.011719 0.85156-0.023438 2.6367-0.11328 5.207-0.69922 7.6406-1.7344 1.3359-0.57031 2.1992-1.8633 2.2031-3.3008 2.4492 0.97266 7.8164 3.2422 12.875 6.3398 4.1094 2.5156 6.9609 6.5625 7.8984 11.176-13.605 8.9141-27.164 12.16-40.523 9.7656z"/>
  <path d="m45.688 75.184h-1.2422c-0.57422 0-1.043 0.46484-1.043 1.043 0 0.57422 0.46484 1.043 1.043 1.043h1.2422c0.57422 0 1.043-0.46484 1.043-1.043 0-0.57812-0.46875-1.043-1.043-1.043z"/>
  <path d="m45.688 80.531h-1.2422c-0.57422 0-1.043 0.46484-1.043 1.043 0 0.57422 0.46484 1.043 1.043 1.043h1.2422c0.57422 0 1.043-0.46484 1.043-1.043 0-0.57422-0.46875-1.043-1.043-1.043z"/>
  <path d="m45.688 85.883h-1.2422c-0.57422 0-1.043 0.46484-1.043 1.043 0 0.57422 0.46484 1.043 1.043 1.043h1.2422c0.57422 0 1.043-0.46484 1.043-1.043s-0.46875-1.043-1.043-1.043z"/>
  <path d="m41.746 41.82c0.3125-0.55078 0.83594-0.60937 1.0469-0.60937 0.21094 0 0.73438 0.058593 1.0469 0.60937 0.19141 0.33594 0.54297 0.52734 0.90625 0.52734 0.17578 0 0.35156-0.042968 0.51562-0.13672 0.5-0.28516 0.67188-0.92188 0.38672-1.4219-0.59375-1.0391-1.6602-1.6602-2.8555-1.6602-1.1953 0-2.2656 0.62109-2.8555 1.6602-0.28516 0.5-0.10938 1.1367 0.38672 1.4219 0.50391 0.28125 1.1367 0.10547 1.4219-0.39063z"/>
  <path d="m54.734 42.207c0.5 0.28125 1.1367 0.10938 1.4219-0.39062 0.3125-0.54688 0.83594-0.60938 1.0469-0.60938s0.73438 0.058594 1.0469 0.60938c0.28125 0.49219 0.91406 0.67578 1.4219 0.39062 0.5-0.28516 0.67578-0.92188 0.39062-1.4219-0.58984-1.0391-1.6602-1.6602-2.8555-1.6602-1.1953 0-2.2656 0.62109-2.8555 1.6602-0.29297 0.50391-0.11719 1.1367 0.38281 1.4219z"/>
  <path d="m49.996 49.953c0.73828 0 1.4336-0.28906 1.957-0.8125 0.40625-0.40625 0.40625-1.0664 0-1.4727-0.41016-0.40625-1.0703-0.40625-1.4727 0-0.12891 0.12891-0.30078 0.19922-0.48438 0.19922s-0.35547-0.070313-0.48438-0.20313c-0.40625-0.40625-1.0664-0.40625-1.4727 0s-0.40625 1.0664 0 1.4727c0.52344 0.52734 1.2188 0.81641 1.957 0.81641z"/>
  <path d="m54.73 52.082c-1.2109 1.3281-2.9336 2.0938-4.7305 2.0938s-3.5234-0.76172-4.7305-2.0938c-0.38672-0.42578-1.0469-0.45703-1.4727-0.070312s-0.45703 1.0469-0.070313 1.4727c1.6016 1.7617 3.8906 2.7734 6.2734 2.7734s4.668-1.0117 6.2734-2.7734c0.38672-0.42578 0.35547-1.0859-0.070313-1.4727-0.42578-0.38281-1.0859-0.35547-1.4727 0.070312z"/>
 </g>
</svg>
