<?xml version="1.0" encoding="UTF-8"?>
<svg width="100pt" height="100pt" version="1.1" viewBox="0 0 100 100" xmlns="http://www.w3.org/2000/svg">
 <path d="m20.668 90h58.664c5.8828 0 10.668-4.9609 10.668-11.062v-3.5586c0-3.0781-1.2539-6.043-3.4375-8.1328-0.023438-0.023438-0.050781-0.046875-0.074219-0.066406l-35.539-27.789-0.003907-1.4727c-0.011718-0.14453-0.21484-3.625 5.0742-7.1758 5.6484-3.793 5.2891-9.1914 5.2109-9.9219-0.03125-5.9727-4.8945-10.82-10.875-10.82-5.9961 0-10.879 4.8789-10.879 10.879 0 0.55469 0.44922 1 1 1 0.55078 0 1-0.44531 1-1 0-4.8945 3.9805-8.8789 8.8789-8.8789 4.8945 0 8.875 3.9805 8.875 8.8789 0 0.046875 0.003906 0.089844 0.007812 0.13281 0.007813 0.046875 0.58203 4.7656-4.3359 8.0703-6.0234 4.043-5.9922 8.3516-5.957 8.9609v1.4258l-35.508 27.781c-2.1836 2.0898-3.4375 5.0547-3.4375 8.1328v3.5586c0 6.0977 4.7852 11.059 10.668 11.059zm-8.668-14.617c0-2.5352 1.0273-4.9727 2.7422-6.6211l35.258-27.574 35.219 27.543c1.7656 1.7109 2.7812 4.1328 2.7812 6.6523v3.5586c0 4.9922-3.8906 9.0586-8.668 9.0586h-58.664c-4.7773 0-8.668-4.0664-8.668-9.0625z"/>
</svg>
