<?xml version="1.0" encoding="UTF-8"?>
<svg width="100pt" height="100pt" version="1.1" viewBox="0 0 100 100" xmlns="http://www.w3.org/2000/svg">
 <path d="m92.617 42.559c-0.011719-0.0625-0.042969-0.17188-0.066407-0.23047-0.054687-0.13672-0.12109-0.24609-0.19922-0.35156-0.023437-0.035156-0.046874-0.074218-0.074218-0.10547-0.03125-0.046875-0.070313-0.089844-0.10547-0.125l-19.883-19.82c-0.32031-0.31641-0.71094-0.5625-1.1367-0.71094l-8.8906-3.0781c-1.0273-0.32422-2.1055-0.042969-2.8477 0.66797l-8.4648-2.3281 0.078125-4.0547c2.0547-0.46875 3.5977-2.3047 3.5977-4.5 0-2.5508-2.0742-4.625-4.625-4.625s-4.625 2.0742-4.625 4.625c0 0.55078 0.44922 1 1 1s1-0.44922 1-1c0-1.4453 1.1797-2.625 2.625-2.625s2.625 1.1797 2.625 2.625-1.1797 2.625-2.625 2.625c-0.55078 0-1 0.44922-1 1 0 0.070313 0.027344 0.12891 0.039062 0.19531l-0.089843 4.7656-8.3633 2.3008c-0.74609-0.71094-1.8281-0.99219-2.875-0.66016l-8.8633 3.0664c-0.42578 0.14844-0.82031 0.39062-1.1367 0.71094l-19.887 19.82c-0.03125 0.03125-0.0625 0.066406-0.089844 0.10547-0.027344 0.03125-0.054687 0.070313-0.078125 0.10938-0.066406 0.089843-0.14453 0.21094-0.20312 0.35937-0.027344 0.070313-0.050781 0.14453-0.058594 0.19531-0.019531 0.074219-0.054687 0.19531-0.066406 0.34375-0.011719 0.17188 0 0.34375 0.039063 0.50781 0.003906 0.023437 0.007812 0.042968 0.015624 0.066406 0.054688 0.20312 0.14063 0.39453 0.3125 0.63281 0.074219 0.10156 0.16406 0.1875 0.26563 0.25l11.492 10.863c0.33594 0.31641 0.76562 0.48437 1.2344 0.46484 0.46094-0.015625 0.88672-0.21484 1.1992-0.55469l6.0625-6.6367v36.516c0 1.1016 0.89844 2 2 2h27.98c-0.36328 0.84375-0.56641 1.7734-0.56641 2.75 0 3.8516 3.1328 6.9844 6.9844 6.9844 3.8516 0 6.9844-3.1328 6.9844-6.9844 0-1.0234-0.22656-1.9922-0.625-2.8711 0.78125-0.27344 1.3477-1.0078 1.3477-1.8828v-6.6797c0.17187 0.011719 0.34375 0.027344 0.51953 0.027344 3.7891 0 6.875-3.0859 6.875-6.875s-3.0859-6.875-6.875-6.875c-0.17578 0-0.34766 0.011719-0.51953 0.027344l-0.003907-16.137 6.0625 6.6367c0.3125 0.33984 0.73828 0.53906 1.1992 0.55469 0.46094 0.019531 0.90234-0.14844 1.2344-0.46484l11.621-10.984c0.070312-0.058593 0.13281-0.125 0.18359-0.19531 0.12109-0.17188 0.21094-0.36328 0.26563-0.57031 0.003906-0.015626 0.007812-0.03125 0.011718-0.046876 0.039063-0.17187 0.054688-0.34766 0.042969-0.5-0.007813-0.17187-0.046875-0.30078-0.054687-0.32422zm-21.492 3.4414c-0.65234 0.25391-1.0742 0.88281-1.0742 1.6016v17.449c-2.5469 1.0039-4.3555 3.4844-4.3555 6.3867s1.8086 5.3828 4.3555 6.3906v7.1406h-0.60547c-1.2773-1.3672-3.0898-2.2305-5.1016-2.2305-2.0156 0-3.8281 0.86328-5.1016 2.2305h-29.293v-37.371c0-0.71875-0.42188-1.3477-1.0742-1.6016-0.19141-0.074219-0.38672-0.10938-0.58203-0.10938-0.44531 0-0.88281 0.1875-1.2031 0.53906l-6.4844 7.0938-11.164-10.555 19.68-19.621c0.015625-0.015625 0.039062-0.019531 0.058594-0.035156 0.097656-0.082032 0.20312-0.16016 0.32422-0.20312l8.8359-3.0586c0.39062-0.12109 0.80859 0.039063 1.0195 0.39062 0.019531 0.035156 0.042969 0.066406 0.070313 0.10156l0.42578 0.55078 8.5664 11.059c0.38281 0.49219 0.95703 0.77344 1.582 0.77344s1.1992-0.28125 1.582-0.77344l8.5664-11.059 0.42578-0.55078c0.023437-0.03125 0.046875-0.066406 0.066406-0.10156 0.21094-0.35156 0.62891-0.51172 0.99609-0.39844l8.8633 3.0664c0.125 0.042969 0.23047 0.12109 0.33203 0.20703 0.015624 0.011719 0.035156 0.015625 0.046874 0.03125l19.684 19.617-11.176 10.562-6.4844-7.0977c-0.45703-0.50391-1.1562-0.67188-1.7812-0.42578zm6.3203 25.438c0 2.6875-2.1875 4.875-4.875 4.875-0.17969 0-0.34766-0.035156-0.51953-0.050781-0.34766-0.039063-0.67969-0.10938-1-0.21484-0.35156-0.11719-0.6875-0.26562-1-0.45703-1.4062-0.85547-2.3555-2.3906-2.3555-4.1523s0.94922-3.2969 2.3555-4.1523c0.3125-0.19141 0.64844-0.33984 1-0.45703 0.32031-0.10547 0.65234-0.17578 1-0.21484 0.17188-0.019531 0.34375-0.050781 0.51953-0.050781 2.6914 0 4.875 2.1875 4.875 4.875zm-18.082 18.281c0-1.0156 0.30859-1.9609 0.83594-2.75 0.25-0.37891 0.5625-0.70312 0.90234-1 0.52344-0.45312 1.1406-0.79688 1.8242-1 0.45312-0.13672 0.92188-0.23047 1.4219-0.23047 0.49609 0 0.96875 0.09375 1.4219 0.23047 0.68359 0.20312 1.2969 0.54688 1.8242 1 0.33984 0.29688 0.65234 0.62109 0.90234 1 0.52344 0.78906 0.83594 1.7344 0.83594 2.75 0 2.7461-2.2344 4.9844-4.9844 4.9844-2.75-0.003906-4.9844-2.2383-4.9844-4.9844zm-9.3633-71.426l8.0625 2.2188-8.0625 10.406-8.0625-10.406zm22.051 55.355c0.15234-0.097657 0.32422-0.16797 0.51953-0.16797 1.125 0 2.043-0.91797 2.043-2.043 0-0.55469 0.44531-1 1-1 0.55469 0 1 0.44531 1 1 0 2.2305-1.8125 4.043-4.043 4.043-0.19531 0-0.36719-0.070313-0.51953-0.16797-0.28125-0.17578-0.48047-0.47656-0.48047-0.83203s0.19922-0.65625 0.48047-0.83203zm-6.707 19.168c0 0.55469-0.44531 1-1 1-2.2617 0-4.1016-1.8398-4.1016-4.1016 0-0.55469 0.44531-1 1-1 0.55469 0 1 0.44531 1 1 0 1.1562 0.94141 2.1016 2.1016 2.1016 0.55469 0 1 0.44922 1 1zm-7.7734-22.375c-2.7148 0-4.9258 2.2109-4.9258 4.9258 0 2.7148 2.2109 4.9258 4.9258 4.9258 2.7148 0 4.9258-2.2109 4.9258-4.9258 0-2.7148-2.2109-4.9258-4.9258-4.9258zm0 7.8516c-1.6133 0-2.9258-1.3125-2.9258-2.9258 0-1.6133 1.3125-2.9258 2.9258-2.9258 1.6133 0 2.9258 1.3125 2.9258 2.9258 0 1.6133-1.3125 2.9258-2.9258 2.9258z"/>
</svg>
