<?xml version="1.0" encoding="UTF-8"?>
<svg width="100pt" height="100pt" version="1.1" viewBox="0 0 100 100" xmlns="http://www.w3.org/2000/svg">
 <path d="m94.473 74.191-1.6758-7.9531c-0.17969-0.85547-0.80859-1.5625-1.6367-1.8477l-32.52-11.102v-5.4102c0-1.3789-1.1211-2.5-2.5-2.5h-4.6406v-4.9531c4.5-0.42578 8.1289-4.0859 8.2617-8.5234 0.074219-2.4141-0.8125-4.6953-2.4922-6.4258-1.6797-1.7305-3.9297-2.6836-6.3438-2.6836-3.7031 0-7.0391 2.3359-8.3047 5.8164-0.29688 0.80859-0.64844 1.4375-1.082 1.918l-0.23047 0.25391c-0.55469 0.61328-0.50781 1.5625 0.10547 2.1172 0.61328 0.55469 1.5625 0.50781 2.1172-0.10547l0.23047-0.25391c0.69922-0.77344 1.2461-1.7227 1.6797-2.9023 0.83594-2.2969 3.0391-3.8398 5.4883-3.8398 1.5938 0 3.0781 0.62891 4.1875 1.7734 1.1094 1.1406 1.6953 2.6484 1.6445 4.2461-0.09375 3.1172-2.8477 5.6562-6.1406 5.6562h-0.62109c-0.82812 0-1.5 0.67188-1.5 1.5v6.4141h-4.6406c-1.3789 0-2.5 1.1211-2.5 2.5v5.4102l-32.523 11.094c-0.82813 0.28516-1.457 0.99219-1.6367 1.8516l-1.6758 7.9531c-0.17969 0.85938 0.09375 1.7305 0.73047 2.332 0.47266 0.44531 1.082 0.68359 1.707 0.68359 0.21875 0 0.44141-0.027344 0.66016-0.085938l30.043-8.1172c7.4141-2.0039 15.254-2.0039 22.668 0l30.039 8.1172c0.84766 0.22656 1.7344 0.007812 2.3711-0.59766 0.64062-0.60547 0.91016-1.4805 0.73047-2.3359zm-32.355-8.0859c-3.9648-1.0703-8.0391-1.6055-12.117-1.6055-4.0742 0-8.1523 0.53516-12.117 1.6055l-29.254 7.9062 1.4453-6.875 32.586-11.125c1.0117-0.34375 1.6953-1.2969 1.6953-2.3672v-5.2656h11.285v5.2656c0 1.0703 0.67969 2.0195 1.6914 2.3672l32.59 11.125 1.4453 6.875z"/>
</svg>
