<?xml version="1.0" encoding="UTF-8"?>
<svg width="100pt" height="100pt" version="1.1" viewBox="0 0 100 100" xmlns="http://www.w3.org/2000/svg">
 <path d="m60.926 10.961c-15.754 0-30.027 10.016-35.699 24.977h-23.664c-0.26953 0-0.52344 0.14062-0.66406 0.37109-0.14063 0.23047-0.15625 0.51562-0.035157 0.75781 1.2422 2.4961 4.043 4.8047 8.0273 6.6836h-7.3281c-0.26953 0-0.52344 0.14062-0.66406 0.37109-0.14063 0.23047-0.15625 0.51562-0.035157 0.75781 1.2422 2.4961 4.043 4.8047 8.0273 6.6836h-7.3281c-0.26953 0-0.52344 0.14062-0.66406 0.37109-0.14063 0.23047-0.15625 0.51562-0.035157 0.75781 1.2422 2.4961 4.043 4.8047 8.0273 6.6836l-7.3281 0.003906c-0.26953 0-0.52344 0.14062-0.66406 0.37109-0.14063 0.23047-0.15625 0.51562-0.035157 0.75781 1.2422 2.4961 4.043 4.8047 8.0273 6.6836h-7.3281c-0.26953 0-0.52344 0.14062-0.66406 0.37109-0.14063 0.23047-0.15625 0.51562-0.035157 0.75781 1.2422 2.4961 4.043 4.8047 8.0273 6.6836h-7.3281c-0.26953 0-0.52344 0.14062-0.66406 0.37109-0.14063 0.23047-0.15625 0.51562-0.035157 0.75781 3.2773 6.5859 17.043 11.367 32.727 11.367 4.6562 0 9.1406-0.42578 13.234-1.1875 4.5039 1.8203 9.2461 2.75 14.102 2.75 21.102 0 38.27-17.52 38.27-39.051s-17.168-39.051-38.27-39.051zm-57.965 26.539h61.27c-1.7695 2.3945-5.2852 4.5781-10.082 6.25h-41.109c-4.793-1.6719-8.3086-3.8555-10.078-6.25zm63.328 37.871c-0.14062-0.23047-0.39453-0.37109-0.66406-0.37109h-7.3281c3.9844-1.875 6.7852-4.1875 8.0273-6.6836 0.12109-0.24219 0.10547-0.53125-0.035157-0.75781-0.14062-0.23047-0.39453-0.37109-0.66406-0.37109h-7.3281c3.9844-1.875 6.7852-4.1875 8.0273-6.6836 0.12109-0.24219 0.10547-0.53125-0.035157-0.75781-0.14062-0.23047-0.39453-0.37109-0.66406-0.37109h-7.3281c3.9844-1.875 6.7852-4.1875 8.0273-6.6836 0.12109-0.24219 0.10547-0.53125-0.035157-0.75781-0.14062-0.23047-0.39453-0.37109-0.66406-0.37109h-7.3281c3.9844-1.875 6.7852-4.1875 8.0273-6.6836 0.12109-0.24219 0.10547-0.53125-0.035157-0.75781-0.14062-0.23047-0.39453-0.37109-0.66406-0.37109h-7.3281c3.9844-1.875 6.7852-4.1875 8.0273-6.6836 0.12109-0.24219 0.10547-0.53125-0.035157-0.75781-0.14062-0.23047-0.39453-0.37109-0.66406-0.37109h-29.012c5.0391-8.7031 14.234-14.062 24.324-14.062 15.508 0 28.125 12.617 28.125 28.125 0 13.871-10.297 25.676-23.809 27.777 0.42969-0.53516 0.78906-1.082 1.0703-1.6484 0.12109-0.24219 0.10547-0.52734-0.035157-0.75781zm-63.328-30.059h61.27c-1.7695 2.3945-5.2852 4.5781-10.082 6.25h-41.109c-4.793-1.6719-8.3086-3.8555-10.078-6.25zm0 7.8125h61.27c-1.7695 2.3945-5.2852 4.5781-10.082 6.25h-41.109c-4.793-1.6719-8.3086-3.8555-10.078-6.25zm0 7.8125h61.27c-1.7695 2.3945-5.2852 4.5781-10.082 6.25h-41.109c-4.793-1.6719-8.3086-3.8555-10.078-6.25zm0 7.8125h61.27c-1.7695 2.3945-5.2852 4.5781-10.082 6.25h-41.109c-4.793-1.6719-8.3086-3.8555-10.078-6.25zm-0.007813 7.8125h61.277c-4.0117 5.418-16.703 9.375-30.637 9.375-14.176 0-26.637-3.8789-30.641-9.375zm57.973 10.938c-3.832 0-7.5898-0.61328-11.211-1.8008 5.8672-1.3945 10.719-3.5312 13.785-6.1367 15.23-1.3086 27.125-14.242 27.125-29.562 0-16.371-13.316-29.688-29.688-29.688-10.949 0-20.906 5.9805-26.117 15.625h-7.918c5.5781-14.047 19.109-23.414 34.023-23.414 20.238 0 36.707 16.816 36.707 37.488s-16.465 37.488-36.707 37.488z"/>
</svg>
