<?xml version="1.0" encoding="UTF-8"?>
<svg width="100pt" height="100pt" version="1.1" viewBox="0 0 100 100" xmlns="http://www.w3.org/2000/svg">
 <g>
  <path d="m37.102 36.977c-5.6523 0-10.25 4.5977-10.25 10.25 0 5.6523 4.5977 10.25 10.25 10.25 5.6523 0 10.25-4.5977 10.25-10.25 0-5.6523-4.5977-10.25-10.25-10.25zm0 18.5c-4.5469 0-8.25-3.7031-8.25-8.25 0-4.5469 3.7031-8.25 8.25-8.25 4.5469 0 8.25 3.7031 8.25 8.25 0 4.5469-3.6992 8.25-8.25 8.25z"/>
  <path d="m36.254 41.969c-2.4297 0-4.4062 1.9766-4.4062 4.4062 0 0.55078 0.44531 1 1 1 0.55469 0 1-0.44922 1-1 0-1.3281 1.0781-2.4062 2.4062-2.4062 0.55469 0 1-0.44922 1-1s-0.44531-1-1-1z"/>
  <path d="m19.121 72.363c-2.2031 0-3.9922 1.7891-3.9922 3.9922 0 0.55078 0.44531 1 1 1 0.55469 0 1-0.44922 1-1 0-1.0977 0.89453-1.9922 1.9922-1.9922 0.55469 0 1-0.44922 1-1s-0.44531-1-1-1z"/>
  <path d="m80.824 23.516v-4.5352c0-1.332-1.082-2.4141-2.4141-2.4141h-0.46094v-5.5664c0-0.55078-0.44531-1-1-1h-7.6719c-0.55469 0-1 0.44922-1 1v5.5664h-0.14844c-0.019531-0.015625-0.03125-0.039062-0.050781-0.054687-6.1914-4.2617-13.453-6.5117-20.996-6.5117-20.445 0-37.082 16.637-37.082 37.082 0 7.4141 2.1602 14.512 6.2578 20.617-3.6289 1.207-6.2578 4.6289-6.2578 8.6562 0 5.0312 4.0938 9.1211 9.1211 9.1211 4.1836 0 7.7109-2.832 8.7812-6.6797 5.7773 3.5 12.375 5.3672 19.18 5.3672 3.1094 0 6.1875-0.40625 9.1719-1.1641v2.5977c0 2.4258 1.9766 4.4023 4.4023 4.4023h24.914c2.4297 0 4.4062-1.9766 4.4062-4.4023v-30.23c0-1.9219-0.55078-3.7852-1.5898-5.3906-0.76953-1.1875-0.76953-2.7812 0-3.9688 1.0391-1.6055 1.5898-3.4688 1.5898-5.3906v-7.2148c0-5.207-4.0391-9.4844-9.1523-9.8867zm-2-4.5352v4.4961h-11.418v-4.4961c0-0.23047 0.1875-0.41406 0.41406-0.41406h10.59c0.23047 0 0.41406 0.18359 0.41406 0.41406zm-8.543-6.9805h5.6719v4.5664h-5.6719zm-51.16 71.48c-3.9258 0-7.1211-3.1953-7.1211-7.125 0-3.9258 3.1953-7.1211 7.1211-7.1211 3.9297 0 7.125 3.1953 7.125 7.1211 0 3.9297-3.1953 7.125-7.125 7.125zm27.961-1.3125c-6.7188 0-13.227-1.9102-18.852-5.5039 0.003906-0.10156 0.015625-0.20312 0.015625-0.30469 0-5.0312-4.0938-9.1211-9.125-9.1211-0.24219 0-0.48047 0.019531-0.71875 0.035157-4.1797-5.9297-6.4023-12.895-6.4023-20.191 0-19.344 15.738-35.082 35.082-35.082 6.7305 0 13.207 1.9141 18.836 5.5078-0.31641 0.41016-0.51562 0.91406-0.51562 1.4727v4.5352c-1.6719 0.13281-3.2266 0.67578-4.5625 1.5352-4.1211-2.5781-8.8672-3.9492-13.758-3.9492-14.328 0-25.984 11.656-25.984 25.984 0 14.328 11.656 25.984 25.984 25.984 3.168 0 6.2461-0.55859 9.1719-1.668v9.543c-2.9766 0.80078-6.0586 1.2227-9.1719 1.2227zm9.1719-48.758v7.2148c0 1.918 0.55078 3.7812 1.5898 5.3906 0.76953 1.1875 0.76953 2.7812 0 3.9688-1.0391 1.6055-1.5898 3.4688-1.5898 5.3906v13.875c-2.9062 1.207-5.9883 1.8242-9.1719 1.8242-13.223 0-23.984-10.758-23.984-23.984 0.003906-13.23 10.762-23.988 23.984-23.988 4.2773 0 8.4297 1.1406 12.09 3.2812-1.8008 1.8008-2.918 4.2852-2.918 7.0273zm31.723 43.441h-29.723v-16.664h29.719zm-2.4062 11.148h-24.914c-1.3242 0-2.4023-1.0781-2.4023-2.4023v-6.7422h29.719v6.7422c0.003906 1.3242-1.0742 2.4023-2.4023 2.4023zm1.1367-43.074c-1.207 1.8672-1.207 4.2773 0 6.1406 0.82812 1.2812 1.2656 2.7656 1.2656 4.3008v2.8203h-29.719v-2.8203c0-1.5312 0.4375-3.0195 1.2656-4.3008 1.2109-1.8672 1.2109-4.2773 0-6.1406-0.82812-1.2812-1.2695-2.7695-1.2695-4.3008l0.003906-3.375h29.719v3.375c0.003906 1.5312-0.4375 3.0195-1.2656 4.3008zm1.2695-9.6758h-29.723v-1.8398c0-4.375 3.5586-7.9336 7.9336-7.9336h13.855c4.375 0 7.9297 3.5586 7.9297 7.9336z"/>
  <path d="m44.691 33.875h2.2422v2.2422c0 0.55078 0.44531 1 1 1 0.55469 0 1-0.44922 1-1v-2.2422h2.2422c0.55469 0 1-0.44922 1-1s-0.44531-1-1-1h-2.2422v-2.2422c0-0.55078-0.44531-1-1-1-0.55469 0-1 0.44922-1 1v2.2422h-2.2422c-0.55469 0-1 0.44922-1 1s0.44922 1 1 1z"/>
  <path d="m52.367 60.574h-2.2422v-2.2422c0-0.55078-0.44531-1-1-1s-1 0.44922-1 1v2.2422h-2.2422c-0.55469 0-1 0.44922-1 1s0.44531 1 1 1h2.2422v2.2422c0 0.55078 0.44531 1 1 1s1-0.44922 1-1v-2.2422h2.2422c0.55469 0 1-0.44922 1-1s-0.44531-1-1-1z"/>
 </g>
</svg>
