<?xml version="1.0" encoding="UTF-8"?>
<svg width="100pt" height="100pt" version="1.1" viewBox="0 0 100 100" xmlns="http://www.w3.org/2000/svg">
 <path d="m99.738 65.109c0-0.015625 0.011719-0.027344 0.011719-0.046875-0.015625-0.24219-0.12891-0.44922-0.28906-0.61719-0.042969-0.046874-0.097657-0.054687-0.14453-0.089843-0.10938-0.082031-0.20703-0.18359-0.35156-0.22266l-60.59-15.379v-25.887c0-4.4023-0.85156-8.7031-2.5195-12.773-1.625-3.957-5.6758-6.4805-9.8555-6.2656l-19.91 0.98828c-1.7969 0.085938-3.457 0.95312-4.5547 2.375-1.1016 1.4219-1.5195 3.25-1.1523 5.0078 1.293 6.2422 1.9492 12.625 1.9492 18.988v31.199c0 0.44922 0.28906 0.85156 0.71484 0.98828l7.8906 2.582v0.91797c-2.3477 0.57812-4.1133 3.0781-4.1133 6.0703 0 3.418 2.3125 6.1953 5.1523 6.1953 2.8398 0 5.1523-2.7773 5.1523-6.1953 0-2.9883-1.7656-5.4883-4.1133-6.0703v-0.23828l42.055 13.77v1.4258c-2.8047 0.60156-4.9453 3.5508-4.9453 7.1094 0 3.9922 2.6875 7.2383 5.9883 7.2383 3.3047 0 5.9922-3.2461 5.9922-7.2383 0-3.5586-2.1406-6.5078-4.9492-7.1094v-0.74219l8.8867 2.9102c0.10547 0.039062 0.21484 0.054688 0.32422 0.054688 0.13672 0 0.27734-0.027344 0.41406-0.085938l14.301-6.1172c0.98438 2.4766 3.0195 4.1719 5.3711 4.1719 3.2852 0 5.957-3.2305 5.957-7.2031 0-0.61328-0.16016-1.1406-0.27344-1.6914l6.9805-2.9883c0.38281-0.16406 0.62891-0.54297 0.62891-0.95312v-4.0352c0.003906-0.023438-0.007813-0.027344-0.007813-0.042969zm-84.684 7.8359c0 2.2656-1.3789 4.1133-3.0703 4.1133s-3.0703-1.8477-3.0703-4.1133c0-1.7695 0.85156-3.2539 2.0273-3.8281v4.168c0 0.57422 0.46484 1.043 1.043 1.043 0.57422 0 1.043-0.46484 1.043-1.043v-4.168c1.1719 0.57422 2.0273 2.0586 2.0273 3.8281zm44.969 15.996c0 2.8477-1.7539 5.1523-3.9102 5.1523-2.1523 0-3.9023-2.3125-3.9023-5.1523 0-2.3555 1.2266-4.2578 2.8633-4.875v5.2852c0 0.57422 0.46484 1.043 1.043 1.043 0.57422 0 1.043-0.46484 1.043-1.043v-5.2852c1.6406 0.61328 2.8633 2.5195 2.8633 4.875zm6.3008-11.074-59.246-19.395 30.254-7.832 58.137 14.758zm-30.031-50.988v11.766l-31.875 7.0742v-13.648zm-31.875 20.98 31.875-7.0742v7.9766l-31.875 8.25zm-1.2344-39.395c0.72656-0.9375 1.8242-1.5117 3.0078-1.5703l19.91-0.98828c3.375-0.17578 6.5352 1.832 7.8242 4.9727 1.5703 3.8203 2.3672 7.8555 2.3672 11.988v1.9023l-31.906 5.1953c-0.078125-6.1016-0.72656-12.207-1.9648-18.188-0.24609-1.1602 0.03125-2.3672 0.76172-3.3125zm1.2344 51.324 60.918 19.945v1.8398l-60.918-19.945zm85.914 15.023c0 2.8242-1.7383 5.1211-3.875 5.1211-1.5 0-2.8242-1.1758-3.4844-2.8945l7.2227-3.0859c0.042969 0.28906 0.13672 0.54297 0.13672 0.85938zm-22.914 6.6211v-1.7656l30.254-12.941v1.7656z"/>
</svg>
