<?xml version="1.0" encoding="UTF-8"?>
<svg width="100pt" height="100pt" version="1.1" viewBox="0 0 100 100" xmlns="http://www.w3.org/2000/svg">
 <path d="m49.82 72.391h6.4297c1.2578 0.003906 2.4648-0.49609 3.3555-1.3828 0.89062-0.88672 1.3906-2.0898 1.3945-3.3477v-1.6602c0.015625-1.4883-0.67188-2.8945-1.8516-3.7969-1.1797-0.90625-2.7148-1.2031-4.1484-0.80469l-6.4297 1.6914c-2.3086 0.59766-3.8164 2.8203-3.5117 5.1836 0.30859 2.3672 2.3242 4.1367 4.7109 4.125zm-0.17969-5.3906l6.4297-1.6914h0.19141c0.39062-0.003906 0.71875 0.30078 0.73828 0.69141v1.6914c0 0.19141-0.078125 0.37891-0.21484 0.51562-0.13672 0.13672-0.32031 0.21484-0.51562 0.21484h-6.4492c-0.34766-0.027344-0.62891-0.29297-0.67187-0.63672-0.042969-0.34766 0.16016-0.67578 0.49219-0.78516zm-44.742-5.8789c-1.082 2.3438-1.6172 4.9062-1.5586 7.4883v16.789c0.011718 3.0352 2.4688 5.4922 5.5 5.5h4.5391c3.043-0.003907 5.5039-2.4688 5.5117-5.5078v-0.64062h35.531v0.64062c0.003906 3.0391 2.4688 5.5039 5.5078 5.5078h4.5391c1.4648 0.003906 2.8711-0.57422 3.9062-1.6094 1.0391-1.0312 1.6211-2.4336 1.625-3.8984v-16.742c0.0625-2.5938-0.47266-5.1719-1.5586-7.5273 2.2773-0.73047 3.8398-2.8281 3.8867-5.2227v-2.6094c-0.070313-2.9258-2.4219-5.2812-5.3477-5.3594h-1.3906c-1.0391 0.015624-2.0625 0.25781-3 0.71094-1.2109-3.0742-2.6758-6.043-4.3711-8.8789-2.25-3.0508-5.6484-5.0508-9.4102-5.543-4.0117-0.61719-8.0703-0.87891-12.129-0.78906-4.0547-0.089844-8.1094 0.17578-12.121 0.78906-3.7656 0.48828-7.168 2.4961-9.418 5.5508-1.6953 2.8359-3.1562 5.8047-4.3711 8.8789-0.9375-0.44922-1.9609-0.69141-3-0.70703h-1.3594c-2.9453 0.046875-5.332 2.4062-5.4102 5.3477v2.6094c0.050781 2.3984 1.6172 4.4961 3.8984 5.2227zm0.10156-7.6914c-0.003906-0.39453 0.14844-0.77734 0.42578-1.0586 0.27734-0.28125 0.66016-0.44141 1.0547-0.44141h1.2109c0.98047 0.0625 1.9023 0.49609 2.5781 1.2109 0.48047 0.44922 1.1523 0.63281 1.7969 0.49219 0.64453-0.14062 1.1758-0.59375 1.4219-1.2031 1.3398-3.6055 2.9805-7.0977 4.9023-10.43 1.6289-2.1914 4.1016-3.6016 6.8203-3.8906 3.7852-0.57422 7.6133-0.81641 11.438-0.73047 3.8281-0.085937 7.6562 0.16406 11.441 0.74219 2.7148 0.28516 5.1875 1.6914 6.8203 3.8789 1.9141 3.3203 3.543 6.7969 4.8789 10.391 0.25 0.60938 0.78125 1.0586 1.4258 1.2031 0.64062 0.14062 1.3125-0.042969 1.7969-0.49219 0.66797-0.71094 1.5781-1.1406 2.5469-1.2109h1.2422c0.39453 0 0.77344 0.15625 1.0547 0.44141 0.27734 0.28125 0.42969 0.66016 0.42578 1.0586v2.3711c-0.027344 0.85938-0.71875 1.5508-1.582 1.5781h-1.6992c-0.76172-0.003906-1.457 0.42578-1.7969 1.1094-0.33984 0.67969-0.26172 1.4961 0.19531 2.1016 0.15234 0.20703 0.30469 0.41797 0.44922 0.62891h0.003906c1.4688 2.1953 2.2188 4.7891 2.1484 7.4297v16.789c0 0.83594-0.67578 1.5117-1.5117 1.5117h-4.5664c-0.83594 0-1.5117-0.67578-1.5117-1.5117v-2.6367c0-0.53125-0.21094-1.0391-0.58594-1.4141s-0.88281-0.58594-1.4141-0.58594h-39.52c-1.1055 0-2 0.89453-2 2v2.6367c0 0.83594-0.67578 1.5117-1.5117 1.5117h-4.5391c-0.39844 0-0.78516-0.16016-1.0664-0.44141-0.28516-0.28516-0.44531-0.66797-0.44531-1.0703v-16.82c-0.074219-2.6055 0.65625-5.1719 2.0938-7.3477 0.14062-0.21484 0.28906-0.42188 0.44922-0.62891 0.45312-0.60937 0.52734-1.418 0.1875-2.0977-0.33984-0.67578-1.0312-1.1055-1.7891-1.1055h-1.6797c-0.86719-0.019532-1.5703-0.71875-1.5898-1.5898v-2.3789zm12 19h6.4297c2.3867 0.007812 4.4062-1.7578 4.7109-4.125 0.30469-2.3672-1.1992-4.5898-3.5117-5.1836l-6.3789-1.7227c-1.4219-0.37109-2.9375-0.0625-4.0977 0.83984-1.1641 0.90234-1.8398 2.293-1.832 3.7617v1.6914c0.023438 2.5977 2.1328 4.6914 4.7305 4.6992zm-0.67969-6.4297c0-0.39844 0.32031-0.72266 0.71875-0.73047h0.19141l6.4414 1.7305c0.36328 0.085938 0.60156 0.43359 0.55469 0.80469-0.050781 0.37109-0.37109 0.64453-0.74609 0.63672h-6.4297c-0.40234 0-0.73047-0.32812-0.73047-0.73047zm81.91 6.6992c1.0156 1.75 1.0195 3.9062 0.011719 5.6602-1.0117 1.7539-2.8789 2.832-4.9023 2.832h-11v7.707c0 0.53125-0.21094 1.0391-0.58594 1.4141s-0.88281 0.58594-1.4141 0.58594h-6.1016c-1.1016 0-2-0.89453-2-2 0-1.1016 0.89844-2 2-2h4.1016v-7.7188c0-1.1055 0.89453-2 2-2h13c0.58984 0 1.1367-0.3125 1.4336-0.82422 0.29687-0.51172 0.29297-1.1445-0.003907-1.6562l-9.5078-16.379c-0.35938-0.61719-0.35938-1.3789-0.003907-2 0.35938-0.61719 1.0195-1 1.7305-1h1.9102c0.53516 0 1.0273-0.28516 1.2969-0.74609 0.26563-0.46484 0.26172-1.0312-0.003906-1.4961l-9.6602-16.637c-0.35938-0.62109-0.35938-1.3828 0-2 0.35547-0.62109 1.0156-1 1.7305-1h2c0.49609 0 0.95312-0.26172 1.2031-0.69141s0.25-0.96094 0.003906-1.3906l-9.8984-17.512v0.003906c-0.26172-0.46875-0.75391-0.75781-1.2891-0.75-0.55469-0.023437-1.0781 0.26563-1.3516 0.75l-9.8984 17.512v-0.003906c-0.24609 0.42969-0.24609 0.96094 0.003906 1.3906s0.70703 0.69141 1.2031 0.69141c1.1055 0 2 0.89453 2 2 0 1.1016-0.89453 2-2 2-1.9023-0.007812-3.6641-1.0195-4.6289-2.6602-0.96484-1.6445-0.99219-3.6758-0.070313-5.3398l9.8984-17.512h0.003906c0.98438-1.7227 2.8164-2.7852 4.7969-2.7852 1.9844 0 3.8164 1.0625 4.8008 2.7852l9.9609 17.461c0.82422 1.457 0.92188 3.2188 0.26953 4.7617-0.65234 1.543-1.9883 2.6953-3.6094 3.1172l8 13.801c0.85156 1.4727 0.97266 3.2578 0.32812 4.832-0.64453 1.5742-1.9805 2.7617-3.6172 3.2188z"/>
</svg>
