<?xml version="1.0" encoding="UTF-8"?>
<svg width="100pt" height="100pt" version="1.1" viewBox="0 0 100 100" xmlns="http://www.w3.org/2000/svg">
 <g>
  <path d="m23.215 66.07c-3.6133 0-6.8672-2.1758-8.25-5.5117-1.3828-3.3359-0.61719-7.1758 1.9375-9.7305 2.5508-2.5508 6.3906-3.3164 9.7305-1.9336 3.3359 1.3828 5.5117 4.6367 5.5117 8.25-0.007812 4.9258-4 8.9219-8.9297 8.9258zm0-14.285c-2.168 0-4.1211 1.3047-4.9492 3.3086-0.82812 2-0.37109 4.3047 1.1602 5.8359 1.5312 1.5352 3.8359 1.9922 5.8398 1.1641 2-0.83203 3.3047-2.7852 3.3047-4.9492-0.003906-2.9609-2.3984-5.3555-5.3555-5.3594z"/>
  <path d="m76.785 66.07c-3.6094 0-6.8672-2.1758-8.25-5.5117-1.3789-3.3359-0.61719-7.1758 1.9375-9.7305 2.5547-2.5508 6.3945-3.3164 9.7305-1.9336 3.3359 1.3828 5.5117 4.6367 5.5117 8.25-0.007813 4.9258-4 8.9219-8.9297 8.9258zm0-14.285c-2.168 0-4.1211 1.3047-4.9492 3.3086-0.82813 2-0.37109 4.3047 1.1602 5.8359 1.5352 1.5352 3.8359 1.9922 5.8398 1.1641 2-0.83203 3.3086-2.7852 3.3086-4.9492-0.003906-2.9609-2.4023-5.3555-5.3594-5.3594z"/>
  <path d="m60.715 55.355h-21.43c-0.98438 0-1.7852-0.79688-1.7852-1.7852 0-0.98437 0.80078-1.7852 1.7852-1.7852h21.43c0.98438 0 1.7852 0.80078 1.7852 1.7852 0 0.98828-0.80078 1.7852-1.7852 1.7852z"/>
  <path d="m60.715 62.5h-21.43c-0.98438 0-1.7852-0.80078-1.7852-1.7852 0-0.98828 0.80078-1.7852 1.7852-1.7852h21.43c0.98438 0 1.7852 0.79687 1.7852 1.7852 0 0.98438-0.80078 1.7852-1.7852 1.7852z"/>
  <path d="m85.695 40.965c0.003907-0.089844 0-0.17969-0.015624-0.26953l-4.1445-19.355c-0.90625-4.1016-4.5312-7.0312-8.7305-7.0547h-45.609c-4.1992 0.023438-7.8242 2.9531-8.7305 7.0547l-4.1445 19.355c-0.015624 0.089844-0.019531 0.17969-0.015624 0.26953-2.6836 1.3281-4.9414 3.3789-6.5234 5.9219-1.5781 2.543-2.418 5.4766-2.4258 8.4688v17.859c0.003906 0.98438 0.80078 1.7812 1.7891 1.7852h3.5703v5.3555c0 4.9336 3.9961 8.9297 8.9297 8.9297 4.9297 0 8.9258-3.9961 8.9258-8.9297v-5.3555h42.859v5.3555c0 4.9336 3.9961 8.9297 8.9258 8.9297 4.9336 0 8.9297-3.9961 8.9297-8.9297v-5.3555h3.5703c0.98828-0.003906 1.7852-0.80078 1.7891-1.7852v-17.859c-0.007812-2.9922-0.84766-5.9258-2.4258-8.4688-1.582-2.543-3.8398-4.5938-6.5234-5.9219zm-67.41-1.6797 3.6797-17.195c0.53906-2.4609 2.7109-4.2188 5.2305-4.2344h45.609c2.5195 0.015625 4.6914 1.7734 5.2305 4.2344l3.6797 17.195zm6.7148 41.07c0 2.9609-2.3984 5.3594-5.3555 5.3594-2.9609 0-5.3594-2.3984-5.3594-5.3594v-5.3555h10.715zm60.715 0c0 2.9609-2.3984 5.3594-5.3594 5.3594-2.957 0-5.3555-2.3984-5.3555-5.3594v-5.3555h10.715zm5.3555-8.9297-82.141 0.003907v-16.074c0.007812-6.8984 5.5977-12.492 12.5-12.5h57.141c6.9023 0.007812 12.492 5.6016 12.5 12.5z"/>
 </g>
</svg>
