<?xml version="1.0" encoding="UTF-8"?>
<svg width="100pt" height="100pt" version="1.1" viewBox="0 0 100 100" xmlns="http://www.w3.org/2000/svg">
 <path d="m74.773 19.359c0.43359 0.43359 1.1367 0.43359 1.5703 0l2.9883-2.9883c0.43359-0.43359 0.43359-1.1367 0-1.5703l-9.707-9.707c-0.20703-0.20703-0.49219-0.32422-0.78516-0.32422l-34.883-0.007812c-0.61328 0-1.1094 0.49609-1.1094 1.1094v1.8516h-4.082v-1.8477c0-0.61328-0.49609-1.1094-1.1094-1.1094h-6.2031c-0.61328 0-1.1094 0.49609-1.1094 1.1094v14.637c0 0.61328 0.49609 1.1094 1.1094 1.1094h6.2031c0.61328 0 1.1094-0.49609 1.1094-1.1094v-1.8516h4.082v1.8516c0 0.61328 0.49609 1.1094 1.1094 1.1094h9.5078l0.003906 11.707c-2.1914 1.4023-3.5664 3.7969-3.6094 6.4219l-0.94531 47.5c-0.042968 2.1211 0.75 4.125 2.2344 5.6406 1.4844 1.5156 3.4688 2.3516 5.5898 2.3516h1.8906c2.1172 0 4.1016-0.83594 5.5859-2.3477 1.4844-1.5156 2.2773-3.5195 2.2344-5.6406l-0.94531-47.496c-0.046875-2.625-1.418-5.0156-3.6094-6.4219l-0.003906-11.715h6.8242c0.48828 0 0.92188-0.32031 1.0625-0.78906l2.5898-8.5234h5.3633zm-48.23 0.039063h-3.9805v-12.414h3.9805zm6.3047-2.9648h-4.082v-6.4844h4.082zm20.43 23.359 0.94531 47.5c0.03125 1.5195-0.53516 2.9531-1.6016 4.0391-1.0625 1.0859-2.4844 1.6836-4 1.6836h-1.8906c-1.5156 0-2.9375-0.59766-4-1.6836-1.0625-1.0859-1.6289-2.5195-1.5977-4.0391l0.94531-47.504c0.035156-2.0469 1.1914-3.9062 3.0039-4.8516 0.82422-0.42188 1.6953-0.63281 2.5938-0.63281 0.88672 0 1.7852 0.21875 2.5859 0.62891 1.8242 0.94922 2.9805 2.8086 3.0156 4.8594zm-7.5898-7.4375v-10.734h3.9766v10.734c-1.2969-0.33594-2.668-0.33594-3.9766 0zm15.852-22.27c-0.48828 0-0.92187 0.32031-1.0625 0.78906l-2.5898 8.5234h-22.82v-12.414h33.312l8.5977 8.5977-1.418 1.418-6.5859-6.5859c-0.20703-0.20703-0.49219-0.32422-0.78516-0.32422z"/>
</svg>
