<?xml version="1.0" encoding="UTF-8"?>
<svg width="100pt" height="100pt" version="1.1" viewBox="0 0 100 100" xmlns="http://www.w3.org/2000/svg">
 <g stroke="#000" stroke-miterlimit="10">
  <path d="m2.8008 65.199s0.19922 3.8008 8.5 4 85.602-2 85.602-2 1.6992-2.5-3.6016-4.8984c0 0-4.3008-27-8.5-31.102-4.1992-4.1016-8.1016-9.1992-19.199-12.602-11.102-3.3984-23.898 1.1992-23.898 1.1992s-13 5.1992-19.199 18l-6.6016 20.199c-0.10156 0.10547-3.8008 3.4023-13.102 7.2031z" fill="none" stroke-width="3"/>
  <path d="m65.5 68.102 22.398 14.398 4.8008-6.3008-10.898-8.5" fill="none" stroke-width="3"/>
  <path d="m82.898 73.801c0 1.0664-1.5977 1.0664-1.5977 0 0-1.0664 1.5977-1.0664 1.5977 0"/>
  <path d="m85.5 75.898c0 1.0664-1.6016 1.0664-1.6016 0 0-1.0664 1.6016-1.0664 1.6016 0"/>
 </g>
</svg>
