<?xml version="1.0" encoding="UTF-8"?>
<svg width="100pt" height="100pt" version="1.1" viewBox="0 0 100 100" xmlns="http://www.w3.org/2000/svg">
 <path d="m93.25 67.641c-2.2305-4.0781-5.7812-7.6211-9.7891-10.578-0.53125-4.7891-2.1914-9.6484-3.6719-14.051-2.0703-6.1289-4.7891-12.18-9.0391-17.121-9.2383-10.73-26.141-12.039-39.012-7.9414-6.8203 2.1719-12.699 7.0508-16.52 13.078-3.9805 6.2617-4.8203 13.473-5.5195 20.684-2.0586 1.7305-3.7617 3.9492-3.9297 6.6992-0.30859 4.9414 4.25 8.6289 7.8281 11.211 13.5 9.7617 31.102 13.43 47.461 14.5 9.3711 0.60938 18.199-2.3789 26.609-6.2617 4.5938-2.1211 8.4727-4.9375 5.582-10.219zm-29.719-45.199c6.9609 4.4414 10.969 12.238 13.66 19.781 2.0391 5.7305 4.6211 12.809 4.2188 18.961-0.19141 2.9805-1.75 5.2383-4.0312 6.9492-1.5586-17.77-8.6602-41.609-25.871-49.66 4.2812 0.50781 8.4414 1.6875 12.023 3.9688zm-23.871-3.8711c2.1797-0.23828 4.4492-0.37891 6.7383-0.37891 20.262 5.5195 28.121 32.109 29.578 50.879-2.8008 1.6719-6.3398 2.7188-9.7305 3.3906-1.9102-20.789-13.73-45.609-34.941-51.898 2.6367-1.0039 5.4258-1.6641 8.3555-1.9922zm-22.141 12.93c3.0391-4.5 7-7.8203 11.602-10 21.75 5.2617 33.84 30.422 35.68 51.219-2.2188 0.37109-4.3203 0.58984-6.0391 0.71875-1.5 0.10938-3.0195 0.14062-4.5312 0.12891 0-0.078125-0.011719-0.17188-0.050781-0.26172-1.1484-2.7617-2.2188-5.5586-3.4609-8.2812-0.64844-1.4219-1.4609-2.9883-3.1289-3.3281-4.4805-0.89844-8.3398 5.9688-10.539 8.7188-0.12891 0.16016-0.17188 0.33984-0.16016 0.5-9.4805-2.8125-18.391-7.7344-25.492-14.176 0.97266-8.6797 1.0625-17.719 6.1211-25.238zm35.172 42.051c-4.8516-0.17188-9.7188-0.94922-14.469-2.2617 1.6016-2.0781 4.2109-6.7305 6.7695-7.4609 1.2305 0.14062 2.4688 0.28125 3.6992 0.42969 0.14062 0.25 0.26953 0.5 0.41016 0.75 0.58984 0.71875 0.87109 2.0391 1.2383 2.9102 0.78906 1.8711 1.5703 3.7539 2.3516 5.6328zm39-1.2617c-0.71875 1.7617-2.8906 2.6016-4.5312 3.3789-7.9688 3.7812-16.629 6.8203-25.559 6.2812-13.52-0.80859-27.641-3.5391-39.73-9.8398-4.6016-2.3906-12.641-6.3906-13.789-12.102-0.37109-1.8398 0.21875-3.4414 1.2617-4.8086-0.058594 0.58984-0.12109 1.1719-0.19141 1.75-0.058594 0.19141-0.058594 0.39062 0 0.57812 0.058594 0.28906 0.23047 0.48828 0.46875 0.60156 11.129 10.191 26.078 16.352 41.121 17.488 8.3281 0.62891 16.809-0.64844 24.488-3.9414 4.9805-2.1289 8.0898-4.8516 8.3594-10.5 0.011718-0.30859 0.019531-0.62109 0.019531-0.94141 2.4609 2.0508 4.7695 4.3516 6.6289 6.9297 1.2109 1.6562 2.2617 3.1562 1.4531 5.125z"/>
</svg>
