<?xml version="1.0" encoding="UTF-8"?>
<svg width="100pt" height="100pt" version="1.1" viewBox="0 0 100 100" xmlns="http://www.w3.org/2000/svg">
 <g>
  <path d="m76.844 45.188c-1.4492-4.9883-4.9531-6.293-6.3789-6.6211-3.3477-7.707-11.031-13.113-19.957-13.113-11.992 0-21.75 9.7578-21.75 21.75 0 2.0938 0.30859 4.1602 0.89063 6.1445-0.95313 0.75781-3.0352 2.4102-4.8711 3.8008-1.3945 1.0586-2.1523 2.7773-2.0312 4.6016 0.14453 2.2148 1.5781 5.5664 7.5586 8.9648 4.4102 2.5039 8.3203 3.4102 11.676 3.4102 3.7227 0 6.7578-1.1172 9.0234-2.4141 0.37109-0.21484 0.89453-0.49609 1.5352-0.84766 7.625-4.1602 27.875-15.215 24.305-25.676zm-25.258 23.922c-0.65625 0.35547-1.1875 0.64844-1.5703 0.86719-3.8555 2.2031-10.23 3.8164-18.719-1-5.4805-3.1133-6.457-5.9453-6.5508-7.3555-0.078125-1.168 0.375-2.2148 1.2461-2.8711 1.5508-1.1758 3.2773-2.5352 4.3594-3.3984 0.43359 1.0742 0.94531 2.1211 1.5508 3.1172 0.1875 0.3125 0.51953 0.48047 0.85547 0.48047 0.17578 0 0.35547-0.046875 0.51953-0.14453 0.47266-0.28516 0.62109-0.90234 0.33594-1.375-1.8633-3.0742-2.8477-6.6094-2.8477-10.227 0-10.891 8.8594-19.75 19.75-19.75s19.75 8.8594 19.75 19.75c0 0.55469 0.44922 1 1 1s1-0.44531 1-1c0-2.1484-0.31641-4.2227-0.89844-6.1836 1.2109 0.63672 2.7656 1.9727 3.5781 4.7695 3.0352 8.9141-16.832 19.754-23.359 23.32z"/>
  <path d="m60.445 34.461c0.52344-0.17188 0.80859-0.73828 0.63672-1.2617-0.17188-0.52344-0.73438-0.8125-1.2617-0.64062-0.18359 0.058594-18.148 6.1523-15.176 23.121 0.085938 0.48437 0.50781 0.82812 0.98438 0.82812 0.058594 0 0.11328-0.003906 0.17578-0.015624 0.54297-0.097657 0.90625-0.61328 0.8125-1.1562-1.1172-6.375 0.83203-11.809 5.8008-16.148 3.7852-3.3047 7.9883-4.7148 8.0273-4.7266z"/>
  <path d="m34.84 53.98c-0.13281-0.24219-0.4375-0.32812-0.67969-0.19531-0.24219 0.13281-0.32812 0.4375-0.19531 0.67969 0.25391 0.46094 0.53906 0.91016 0.85156 1.3398 0.097656 0.13672 0.25 0.20703 0.40625 0.20703 0.10156 0 0.20312-0.03125 0.29297-0.097657 0.22266-0.16016 0.27344-0.47656 0.10938-0.69922-0.28516-0.39453-0.55078-0.80859-0.78516-1.2344z"/>
  <path d="m35.711 38.078c-0.23828-0.14062-0.54297-0.066406-0.6875 0.17188-0.16406 0.27344-4.0312 6.8086-2.1719 13.48 0.0625 0.22266 0.26172 0.36719 0.48047 0.36719 0.042969 0 0.089844-0.007812 0.13672-0.019531 0.26562-0.074219 0.42188-0.35156 0.34766-0.61328-1.7422-6.2539 2.0273-12.637 2.0664-12.699 0.14063-0.23828 0.0625-0.54688-0.17187-0.6875z"/>
  <path d="m69.211 49.922c-0.47266-0.28516-1.0898-0.12891-1.3711 0.34766-0.042969 0.070313-4.2617 6.9883-15.453 11.07-0.51953 0.1875-0.78516 0.76172-0.59766 1.2812 0.14844 0.40625 0.53125 0.65625 0.9375 0.65625 0.11328 0 0.23047-0.019532 0.34375-0.0625 11.859-4.3203 16.305-11.621 16.488-11.93 0.28125-0.46875 0.125-1.082-0.34766-1.3633z"/>
 </g>
</svg>
