<?xml version="1.0" encoding="UTF-8"?>
<svg width="100pt" height="100pt" version="1.1" viewBox="0 0 100 100" xmlns="http://www.w3.org/2000/svg">
 <path d="m52.758 24.141c5.8555 0.40625 13.996 1.7148 20.309 5.207 4.5625 2.5234 8.1719 6.1875 9.293 11.461 0.55078 2.5859 1.0352 4.4961 1.7266 6.3086 0.6875 1.8086 1.582 3.5234 2.9531 5.7266 0.44531 0.71484 0.77734 1.4062 1.0039 2.0703 0.37891 1.1055 0.46484 2.1406 0.29688 3.1055 0.054687 2.3359 2.0977 3.4805 4.1211 4.6133 3.0234 1.6836 4.3555 2.3516 4.4414 5.7969 0.066406 2.3789 0.13281 4.8789-0.85938 7.0898-2.332 5.1875-9.1758 8.2617-14.383 9.9609-8.6953 2.8398-20.152 4.2422-31.613 4.2266-13.652-0.023437-27.324-2.0664-36.336-6.1172-4.8242-2.168-8.332-4.918-9.832-8.2578-1.0117-2.2461-0.80469-4.707-0.77344-7.1016-0.27344-2.9961 2.0352-4.3477 4.3594-5.707 1.9922-1.1641 4.0039-2.3398 4.0547-4.6797-0.25391-1.7812 0.39844-3.5117 1.3281-5.0039 1.3711-2.2031 2.2656-3.918 2.9531-5.7266 0.6875-1.8086 1.1758-3.7227 1.7266-6.3086 1.1133-5.2344 4.7188-8.8984 9.2812-11.445 6.2852-3.5078 14.391-4.8828 20.254-5.3242v-1.4922c-1.6289-0.35547-4.2148-1.3945-4.2148-3.3594 0-2.0234 2.7305-3.0547 4.3633-3.3906v-1.0039c-0.57031-0.097656-1.0938-0.22266-1.543-0.37109-2.6875-0.87891-2.6875-2.6562 0-3.5352 2.4141-0.78906 6.2305-0.78906 8.6406 0 2.6875 0.87891 2.6875 2.6562 0 3.5352-0.46875 0.15234-1.0078 0.28125-1.6016 0.37891v1.0742c1.5508 0.375 3.9844 1.4023 3.9844 3.3047 0 1.8711-2.3633 2.9062-3.9258 3.2891v1.6602zm-39.637-8.6797c0.26562-0.070313 0.37109 0.33203 0.10547 0.40234-7.2969 1.957-12.27 8.7461-11.902 16.301 0.011719 0.27344-0.40234 0.29297-0.41406 0.019532-0.37891-7.7461 4.7266-14.715 12.211-16.719zm1.0742 4c0.26563-0.070313 0.37109 0.33203 0.10547 0.40234-5.2656 1.4102-8.9219 6.2227-8.8477 11.68 0.003906 0.27344-0.41016 0.27734-0.41406 0.003906-0.074218-5.6445 3.707-10.625 9.1562-12.086zm1.0469 3.9023c0.26562-0.070312 0.37109 0.33203 0.10547 0.40234-3.1836 0.85156-5.5078 3.5977-5.8203 6.8789-0.027344 0.27344-0.4375 0.23438-0.41406-0.039062 0.32812-3.457 2.7734-6.3438 6.125-7.2422zm71.555-7.5039c-0.26562-0.070313-0.15625-0.47266 0.10547-0.40234 7.4844 2.0039 12.586 8.9766 12.211 16.719-0.011719 0.27344-0.42578 0.25391-0.41406-0.019531 0.36719-7.5508-4.6055-14.344-11.902-16.301zm-1.0742 4c-0.26562-0.070313-0.15625-0.47266 0.10547-0.40234 5.4492 1.4609 9.2305 6.4414 9.1562 12.086-0.003906 0.27344-0.41797 0.26953-0.41406-0.003907 0.070313-5.4531-3.582-10.266-8.8477-11.68zm-1.0469 3.9023c-0.26562-0.070313-0.15625-0.47266 0.10547-0.40234 3.3516 0.89844 5.7969 3.7852 6.125 7.2422 0.027344 0.27344-0.38672 0.30859-0.41406 0.039063-0.3125-3.2812-2.6328-6.0273-5.8203-6.8789zm-31.984-6.8906c0.03125 1.5312-5.4102 1.4062-5.4648 0.089844-0.035156-0.097657-0.023437-0.21875-0.023437-0.32031-1.1406 0.25391-3.5312 1.082-3.5312 2.5391 0 2.168 4.5469 2.8086 6.0898 2.8086s6.0898-0.64062 6.0898-2.8086c0-1.3477-2.0859-2.168-3.1523-2.4492 0 0.046875 0.003906 0.09375-0.003907 0.13672zm-0.82812-0.40234v-1.5547c-1.2578 0.13672-2.5703 0.13281-3.832-0.007812v1.5391c-0.074219 0.90234 3.832 0.98047 3.832 0.019532zm2.25 9.625c0.5-0.21875 0.83203 0.54297 0.33203 0.76172-2.5742 1.125-6.418 1.1211-8.9883-0.027344-0.5-0.22266-0.16016-0.98047 0.33984-0.75781 0.38672 0.17188 0.80859 0.31641 1.25 0.43359v-1.6406c-5.7695 0.4375-13.715 1.793-19.848 5.2148-4.3672 2.4375-7.8164 5.9297-8.8711 10.895-0.55859 2.6289-1.0547 4.5742-1.7617 6.4297-0.67578 1.7812-1.5469 3.4688-2.8477 5.5859 1.7227 1.9531 4.4805 3.2734 6.8867 4.1562 7.9609 2.918 18.641 4.375 29.328 4.375s21.371-1.457 29.328-4.375c2.4141-0.88281 5.1797-2.1719 6.8867-4.1562-1.3008-2.1133-2.168-3.8047-2.8438-5.582-0.70703-1.8555-1.1992-3.8008-1.7617-6.4297-1.0664-5.0039-4.5156-8.4922-8.8828-10.906-6.1602-3.4062-14.141-4.6953-19.91-5.1016v1.5781c0.48438-0.11719 0.94141-0.26953 1.3594-0.44922zm-6.2344 0.58984c1.3125 0.23047 2.7227 0.23828 4.0391 0.027344v-4.0664c-0.67969 0.11328-1.4062 0.17578-2.1641 0.17578-0.65234 0-1.2812-0.046874-1.8789-0.13281v3.9961zm23.449 15.996c0.25-0.10938 0.41797 0.26562 0.16797 0.37891-3.9609 1.7656-10.043 2.2695-14.355 2.2695-0.27344 0-0.27344-0.41797 0-0.41797 4.25 0 10.281-0.49219 14.188-2.2344zm-17.289-31.008c-2.2422-0.73438-5.8867-0.73438-8.1289 0-1.918 0.62891-1.918 1.3281 0 1.957 2.2422 0.73438 5.8867 0.73438 8.1289 0 1.918-0.62891 1.918-1.3281 0-1.957zm25.574 66.383c-0.26172 0.082031-0.38281-0.31641-0.12109-0.39844 3.7812-1.1602 8.3242-3.0234 11.094-5.9375 0.1875-0.19922 0.48828 0.089844 0.30078 0.28516-2.8242 2.9727-7.418 4.8633-11.27 6.0508zm16.473-7.0664c-0.53516 1.1602-1.2891 2.2031-2.168 3.1289-3.3242 3.5-8.7227 5.7305-13.262 7.125-8.5625 2.6328-19.586 3.9492-30.609 3.9531-12.418 0.003907-40.734-2.3164-46.16-14.238 0.023437 1.3984 0.17188 2.7734 0.73828 4.0312 1.4102 3.1367 4.7734 5.7539 9.4141 7.8359 8.9102 4.0039 22.453 6.0234 36 6.043 11.426 0.019531 22.836-1.3828 31.453-4.2148 4.9297-1.6211 11.586-4.5781 13.789-9.4805 0.57812-1.2891 0.76562-2.7266 0.80859-4.1875zm-8.2852-11.402c-0.67188 1.3281-1.8711 2.4883-3.4883 3.4922-1.3438 0.83594-2.9805 1.5703-4.8438 2.207-8.0273 2.7422-18.785 4.1133-29.535 4.1133s-21.508-1.3711-29.535-4.1133c-2.9844-1.0195-6.9062-2.793-8.3672-5.7617-0.003906-0.007813-0.007812-0.011719-0.007812-0.019532-0.003907-0.007812-0.007813-0.011718-0.007813-0.019531-0.69922 1.7344-2.4258 2.7422-4.1406 3.7461-2.6055 1.5234-5.1836 3.0312-3.25 7.3398 5.1797 11.523 33.355 13.789 45.383 13.789 10.953 0 21.906-1.3086 30.406-3.918 4.3945-1.3516 9.6875-3.5117 12.906-6.9023 0.83203-0.875 1.5508-1.8633 2.0469-2.9688 1.9297-4.293-0.67578-5.75-3.3125-7.2266-1.7734-0.99219-3.5547-1.9883-4.25-3.7617zm-74.312-6.2305c-1.0859 1.7773-1.6875 3.8203-0.71094 5.8008 1.3398 2.7266 5.1523 4.4062 7.8867 5.3398 7.9375 2.7109 18.602 4.0664 29.27 4.0664 10.668 0 21.328-1.3555 29.27-4.0664 1.8047-0.61719 3.3828-1.3242 4.6719-2.125 1.5156-0.94141 2.625-2.0117 3.2148-3.2148 0.57812-1.1797 0.66797-2.5039 0.16016-3.9883-0.19922-0.57812-0.48828-1.1836-0.87109-1.8164-1.7617 1.9883-4.5195 3.2773-6.9688 4.1797-8.0078 2.9336-18.742 4.4023-29.473 4.4023s-21.465-1.4688-29.473-4.4023c-2.4453-0.89844-5.1953-2.2188-6.9727-4.1758z"/>
</svg>
