<?xml version="1.0" encoding="UTF-8"?>
<svg width="100pt" height="100pt" version="1.1" viewBox="0 0 100 100" xmlns="http://www.w3.org/2000/svg">
 <path d="m17.52 57.527c1.0391 1.2227 2.332 2.332 3.832 3.3281 0.67188 0.44531 1.3867 0.87109 2.1328 1.2695 3.3398 1.5977 7.6172 2.7969 12.344 3.5938 4.4805 0.75391 9.3359 1.1328 14.18 1.1328s9.6992-0.37891 14.18-1.1328c1.8867-0.31641 3.6953-0.70312 5.4102-1.1445 2.793-0.87891 5.3633-1.957 7.6055-3.2305 2.3086-1.3125 4.2539-2.832 5.7188-4.5547 0.49609-0.94141 0.76172-1.9492 0.76172-3.0234v-2.1992c0-6.5195-2.2578-13.113-7.3711-18.035-4.2305-4.0703-10.445-7.0312-18.992-7.9219v1.2891c0 0.10547-0.019531 0.21094-0.0625 0.31641-0.45312 1.0938-1.4102 1.8633-2.6797 2.3555-1.2617 0.48438-2.8555 0.68359-4.5781 0.64063-1.7227 0.042968-3.3203-0.15625-4.5781-0.64063-1.25-0.48047-2.1914-1.2344-2.6562-2.3008-0.054687-0.11328-0.085937-0.23438-0.085937-0.36719v-1.293c-8.5508 0.89062-14.762 3.8516-18.992 7.9219-4.4805 4.3125-6.7656 9.9062-7.2656 15.613 0.13281 0.21875 0.27734 0.4375 0.42969 0.65234 0.78125 1.0781 1.8711 2.1055 3.2305 3.0625 3.9492-16.801 14.93-21.012 20.59-23.184 0.87109-0.33594 1.6172-0.62109 2.1406-0.87891 0.3125-0.15234 0.69531-0.09375 0.94922 0.16406 0.31641 0.32422 0.30859 0.84375-0.015625 1.1602-0.26562 0.25781-0.56641 0.52734-0.91406 0.85156-3.5586 3.25-12.562 11.465-13.398 26.188 2.8281 0.86328 5.9844 1.5547 9.3789 2.0352 3.5078 0.5 7.2734 0.76953 11.195 0.76953 6.2539 0 12.258-0.69922 17.469-1.9609 5.1797-1.25 9.5742-3.0586 12.645-5.2852 0.36719-0.26562 0.87891-0.18359 1.1445 0.18359 0.26562 0.36328 0.18359 0.87891-0.17969 1.1445-3.2422 2.3555-7.8359 4.25-13.219 5.5508-5.3594 1.293-11.5 2.0078-17.867 2.0078-3.9844 0-7.8242-0.27734-11.418-0.78516-3.7266-0.52734-7.1797-1.3086-10.254-2.293-0.36328-0.11719-0.58984-0.46875-0.56641-0.83594 0.54297-13.148 7.2695-21.398 11.664-25.766-5.7969 2.3672-14.84 7.25-18.004 22.441-0.09375 0.44141-0.52344 0.72656-0.96875 0.63281-0.11719-0.023438-0.22656-0.070312-0.31641-0.14062-1.5352-0.96484-2.8203-2.0117-3.8203-3.1211v2.0273c-0.003906 1.3594 0.42188 2.6133 1.2031 3.7617zm69.426-3.1133c0.44531 0 0.85547 0.25781 1.043 0.67188l6.6172 11.852c0.0625 0.11328 0.10156 0.22656 0.125 0.33984 1.6172 8.3945-4.2969 14.531-13.812 18.449-8.4023 3.457-19.672 5.1836-30.918 5.1836s-22.516-1.7266-30.922-5.1836c-9.5195-3.918-15.43-10.055-13.812-18.449 0.027344-0.14844 0.082031-0.28125 0.15625-0.40234l6.6289-11.867c0.20703-0.37891 0.60156-0.58984 1-0.58984-0.011719-0.21484-0.023437-0.42969-0.023437-0.64844v-2.1992c0-7.3477 2.5625-14.797 8.3867-20.395 4.8906-4.7031 12.055-8.0742 21.887-8.918 0.23047-0.019531 0.45312 0.011719 0.66016 0.078126 0.027343-0.12109 0.054687-0.24219 0.070312-0.35938 0.15234-0.89062 0.089844-1.668-0.21484-2.3281-0.066406-0.14453-0.09375-0.30859-0.066406-0.47656l0.22656-1.3242c0.023438-0.15625 0.09375-0.30859 0.21484-0.42969 0.10547-0.11328 0.21484-0.21875 0.32422-0.32422 0.38281-0.36328 0.78906-0.6875 1.2109-0.96484-0.3125-0.41797-0.48437-0.88672-0.48437-1.3828 0-0.03125 0-0.054688 0.003906-0.082032-1.6562-0.57812-2.7109-1.4492-2.7109-2.4258 0-1.7383 3.3438-3.1445 7.4648-3.1445s7.4648 1.4102 7.4648 3.1445c0 0.97656-1.0547 1.8477-2.7109 2.4258 0.003906 0.027344 0.003906 0.054688 0.003906 0.082032 0 0.49609-0.17578 0.96484-0.48437 1.3828 0.42578 0.27734 0.83203 0.60156 1.2148 0.96484 0.10156 0.097656 0.20312 0.19922 0.30469 0.30469 0.11719 0.11328 0.20312 0.27344 0.23438 0.44922l0.21875 1.3164c0.03125 0.15625 0.011718 0.32422-0.0625 0.48438-0.30078 0.66016-0.36719 1.4375-0.21484 2.3281 0.015625 0.082032 0.03125 0.16406 0.050781 0.24609l0.68359 0.035156c9.832 0.84375 16.996 4.2109 21.891 8.918 5.8164 5.5977 8.3828 13.047 8.3828 20.395v2.1992c-0.007812 0.21875-0.015624 0.42969-0.03125 0.64453zm-0.52734 2.5469c-2.2266 6.1992-10.949 10.18-21.691 11.988-4.6367 0.78125-9.6719 1.1758-14.719 1.1758-5.0469 0-10.086-0.39453-14.719-1.1758-10.75-1.8164-19.477-5.7969-21.703-11.988l-6.0977 10.918c-0.13281 0.73047-0.1875 1.4453-0.17969 2.1367 0.69922 3.7383 5.207 7.168 12.141 9.7656 7.8008 2.9219 18.602 4.7305 30.551 4.7305 7.7344 0 15.168-0.77344 21.629-2.1719 6.4336-1.3906 11.883-3.3906 15.691-5.8594 0.37891-0.24609 0.88672-0.14062 1.1328 0.23828s0.13672 0.88672-0.23828 1.1328c-3.9844 2.582-9.6211 4.6602-16.234 6.0898-6.5742 1.4258-14.133 2.2109-21.977 2.2109-12.137 0-23.141-1.8477-31.121-4.8398-4.0859-1.5312-7.3945-3.3711-9.6875-5.4375 2.125 3.1602 5.9258 5.7422 10.762 7.7305 8.1055 3.3398 19.062 5.0078 30.043 5.0078s21.938-1.668 30.051-5.0039c8.4219-3.4688 13.707-8.7188 12.461-15.73zm-41.438-32.512c-0.019531 0.054687-0.042969 0.10938-0.070313 0.16016-0.17188 0.39844-0.36719 0.80078-0.58984 1.2148v0.89453c0.29688 0.57422 0.89063 1.0078 1.6836 1.3125 1.0664 0.40625 2.457 0.57812 3.9766 0.53516h0.039062 0.007813c1.5156 0.042969 2.9062-0.12891 3.9688-0.53516 0.79688-0.30469 1.3906-0.73828 1.6836-1.3125v-0.89453c-0.6875-1.2852-1.1406-2.4805-1.3281-3.5703-0.19531-1.1211-0.12109-2.1406 0.23828-3.0547l-0.14062-0.83594c-0.03125-0.03125-0.0625-0.058593-0.09375-0.09375-0.44531-0.42578-0.92969-0.77344-1.4336-1.0508-0.80859 0.41406-1.8203 0.66406-2.918 0.66406-1.1016 0-2.1094-0.25-2.9141-0.66406-0.50781 0.27734-0.98828 0.62891-1.4375 1.0508l-0.09375 0.09375-0.14062 0.83594c0.35938 0.91406 0.43359 1.9336 0.23438 3.0547-0.125 0.69531-0.34766 1.4258-0.67188 2.1953zm1.9375-3.9883c-0.35547-0.27734-0.41797-0.79688-0.13672-1.1445 0.27734-0.35547 0.78906-0.41797 1.1445-0.13672 0.90234 0.71094 1.2266 2.125 1.1953 3.6094-0.035156 1.7578-0.56641 3.7031-1.1836 4.5625-0.25781 0.36719-0.77344 0.45313-1.1406 0.19531-0.36719-0.26172-0.45703-0.77344-0.19531-1.1445 0.45313-0.63672 0.84766-2.1914 0.87891-3.6445 0.027343-1.0234-0.125-1.9492-0.5625-2.2969zm-3.0977-0.81641m7.25-7.0352c1.9492 0 3.5312-0.56641 3.5312-1.2617 0-0.69531-1.5781-1.2617-3.5312-1.2617-1.9453 0-3.5273 0.56641-3.5273 1.2617 0 0.69531 1.5781 1.2617 3.5273 1.2617z"/>
</svg>
