<?xml version="1.0" encoding="UTF-8"?>
<svg width="100pt" height="100pt" version="1.1" viewBox="0 0 100 100" xmlns="http://www.w3.org/2000/svg">
 <path d="m51.195 9.3555c-0.73437-0.10156-1.4688 0.21875-2.1992 0.94922-0.16406 0.16406-1.1836 0.81641-3.0508 1.9492-6.8359 3.8008-11.086 6.1992-12.75 7.1992-3.4336 2.0664-7.7695 4.7695-13 8.1016-1.1016 0.66406-2.1016 1.3008-3 1.8984-2.168 1.4336-3.8516 2.5859-5.0508 3.4492-1.1992 0.83203-2.0195 1.9688-2.4492 3.3984-0.53516 2.0664-0.80078 4.3164-0.80078 6.75l0.64844 28.75c0.10156 3.1641 0.36328 8.1016 0.80078 14.801 0.03125 0.33594 0.18359 0.68359 0.44922 1.0508 0.26562 0.36328 0.53125 0.58203 0.80078 0.64844 2.4648 0.80078 4.5664 1.25 6.3008 1.3516 5.5312 0.26562 11.816 0.44922 18.852 0.55078 6-0.16406 10.5-0.25 13.5-0.25 2.1016 0.16797 3.6641 0.21875 4.6992 0.14844l14.75-1.25 0.050782 0.64844c3.2695-0.23438 5.7344-0.39844 7.3984-0.5 2.9336-0.19922 5.3984-0.46875 7.3984-0.80078 2.3008-0.36328 3.8164-1.6992 4.5508-4 0.36719-1.0664 0.66797-2.4688 0.89844-4.1992 0.10156-1.1328 0.19922-2.3828 0.30078-3.75 0.33203-4.5664 0.55078-8.0195 0.64844-10.352 0.13281-3.9688 0.10156-7.4492-0.10156-10.449-0.19922-2.9688-0.19922-8.9688 0-18 0.10156-1.6992-0.53125-2.9688-1.8984-3.8008l-35.449-23.25c-0.92969-0.66016-1.6953-1.0078-2.2969-1.043zm16.152 6.3008c2.4336 1.5312 6.1016 3.7305 11 6.6016l10.602 6.9492c1.4648 0.93359 2.5312 1.6992 3.1992 2.3008 1.0312 0.93359 1.7305 2.0156 2.1016 3.25 0.23438 0.73047 0.35156 1.2812 0.35156 1.6484l0.050782 9.6992c0 0.73438 0.085937 3.6484 0.25 8.75 0.10156 3.5312 0.13281 6.4141 0.10156 8.6484-0.16406 6.5-0.5 11.836-1 16-0.10156 0.83594-0.19922 1.6328-0.30078 2.3984-0.73438 5.332-3.2344 8.6133-7.5 9.8516-1.8008 0.53125-4.2852 0.91406-7.4492 1.1484-3.4336 0.13281-8.5664 0.25-15.398 0.35156l-30.648 1.0508v-0.69922c-1.5352 0-3.8359 0.019531-6.8984 0.050781-2.7344 0.066406-5.0195 0.015625-6.8516-0.14844-2.6016-0.19922-6.1836-1.0312-10.75-2.5-0.5-0.10156-0.94922-0.5-1.3516-1.1992-0.36328-0.63672-0.56641-1.25-0.60156-1.8516-0.76562-14.23-1.1836-24.883-1.25-31.949-0.03125-2.6328 0.085938-5.8984 0.35156-9.8008 0.36719-4.3008 0.60156-7.5664 0.69922-9.8008 0.16406-2.3359 1.25-4.1367 3.25-5.3984l12.898-8.1016c10.531-6.5312 17.184-10.637 19.949-12.301 2.6641-1.6328 5.6172-3.2188 8.8516-4.75 0.56641-0.30078 1.3008-0.18359 2.1992 0.35156 3.1602 2.1016 7.875 5.2461 14.145 9.4492zm-10.75 28.5c-0.33203 1.5312-0.53125 3.8516-0.60156 6.9492-0.16406 2-1.1328 3.0312-2.8984 3.1016l-9.6484 0.69922c-1.8008 0.16406-2.8516-0.60156-3.1484-2.3008l-0.55078-3.5c0.10156-1.7305 0.30078-2.9805 0.60156-3.75 0.93359-2.1016 1.8984-3.4492 2.8984-4.0508 1-0.60156 2.6484-0.83594 4.9492-0.69922l6.6016 0.44922c1.5938 0.16797 2.1953 1.2031 1.7969 3.1016zm8.0469 2.1992c-0.10156 0.56641-0.066406 2.3359 0.10156 5.3008 0 0.16406 0.26953 0.25 0.80078 0.25l9.6484-0.55078-1.1992-6.5508c-0.63281-0.13672-1.5508-0.30078-2.75-0.5-2.2305-0.10156-3.7305-0.066407-4.5 0.10156-0.43359 0.10156-0.85156 0.35156-1.25 0.75-0.43359 0.43359-0.71875 0.83203-0.85156 1.1992zm0.75-5.4492c3.5-0.066406 5.3164-0.10156 5.4492-0.10156 2.0664 0.066406 3.8359 0.44922 5.3008 1.1484 0.26562 0.10156 0.46875 0.56641 0.60156 1.3984l1.0508 6.9492c0.46875 2.9336-0.75 4.4648-3.6484 4.6016-0.39844 0-1.5312 0.13281-3.3984 0.39844l-3.0508 0.39844c-2.6016 0.066406-4.2344-0.19922-4.8984-0.80078-0.76953-0.63672-1.2344-2.1836-1.3984-4.6484-0.13281-2.2695-0.019532-3.9844 0.35156-5.1484 0.46875-1.8008 1.5664-3.1484 3.3008-4.0508zm-45.098-8.5977c-0.80078-0.86719-1.2812-1.5352-1.4492-2-0.03125-0.16797 0.11719-0.43359 0.44922-0.80078 0.33203-0.36719 0.55078-0.51953 0.64844-0.44922 0.33203 0.13281 1.1016 0.71484 2.3008 1.75zm-7.8984 10.25c-0.93359-1.3008-1.4492-2.0664-1.5508-2.3008-0.03125-0.066406 0.13672-0.30078 0.5-0.69922 0.36719-0.36719 0.58594-0.55078 0.64844-0.55078 0.30078 0.19922 1.0664 0.86719 2.3008 2zm11.098-1.3008h4.3516v0.19922h4.3008c1.4336 0.10156 2.2188 0.86719 2.3516 2.3008l0.85156 7.1016c0.13672 1.4336 0.019532 2.4141-0.35156 2.9492-0.36719 0.46484-1.2305 0.91406-2.6016 1.3516-3.1992 0.80078-6.5508 0.36328-10.051-1.3008l-0.10156-0.050781c-0.46875-0.23438-0.88281-0.73438-1.25-1.5-0.36719-0.80078-0.55078-1.5664-0.55078-2.3008v-0.80078c0-1.4336 0.23047-3.5508 0.69922-6.3516 0.26562-1.1992 1.0508-1.7344 2.3516-1.5977zm7.0508 3.75h-6.6016l-0.35156 5.3008c0 0.13281 0.085938 0.28125 0.25 0.44922 0.19922 0.23047 0.36719 0.35156 0.5 0.35156 2.3359 0.26953 4.3984 0.39844 6.1992 0.39844 0.33203 0 0.68359-0.16406 1.0508-0.5 0.36719-0.23437 0.55078-0.48437 0.55078-0.75 0-0.43359-0.19922-2.1328-0.60156-5.1016-0.0625-0.097656-0.39844-0.14844-0.99609-0.14844zm12.699 3.25c-0.16406 0.56641-0.38281 1.4336-0.64844 2.6016l0.69922 0.5 9.6016-0.85156 0.44922-6.25c-3.9336 0-6.2656 0.015626-7 0.050782-0.43359 0.066406-0.89844 0.25-1.3984 0.55078-0.46875 0.26953-0.78516 0.58594-0.94922 0.94922-0.23438 0.62891-0.48438 1.4492-0.75391 2.4492zm-5.5508 16.098c0.36328 0.56641 0.38281 1.0312 0.050782 1.3984-0.13281 0.26562-0.53125 0.55078-1.1992 0.85156l-0.75-0.050781 0.14844-3.1016c1.0703 0.36719 1.6523 0.66797 1.75 0.90234zm-5.0508-0.59766c0.30078 0.46875 0.38281 1.2656 0.25 2.3984 1.3008 0.63281 2.1328 1.7305 2.5 3.3008 0.16406 0.96875 0.16406 2.1016 0 3.3984-0.10156 0.83594-0.58594 1.6016-1.4492 2.3008-0.83594 0.63281-1.75 0.98047-2.75 1.0508-3.8359 0.23438-7.1992-0.35156-10.102-1.75-0.13281 0.83594-0.26562 1.418-0.39844 1.75-0.33594 0.46875-0.86719 0.56641-1.6016 0.30078-0.30078-0.10156-0.58203-0.44922-0.85156-1.0508-0.26563-0.5-0.38281-0.96875-0.35156-1.3984 0.13281-0.69922 0.44922-1.0664 0.94922-1.1016 0.43359-0.13281 0.88672 0 1.3516 0.39844v-5.4492c0.066406-2.8672 1.5508-4.4844 4.4492-4.8516 1.1641-0.19922 2.3516-0.30078 3.5508-0.30078 0.73047 0 1.5 0.015625 2.3008 0.050782 1.1055 0.16797 1.8203 0.48437 2.1523 0.95312zm-0.64844 4.8477v-2.5508l-6.5508 0.80078c-1 0.16406-1.6484 0.61719-1.9492 1.3516 0 0.10156-0.066406 0.86719-0.19922 2.3008-0.03125 0.73047 0.23047 1.2305 0.80078 1.5 0.03125 0.03125 0.58594 0.16406 1.6484 0.39844 1 0.23047 1.5859 0.38281 1.75 0.44922 0.66406 0.43359 1.1172 0.60156 1.3516 0.5 1.4688-0.43359 2.3867-0.93359 2.75-1.5 0.36719-0.59766 0.5-1.6836 0.39844-3.25zm7.4492 1.3477c-0.066406-0.63281-0.13672-1.1328-0.19922-1.5-0.10156-1.6992 0.35156-3.1016 1.3516-4.1992 1.1367-1.2344 2.6367-1.7695 4.5-1.6016 1 0.10156 2.9688-0.03125 5.8984-0.39844 1.2695-0.10156 2.0664-0.019531 2.3984 0.25 0.43359 0.33594 0.78125 1.1328 1.0508 2.3984 0.23047 0.83203 0.75 2.0156 1.5508 3.5508 0.5 1.2344 0.56641 2.5195 0.19922 3.8516-0.19922 0.89844-0.75 2.0156-1.6484 3.3516-0.43359 0.56641-1.1484 0.85156-2.1484 0.85156-1.3008-0.066406-2.4844-0.10156-3.5508-0.10156-1.9336-0.10156-3.4805-0.19922-4.6484-0.30078-1.2695-0.13281-2.1172-0.28125-2.5508-0.44922-0.86719-0.36719-1.4688-1.0312-1.8008-2-1.0664 0.16406-1.8008 0.11328-2.1992-0.14844-0.43359-0.19922-0.63281-0.73437-0.60156-1.6016 0-0.23438 0.13281-0.56641 0.39844-1 0.19922-0.43359 0.36328-0.63672 0.5-0.60156 0.86719 0.23437 1.3672 0.11719 1.5-0.35156zm9.6523 2.8047c2.9336 0.16406 4.25-1.2188 3.9492-4.1484-0.33594-1-0.55078-1.7656-0.64844-2.3008-4.1641 0-6.6484 0.03125-7.4492 0.10156-0.33594 0-0.71875 0.13281-1.1484 0.39844-0.5 0.30078-0.76953 0.56641-0.80078 0.80078-0.066406 0.33594-0.10156 1.9336-0.10156 4.8008zm-25.953-13.352c-0.10156 0.19922-0.39844 0.41406-0.89844 0.64844-0.89844 0.36328-1.3672 0.55078-1.3984 0.55078-0.26562-1.0312-0.43359-1.7656-0.5-2.1992-0.13281-0.76953 0.16797-1.3516 0.89844-1.75 1.6641 0.56641 2.3008 1.4844 1.8984 2.75zm-6.25-6.0977c-0.86719-0.39844-1.3164-0.64844-1.3516-0.75-0.83594-1.0664-0.64844-2 0.55078-2.8008 0.76953 1.1016 1.2344 1.8164 1.3984 2.1484 0.10547 0.23438-0.097657 0.69922-0.59766 1.4023zm-5.0469-1c-0.33203-0.36719-0.53125-0.71875-0.60156-1.0508 0-0.19922 0.19922-0.44922 0.60156-0.75 0.5-0.39844 0.83203-0.69922 1-0.89844l1.8984 2-2.0508 1.6992c-0.42969-0.46875-0.71484-0.80078-0.84766-1zm7.5469 6.8477c-0.066406 0.23047-0.25 0.53125-0.55078 0.89844-0.56641 0.69922-0.93359 1.1133-1.1016 1.25-0.76563-1.8984-1.1484-2.8672-1.1484-2.8984-0.066406-0.23438 0.03125-0.5 0.30078-0.80078 0.23047-0.33594 0.43359-0.46875 0.60156-0.39844 1.4336 0.10156 2.0664 0.74609 1.8984 1.9492zm-4.25 7.5469l1.1992-1.3984 2.3516 2.1992c-0.30078 0.19922-0.69922 0.44922-1.1992 0.75-0.33594 0.23047-0.56641 0.31641-0.69922 0.25-0.73438-0.39844-1.2812-0.99609-1.6523-1.8008zm-2.3477-4.0977c0.66406 0.43359 1.3164 0.81641 1.9492 1.1484l-2.3008 2.4492c-0.73437-1-1.1484-1.7812-1.25-2.3516-0.13672-0.46875-0.035156-0.83594 0.30078-1.1016 0.36719-0.23047 0.80078-0.27734 1.3008-0.14453zm-0.19922 10.152l0.69922-0.35156 2.25 1.9492c0.13281 0.23438 0.050781 0.81641-0.25 1.75-0.19922-0.03125-0.60156-0.085938-1.1992-0.14844-0.43359-0.03125-0.69922-0.13281-0.80078-0.30078-0.19922-0.36719-0.35156-0.85156-0.44922-1.4492zm16 5.3477l1.6484 2.1016c0.03125 0.16797-0.015625 0.41797-0.14844 0.75-0.16406 0.30078-0.38281 0.53125-0.64844 0.69922-0.10156 0.10156-0.33594 0.11328-0.69922 0.050781-0.33594-0.03125-0.51562-0.10156-0.55078-0.19922-0.10156-0.33594-0.28516-1.3516-0.55078-3.0508zm-2.9531 2.5c-0.10156 0.23438-0.35156 0.41406-0.75 0.55078-0.36719 0.16406-0.71875 0.21875-1.0508 0.14844-0.39844-0.10156-0.60156-0.56641-0.60156-1.3984 0-0.89844 0.19922-1.6367 0.60156-2.1992 0.43359 0.26953 1 0.60156 1.6992 1 0.57031 0.49609 0.60156 1.1328 0.10156 1.8984zm-5.8477 5.4023l-2.1992-2.3516c1.1016-0.89844 1.668-1.3359 1.6992-1.3008 0.69922 0.63281 1.3164 1.3672 1.8516 2.1992-0.003907 0.066406-0.45313 0.55078-1.3516 1.4531zm7.1992-1.25c0.13281-0.36719 0.26953-0.69922 0.39844-1 0.066407-0.066406 0.28125-0.10156 0.64844-0.10156 0.36328 0.03125 0.63281 0.10156 0.80078 0.19922 1.1992 1.0664 2.3516 2.2812 3.4492 3.6484 0.16406 0.16406 0.16406 0.46875 0 0.89844-0.10156 0.19922-0.26953 0.56641-0.5 1.1016l-0.85156-0.35156c-2.1992-1.9336-3.5195-3.1172-3.9492-3.5508-0.097657-0.16406-0.097657-0.44531 0.003906-0.84375zm-16.648-5.75c0.86719-0.39844 1.4844-0.60156 1.8516-0.60156 0.59766 0.03125 1.082 0.44922 1.4492 1.25 0.53125 0.96875 0.16406 1.6836-1.1016 2.1484-0.26562 0.066406-0.75-0.30078-1.4492-1.1016-0.066406-0.097656-0.31641-0.66406-0.75-1.6953zm3.5977 3.8984c1.1641 1.4336 1.832 2.3008 2 2.6016 0.03125 0.13281-0.60156 0.66406-1.8984 1.6016l-0.60156-0.39844-0.35156-3.3984zm29.949-1.6484c-0.23438 0.19922-0.56641 0.51563-1 0.94922l-1.8984-2.1016c1-0.93359 1.5312-1.3672 1.6016-1.3008 0.93359 0.53125 1.5195 1.082 1.75 1.6484 0.0625 0.16797-0.082031 0.4375-0.45312 0.80469zm-9.1484-2.6992c1.3672 0.43359 2.2188 0.88281 2.5508 1.3516 0.26562 0.46875 0.23047 1.3008-0.10156 2.5-0.26953-0.03125-0.69922-0.11719-1.3008-0.25-0.60156-0.16797-0.94922-0.36719-1.0508-0.60156-0.16406-0.26953-0.21875-0.71875-0.14844-1.3516 0.035157-0.73438 0.050782-1.2852 0.050782-1.6484zm4.5 5.3945c0.5 0.19922 1.5195 0.80078 3.0508 1.8008l-2.1992 1.75-1.9492-2.6484c-0.003907-0.035157 0.36719-0.33594 1.0977-0.90234zm36.949-17.75c-0.10156 1.3359 0.19922 3.3984 0.89844 6.1992 0.16797 1.3984-0.5 2.2188-2 2.4492-0.46875 0.03125-2.6484 0.5-6.5508 1.3984-0.26953 0-1.2695-0.066406-3-0.19922-1-0.066406-1.7812-0.18359-2.3516-0.35156-0.93359-0.23047-1.5508-0.85156-1.8516-1.8516-1.0664-2.6641-0.91406-5.9492 0.44922-9.8516 0.16406-0.46875 0.56641-0.91406 1.1992-1.3516 0.56641-0.46875 1.1016-0.69922 1.6016-0.69922 2.0664 0 5.0508 0.31641 8.9492 0.94922 2.0078 0.375 2.8906 1.4766 2.6562 3.3086zm-2.5977 0.10547l-3.6484-0.55078c-2.8008-0.26953-4.3516-0.30078-4.6484-0.10156-0.53125 0.33203-0.89844 1.7305-1.1016 4.1992 0 0.10156-0.050781 0.31641-0.14844 0.64844-0.13672 0.26562-0.16797 0.48047-0.10156 0.64844 0.10156 0.26562 0.26562 0.51562 0.5 0.75 0.19922 0.33203 0.35156 0.46875 0.44922 0.39844 0.33594-0.066406 1.3164 0.015625 2.9492 0.25 1.168 0.19922 2.1016 0.015625 2.8008-0.55078 0.30078-0.19922 0.91406-0.41406 1.8516-0.64844 0.80078-0.13281 1.2812-0.35156 1.4492-0.64844 0.19922-0.36328 0.25-0.93359 0.14844-1.6992-0.16406-0.93359-0.26562-1.6172-0.30078-2.0508zm-6.25 20.645c0 0.19922-0.18359 0.46875-0.55078 0.80078-0.36719 0.26562-0.71875 0.41406-1.0508 0.44922-1.5664 0.23438-2.3008-0.85156-2.1992-3.25 2.5977-0.13281 3.8633 0.53516 3.8008 2zm0.097656-5.3945c-0.066406-0.10156 0.21484-0.43359 0.85156-1 0.26562 0.13281 1.1328 0.78125 2.6016 1.9492l-2.1016 1.1992c-0.56641-0.4375-1.0195-1.1484-1.3516-2.1484zm-11.098-4.1055l1.3516 1.3516c0.26562 0.36328 0.44922 0.64844 0.55078 0.85156 0.066406 0.13281-0.066406 0.39844-0.39844 0.80078-0.16406 0.19922-0.44922 0.51953-0.85156 0.94922l-2-2.3984 0.64844-0.60156zm-5.3008 3.1523l0.94922 1.0508c0.43359 0.43359 0.68359 0.80078 0.75 1.1016 0.03125 0.26563-0.10156 0.60156-0.39844 1-0.10156 0.30078-0.31641 0.64844-0.64844 1.0508 0.16406 1.6016 0.21484 2.4492 0.14844 2.5508-0.03125 0.13281-0.30078 0.28125-0.80078 0.44922-0.39844 0.10156-0.66797 0.10156-0.80078 0-0.39844-0.39844-1.1328-1.3164-2.1992-2.75l2-0.80078 0.19922-3.3984zm5.8008 7.3477c-1.2305-1-1.2656-2.1992-0.10156-3.6016l2.5508 2.8984c-0.16797 0.066406-0.66797 0.28125-1.5 0.64844-0.53125 0.17187-0.85156 0.19141-0.94922 0.054687zm27.297-2.5c-0.36719 0.30078-0.66406 0.44922-0.89844 0.44922-1.0312-0.03125-1.5-0.78125-1.3984-2.25 0-0.066406 0.30078-0.56641 0.89844-1.5h0.75c0.69922 1.5 1.0664 2.3633 1.1016 2.6016 0.0625 0.13672-0.082031 0.36719-0.45312 0.69922zm-8.2969 0.55469c0.10156 0.23047 0.019532 0.51563-0.25 0.85156-0.26562 0.36719-0.53125 0.58594-0.80078 0.64844-0.89844 0.19922-1.4844-0.03125-1.75-0.69922-0.10156-0.89844-0.25-1.5664-0.44922-2 1.7969-0.70312 2.8828-0.30078 3.25 1.1992z" fill-rule="evenodd"/>
</svg>
