<?xml version="1.0" encoding="UTF-8"?>
<svg width="100pt" height="100pt" version="1.1" viewBox="0 0 100 100" xmlns="http://www.w3.org/2000/svg">
 <path d="m53.461 2.1172h-6.3594c-0.21875 0.003906-0.43359 0.015624-0.65234 0.042968-0.22656-0.027344-0.45703-0.039062-0.6875-0.042968-7.3828 0-14.465 2.9297-19.691 8.1406-5.2266 5.2148-8.1719 12.289-8.1914 19.672v33.852c0.015625 3.9336 1.5898 7.7031 4.3789 10.48 2.7852 2.7734 6.5625 4.332 10.496 4.3242h4.9844v10.074c-0.011719 5.0703 4.082 9.1953 9.1523 9.2227 0.19922 0 0.45312-0.011718 0.72656-0.035156l-0.003907-0.003906c0.16016 0.023438 0.32031 0.035156 0.47656 0.039062h4.7383c5.0898-0.007812 9.2148-4.1328 9.2188-9.2227v-10.074h4.8438c4.0391-0.003907 7.9102-1.6094 10.766-4.4648 2.8555-2.8555 4.4609-6.7266 4.4648-10.762v-32.652c-0.019532-7.5898-3.0469-14.859-8.418-20.219s-12.652-8.3711-20.242-8.3711zm-31.414 61.664v-33.852c0.015625-6.2773 2.5234-12.293 6.9688-16.727s10.465-6.918 16.746-6.918c0.0625 0 0.13672-0.003906 0.039062-0.039062 0.19922 0.070312 0.41016 0.10547 0.62109 0.10938 6.0391 0.10547 11.797 2.5742 16.027 6.8828 4.4531 4.4102 6.957 10.422 6.9531 16.691v33.852c-0.007813 5.8711-4.7656 10.633-10.637 10.641h-26.012c-5.8906 0.011719-10.684-4.7461-10.707-10.641zm19.859 24.879v-10.074h10.039v10.074c-0.007812 2.5547-1.9219 4.6992-4.457 5-0.042969 0.003906-0.20312 0.035156-0.24609 0.042969-0.11719 0.011719-0.23438 0.015625-0.35156 0.011719-2.7734-0.023438-5-2.2852-4.9844-5.0547zm15.977 0c-0.003906 2.0039-1.1875 3.8203-3.0234 4.6289 0.22656-0.39453 0.42578-0.80859 0.58984-1.2344 0.046875-0.11719 0.082031-0.23828 0.125-0.35547 0.125-0.35938 0.23047-0.72656 0.30859-1.0977 0.03125-0.14062 0.0625-0.28125 0.085938-0.42578h0.003906c0.085938-0.5 0.13281-1.0078 0.14062-1.5156v-10.074h1.7695zm20.074-25.301h-0.003906c-0.003906 5.1719-3.5898 9.6484-8.6328 10.793 0.14844-0.15234 0.28516-0.32031 0.42969-0.48047 0.15625-0.17578 0.32031-0.34375 0.47266-0.52734 0.15234-0.1875 0.28906-0.38281 0.43359-0.57812 0.13672-0.1875 0.28125-0.36719 0.41016-0.55859 0.14062-0.20703 0.26172-0.42578 0.38672-0.64062 0.11719-0.19141 0.23828-0.37891 0.34375-0.57422 0.125-0.23047 0.22656-0.46875 0.33984-0.70312 0.09375-0.19531 0.19531-0.38281 0.27734-0.58203 0.10547-0.25391 0.19141-0.51953 0.28516-0.78125 0.066406-0.19141 0.14844-0.375 0.20703-0.57031 0.085938-0.28125 0.15234-0.57031 0.22266-0.85938 0.046875-0.18359 0.10156-0.36328 0.14062-0.55469 0.066407-0.32422 0.10547-0.65625 0.15234-0.98438 0.019531-0.16016 0.054687-0.31641 0.070313-0.47656v0.003906c0.050781-0.5 0.074218-1 0.074218-1.5039v-33.852c-0.050781-8.3359-3.8008-16.219-10.234-21.52-0.039062-0.03125-0.074219-0.070312-0.11328-0.10156 4.3711 1.8906 8.0938 5.0195 10.711 9 2.6172 3.9766 4.0156 8.6328 4.0234 13.398z"/>
</svg>
