<?xml version="1.0" encoding="UTF-8"?>
<svg width="100pt" height="100pt" version="1.1" viewBox="0 0 100 100" xmlns="http://www.w3.org/2000/svg">
 <g>
  <path d="m73.516 17.148-7.9219 9.2578c-0.082031-0.039062-0.16406-0.082031-0.25-0.12109l5.6562-16.043c0.64844-1.8203-0.30859-3.8281-2.1406-4.4805-1.8203-0.65625-3.8242 0.30469-4.4727 2.1289l-5.1602 14.637c-1.793-5.6875-7.0742-9.793-13.289-9.793-7.5586 0-13.723 6.0352-13.953 13.539-5.9492 1.6055-10.344 7.0352-10.344 13.484 0 1.8125 0.37109 3.6133 1.0508 5.2852-1.543 0.39844-2.6914 1.8125-2.6914 3.6445 0 1.5469 0.99219 2.8516 2.3711 3.3477 0.34766 12.555 9.875 22.84 22.109 24.367v9.6602c-3.7266 0.4375-6.6289 3.6133-6.6289 7.4531 0 0.51172 0.41797 0.92969 0.92969 0.92969h17.695c0.51172 0 0.92578-0.41797 0.92578-0.92969 0-3.8242-2.8789-6.9922-6.625-7.4453v-9.668c12.234-1.5273 21.762-11.812 22.109-24.371 1.375-0.50391 2.3711-1.8398 2.3711-3.543 0-1.4961-0.92969-2.7773-2.2422-3.3047 0.68359-1.7227 1.0469-3.5391 1.0469-5.4258 0-3.3516-1.1328-6.4375-3.0195-8.9219l7.7969-9.1172c0.60938-0.70703 0.90625-1.6094 0.83594-2.543-0.070312-0.93359-0.49609-1.7812-1.2188-2.4023-1.4648-1.2617-3.6797-1.0938-4.9414 0.375zm-7.3789-8.6367c0.30469-0.85547 1.25-1.3086 2.1133-0.99609 0.41406 0.14844 0.74609 0.44922 0.9375 0.84375 0.1875 0.39844 0.21094 0.84375 0.0625 1.2617l-5.6406 15.996c-1.0508-0.32422-2.1562-0.51953-3.293-0.59766zm-20.199 6.0781c6.0781 0 11.125 4.5273 11.949 10.445-4.5664 0.42578-8.5352 2.9375-10.945 6.5703-2.6094-3.6211-6.8164-5.8242-11.328-5.8242-0.58203 0-1.1523 0.046875-1.7148 0.11719 0.42969-6.3008 5.6328-11.309 12.039-11.309zm-10.324 13.047c4.2109 0 8.1094 2.2188 10.309 5.7891-0.91406 1.9258-1.4414 4.0664-1.4414 6.332 0 1.7891 0.32031 3.5195 0.9375 5.1641h-20.746c-0.75781-1.6055-1.1758-3.375-1.1758-5.1641 0-6.6836 5.4336-12.121 12.117-12.121zm14.289 60.234c2.7969 0 5.125 2.043 5.5703 4.7188h-15.688c0.44531-2.6758 2.7773-4.7188 5.6211-4.7188 0.51172 0 0.92969-0.41797 0.92969-0.92969v-10.387c0.42969 0.023437 0.85547 0.066406 1.293 0.066406s0.85938-0.042969 1.293-0.066406v10.387c0 0.51172 0.46875 0.92969 0.98047 0.92969zm-2.2734-13.105c-12.613 0-22.93-10.016-23.418-22.508h46.836c-0.48828 12.492-10.805 22.508-23.418 22.508zm24.062-24.367h-48.125c-0.94141 0-1.7109-0.76953-1.7109-1.9102 0-0.94531 0.76953-1.7109 1.7109-1.7109h48.09c0.023438 0.003906 0.042969 0.015625 0.0625 0.015625 0.007812 0 0.011719-0.003907 0.019531-0.003907 0.91797 0.027344 1.6602 0.77734 1.6602 1.8984 0 0.94531-0.76563 1.7109-1.707 1.7109zm-0.57812-5.4766h-23.684c-0.71484-1.6328-1.0938-3.3633-1.0938-5.1641 0-7.0586 5.6914-12.797 12.727-12.914 0.007812 0 0.015625 0 0.023438-0.003906 0.0625 0 0.12109-0.015625 0.1875-0.015625 7.1328 0 12.934 5.8008 12.934 12.934 0 1.8047-0.37891 3.5391-1.0938 5.1641zm6.3164-24.41-7.6094 8.8945c-0.77344-0.78516-1.6328-1.4805-2.5664-2.082l7.6719-8.9688c0.59375-0.6875 1.6367-0.76172 2.332-0.16406 0.33203 0.28906 0.53516 0.6875 0.56641 1.125 0.035156 0.4375-0.10547 0.85938-0.39453 1.1953z"/>
  <path d="m38.746 24.082c0.13672 0.070313 0.28125 0.10547 0.42188 0.10547 0.33984 0 0.66406-0.1875 0.82812-0.50781 1.1484-2.2461 3.4219-3.6406 5.9414-3.6406 0.82812 0 1.6289 0.14844 2.3867 0.44141 0.47656 0.19141 1.0156-0.054688 1.1992-0.53125 0.18359-0.47656-0.054688-1.0156-0.53125-1.1992-0.97266-0.375-1.9961-0.56641-3.0547-0.56641-3.2188 0-6.1289 1.7812-7.5938 4.6523-0.23438 0.45703-0.054688 1.0117 0.40234 1.2461z"/>
  <path d="m28.18 40.688c0.51172 0 0.92578-0.41797 0.92578-0.92969 0-3.5859 2.918-6.5078 6.5078-6.5078 0.51172 0 0.92578-0.41406 0.92578-0.92578s-0.41406-0.92969-0.92578-0.92969c-4.6133 0-8.3633 3.7539-8.3633 8.3633 0 0.51172 0.41406 0.92969 0.92969 0.92969z"/>
  <path d="m59.27 30.695c-5 0-9.0664 4.0664-9.0664 9.0664 0 0.51172 0.41797 0.92578 0.92969 0.92578 0.51172 0 0.92969-0.41406 0.92969-0.92578 0-3.9766 3.2344-7.2109 7.207-7.2109 0.51562 0 0.92969-0.41406 0.92969-0.92969 0-0.51172-0.41406-0.92578-0.92969-0.92578z"/>
 </g>
</svg>
