<?xml version="1.0" encoding="UTF-8"?>
<svg width="100pt" height="100pt" version="1.1" viewBox="0 0 100 100" xmlns="http://www.w3.org/2000/svg">
 <path d="m68.301 38.5c0.19922-2 0-5.6016-2.1016-8.6992-0.5-0.69922-1-1.3008-1.6016-1.8008 0.30078-1.6016 1-8-2.5-12.102-0.89844-1-1.8984-1.6992-3.1016-2.1992-1.1992-1.5-1.3984-2.8008-1.6992-4.1992-0.39844-2.1992-0.80078-4.8008-4.8008-6.6992-0.60156-0.30078-1.3008-0.19922-1.8008 0.10156-9.6992 6.8008-11.801 15-11.898 15.301 0 0-0.19922 0.10156-0.30078 0.19922-4.1992 2.8008-4.3984 8.8984-4.3984 10-2.8008 2.8984-2.5 7.6016-2.1992 10.102-1.8984 0.80078-3.3008 2.6992-3.3008 4.8984v2.8984c0 2.3008 1.5 4.3008 3.6016 5.1016l16.102 45c0.30078 0.69922 0.89844 1.1992 1.6992 1.1992s1.3984-0.5 1.6992-1.1992l16.102-45c2.1016-0.69922 3.6016-2.6992 3.6016-5.1016v-2.8984c-0.003906-2.2031-1.3008-4.0039-3.1016-4.9023zm-36.102 4.8984c0-1 0.80078-1.8008 1.8008-1.8008h32c1 0 1.8008 0.80078 1.8008 1.8008v2.8984c0 1-0.80078 1.8008-1.8008 1.8008l-32 0.003906c-1 0-1.8008-0.80078-1.8008-1.8008zm8.3008-22.098c1.6992-1.1992 4.3008-1 7.6992 0.5 0.89844 0.39844 2 0 2.3984-0.89844 0.39844-0.89844 0-2-0.89844-2.3984-2.5-1.1055-4.6992-1.5039-6.6992-1.5039 1.1016-2.3984 3.6016-6.6016 8.8008-10.602 1.5 1 1.6016 2 1.8984 3.6016 0.10156 0.80078 0.30078 1.6992 0.60156 2.6992h-1.5c-1 0.10156-1.6992 0.89844-1.6992 1.8984 0.10156 1 0.89844 1.6992 1.8984 1.6992 2.8008-0.19922 4.8984 0.39844 6.1992 1.8984 1.8984 2.1016 2 5.5 1.8984 7.6016-1.3008-0.60156-2.8008-1-4.5-1.1992-1-0.10156-1.8984 0.60156-2 1.5-0.10156 1 0.60156 1.8984 1.5 2 3.3008 0.39844 5.6016 1.6016 7 3.6016 1.5 2.1016 1.6016 4.6016 1.5 6.1016h-29.098c-0.30078-2.1016-0.5-5.8008 1.5-7.3984 2-1.6992 6.1016-1.3008 11.898 1.1016 0.89844 0.39844 2 0 2.3008-1 0.39844-0.89844 0-2-1-2.3008-5.1016-2.1992-9.3008-2.8984-12.398-2.1016 0.39844-1.6016 1.0977-3.7031 2.6992-4.8008zm-4.3008 30.301h11.699l-9.8984 5zm13.801 38.797-2.1992-6.1992 5.3984-2.6992zm4.8984-13.797-8.3008 4.1992-1.6992-4.6992 12.398-6.1992zm4.1016-11.602-15.301 7.6992-1.6992-4.5977 19.398-9.6992zm-18.199-0.30078-1.6016-4.6992 16.699-8.3984h8l-0.69922 1.8008z"/>
</svg>
