<?xml version="1.0" encoding="UTF-8"?>
<svg width="100pt" height="100pt" version="1.1" viewBox="0 0 100 100" xmlns="http://www.w3.org/2000/svg">
 <path d="m85.734 70.801l-6.9336-5.5352c-0.73438-0.53516-1.1992-1.332-1.4648-2.1992l-7.0664-25.465c-0.39844-1.4648-1.1992-2.8008-2.332-3.8008l-8.3359-7.5352c3.7344-3.2656 7.3984-6.6016 11-9.9336l1.9336-1.8672c1-0.93359 1.0664-2.4648 0.26562-3.5352-0.86719-1.0664-2.332-1.2656-3.4648-0.53516l-2.1992 1.4648c-4.4688 3.0078-8.8711 6.1406-13.137 9.3398l-1.1992-1.1328c-1.8008-1.668-4.3984-2.0664-6.6016-1.0664l-13.934 6.1992c-1.5352 0.66797-2.6016 2-3 3.668l-2.5352 10.867c-0.13281 0.66797 0 1.4648 0.39844 2 0.19922 0.26562 0.46484 0.53516 0.80078 0.73438l-2.5312 2.1992c-1.8672 0.066406-3.7344 0.60156-5.3984 1.6016-2.7344 1.6016-4.6016 4.1992-5.332 7.2656l-0.73438 3.1992c-0.066406 0.39844 0 0.80078 0.26562 1.1328 0.26562 0.33203 0.66797 0.53516 1.0664 0.53516l3.332-0.066406c3.1328 0 6.0664-1.332 8.1992-3.6016 1.332-1.3984 2.2656-3.1328 2.7344-4.9336l3.0664-2.1992c0.60156-0.46484 1.2656-0.93359 1.8672-1.332l1.8672 6.9336c0.33203 1.2656 0.80078 2.5352 1.332 3.7344l1.5352 3.5352c0.19922 0.46484 0.60156 0.73438 1.1328 0.80078h0.19922 0.46484c0.46484 0 0.93359-0.066407 1.3984-0.19922-0.39844 3.1992 0 6.5352 1.332 9.5352l1.1328 2.5352c1.0664 2.4648 3.0664 4.3984 5.6016 5.332l5.332 2.0664c0.73438 0.26562 1.3984 0.66797 2 1.1328l10.535 8c0.26562 0.19922 0.53516 0.26562 0.80078 0.26562 0.39844 0 0.80078-0.19922 1.0664-0.53516 0.46484-0.60156 0.33203-1.3984-0.26562-1.8672l-10.535-8c-0.80078-0.60156-1.668-1.1328-2.6016-1.4648l-5.332-2.0664c-1.8672-0.73437-3.2656-2.1328-4.1328-3.9336l-1.1328-2.5352c-1.332-3.0664-1.668-6.5352-0.86719-9.7344l0.53516-2.1328c0.93359-3.668 0.60156-7.6016-0.93359-11.066l-3.1328-7.0664-0.93359-2.1328c-0.73438-1.6016 0-3.4648 1.6016-4.1992 0.73438-0.33203 1.6016-0.33203 2.3984-0.066406 0.80078 0.33203 1.3984 0.93359 1.8008 1.668l4.7344 10.668c0.93359 2.1328 2.2656 4.0664 3.9336 5.8008l3.6016 3.7344c0.53516 0.53516 1.332 0.53516 1.8672 0 0.53516-0.53516 0.53516-1.332 0-1.8672l-3.6016-3.7344c-1.3984-1.4648-2.5352-3.1328-3.3984-5l-4.2656-9.6016c2.7344-2.1992 5.4648-4.4648 8.1328-6.8008l8.4648 7.7344c0.73438 0.66797 1.332 1.6016 1.6016 2.6016l7.0664 25.465c0.39844 1.3984 1.1992 2.668 2.332 3.6016l6.9336 5.5352c0.26562 0.19922 0.53516 0.26563 0.80078 0.26563 0.39844 0 0.80078-0.19922 1.0664-0.53516 0.46484-0.60938 0.33203-1.4102-0.19922-1.875zm-37.602-38.402c-0.60156-0.73438-1.332-1.332-2.2656-1.668 7.332-5.8008 14.934-11.398 22.668-16.602l1.5352-1-1.332 1.2656c-6.6055 6.2734-13.539 12.273-20.605 18.004zm-16.266-3c0.19922-0.80078 0.73437-1.4648 1.4648-1.8008l13.934-6.1992c1.2656-0.53516 2.668-0.33203 3.7344 0.60156l0.80078 0.73438c-3.3984 2.5352-6.668 5.1328-9.9336 7.7344-0.19922 0.066406-0.39844 0.13281-0.53516 0.19922-1.1992 0.53516-2.0664 1.3984-2.668 2.3984-2.6016 2.1328-5.1992 4.332-7.7344 6.6016-0.46484 0.19922-1 0.33203-1.5352 0.26562zm-0.86719 16.066l-2.0664 1.4648-0.86719-1.0664 1.8672-1.668c2.6016-2.332 5.332-4.668 8-6.9336 0.066406 0.39844 0.19922 0.86719 0.39844 1.2656l0.53516 1.1992c-2.6016 1.875-5.1992 3.8086-7.8672 5.7383zm-14.199 10.27l0.39844-1.5352c0.53516-2.332 2-4.332 4.1328-5.5352 1.3984-0.80078 2.9336-1.1992 4.4648-1.1992h0.13281l1.0664 1.332c-0.33203 1.6016-1.0664 3.0664-2.1992 4.2656-1.668 1.7344-3.9336 2.7344-6.332 2.7344zm26.398 1.2656l-0.13281 0.66797c-0.46484 0.53516-1.1328 0.86719-1.8008 0.93359l-1.1992-2.7344c-0.46484-1.0664-0.86719-2.1992-1.1992-3.332l-2.1328-7.8672c1.0664-0.80078 2.1992-1.6016 3.2656-2.3984l2.4648 5.5352c1.2695 2.7969 1.5352 6.1289 0.73438 9.1953z"/>
</svg>
