<?xml version="1.0" encoding="UTF-8"?>
<svg width="100pt" height="100pt" version="1.1" viewBox="0 0 100 100" xmlns="http://www.w3.org/2000/svg">
 <g>
  <path d="m33.125 51.852c-0.82812 0-1.625-0.32812-2.2109-0.91797l-2.3086-2.3164v0.003906c-0.58594-0.58594-0.91797-1.3828-0.91797-2.2109s0.33203-1.625 0.91797-2.2109l14.699-14.699c0.58594-0.58594 1.3828-0.91406 2.2109-0.91406s1.625 0.32812 2.2109 0.91406l2.3164 2.3164h-0.003907c0.58594 0.58594 0.91797 1.3789 0.91797 2.207 0 0.83203-0.33203 1.625-0.91797 2.2109l-14.703 14.699c-0.58594 0.58984-1.3828 0.91797-2.2109 0.91797zm12.375-22.016c-0.49609-0.003907-0.97656 0.19531-1.3242 0.55078l-14.676 14.699c-0.72656 0.73437-0.72656 1.9141 0 2.6484l2.3164 2.3164c0.73438 0.72656 1.918 0.72656 2.6523 0l14.699-14.699h0.003906c0.35156-0.35156 0.55078-0.83203 0.55078-1.3281 0-0.5-0.19922-0.97656-0.55078-1.3281l-2.3164-2.3086c-0.35938-0.36328-0.84766-0.5625-1.3555-0.55078z"/>
  <path d="m33.363 48.762-2.5859-2.5898h0.003906c-0.24609-0.24609-0.64062-0.24609-0.88672 0-0.24219 0.24219-0.24219 0.64062 0 0.88281l2.6055 2.5859c0.24609 0.22266 0.625 0.21094 0.85938-0.023437 0.23438-0.23438 0.24609-0.60938 0.027344-0.85547z"/>
  <path d="m52.281 32.719 3.7461 3.7461c0.75391 0.75391 1.7461 1.5664 1.1211 2.7812h-0.003907c-0.31641 0.47266-0.69922 0.89844-1.1445 1.2539l-4.6602 4.6641c-1.0703 1.0703-2.6367 2.1953-2.6367 3.8555 0 1.9688 2.3242 3.5508 3.5898 4.8086h0.003906c0.24609 0.22266 0.62109 0.21484 0.85547-0.019531 0.23828-0.23438 0.24609-0.60938 0.027344-0.85938-1.1094-1.1094-4.0898-3.1484-2.8906-4.9141 0.83594-1.2305 2.2109-2.2656 3.2617-3.3164 1.3398-1.3398 2.7148-2.6562 4.0234-4 1.4102-1.5 1.1484-3.2461-0.20312-4.625-1.3555-1.3789-2.8164-2.8164-4.2188-4.2188h-0.003906c-0.24219-0.24609-0.64063-0.24609-0.88281 0-0.24609 0.24609-0.24609 0.64062 0 0.88672z"/>
  <path d="m53.25 57.23 3.2031-3.2109c0.22266-0.24609 0.21094-0.625-0.023437-0.85938-0.23438-0.23047-0.61328-0.24219-0.85938-0.019531l-3.2031 3.2031h-0.003907c-0.24219 0.24609-0.24219 0.64062 0 0.88672 0.24609 0.24219 0.64062 0.24219 0.88672 0z"/>
  <path d="m68.184 73.125c-0.76172 0-1.4961-0.30469-2.0391-0.84375l-11.215-11.215c-1.125-1.1289-1.125-2.9531 0-4.082l1.2812-1.2812c1.1289-1.1211 2.9531-1.1211 4.0859 0l11.203 11.219c1.125 1.125 1.125 2.9531 0 4.0781l-1.2812 1.2812c-0.53906 0.53906-1.2695 0.83984-2.0352 0.84375zm-11.09-16.539-1.2812 1.2852h0.003906c-0.32031 0.30078-0.5 0.71875-0.5 1.1523 0.003906 0.4375 0.18359 0.85547 0.5 1.1562l11.215 11.215c0.30469 0.30859 0.72266 0.48047 1.1562 0.48047s0.85156-0.17188 1.1562-0.48047l1.2812-1.2812c0.30859-0.30469 0.48047-0.72266 0.48047-1.1562 0-0.43359-0.17188-0.85156-0.48047-1.1562l-11.215-11.215c-0.64062-0.63672-1.6758-0.63672-2.3164 0z"/>
  <path d="m51.59 30.262-2.4492-2.4492v-0.003906c-0.24609-0.24219-0.64062-0.24219-0.88672 0-0.24219 0.24609-0.24219 0.64062 0 0.88672l2.4492 2.4492c0.24609 0.24609 0.64062 0.24609 0.88672 0 0.24609-0.24219 0.24609-0.64062 0-0.88281z"/>
  <path d="m49.949 27.941 1.5 1.5c0.25 0.21875 0.625 0.20703 0.85938-0.027344 0.23438-0.23437 0.24219-0.61328 0.019531-0.85937l-1.5-1.5c-0.24609-0.22266-0.62109-0.21094-0.85547 0.023437-0.23828 0.23047-0.24609 0.60938-0.027344 0.85547z"/>
  <path d="m68 69.531-7.1406-7.1406c-0.24609-0.22266-0.625-0.21094-0.85938 0.027344-0.23047 0.23438-0.24219 0.60938-0.019531 0.85547l7.1406 7.1406c0.24609 0.22266 0.625 0.21094 0.85547-0.027343 0.23438-0.23438 0.24609-0.60938 0.023438-0.85547z"/>
  <path d="m59.445 60.965-1-1c-0.24609-0.22266-0.625-0.21094-0.85937 0.023437-0.23438 0.23047-0.24609 0.60938-0.027344 0.85547l1 1c0.24609 0.22266 0.625 0.21484 0.85938-0.019531s0.24609-0.61328 0.027343-0.85938z"/>
  <path d="m28.129 48.344v13.184c0 1.5352-0.21875 3.2734 0.085938 4.8008 0.71484 3.5586 5.6016 4.4414 7.5 1.3438 0.60156-0.96875 0.62109-2 0.62109-3.0938v-3.9531c0-0.89453-0.14844-1.9297 0.074218-2.8086 0.45312-1.7539 2.7695-1.3594 2.9648 0.33984 0.054688 0.5 0 1.0508 0 1.5586 0 1.3984 0.54688 2.7148 2 3.1484 1.4883 0.42578 3.043-0.41406 3.5-1.8945 0.40625-1.3711 0.11328-3.1602 0.11328-4.5586v-15c0-0.27734-0.22266-0.5-0.5-0.5-0.27344 0-0.5 0.22266-0.5 0.5v18.09c0 1-0.11328 2.0586-1.2734 2.4141-0.55078 0.15234-1.1445 0.035157-1.6016-0.30859s-0.73047-0.87891-0.73828-1.4492c-0.039062-0.53516 0-1.0859 0-1.6211 0-1.2266-0.5-2.3555-1.75-2.7656-1.3242-0.40625-2.7305 0.3125-3.1719 1.625-0.15234 0.77734-0.19531 1.5742-0.11719 2.3672v3.8594c0 0.88672 0.12109 1.9219-0.12891 2.7852h-0.003906c-0.34375 1.1094-1.2734 1.9375-2.418 2.1445-1.1445 0.21094-2.3086-0.23047-3.0234-1.1445-1-1.3164-0.64062-3.5742-0.64062-5.1289v-13.934c0-0.27344-0.22656-0.5-0.5-0.5-0.27734 0-0.5 0.22656-0.5 0.5z"/>
  <path d="m32.234 66.594c-1.4375-0.14453-1.0859-2.0938-1.0859-3.0938v-2.5c0-0.27734-0.22266-0.5-0.5-0.5-0.27344 0-0.5 0.22266-0.5 0.5v3.7695c0 1.4453 0.46875 2.625 2.0859 2.7852 0.64062 0.066406 0.63672-0.93359 0-1z"/>
  <path d="m31.148 58.441v-5.1914c0-0.27734-0.22266-0.5-0.5-0.5-0.27344 0-0.5 0.22266-0.5 0.5v5.1914c0 0.27344 0.22656 0.5 0.5 0.5 0.27734 0 0.5-0.22656 0.5-0.5z"/>
 </g>
</svg>
