<?xml version="1.0" encoding="UTF-8"?>
<svg width="100pt" height="100pt" version="1.1" viewBox="0 0 100 100" xmlns="http://www.w3.org/2000/svg">
 <path d="m94.27 41.637v-21.59h-6.1172c-1.2344-6.875-7.2461-12.113-14.473-12.113h-53.23c-8.1172 0-14.719 6.6016-14.719 14.719 0 8.1172 6.6016 14.719 14.719 14.719h53.227c7.2266 0 13.242-5.2383 14.477-12.113l0.91016-0.003906v12.918l-44.602 18.723v7.7578h-3.582v27.414h12.367v-27.414h-3.5781v-4.2969zm-20.594-9.4766h-53.227c-5.2422 0-9.5117-4.2656-9.5117-9.5117 0-5.2422 4.2656-9.5117 9.5117-9.5117h53.23c5.2422 0 9.5078 4.2656 9.5078 9.5117 0.003906 5.2461-4.2656 9.5117-9.5117 9.5117z"/>
</svg>
