<?xml version="1.0" encoding="UTF-8"?>
<svg width="100pt" height="100pt" version="1.1" viewBox="0 0 100 100" xmlns="http://www.w3.org/2000/svg">
 <g>
  <path d="m80.75 12.125h-0.625v-10.375h-68v25.5h68v-12.375h0.625c2.375 0 4.25 1.875 4.25 4.25v13c0 2.75-2.25 4.875-5 4.875h-27.375c-4.375 0-7.875 3.5-7.875 7.75v6.25h-6.75c-0.625 0-1.125 0.375-1.375 0.875s-0.125 1.125 0.25 1.5l3.625 3.625c-2.375 1.375-4 3.875-4 6.75v26.625c0 4.25 3.5 7.75 7.75 7.75h3.25c4.25 0 7.75-3.5 7.75-7.75v-26.5c0-4.25-3.5-7.75-7.75-7.75h-3.25-0.75l-2.25-2.25h12.75c0.75 0 1.375-0.625 1.375-1.375s-0.625-1.375-1.375-1.375h-6.625v-6.25c0-2.75 2.25-4.875 5-4.875h27.625c4.375 0 7.875-3.5 7.875-7.75v-13.125c0-3.875-3.25-7-7.125-7zm-3.5 12.25h-62.25v-19.75h62.25zm-29.5 34.5c2.75 0 5 2.25 5 5v26.625c0 2.75-2.25 5-5 5h-3.25c-2.75 0-5-2.25-5-5v-26.625c0-2.75 2.25-5 5-5z"/>
  <path d="m41.375 90.625c0 0.75 0.625 1.375 1.375 1.375s1.375-0.625 1.375-1.5l-0.375-25.875c0-0.75-0.625-1.375-1.5-1.375-0.75 0-1.375 0.625-1.375 1.5z"/>
  <path d="m18.875 22.125h54.5c0.75 0 1.375-0.625 1.375-1.375s-0.625-1.375-1.375-1.375h-54.5c-0.75 0-1.375 0.625-1.375 1.375s0.625 1.375 1.375 1.375z"/>
 </g>
</svg>
