<?xml version="1.0" encoding="UTF-8"?>
<svg width="100pt" height="100pt" version="1.1" viewBox="0 0 100 100" xmlns="http://www.w3.org/2000/svg">
 <g>
  <path d="m35.16 25.07c0-6.3086-7.5312-14.281-7.8516-14.617-0.19141-0.19922-0.47656-0.31641-0.73438-0.3125-0.27734 0.003906-0.53906 0.12109-0.72656 0.32422-0.32031 0.35156-7.8398 8.6211-7.8398 14.605 0 3.1055 1.668 5.8242 4.1484 7.3281-0.78516 0.55078-1.3047 1.4609-1.3047 2.4922 0 1.1523 0.65234 2.1484 1.6016 2.6641l1.6055 48.766c0.035156 1.0898 0.12109 3.6445 2.5234 3.6445 2.4062 0 2.4883-2.5547 2.5234-3.6445l1.6055-48.766c0.94922-0.51563 1.6016-1.5117 1.6016-2.6641 0-1.0312-0.51953-1.9414-1.3047-2.4922 2.4844-1.5 4.1523-4.2188 4.1523-7.3281zm-5.8867 10.867h-5.375c-0.57422 0-1.0469-0.46875-1.0469-1.0469 0-0.57422 0.46875-1.0469 1.0469-1.0469h5.375c0.57422 0 1.0469 0.46875 1.0469 1.0469-0.003906 0.57812-0.47266 1.0469-1.0469 1.0469zm-2.1641 50.32c-0.054687 1.707-0.31641 1.707-0.52344 1.707-0.21094 0-0.46875 0-0.52344-1.7109l-1.5938-48.32h4.2344zm-0.52344-54.613c-3.625 0-6.5742-2.9492-6.5742-6.5742 0-4.2148 4.7383-10.234 6.5898-12.422 1.8555 2.1289 6.5625 7.9727 6.5625 12.422-0.003906 3.625-2.9531 6.5742-6.5781 6.5742z"/>
  <path d="m73.613 71.555c-0.55078 0-1 0.44531-1 1v3.5547c0 0.55469 0.44922 1 1 1s1-0.44531 1-1v-3.5547c0-0.55469-0.44531-1-1-1z"/>
  <path d="m59.488 10.055c-3.8125 0-6.918 3.1016-6.918 6.918v21.984c0 3.0859-2.5117 5.5977-5.5977 5.5977h-5.5742c-2.5703 0-4.6602 2.0898-4.6602 4.6602v39.84c0 0.55469 0.44922 1 1 1h43.5c0.55078 0 1-0.44531 1-1v-39.84c0-2.5703-2.0898-4.6602-4.6602-4.6602h-5.5742c-3.0859 0-5.5977-2.5117-5.5977-5.5977v-21.984c0-3.8164-3.1016-6.918-6.918-6.918zm15.125 78v-6.9375c0-0.55469-0.44922-1-1-1s-1 0.44531-1 1v6.9375h-5.082v-12c0-0.55469-0.44922-1-1-1s-1 0.44531-1 1v12h-5.082v-8.4883c0-0.55469-0.44922-1-1-1s-1 0.44531-1 1v8.4883h-5.082l-0.003907-20.625c0-0.55469-0.44922-1-1-1s-1 0.44531-1 1v20.625h-5.082v-12c0-0.55469-0.44922-1-1-1s-1 0.44531-1 1v12h-5.543v-28.832h41.5v28.832zm-2.6094-41.5h5.5742c1.4688 0 2.6602 1.1914 2.6602 2.6602v8.0078h-41.5v-8.0078c0-1.4688 1.1914-2.6602 2.6602-2.6602h5.5742c4.1875 0 7.5977-3.4062 7.5977-7.5977v-21.984c0-2.7109 2.207-4.918 4.918-4.918 2.7109 0 4.918 2.207 4.918 4.918v21.984c0 4.1875 3.4062 7.5977 7.5977 7.5977z"/>
 </g>
</svg>
