<?xml version="1.0" encoding="UTF-8"?>
<svg width="100pt" height="100pt" version="1.1" viewBox="0 0 100 100" xmlns="http://www.w3.org/2000/svg">
 <path d="m50 1c-27.051 0-49 21.949-49 49s21.949 49 49 49 49-21.949 49-49-21.949-49-49-49zm0 2.043c25.945 0 46.957 21.012 46.957 46.957s-21.012 46.961-46.957 46.961-46.957-21.012-46.957-46.961c0-25.945 21.012-46.957 46.957-46.957zm19.598 14.98v-0.003907c-0.26562 0.007813-0.51953 0.12109-0.70312 0.30859l-11.141 11.141c-2.9258 2.6719-3.8438 7.0898-2.2852 10.688-2.4727 2.3047-4.9492 4.6133-7.4219 6.918l-7.1875-6.6445c0.92969-1.7148 1.3594-3.7148 1.0664-5.7031-0.62891-4.1406-3.6836-7.207-6.7773-9.3516l-0.007813-0.003906-0.007813-0.007813c-3.2227-2.1484-7.0938-3.832-11.207-3.6367-2.6445 0.078126-5.332 1.6602-6.1484 4.3984-1.0664 3.457-0.035156 7 1.2852 9.957l0.015625 0.023438c1.7422 3.6719 4.3711 7.2227 8.1875 9.1992 2.7461 1.457 6.1172 1.4141 8.8164-0.066407l6.457 6.9844c-7.418 6.9141-14.84 13.828-22.258 20.742h-0.003906c-0.007813 0.007812-0.015625 0.015625-0.023438 0.023437 0 0-0.003906 0.003907-0.007812 0.007813-0.011719 0.011718-0.023438 0.023437-0.035156 0.035156l0.003906-0.003906c-0.003906 0.003906-0.007813 0.007812-0.011719 0.011718-2.0039 2.0547-1.9922 5.375 0.042969 7.4102 2.0391 2.0391 5.375 2.043 7.4297 0.023437 0.019531-0.015625 0.039063-0.035156 0.058594-0.054687 0.011719-0.011719 0.023437-0.023438 0.035156-0.035157h-0.003906c0.003906-0.003906 0.007813-0.007812 0.011719-0.011718 6.8242-7.3203 13.648-14.641 20.473-21.961l20.348 22.012c0.007813 0.003906 0.015625 0.011719 0.023438 0.019531 0 0.003906 0.003906 0.007813 0.007812 0.011719s0.011719 0.007813 0.011719 0.011719h-0.003906c0.011719 0.011718 0.023437 0.023437 0.035156 0.035156 2.0547 2.0039 5.375 1.9922 7.4062-0.042969 2.0312-2.0312 2.043-5.3398 0.054687-7.3984h0.003907c-0.019531-0.023438-0.035157-0.046875-0.054688-0.066406-0.003906-0.003907-0.007812-0.007813-0.011719-0.007813-0.007812-0.007813-0.015624-0.015625-0.023437-0.023437l-22.227-20.543c2.2383-2.3984 4.4727-4.8008 6.7109-7.1992 3.3555 1.4414 7.418 0.77344 10.125-1.7383 0.007812-0.007813 0.015625-0.015625 0.023438-0.023438 3.9102-3.875 7.7852-7.7773 11.676-11.66 0.30469-0.29297 0.39453-0.74219 0.23047-1.1289-0.16406-0.39062-0.55078-0.63672-0.96875-0.625-0.26563 0.007812-0.51953 0.11719-0.70313 0.30859-3.8906 3.8789-7.7539 7.7773-11.652 11.637-2.1953 2.0352-5.7031 2.5078-8.3477 1.1562-0.16797-0.12109-0.36719-0.19141-0.57031-0.19922h-0.011719c-0.38281-0.023437-0.74219 0.17188-0.93359 0.49609-2.3594 2.5312-4.7148 5.0586-7.0742 7.5898l-2.7734-2.5664c2.6211-2.4414 5.2422-4.8867 7.8633-7.3281l-0.003906 0.003906c0.39453-0.35547 0.44922-0.94922 0.13281-1.3711-1.4492-2.8125-0.76562-6.6406 1.5898-8.7891 0.011719-0.007813 0.023438-0.019531 0.03125-0.03125l11.176-11.176c0.30078-0.29297 0.39062-0.74219 0.22656-1.1289-0.16406-0.38672-0.55078-0.63281-0.96875-0.62109zm-19.598 3.3945c-0.98828 0-1.9609 0.054687-2.9219 0.14844-0.96094 0.10156-1.9102 0.24219-2.8398 0.43359-0.92969 0.19141-1.8438 0.42578-2.7383 0.70703-0.89453 0.27734-1.7734 0.59766-2.6289 0.96094v-0.003907c-0.25391 0.10156-0.45703 0.30078-0.5625 0.55469-0.10547 0.25391-0.10547 0.53906 0 0.79297 0.10938 0.25391 0.3125 0.45312 0.57031 0.55078 0.25391 0.10156 0.53906 0.09375 0.78906-0.019531 0.79297-0.33594 1.6094-0.63281 2.4375-0.89062 0.83203-0.25781 1.6797-0.47656 2.543-0.65234 0.86328-0.17578 1.7422-0.3125 2.6328-0.40234s1.7969-0.13672 2.7148-0.13672c0.91797 0 1.8203 0.042968 2.7148 0.13672 0.89062 0.089844 1.7734 0.22656 2.6367 0.40234 0.86328 0.17578 1.7109 0.39453 2.543 0.65234h0.003906c0.26172 0.089844 0.54688 0.070312 0.79297-0.054688s0.43359-0.34375 0.51562-0.60547c0.082031-0.26563 0.054687-0.55078-0.078125-0.79297-0.13281-0.24219-0.35938-0.42188-0.625-0.49609-0.89453-0.27734-1.8086-0.51562-2.7383-0.70703-0.92969-0.19141-1.8789-0.33594-2.8398-0.43359-0.96094-0.10156-1.9336-0.14844-2.9219-0.14844zm23.859 0.86719c-0.26562 0.007813-0.51562 0.11719-0.69922 0.30859l-11.355 11.355v-0.003907c-0.19531 0.19141-0.30469 0.45313-0.30469 0.72656 0 0.26953 0.10547 0.53125 0.30078 0.72266 0.19141 0.19531 0.45312 0.30078 0.72266 0.30078 0.27344 0 0.53516-0.10937 0.72656-0.30469l11.355-11.355h-0.003907c0.30469-0.29297 0.39453-0.74219 0.23047-1.1289-0.16406-0.39062-0.55078-0.63672-0.97266-0.62109zm-49.188 1.4688c3.2656 0.035156 6.5078 1.4297 9.3203 3.3047 2.8516 1.9805 5.4102 4.6758 5.9141 7.9766 0.24609 1.6719-0.19531 3.4375-1.1172 4.8945v-0.003907c-0.125 0.13672-0.20703 0.30469-0.24219 0.48438-0.10547 0.44922 0.10156 0.91406 0.50781 1.1328l35.582 32.891c1.2695 1.2734 1.2695 3.3008 0 4.5664-1.2695 1.2695-3.2969 1.2656-4.5742-0.007812l-32.961-35.656 0.003907 0.003906c-0.14453-0.20703-0.35547-0.35156-0.59766-0.41406-0.10547-0.027343-0.21484-0.039062-0.32422-0.03125-0.23438 0.011719-0.45703 0.10547-0.62891 0.26562-2.1406 1.4062-5.0703 1.5469-7.3398 0.33984l-0.003906-0.003906h-0.007813c-3.2578-1.6914-5.6562-4.8438-7.2734-8.2461v-0.007812c-1.2305-2.7539-2.0352-5.8125-1.1953-8.5234v-0.015625c0.51562-1.7422 2.3945-2.8906 4.2656-2.9453h0.023438c0.21875-0.011718 0.4375-0.011718 0.65234-0.011718zm52.68 2.0234c-0.26562 0.007812-0.51562 0.11719-0.70312 0.30859l-11.352 11.355c-0.20312 0.1875-0.32031 0.44922-0.32422 0.72656-0.003906 0.27734 0.10547 0.54297 0.30078 0.73828 0.19531 0.19531 0.46094 0.30469 0.73828 0.29688 0.27344-0.003906 0.53906-0.11719 0.72656-0.32031l11.355-11.355c0.30078-0.29297 0.39062-0.74219 0.22656-1.1289-0.16406-0.38672-0.54687-0.63281-0.96875-0.62109zm9.3086 7.6953v-0.003906c-0.34375 0.007812-0.66016 0.18359-0.84375 0.47266-0.18359 0.28906-0.21094 0.64844-0.070312 0.96484 4.0547 9.5156 4.0547 20.676 0 30.191-0.11328 0.25-0.12109 0.53516-0.023438 0.78906 0.10156 0.25781 0.30078 0.46094 0.55078 0.57031 0.25391 0.10938 0.53906 0.10938 0.79297 0.003907 0.25391-0.10547 0.45312-0.30859 0.55469-0.5625 4.2812-10.043 4.2812-21.75 0-31.793v-0.003907c-0.15625-0.38672-0.53906-0.64062-0.96094-0.63281zm-10.355 7.3008v-0.003907c-0.32422 0.007813-0.62891 0.16406-0.81641 0.42969-0.1875 0.26172-0.23828 0.60156-0.14062 0.90625 0.25781 0.83203 0.47656 1.6797 0.65234 2.543 0.17578 0.86328 0.3125 1.7422 0.40234 2.6367 0.089844 0.89062 0.13672 1.7969 0.13672 2.7148s-0.042968 1.8242-0.13672 2.7148c-0.089844 0.89062-0.22656 1.7695-0.40234 2.6328-0.17578 0.86328-0.39453 1.7109-0.65234 2.543-0.25781 0.83203-0.55469 1.6445-0.89062 2.4375-0.33594 0.79297-0.71094 1.5664-1.1172 2.3203-0.40625 0.75391-0.85156 1.4805-1.3281 2.1875l-0.003907 0.003906c-0.15234 0.22266-0.21094 0.5-0.16016 0.76562 0.050782 0.26953 0.20703 0.50391 0.43359 0.65625 0.22266 0.15234 0.5 0.21094 0.76953 0.15625 0.26562-0.050781 0.5-0.21094 0.65234-0.4375 0.51172-0.76172 0.99219-1.5469 1.4336-2.3555 0.44141-0.80859 0.84375-1.6445 1.2031-2.5s0.67969-1.7305 0.96094-2.6289c0.27734-0.89453 0.51562-1.8086 0.70703-2.7383 0.19141-0.92969 0.33594-1.8789 0.43359-2.8398 0.10156-0.96094 0.14844-1.9375 0.14844-2.9219 0-0.98828-0.042969-1.9609-0.14844-2.9219-0.10156-0.96094-0.24219-1.9062-0.43359-2.8398-0.19141-0.92969-0.42578-1.8438-0.70703-2.7383l-0.003906 0.003906c-0.12891-0.4375-0.53516-0.73828-0.99219-0.73047zm-53.316 2.6406-0.003906-0.003906c-0.48438 0.007813-0.89453 0.35547-0.98828 0.83203-0.19141 0.92969-0.33594 1.8789-0.43359 2.8398-0.10156 0.96094-0.14453 1.9336-0.14453 2.9219 0 0.98828 0.042969 1.9609 0.14453 2.9219 0.10156 0.96094 0.24219 1.9062 0.43359 2.8398 0.19141 0.92969 0.42578 1.8438 0.70312 2.7383 0.27734 0.89453 0.59766 1.7734 0.96094 2.6289 0.35938 0.85547 0.76562 1.6875 1.2031 2.5l0.003907-0.007812c0.125 0.24219 0.34375 0.42188 0.60547 0.50391 0.26172 0.078125 0.54688 0.050782 0.78516-0.082031 0.24219-0.12891 0.41797-0.35156 0.49609-0.61328 0.074219-0.26172 0.039063-0.54297-0.09375-0.78125-0.40625-0.75-0.78125-1.5273-1.1172-2.3203-0.33594-0.79297-0.63281-1.6094-0.89062-2.4375-0.25781-0.83203-0.47656-1.6797-0.65234-2.543-0.17578-0.86328-0.3125-1.7422-0.40234-2.6328s-0.13672-1.8008-0.13672-2.7148c0-0.91797 0.042968-1.8203 0.13672-2.7148 0.089844-0.89062 0.22656-1.7734 0.40234-2.6367l-0.003906-0.003906c0.066406-0.30469-0.007813-0.62109-0.20703-0.86328-0.19531-0.24219-0.49219-0.37891-0.80469-0.375zm20.93 10.305 2.9414 3.1797c-6.8672 7.3672-13.738 14.738-20.605 22.105-1.2734 1.2656-3.2969 1.2656-4.5625 0-1.2695-1.2695-1.2695-3.2969 0.007813-4.5742 7.4062-6.9062 14.816-13.809 22.223-20.715zm41.082 14.23-0.003906-0.003907c-0.375 0.003907-0.71094 0.21484-0.88672 0.54297-0.59766 1.0977-1.2461 2.1641-1.9414 3.1992v0.003906c-0.15625 0.22266-0.21484 0.5-0.16406 0.76953 0.050782 0.26562 0.20312 0.50391 0.42969 0.65625 0.22656 0.15234 0.50391 0.20703 0.77344 0.15625 0.26953-0.054688 0.50391-0.21484 0.65234-0.44141 0.73438-1.0898 1.418-2.2109 2.0469-3.3672 0.17969-0.32031 0.17188-0.71094-0.015625-1.0234s-0.52734-0.50391-0.89453-0.49609zm-48.133 5.2656-0.007813-0.007813c-0.46875-0.003906-0.88281 0.31641-1 0.77344-0.11328 0.45703 0.097656 0.93359 0.51562 1.1523 0.80859 0.44141 1.6445 0.84375 2.5 1.2031 0.85547 0.35937 1.7305 0.68359 2.6289 0.96094 0.89453 0.27734 1.8086 0.51172 2.7383 0.70312 0.92969 0.19141 1.8789 0.33594 2.8398 0.43359 0.96094 0.10156 1.9336 0.14844 2.9219 0.14844 0.98828 0 1.9609-0.042969 2.9219-0.14844 0.96094-0.10156 1.9062-0.24219 2.8398-0.43359 0.92969-0.19141 1.8438-0.42578 2.7383-0.70312 0.89453-0.27734 1.7734-0.60156 2.6289-0.96094h-0.007812c0.25391-0.10156 0.45703-0.30078 0.5625-0.55469 0.10156-0.25 0.10156-0.53516-0.003906-0.78906-0.10547-0.25-0.30859-0.44922-0.5625-0.55078-0.25391-0.10156-0.53906-0.09375-0.78906 0.015625-0.79297 0.33594-1.6094 0.63281-2.4375 0.89062-0.83203 0.25781-1.6797 0.47656-2.543 0.65234-0.86328 0.17578-1.7422 0.3125-2.6367 0.40234-0.89062 0.089844-1.7969 0.13672-2.7148 0.13672s-1.8242-0.042968-2.7148-0.13672c-0.89062-0.089844-1.7695-0.22656-2.6328-0.40234-0.86328-0.17578-1.7109-0.39453-2.543-0.65234-0.83203-0.25781-1.6445-0.55859-2.4375-0.89062-0.79297-0.33594-1.5664-0.70703-2.3203-1.1172-0.15234-0.082032-0.32031-0.12891-0.49219-0.12891z"/>
</svg>
