<?xml version="1.0" encoding="UTF-8"?>
<svg width="100pt" height="100pt" version="1.1" viewBox="0 0 100 100" xmlns="http://www.w3.org/2000/svg">
 <g>
  <path d="m87.102 37.699c-0.90234-17.199-15.102-31.098-32.402-31.598-18.801-0.5-34.199 14.598-34.199 33.398v1.5s-2.8984 10.801-6.8008 16.801c-3.8008 6 6.8008 6.6016 6.8008 6.6016 0-0.003906-0.19922 15.398 16.5 17.797v11.699l39.699-8.1016s-0.89844-13.801 0-18.398c0.39844-2.1016 2.3008-5.8008 3.6992-7.6992 4.5-6 7.1016-13.699 6.7031-22zm-33.102 28.602c-4.6016 0-8.8984-1.1016-12.699-3.1992l-12.699 9.3984 5-15.5c-4-4.6992-6.5-10.801-6.5-17.5 0-14.801 12-26.898 26.898-26.898s26.898 12 26.898 26.898c0 14.801-12.098 26.801-26.898 26.801z"/>
  <path d="m54 26.102c-5.1992 0-9.3008 5.6992-9.3008 12.801 0 7.1016 4.1992 12.801 9.3008 12.801s9.3008-5.6992 9.3008-12.801c0-7.1016-4.1016-12.801-9.3008-12.801zm4.3008 9.0977c-0.10156 0.19922-0.19922 0.5-0.30078 0.69922-0.10156 0.19922-0.19922 0.39844-0.39844 0.60156-0.10156 0.19922-0.30078 0.39844-0.39844 0.60156-0.19922 0.19922-0.30078 0.39844-0.5 0.60156-0.69922 0.69922-1.5 1.3984-2.1992 1.8984l-0.19922 0.10156-0.10156 0.10156-0.20312 0.19531c-0.19922 0.10156-0.30078 0.30078-0.5 0.39844-0.30078 0.30078-0.60156 0.60156-0.89844 0.89844-0.30078 0.30078-0.5 0.60156-0.80078 1-0.19922 0.30078-0.39844 0.69922-0.60156 1-0.30078 0.69922-0.5 1.3984-0.39844 2.1016 0 0.69922 0.19922 1.3008 0.5 1.8984 0.30078 0.60156 0.60156 1.1016 1 1.5 0.19922 0.19922 0.30078 0.39844 0.5 0.60156 0.19922 0.19922 0.30078 0.30078 0.39844 0.5 0.30078 0.30078 0.5 0.5 0.69922 0.69922 0.19922 0.19922 0.19922 0.19922 0.19922 0.19922s-0.10156-0.10156-0.30078-0.19922c-0.19922-0.10156-0.5-0.19922-0.80078-0.5-0.19922-0.10156-0.39844-0.19922-0.60156-0.39844-0.19922-0.19922-0.39844-0.30078-0.60156-0.5-0.39844-0.39844-0.89844-0.89844-1.3008-1.5-0.39844-0.60156-0.80078-1.3984-0.89844-2.3008-0.19922-0.89844 0-1.8984 0.30078-2.8008 0.39844-0.89844 0.89844-1.8008 1.5-2.5 0.30078-0.39844 0.69922-0.69922 1-1 0.19922-0.19922 0.39844-0.30078 0.60156-0.5l0.30078-0.19922 0.19922-0.10156 0.10156-0.10156c0.80078-0.60156 1.3984-1.1016 2-1.6992 0.60156-0.60156 1.1016-1.1992 1.3984-1.8984 0.30078-0.69922 0.39844-1.3984 0.39844-2.1016 0-0.69922-0.30078-1.3984-0.5-1.8984-0.60156-1.1992-1.3008-2.1016-1.8984-2.6992-0.59766-0.59766-0.99609-0.89844-0.99609-0.89844s0.10156 0 0.30078 0.10156c0.19922 0.10156 0.5 0.30078 0.80078 0.5 0.30078 0.19922 0.80078 0.5 1.1992 0.89844 0.39844 0.39844 0.89844 0.89844 1.3008 1.5 0.39844 0.60156 0.80078 1.3984 1 2.3008 0.097657 1 0 2-0.30078 2.8984z"/>
  <path d="m54 14.699c-0.60156 0-1 0.5-1 1v5.3008c0 0.60156 0.5 1 1 1 0.60156 0 1-0.5 1-1v-5.1992c0-0.60156-0.39844-1.1016-1-1.1016z"/>
  <path d="m54 55.801c-0.60156 0-1 0.5-1 1v5.1992c0 0.60156 0.5 1 1 1 0.60156 0 1-0.5 1-1v-5.1992c0-0.5-0.39844-1-1-1z"/>
  <path d="m78.199 38.898c0-0.60156-0.5-1-1-1h-5.1992c-0.60156 0-1 0.5-1 1 0 0.60156 0.5 1 1 1h5.1992c0.5 0.10156 1-0.39844 1-1z"/>
  <path d="m37.102 38.898c0-0.60156-0.5-1-1-1h-5.1992c-0.60156 0-1 0.5-1 1 0 0.60156 0.5 1 1 1h5.1992c0.59766 0.10156 1-0.39844 1-1z"/>
  <path d="m71.102 21.898c-0.39844-0.39844-1.1016-0.39844-1.5 0l-3.6992 3.6992c-0.39844 0.39844-0.39844 1.1016 0 1.5 0.39844 0.39844 1.1016 0.39844 1.5 0l3.6992-3.6992c0.39844-0.5 0.39844-1.0977 0-1.5z"/>
  <path d="m42.102 50.898c-0.39844-0.39844-1.1016-0.39844-1.5 0l-3.6992 3.6992c-0.39844 0.39844-0.39844 1.1016 0 1.5 0.39844 0.39844 1.1016 0.39844 1.5 0l3.6992-3.6992c0.39844-0.39844 0.39844-1.0977 0-1.5z"/>
  <path d="m71.102 56.102c-0.39844 0.39844-1.1016 0.39844-1.5 0l-3.6992-3.6992c-0.39844-0.39844-0.39844-1.1016 0-1.5 0.39844-0.39844 1.1016-0.39844 1.5 0l3.6992 3.6992c0.39844 0.39844 0.39844 1 0 1.5z"/>
  <path d="m42.102 27c-0.39844 0.39844-1.1016 0.39844-1.5 0l-3.6992-3.6992c-0.39844-0.39844-0.39844-1.1016 0-1.5 0.39844-0.39844 1.1016-0.39844 1.5 0l3.6992 3.6992c0.39844 0.39844 0.39844 1.1016 0 1.5z"/>
 </g>
</svg>
