<?xml version="1.0" encoding="UTF-8"?>
<svg width="100pt" height="100pt" version="1.1" viewBox="0 0 100 100" xmlns="http://www.w3.org/2000/svg">
 <path d="m27.426 50.934c0.042969 0.18359 0.019531 0.52734 0.21484 0.52734 0.34766-0.0625 0.24219-1.1523-0.22266-1.0508-0.21484 0.066406-0.03125 0.36719 0.007812 0.52344zm1.1953-0.51562c0.023437 0.03125 0.40234-0.015625 0.44141-0.26172 0.089844-0.17578-0.16797-0.30859-0.27734-0.42969-0.03125-0.03125-0.17578 0.042969-0.26953 0.066407-0.16406 0.20703-0.13672 0.59766 0.10547 0.625zm-4.1094-2.2344c0.125 0.26172 0.36328-0.046875 0.36719-0.11328 0.007813-0.26172 0-1.0664-0.17578-1.0664-0.41406-0.03125-0.30469 0.63672-0.26953 0.92578 0.007812 0.050781 0.039062 0.20703 0.078125 0.25391zm2.4727-0.42578c0.007813 0.011719 0.16406-0.082031 0.35156-0.17578 0.19922-0.16797-0.070313-0.625-0.375-0.48438-0.070313 0.078125-0.24609 0.17188-0.30078 0.20312-0.21484 0.14062 0.050782 0.58984 0.32422 0.45703zm36.32-1.9297c0.14453-0.066406 0.28906-0.13672 0.4375-0.20312 0.20312-0.12891 0.070312-0.46875-0.21094-0.44922-0.097656-0.0625-0.30078 0.042969-0.46094 0.074219-0.19531 0.078125-0.085937 0.66016 0.23438 0.57812zm4.8711-3.3672c0.17578 0.25391 0.55469-0.050782 0.46875-0.25391 0.050781-0.12891-0.097656-0.33984-0.15625-0.51172-0.21094-0.28516-0.70312-0.089843-0.58984 0.31641 0.09375 0.14844 0.1875 0.29688 0.27734 0.44922zm-35.891 6.5742c0.14844-0.050781 0.09375-0.21875 0.0625-0.30469-0.027344-0.082031-0.10156-0.26562-0.23438-0.1875-0.15234 0.050781-0.10938 0.24609-0.10156 0.36719 0.003906 0.046875 0.11719 0.18359 0.27344 0.125zm-6.6016-1.3867c0.1875 0 0.31641 0 0.31641-0.20703 0-0.26172-0.089844-0.55469-0.3125-0.46875-0.16406 0.03125-0.17578 0.17578-0.16406 0.25391 0.011718 0.14453-0.003907 0.41797 0.16016 0.42188zm45.168 5.8438c-0.62891 0.17578-1.2305 0.42969-1.8438 0.66016-0.67187 0.25781-0.70312 0.35156-0.53906 1.418 0.050781 0.027344 0.10156 0.0625 0.15625 0.074219 0.99219 0.27734 1.375-0.88281 2.2344-0.96094 0.19141-0.015625 0.39453-0.26172 0.52734-0.44922 0.085937-0.125 0.125-0.41016 0.050781-0.48828-0.14453-0.14062-0.42188-0.30078-0.58594-0.25391zm-7.9883-0.0625c-0.10156 0.1875-0.23438 0.5625-0.17969 0.59766 0.62891 0.41406 0.83984 1.7266 1.1445 1.7266 0.49219-0.13281-0.17969-1.5352-0.53516-2.2227-0.050781-0.089844-0.41016-0.13672-0.42969-0.10156zm15.938 0.058593c0.50781 0.27734 2.0039-1.707 1.5312-2.0703 0-0.003907-2.125 1.6055-1.5312 2.0703zm-25.113 3.3359c-0.40234-0.050781-0.75781 0.26172-0.67188 0.58984 0.046875 0.17969 0.26172 0.39453 0.44141 0.44141 0.35156 0.09375 1.0117-0.21875 0.67969-0.75781-0.10938-0.070312-0.26953-0.25-0.44922-0.27344zm-35.793 4.043c-0.23438 0.24219-0.070312 0.55078 0.32031 0.69141 0.36328-0.22656 0.78516-0.42188 1.1289-0.71094 0.88281-0.73828 0.5-1.7812 0.50781-1.7773-0.46094-0.36719-1.3438 1.1641-1.957 1.7969zm14.527 0.55078c-0.089844 0.003906-0.26562 0.25391-0.23438 0.30859 0.070312 0.13281 0.23438 0.21484 0.35938 0.31641 0.30078 0.12891 0.62109-0.074219 0.30078-0.38281-0.17188-0.10547-0.30078-0.25-0.42578-0.24219zm-1.1641-19.109c0.035157-0.058594 0.089844-0.30859-0.11328-0.33984-0.25781 0.03125-0.24219 0.22656-0.3125 0.35547-0.023437 0.042969 0.074219 0.16016 0.11719 0.24219 0.19922 0.078125 0.24609-0.14844 0.30859-0.25781zm-1.207-0.058594c0.17578 0 0.11719-0.15625 0.17578-0.23438-0.046874-0.089844 0-0.26562-0.14453-0.26562-0.16406 0-0.16016 0.15625-0.16406 0.24219-0.007813 0.082031-0.003907 0.25781 0.13281 0.25781zm59.914 5.1797c-0.31641-1.0742-0.23047-2.1328-0.27344-3.1562-0.55469-0.47266-1.0234-0.95313-1.5703-1.3164-0.60938-0.40625-0.94922-0.88281-0.91406-1.6367 0.03125-0.71875-0.29688-1.2188-0.93359-1.6211-1.1875-0.75391-2.1133-1.7734-2.7227-3.0703-0.35547-0.76172-2.6875-3.7188-6.4492-4.25-1.6484-0.46875-3.3281-0.55469-5.0195-0.48828-0.84375 0.03125-1.6836 0.1875-2.4375 0.61719-0.31641 0.17578-1.2031 0.89063-1.6992 1.3398-0.83594 0.46484-1.6289 0.44141-2.4102 0.4375-0.23047 0-0.48047-0.058594-0.6875-0.16406-1.8164-0.93359-3.7734-1.1328-5.7695-1.0781-0.78516 0.019531-1.5742 0.035156-2.3477 0.15625-1.9023 0.29297-3.8008 0.63281-5.6953 0.97656-0.68359 0.12109-1.2734 0.44141-1.5 1.1523-0.38672 1.207-1.3555 1.5-2.4258 1.4688-0.95703-0.027344-1.9883-0.050781-2.8438-0.41406-1.7891-0.76172-3.5977-0.48437-5.293-0.085937-1.8672 0.44141-3.7422 0.85156-5.6094 1.3008-0.75 0.17969-1.5117 0.47266-2.1602 0.88281-0.83203 0.51953-1.6797 0.91406-2.6328 1.1406-0.70312 0.16406-1.3867 0.42969-2.0547 0.70312-0.90234 0.375-1.793 0.55859-2.8008 0.46875-1.7812-0.16016-3.3359 0.51953-4.5547 1.8125-0.67578 0.71484-3.0195 3.5078-3.3359 4.4414-0.32031 0.94922-0.58203 1.9141-0.90234 2.9883-1.2695 0.34766-1.6211 1.5039-1.7852 2.4141-1.0703 1.0312-1.9688 1.8359-2.7852 2.7148-0.49219 0.52734-0.45312 1.0781 0.003907 1.6406 0.61328 0.74609 1.2812 1.4453 1.8984 2.1875 0.52344 0.63281 1.0938 1.1016 1.9883 1.0508 0.71094-0.039063 1.0938 0.42188 1.3203 1.0312 0.0625 0.16797 0.097656 0.34766 0.13281 0.52344 0.22266 1.0742 0.82422 1.7109 1.9766 1.7188 0.72266 0.003906 1.2695 0.28125 1.6328 0.94141 0.17187 0.3125 0.44531 0.57031 0.67969 0.84375 1.043 1.2188 2.6172 1.6367 3.8711 2.5469 0.21484 0.15625 0.58594 0.125 0.88281 0.14453 1.8516 0.12109 3.6992 0.24609 5.5508 0.33203 0.53516 0.023438 1.082-0.0625 1.6211-0.12109 0.95703-0.10547 1.9102-0.23047 2.8672-0.34375 1.0703-0.12891 2.1445-0.25 3.2188-0.37891 1.2539-0.14844 2.5078-0.30078 3.7617-0.45312 0.71875-0.089844 1.4375-0.17578 2.1562-0.27344 2.8633-0.39844 5.7031-0.90625 8.5273-1.5625 4.2266-0.98438 8.5586-1.4258 12.785-2.4492 4.5664-1.1094 9.1562-2.1133 13.738-3.1719 0.23438-0.054688 0.46094-0.19141 0.69141-0.20312 1.5664-0.050781 2.8828-0.76172 4.25-1.5938 0.40234-1.3711 0.84766-2.8047 1.2344-4.2539 0.089844-0.32812 0.007813-0.70703-0.027344-1.0586-0.035156-0.35547-0.10547-0.70312-0.18359-1.1836 0.39062-0.16797 0.74609-0.375 1.1289-0.47266 0.58203-0.14453 1.1992-0.15625 1.7734-0.32812 1.0625-0.30859 2.3984-1.9531 2.1328-2.8477zm-5.293-6.7109c-0.054687-0.058594 0.046875-0.36328 0.15234-0.42578 0.10938-0.066407 0.33594-0.023438 0.47266 0.046875 0.42969 0.21875 0.51562 0.60547 0.44922 1.0586-0.10156 0.67969-0.51562 1.1602-1.1523 1.8906-0.37109-0.0625 0.007812-0.85547 0.10547-1.0938 0.19922-0.50781 0.42578-0.97656-0.027344-1.4766zm-16.402-5.9414c0.69531-0.03125 1.3555 0.078125 1.7773 0.35938 0.3125 0.31641 0.62891 0.64062 0.94531 0.96484l1.6328 1.8359c0.21484 0.30078 1.6094 2.7852 1.1914 3.418-0.80859 0.75781-1.0742-2.3594-1.4883-2.6328-0.21094-0.23438-0.47656 0.59766-0.88672 0.49609 0.26562-0.66016 0.57031-1.2734 0.058594-1.2695-0.25781 0.10547-0.54297 0.60156-0.82422 0.91406-0.35156 0.20312-0.035156-0.71875-0.39062-0.80078-0.35156-0.082031-0.64453 0.30859-0.72266 0.31641-1.1445 0.097656-3.8555-2.4492-4.0273-3.0352-0.03125-0.44922 2.0234-0.53125 2.7344-0.56641zm-18.02 2.1562c0.29297-0.027344 3.0508 0.67578 3.9648 1.5625 0.51562 0.50391 1.0859 0.94531 1.6328 1.4141 0.38281 0.36328 0.66797 0.83594 0.27344 1.0117-0.53906-0.36719-0.89453-0.78906-1.2227-0.66406-0.058594 0.019532-1.9258 0.24219-2.3828 0.46875-0.29688 0.14453-0.86719-0.19922-1.2852-0.38281-1.2695-0.55078-2.5273-1.1289-3.7852-1.707-0.085937-0.039063-0.13281-0.16406-0.24219-0.3125 0.87891-0.62891 2.0391-1.2891 3.0469-1.3906zm6.4375 4.7578c0.41016 0.28516-0.44531 1.2344-0.81641 1.0586-0.96875-0.73828 0.074218-1.5938 0.81641-1.0586zm-24.547-0.86328c0.38281 0.019531 0.78125 0.26562 1.125 0.47656 1.0898 0.67578 1.8789 1.6367 2.4727 2.7617 0.75781 0.35156 1.0547 1.0273 1.375 1.9219 0.011719 0.30469-1.1953 0.14062-1.2422-0.17188-0.12891-1.375-1.8633-1.7305-3.0898-1.6836-0.28906-0.027343-0.625 0.015626-0.86328-0.11328-1.5742-0.88281-3.2656-1.4844-4.9688-2.0547-0.089844-0.03125-0.14453-0.16406-0.23828-0.27734 1.7109-0.9375 3.5703-0.95703 5.4297-0.85938zm-15.227 7.7148c0.25391-1.0195 0.77734-1.9062 1.418-2.6992 0.82812-1.0234 1.7422-1.9883 2.6836-2.9102 0.73047-0.71875 1.6523-0.94531 2.6719-0.71875 0.23438 0.054687 0.47656 0.09375 0.71875 0.097656 3.4492 0.046875 6.3633 1.5742 9.2422 3.2539 1.332 0.77734 3.9141 2.0977 4.3047 1.7031 0.41797-0.65234 0.24219-1.1992-0.12891-1.7109-1.418-1.9375-2.7227-3.9805-4.8281-5.293-0.24609-0.15234-0.44531-0.37891-0.62891-0.53516 0.042968-0.57422 0.44141-0.60547 0.76953-0.69531 2.2695-0.62109 4.582-1.0039 6.9102-1.332 0.47656-0.066406 0.94922-0.1875 1.4258-0.23438 0.96484-0.09375 1.8789-0.027344 2.7969 0.44531 1.7617 0.90625 3.5742 1.7148 5.4062 2.4883 2.0977 0.89062 4.0586 2.0977 6.0703 3.1836 0.84375 0.45312 1.6641 0.95703 2.5078 1.4141 0.35156 0.1875 0.92188 0.75 1.2266 0.50781-2.8594-6.3945-3.5078-6.2305-7.9258-9.6602-0.050782-0.37109 0.21094-0.52734 0.48828-0.64844 0.10156-0.042969 0.23828-0.007813 0.35938-0.015625 2.1523-0.15625 4.3086-0.3125 6.4375-0.46875 0.35547 0.78125 0.046875 1.3633 1.2656 1.2188 0.46094-0.050782 0.33984-0.58984 0.50781-0.88281 0.95703 0.29297 1.1367-0.42578 2.4531-0.30078 0.40234 0.25 0.85547 0.54688 1.3242 0.82812h-0.019531l4.1562 3.1914c1.6211 1.3906 4.8086 3.5547 5.5586 4.1133 0.078124 0.058594 0.21094 0.039063 0.34375 0.058594 0.39062 0.023438 0.73437-0.085937 0.66406-0.51953-0.30469-1.4141-1.1289-3.3672-1.8984-4.4766-0.44531-0.95703-1.8516-2.1797-1.8516-2.1797-0.45312-0.51172-0.9375-1.0117-1.2852-1.707 0.054687-0.31641 0.44922-0.35156 0.64844-0.37109 1.8633-0.19531 3.7305-0.26172 5.5664 0.22656 0.28906 0.078126 0.59375 0.13672 0.89062 0.15625 2.1211 0.15234 3.5352 1.3984 4.7227 3.0117 0.35547 0.48047 0.73438 0.94531 1.0703 1.4375 0.23438 0.34375 0.46094 0.71094 0.61719 1.0938 0.50391 1.2227 0.32422 2.5 0.10156 3.7227-0.16797 0.91406-1.9961 2.1445-2.1719 2.1758-0.28125 0.050781-2.3086 0.96484-3.1211 1.2031-3.4141 1.0039-6.8633 1.8477-10.363 2.5078-2.2422 0.42188-4.4453 1.0742-6.6875 1.4883-3.4258 0.63672-6.8164 1.4805-10.309 1.7227-0.71484 0.050781-1.4297 0.21875-2.1328 0.38672-1.8125 0.42969-3.6758 0.55078-5.4688 1.1133-1.1953 0.375-2.4844 0.47266-3.7344 0.64453-2.2695 0.31641-4.5469 0.57812-6.8164 0.89453-1.9727 0.27344-3.9375 0.60938-5.9062 0.88281-1.4688 0.20312-2.8789-0.078125-4.2539-0.61328-0.89063-0.34766-2.8711-1.1289-2.9805-1.1758-1.6914-0.76953-1.7305-0.83984-2.543-2.5-0.55859-1.1523-0.57422-2.3125-0.27344-3.5234zm62.445 0.046875c-0.23047 0.70703-0.58594 2.4688-0.98047 2.625-0.26562 0.078125-2.1055-1.0039-3.0195-1.4805-0.23828-0.45703 0.50391-0.53516 1.5195-0.60547 0.38672-0.027344 0.41406-0.78125 1.0273-0.33984 0.27734 0.19922 0.44531-0.42578 0.55859-0.74609 0.12109-0.35156 0.14844-0.95703 0.61719-0.90625 0.40625 0.52344 0.41406 1.0312 0.27734 1.4531zm-7.7266 1.9805c-2.1172 1.7148-4.4766 2.1992-7.0859 1.3945-0.30078-0.09375-0.57812-0.26953-0.53125-0.61719 0.027344-0.20703 0.21484-0.39453 0.33984-0.60547 0.41406-0.10547 0.42969 0.63281 0.73438 0.625 0.37109-0.13281 0.52734-1.0938 0.85547-1.0703 0.21875 0.20703 0.41406 0.39062 0.60938 0.57422 0.37891 0.1875 0.67969-0.92188 1.0977-0.070313 0.32812 0.32422 1.3359 0.18359 1.6953-0.21875 0.1875-0.26172 0.58594-1.2383 0.89844-1.2383 0.39062-0.078125 0.074218 0.91406 0.46875 0.92969 0.32031-0.36719 0.625-0.71094 0.92188-1.0469 0.30469-0.30859 0.28516 0.14453 0.30469 0.21875 0.10547 0.42188 0.078125 0.8125-0.30859 1.125zm-11.41 3.6211c-0.40625 0.79297-0.82031 1.582-1.2305 2.3672-2.0273-0.035156-3.3633-1.5-5.1406-2.3711 0.15234-0.53906 0.023438-1.4258 0.54688-1.5781 0.26953-0.023437 0.023437 1.0195 0.35156 1.2188 0.36719 0.003906 0.63281-1.4336 0.99219-1.5273 0.36328-0.015625 0.10937 0.86328 0.35156 0.86719 0.49609-0.22656 0.49609-0.22656 0.80469-0.83984 0.26953-0.070313 0.046874 0.74219 0.37891 0.73047 0.45312-0.11719 0.82031-0.46094 1.332-0.47656 0.15234-0.003906 0.13281-0.52734 0.47266-0.54297 0.22656-0.035156 0.22656 0.26172 0.34766 0.40234 0.61719-0.070312 0.49609-1.2109 1.3633-0.89844 0.36719 0.98047-0.13672 1.8086-0.57031 2.6484zm-15.047 0.82422c0.050781 0.12891 0.21094 0.24219 0.35156 0.29297 0.070312 0.027344 0.23047-0.070313 0.28516-0.15234 0.0625-0.09375 0.027344-0.24219 0.074219-0.34766 0.09375-0.20703 0.12891-0.63672 0.38672-0.6875 0.30859-0.078125 0.28906 0.48438 0.40625 0.67969 0.48828 0.058594 0.41016-0.51172 0.89062-0.74219 0.38281 0.10156 0.79688 0.74609 1.4766 0.42969 0.16406-0.25391 0.20703-0.83203 0.60156-0.92188 0.35547-0.10938 0.38281 0.27344 0.57031 0.41016 0.48047 0.13672 0.48047-0.86328 0.95703-0.48437 0.55859 0.44141 0.47656-0.40234 0.85547-0.28906 0.36328 0.054687 1.043 0.62109 0.65234 1.1289-1.5273 1.8555-4.4375 2.9102-6.6562 2.4023-0.72266-0.16406-1.3398-0.53516-1.8398-1.2656-0.24219-0.47656 0.20703-1.1953 0.56641-1.1406 0.60938 0.066406 0.33203 0.45312 0.42188 0.6875zm-12.289 3.4961c-0.93359 0.64453-1.9414 0.89453-3.0625 0.75-0.98438-0.125-1.8516-0.44531-2.5625-1.3867-0.30859-0.34766 0.54688-0.32031 0.80469-0.37109 0.62109-0.12109 1.2539-0.1875 1.9102-0.28125 0.015626 0.30469-0.050781 0.62891 0.066407 0.85547 0.12109 0.23047 0.40234 0.4375 0.66016 0.51562 0.3125 0.097656 0.53125-0.11328 0.67969-0.43359 0.27734-0.60547 0.3125-1.8594 0.90234-1.7773 0.082032 0.039063 0.16797 0.078126 0.25 0.12109-0.039062 0.16016-0.13281 0.32812-0.10547 0.47656 0.023437 0.14453 0.15234 0.29688 0.27344 0.39453 0.042969 0.035156 0.24609-0.03125 0.29688-0.10547 0.22266-0.32422 0.41406-0.67188 0.64844-1.0664 0.80859 0 0.03125 1.7617-0.76172 2.3086zm-0.11328 1.3633c-0.26172 0.11719-0.55859 0.14844-1.1602 0.29297-0.46094-0.40234 1.0352-0.85547 1.6133-0.87109 0.10547 0.39062-0.23047 0.47656-0.45312 0.57812zm-11.105 4.7461c-0.078125 0.03125-0.26953-0.019532-0.28906-0.074219-0.082031-0.22656-0.11719-0.47266-0.17188-0.71094-0.070312-0.25391 0.11719-0.26563 0.1875-0.058594 0.12891 0.1875 0.27344 0.36719 0.37109 0.57031 0.035156 0.066406-0.035156 0.24609-0.097656 0.27344zm1.7969-0.69922c-0.4375-0.11328-0.26172-1.0547 0.035156-1.2148 0.042969-0.023437 0.13281-0.023437 0.15625 0.003907 0.46484 0.48047 0.082031 1.2695-0.19141 1.2109zm6.8555 2.1211c-0.039062 0.18359-0.26562 0.36328-0.45312 0.46094-0.13672 0.066406-0.37109 0.046875-0.51172-0.03125-0.57422-0.3125-1.1875-0.26953-1.7617-0.14062-1.2695 0.27734-2.2383-0.17578-3.0625-1.0859-0.16016-0.17578-0.31641-0.35547-0.48828-0.54688-0.011719-0.71484 0.30078-1.2422 0.84375-1.8047 0.44141 0.019531 0.31641 2.4258 0.70312 2.4648 0.40234-0.035156 0.32422-1.4219 0.70312-1.2773 0.21875 0.44531 0.28125 1.1289 0.56641 1.1641 0.53516 0.027344 0.15625-0.94922 0.47656-0.87891 0.84766 0.65234 1.6875 0.95312 2.6172 1.0234 0.41016 0.03125 0.42578 0.39062 0.36719 0.65234zm6.3359-0.32031c-0.53906 0.28906-2.3398 0.62109-1.9648 0 0.78125-0.24609 1.1562-0.36328 1.5469-0.48438 0.50391-0.17188 0.89844 0.20703 0.41797 0.48438zm-0.8125-1.6172c-1.3281 0.77734-2.6836 0.98047-4.1016 0.22266-0.42188-0.22656-0.90625-0.33594-1.3359-0.55078-0.71484-0.35156-1.4883-0.48438-2.2148-0.29297-1.0352 0.27344-1.75-0.050781-2.3828-0.81641-0.19141-0.23047-0.43359-0.41406-0.71484-0.67578-0.83984-0.10938-1.8086-0.066407-2.5625-0.79688-0.71875-0.69531-1.4023-0.51562-2.0898 0.082032-0.26953 0.23438-0.5 0.52344-0.77344 0.81641-0.83203 0.17969-1.6445 0.1875-2.4414-0.51953-0.55859-0.74219 0.30859-2.1445 0-2.6445-0.82031-0.16797-1.5586-0.37891-2.3047-0.45313-0.59375-0.0625-1.0039-0.32422-1.3945-0.73047-0.60547-0.63672-2.1797-1.1445-1.7969-1.9844 0.53516-0.68359 1.1875-1.2344 1.9805-1.5234 0.94531-0.34375 1.3281-0.96094 1.2852-1.9258-0.003906-0.10547 0.078125-0.21875 0.12109-0.32812 1.3477-0.21484 1.3477-0.21484 1.8789 0.96484-0.19141 0.57031-0.59375 1.1523-0.46094 1.5508 0.14453 0.44141 0.76953 0.73828 1.2148 1.0586 0.45703 0.32812 0.8125 0.64844 0.75781 1.3008-0.011718 0.16797 0.40234 0.37109 0.62109 0.55859 0.007813-0.097657-0.48828 1.0195-0.03125 0.77344 0.38281-0.60156 0.74219-1.1719 1.2773-2.0195 0.47656-0.12109-0.11328 1.6875-0.4375 2.2969 0 0 0.18359 0.25 0.46484 0.070312 0.21484-0.070312 0.37109-0.31641 0.58594-0.375 0.21094-0.058593 0.47656-0.019531 0.69141 0.054688 0.19141 0.0625 0.14062 0.46094 0.48047 0.32031 0.57031-0.37891-0.039062-1.4375 1.082-1.3281 0.30078 0.003906-0.39453 0.98437-0.097657 1.0938 0.39844 0.28125 1.0938 0.30469 1.5312 0 0.30859-0.13281 0.10547-0.72266 0.40234-0.71484 0.12891 0.050781 0.26953 0.0625 0.33203 0.13672 0.76953 0.94922 1.7031 1.6836 2.7734 2.2812 1.2188 0.68359 2.5039 0.82422 3.8477 0.6875 0.8125-0.085937 1.4922-0.44922 1.9688-1.2031 1.168 0.47656 2.2422 0.99609 3.2461 1.6445 0.49609 0.32031 1.0078 0.44922 1.5273 0.22656 0.19531-0.085937 0.51562-0.26562 0.39844-0.62891-0.50391-0.6875-1.1992 0.023437-1.7305-0.48438-0.40234-0.38672-1.1133-0.42969-1.6289-0.73047-0.51172-0.30078-0.94922-0.73047-1.4453-1.1211 0.21875-1.2266 0.96875-1.6016 2.0469-1.3516 0.36328-0.046875 0.17578-0.85938 0.48828-0.93359 0.22266 0.15234 0.4375 0.30859 0.65625 0.46094 0.48047-0.27734 0.14844-1.1641 1.0156-1.1836 0.066406 0.30469-0.14453 0.97656 0.21875 1.0195 0.25-0.17188 0.39453-0.63281 0.66016-0.46094 0.125 0.17578 0.125 0.69922 0.48047 0.68359 0.30469-0.050781 0.51953-1.0938 0.75781-1.5938 0.43359 0.21484 0.13281 0.4375 0.13281 0.63672 0 0.17188-0.26953 0.58594 0.046875 0.6875 0.25 0.03125 0.43359-0.34375 0.57422-0.49219 0.11719-0.12109 0.19922-0.27344 0.30078-0.42188 0.16797-0.28125 0.25391 0.18359 0.24609 0.24219-0.27734 1.7461-0.97266 3.3398-1.8672 4.8516-0.17969 0.30078-0.32812 0.61719-0.51172 0.96094-0.30859 0.38281 0.55469 0.074219 0.6875 0.40625 0.070313 0.42969-0.28125 0.58984-0.54688 0.77734-0.23047 0.16406-0.56641 0.21094-0.74609 0.40625-0.27344 0.29297-0.56641 0.46875-0.94531 0.41406-0.83203-0.11719-1.5312 0.19922-2.2188 0.59766zm24.043-1.9062c-2.0039 0.37109-4.0156 0.69141-6.0234 1.0234-2.7812 0.46094-5.5664 0.92188-8.3516 1.3633-2.0703 0.33203-4.1445 0.64453-6.2188 0.94141-0.32812 0.046875-1.0273 0.16406-1.2383-0.097656-0.51172-0.60156 1.6875-1.3594 2.6602-1.5625 0.65625-0.14063 1.207-0.26172 1.4023-1.0938 0.125-0.52344 0.85937-0.45313 1.3086-0.66797 0.015625-0.046875 0.003907 0.55859 0.34375 0.59766 0.76562 0.0625 1.0195-1.0391 1.5-0.89453 0.13281 0.11328 0.097657 0.34766 0.40234 0.34375 0.65234-0.37891 0.65234 0.066406 1.0117 0.10547 0.31641-0.15234 0.47266-0.92969 1.0352-0.20703 0.13281 0.17188 0.61719-0.20703 1.0625-0.058593 0.32031 0.10937 0.85156-0.26172 1.2266-0.50781 0.22266-0.14844 0.32813-0.47656 0.47266-0.73047 0.17188-0.30469 0.37891-1.0977 0.61719-0.87891-0.089844 0.48828-0.17969 0.98047-0.26562 1.4258 0.42578 0.25391 0.51562-0.015625 0.61719-0.20703 0.16406-0.30469 0.35156-1.1328 0.59375-0.88281-0.050781 0.38672-0.10547 0.77734-0.16406 1.2461 0.007813 0.38672 0.98828-0.13672 1.4609-0.17188 0.51953-0.10547 1.0664-0.10938 1.3359-0.69531 0.019531-0.046875 0.24219-0.0625 0.30859-0.011719 0.46484 0.35547 0.73438 0.0625 1.0664-0.23438 0.12109-0.10938 0.43359-0.31641 0.34766-0.46484-0.023438-0.039062 0.1875-0.10938 0.19922-0.066406 0.26953 0.070312 0.35547 0.41016 0.0625 0.48438-0.27734 0.066406-0.35156 0.28516-0.27734 0.51953 0.10938 0.34766 0.33984 0.11328 0.53125 0.078125 0.10156-0.019531 0.34375 0.5 0.65625 0.46875 0.26953 0.019531 0.28125-0.51562 0.42188-0.76953 0.28125-0.074219 0.41016 0.51953 0.64062 0.73828 0.125 0.11719 0.32031 0.23828 0.47656 0.23438 0.26172-0.015625 0.52734-0.21484 0.76953-0.17969 0.22656 0.03125 0.82812 0.12109 0.92188 0.066406 0.074219-0.046875 0.20703-0.085937 0.27344-0.050781 0.070312 0.039062 0.14844 0.17578 0.13281 0.25-0.027343 0.082031-1.0781 0.50391-1.3203 0.54688zm2.6875-0.38281c-0.39062 0.085938-0.48828-0.41797-0.56641-0.59766-0.11328-0.26172 0.20703-0.69922 0.4375-0.61719 0.17188 0.0625 0.35156 0.30078 0.39063 0.48828 0.03125 0.16797 0.28906 0.60938-0.26172 0.72656zm1.1445-0.33984c-0.23828-0.33594-0.16016-0.49219 0.089844-0.63672 0.69922-0.39453 1.3281-0.90625 2.2539-0.625 0.42578 0.12891 1.2695-0.57422 1.4062-0.054688 0.29297 0.96484-3.6172 1.625-3.75 1.3164zm16.508-4.3633c-2.9648 1.2031-6.0742 1.8867-9.1719 2.6289-0.058594-0.10938-0.11328-0.21484-0.17188-0.32422-0.074218-0.39453 0.32813-0.54297 0.5625-0.63281 0.97656-0.36719 1.9492-0.74609 2.8555-1.2695 0.69922 0.17969 0.72656-0.46875 1.0508-0.88672 0.27344 0.16406 0.29688 0.66797 0.87891 0.51953 0.17578-0.14063 0.35547-0.28906 0.57812-0.46875 1.1016 0.33984 2.2031 0.32422 3.2539-0.33984 0.12109-0.078125 0.70703-0.23047 0.78516 0.21875-0.003906 0.48047-0.42969 0.47656-0.62109 0.55469zm7.7969-8.6172c-0.68359 0.39453-1.3828 0.66797-2.2031 0.41406-0.57812-0.17969-1.1484-0.046875-1.4648 0.4375-0.46094 0.70312-1.2031 0.96875-1.8242 1.3672-0.1875 0.68359-0.39453 1.3086-0.53125 1.9453-0.14062 0.66406-0.52344 1.0781-1.1484 1.2695-0.6875 0.21094-1.3789 0.4375-2.0859 0.55469-0.84375 0.13672-1.5977 0.3125-2.2695 0.95312-0.71094 0.67969-1.1836 0.59766-2.1055 0.003906-0.25-0.16016-0.46484-0.375-0.71094-0.54297-0.92188-0.62891-1.8633-0.26563-2.0312 0.80469-0.074219 0.47266-0.070313 0.96094-0.10156 1.4453-0.71484 0.97656-1.7422 1.2305-2.9102 1.3555-0.60938-0.60938-0.76562-1.6484-1.7773-2.0234-1.0469 0.085937-1.793 0.73438-2.3633 1.6406-0.22656 0.35547-0.39453 0.74609-0.62109 1.1055-0.23828 0.38281-0.61328 0.57422-1.0664 0.57031-0.23828-0.003906-0.48438-0.10938-0.71484-0.082031-1.7344 0.19922-3.3164-0.21484-4.8945-0.94141-1.0195-0.46875-2.1289-0.29297-3.0938 0.38281-0.19141 0.13672-0.36719 0.29688-0.60547 0.49219-0.29688 0.11328-0.57422-0.22266-0.78906-0.41016-0.91797-0.79688-1.9141-0.59375-2.6094 0.10938-0.70312 0.71094-1.5781 0.77344-2.4023 1.2305-0.75391 0.007813-1.3164-0.86719-1.9688-1.2969-0.68359-0.44922-1.0195-0.46484-1.6406-0.019531-0.33203 0.23438-0.62891 0.52734-1.0508 0.88672-0.33203 0.0625-0.33594-0.47266-0.33984-0.66406-0.011719-0.64453-0.53906-0.62109-0.50781-0.14453 0.078125 1.1875 0.0625 1.1914-1.3594 1.8359-0.27344-0.14062-0.066406-0.49609 0.011719-0.66406 0.3125-0.64453 0.6875-1.2617 1-1.9023 0.097656-0.19922 0.75-3.1367 1.2539-2.7695 0.24609 0.20312 0.53125 0.40234 0.77344 0.64453 0.62891 0.625 1.418 0.91797 2.2578 1.0234 2.2109 0.27344 4.3242-0.039062 6.2227-1.2656 0.53906-0.34766 0.96875-0.86719 1.5391-1.3906 0.85156 0.5 1.6836 1.0586 2.5781 1.4922 0.85156 0.41016 1.7695 0.69141 2.7188 1.0547 1.1875-1.5781 1.5312-3.5352 2.6016-5.1367 0.47656 0.035156 1.0195-0.089844 1.4375 0.007812 0.44531 0.10547 0.80859 1.1406 1.168 1.0234l-0.003906-0.003907c0.23047-0.17578 0.44141-0.46484 0.6875-0.49609 0.53125-0.070313 1.082-0.007813 1.6211 0.007812 2.1562 0.054688 4.0273-0.6875 5.6211-2.1055 0.50391-0.44531 1.0586-0.71875 1.6953-0.90625 1.5977 0.46875 3.6602 2.2344 4.7227 1.8867 0.37109-0.17188 0.66406-1.668 1.0391-2.4766 0.34375-0.73828 0.52734-1.5703 1.4648-1.9375 0.35937-0.14062 0.33984-0.87891 0.875-1.2227 0.21094 0.12109 0.39844 0.23047 0.59375 0.33984 0.35156 0.1875 0.58203-0.015625 0.75391-0.26953 0.097656-0.14453 0.14453-0.33984 0.15234-0.51562 0.039062-1.0195 0.5625-1.5312 1.625-1.5352 0.1875-0.43359 0.37891-0.86719 0.5625-1.2852 0.55469-0.80859 2.043 0.89062 2.125 1.4648 0.039062 1.5508 0.039062 1.5508-0.67188 1.9258-0.51172 0.32031 1.4258 1.8789 0.76563 2.332z" fill-rule="evenodd"/>
</svg>
