<?xml version="1.0" encoding="UTF-8"?>
<svg width="100pt" height="100pt" version="1.1" viewBox="0 0 100 100" xmlns="http://www.w3.org/2000/svg">
 <g>
  <path d="m34.301 34.5c0.19922 0.19922 0.5 0.30078 0.80078 0.30078 0.19922 0 0.5-0.10156 0.69922-0.19922 0.39844-0.39844 0.5-1 0.10156-1.3984l-0.89844-1c-0.39844-0.39844-1-0.5-1.3984-0.10156-0.39844 0.39844-0.5 1-0.10156 1.3984z"/>
  <path d="m51.301 33.898c0.19922 0.19922 0.5 0.30078 0.80078 0.30078 0.19922 0 0.5-0.10156 0.69922-0.19922 0.39844-0.39844 0.5-1 0.10156-1.3984l-0.89844-1c-0.39844-0.39844-1-0.5-1.3984-0.10156-0.39844 0.39844-0.5 1-0.10156 1.3984z"/>
  <path d="m38.199 40.301c0.10156 0 0.19922 0 0.39844-0.10156l1.3008-0.5c0.5-0.19922 0.80078-0.80078 0.60156-1.3008s-0.80078-0.80078-1.3008-0.60156l-1.3008 0.5c-0.5 0.19922-0.80078 0.80078-0.60156 1.3008 0.10156 0.50391 0.50391 0.70312 0.90234 0.70312z"/>
  <path d="m22.398 35.301c0.10156 0 0.19922 0 0.39844-0.10156l1.3008-0.5c0.5-0.19922 0.80078-0.80078 0.60156-1.3008s-0.80078-0.80078-1.3008-0.60156l-1.3984 0.60156c-0.5 0.19922-0.80078 0.80078-0.60156 1.3008 0.20312 0.30078 0.60156 0.60156 1 0.60156z"/>
  <path d="m42.898 35c0.10156 0 0.19922 0 0.39844-0.10156l1.3008-0.5c0.5-0.19922 0.80078-0.80078 0.60156-1.3008s-0.80078-0.80078-1.3008-0.60156l-1.3008 0.5c-0.5 0.19922-0.80078 0.80078-0.60156 1.3008 0.10547 0.50391 0.50391 0.70312 0.90234 0.70312z"/>
  <path d="m58.102 40.102c0.10156 0 0.19922 0 0.39844-0.10156l1.3008-0.5c0.5-0.19922 0.80078-0.80078 0.60156-1.3008-0.19922-0.5-0.80078-0.80078-1.3008-0.60156l-1.3008 0.5c-0.5 0.19922-0.80078 0.80078-0.60156 1.3008 0.19922 0.40234 0.5 0.70312 0.90234 0.70312z"/>
  <path d="m27.5 38.699l1.3984 0.19922h0.10156c0.5 0 0.89844-0.39844 1-0.89844s-0.30078-1.1016-0.80078-1.1016l-1.3984-0.19922c-0.5-0.10156-1.1016 0.30078-1.1016 0.80078-0.097657 0.60156 0.30078 1.1016 0.80078 1.1992z"/>
  <path d="m78.602 38.699l1.3984 0.19922h0.10156c0.5 0 0.89844-0.39844 1-0.89844 0.10156-0.5-0.30078-1.1016-0.80078-1.1016l-1.3984-0.19922c-0.5-0.10156-1.1016 0.30078-1.1016 0.80078-0.10156 0.60156 0.30078 1.1016 0.80078 1.1992z"/>
  <path d="m48.398 38.602l1.3984 0.19922h0.10156c0.5 0 0.89844-0.39844 1-0.89844 0.10156-0.5-0.30078-1.1016-0.80078-1.1016l-1.3984-0.19922c-0.5-0.10156-1.1016 0.30078-1.1016 0.80078-0.097656 0.59766 0.30078 1.0977 0.80078 1.1992z"/>
  <path d="m66.699 33.898c0.19922 0.19922 0.5 0.30078 0.80078 0.30078 0.19922 0 0.5-0.10156 0.69922-0.19922 0.39844-0.39844 0.5-1 0.10156-1.3984l-0.89844-1c-0.39844-0.39844-1-0.5-1.3984-0.10156-0.39844 0.39844-0.5 1-0.10156 1.3984z"/>
  <path d="m58.301 35c0.10156 0 0.19922 0 0.39844-0.10156l1.3008-0.5c0.5-0.19922 0.80078-0.80078 0.60156-1.3008-0.19922-0.5-0.80078-0.80078-1.3008-0.60156l-1.3008 0.60547c-0.5 0.19922-0.80078 0.80078-0.60156 1.3008 0.20312 0.39844 0.5 0.59766 0.90234 0.59766z"/>
  <path d="m73.801 35.5c0.10156 0 0.19922 0 0.39844-0.10156l1.3008-0.5c0.5-0.19922 0.80078-0.80078 0.60156-1.3008-0.19922-0.5-0.80078-0.80078-1.3008-0.60156l-1.3008 0.5c-0.5 0.19922-0.80078 0.80078-0.60156 1.3008 0.10156 0.50391 0.5 0.70312 0.90234 0.70312z"/>
  <path d="m63.898 38.602l1.3984 0.19922h0.10156c0.5 0 0.89844-0.39844 1-0.89844 0.10156-0.5-0.30078-1.1016-0.80078-1.1016l-1.3984-0.19922c-0.5-0.10156-1.1016 0.30078-1.1016 0.80078-0.19922 0.59766 0.20312 1.0977 0.80078 1.1992z"/>
  <path d="m88.898 45.5c0.60156-0.30078 1.1016-0.69922 1.3984-1.1992 0.69922-0.89844 0.89844-2 0.5-3l-0.19922-0.60156c-2.3984-7.8008-11.301-13.199-21.602-13.199h-37.297c-10.699 0-19.801 5.8984-21.898 14-0.30078 1 0 2.1016 0.69922 2.8984 0.30078 0.39844 0.80078 0.80078 1.3008 1.1016-3.3984 2.5-2.8984 5.8008-2.8008 5.8984 0.10156 0.5 0.5 0.80078 1 0.80078 1.6992 0 2.6992 0.19922 3.6016 0.5v6.1016c-0.60156 0.30078-1.1992 0.69922-1.6992 1.1992-0.89844 1-1.3008 2.3984-1 3.6992l0.5 3c0.60156 3.5 3.6016 6.1016 7.1992 6.1016h64.398c3.6016 0 6.6016-2.6016 7.1992-6.1016l0.5-3c0.19922-1.3008-0.19922-2.6992-1-3.6992-0.60156-0.69922-1.3008-1.1016-2.1992-1.3984v-6c0.89844-0.30078 1.8984-0.5 3.3984-0.5 0.5 0 1-0.39844 1-1 0 0 0-3-3-5.6016zm-77.098-3.6016c1.8008-7.1992 10.199-12.5 19.898-12.5h37.398c9.5 0 17.602 4.8984 19.699 11.801l0.19922 0.60156c0.10156 0.39844 0.10156 0.80078-0.19922 1.1992-0.5 0.69922-1.5 1.1016-2.6016 1.1016h-71.594c-1.1016 0-2-0.39844-2.5-1.1016-0.20312-0.19922-0.5-0.60156-0.30078-1.1016zm76.398 19.402c0.5 0.60156 0.69922 1.3984 0.60156 2.1016l-0.5 3c-0.39844 2.6016-2.6016 4.3984-5.1992 4.3984h-64.602c-2.6016 0-4.8008-1.8984-5.1992-4.3984l-0.5-3c-0.10156-0.80078 0.10156-1.5 0.60156-2.1016 0.5-0.60156 1.1992-0.89844 2-0.89844h43.301l7.1992 6.3008c0.19922 0.19922 0.39844 0.19922 0.69922 0.19922 0.30078 0 0.5-0.10156 0.69922-0.19922l7.1992-6.3008h11.699c0.69922-0.003906 1.5 0.39844 2 0.89844zm-72.699-2.9023v-4.8984c1.1016 0.39844 2.3984 0.69922 4.5 0.69922 2.6992 0 4.1016-0.60156 5.3984-1.1016 1.1992-0.5 2.3984-1 4.6992-1 2.3008 0 3.5 0.5 4.6992 1 1.3008 0.5 2.6992 1.1016 5.3984 1.1016 2.6992 0 4.1016-0.60156 5.3984-1.1016 1.1992-0.5 2.3984-1 4.6992-1s3.5 0.5 4.6992 1c1.3008 0.5 2.6992 1.1016 5.3984 1.1016s4.1016-0.60156 5.3984-1.1016c1.1992-0.5 2.3984-1 4.6992-1s3.5 0.5 4.6992 1c1.3008 0.5 2.6992 1.1016 5.3984 1.1016 2.3008 0 3.6016-0.39844 4.6992-0.80078v5h-11.184c-0.19922 0-0.5 0.10156-0.69922 0.19922l-6.8008 5.8984-6.8008-5.8984c-0.19922-0.19922-0.39844-0.19922-0.69922-0.19922zm70-7.0977c-1.1992 0.5-2.3984 1-4.6992 1s-3.5-0.5-4.6992-1c-1.3008-0.5-2.6992-1.1016-5.3984-1.1016s-4.1016 0.60156-5.3984 1.1016c-1.1992 0.5-2.3984 1-4.6992 1s-3.5-0.5-4.6992-1c-1.3008-0.5-2.6992-1.1016-5.3984-1.1016-2.6992 0-4.1016 0.60156-5.3984 1.1016-1.1992 0.5-2.3984 1-4.6992 1-2.3008 0-3.5-0.5-4.6992-1-1.3008-0.5-2.6992-1.1016-5.3984-1.1016s-4.1016 0.60156-5.3984 1.1016c-1.1992 0.5-2.3984 1-4.6992 1-2.3008 0-3.5-0.5-4.6992-1s-2.3984-1-4.3984-1.1016c0.10156-1 0.80078-2.8008 3.6016-4.1016h0.10156 71.602 0.30078c2.1992 1.3984 3 3.1016 3.1992 4.1016-2.1211 0.19922-3.3203 0.60156-4.4219 1.1016z"/>
 </g>
</svg>
