<?xml version="1.0" encoding="UTF-8"?>
<svg width="100pt" height="100pt" version="1.1" viewBox="0 0 100 100" xmlns="http://www.w3.org/2000/svg">
 <g>
  <path d="m53.125 40.625h1.5625c1.7266 0 3.125-1.3984 3.125-3.125v-6.25h-3.125v4.6875h-1.5625z"/>
  <path d="m43.52 18.758c-4.2227 0.125-7.582 3.582-7.582 7.8047v7.8125h3.125v-7.8125c0-2.5898 2.0977-4.6875 4.6875-4.6875s4.6875 2.0977 4.6875 4.6875v17.188h-42.188v3.125h3.125l2.3867 28.645c0.26953 3.2383 2.9805 5.7305 6.2305 5.7305h64.016c3.25 0 5.9609-2.4922 6.2305-5.7305l2.3867-28.645h3.125v-3.125h-42.188v-17.188c0-2.1133-0.85547-4.1328-2.3711-5.6055-1.5156-1.4688-3.5625-2.2617-5.6719-2.1992zm-31.008 28.117h74.977l-2.3633 28.387c-0.13672 1.6211-1.4922 2.8672-3.1172 2.8633h-30.445v-25h-3.125v25h-30.445c-1.625 0.003906-2.9805-1.2422-3.1172-2.8633z"/>
 </g>
</svg>
