<?xml version="1.0" encoding="UTF-8"?>
<svg width="100pt" height="100pt" version="1.1" viewBox="0 0 100 100" xmlns="http://www.w3.org/2000/svg">
 <g>
  <path d="m53.125 35.938v4.6875h1.5625c1.7266 0 3.125-1.3984 3.125-3.125v-6.25h-3.125v4.6875z"/>
  <path d="m88.238 75.52 2.3867-28.645h3.125v-3.125h-42.188v-17.188c-0.003906-4.3125-3.5-7.8086-7.8125-7.8086s-7.8086 3.4961-7.8125 7.8086v7.8125h3.125v-7.8125c0-2.5898 2.0977-4.6875 4.6875-4.6875s4.6875 2.0977 4.6875 4.6875v17.188h-42.188v3.125h3.125l2.3867 28.645c0.26953 3.2383 2.9766 5.7305 6.2305 5.7305h24.195c1.6562 0 3.2461-0.66016 4.418-1.832s1.832-2.7617 1.832-4.418v-21.875h3.125v21.875c0 1.6562 0.66016 3.2461 1.832 4.418s2.7617 1.832 4.418 1.832h24.195c3.2539 0 5.9609-2.4922 6.2305-5.7305z"/>
 </g>
</svg>
