<?xml version="1.0" encoding="UTF-8"?>
<svg width="100pt" height="100pt" version="1.1" viewBox="0 0 100 100" xmlns="http://www.w3.org/2000/svg">
 <g>
  <path d="m41.582 42.945c-2.2031 0.039063-4.3906 1.0625-5.9961 2.8008l-18.809 20.359c-3.2031 3.4648-3.4336 8.4688-0.53125 11.391l6.3789 6.4141-0.003906 0.003906c1.3516 1.3359 3.1875 2.0742 5.0898 2.0469 2.1562 0 4.4219-0.87109 6.2539-2.582l20.242-18.918c1.7266-1.6172 2.7422-3.8086 2.7812-6.0195v-0.003906c0.0625-1.7734-0.60547-3.4961-1.8438-4.7695l-8.8125-8.8672c-1.2617-1.2461-2.9805-1.918-4.75-1.8555zm-9.2188 38.723c-2.5195 2.3555-6.0664 2.6172-8.0781 0.59375l-6.3789-6.418c-2.0156-2.0273-1.7578-5.6055 0.58984-8.1484l3.2773-3.5469 14.125 14.211zm5.25-4.9062-14.25-14.332 8.2891-8.9727 14.879 14.969zm17.031-18.363c-0.027343 1.582-0.77344 3.168-2.0391 4.3516l-4.3594 4.0742-15-15.09 4.0586-4.3984c1.1758-1.2734 2.75-2.0195 4.3164-2.0508h0.089844v0.003906c1.1016-0.023437 2.168 0.39844 2.957 1.168l8.8125 8.8672 0.003906-0.003907c0.78906 0.82422 1.207 1.9336 1.1602 3.0742z"/>
  <path d="m44.375 41.695c1.1406 0.003907 2.2305-0.44922 3.0312-1.2617 1.6641-1.6836 1.6641-4.3906 0-6.0742-0.80078-0.80859-1.8906-1.2617-3.0312-1.2617-1.1367 0-2.2266 0.45312-3.0273 1.2617-1.668 1.6836-1.668 4.3906 0 6.0742 0.79688 0.8125 1.8906 1.2656 3.0273 1.2617zm-1.3672-5.6836c0.36328-0.36719 0.85547-0.57031 1.3672-0.57031 0.51562 0 1.0078 0.20312 1.3672 0.57031 0.76172 0.76562 0.76172 2.0039 0 2.7695-0.35938 0.36719-0.85156 0.57031-1.3672 0.57031-0.51172 0-1.0039-0.20312-1.3672-0.57031-0.75781-0.76562-0.75781-2.0039 0-2.7695z"/>
  <path d="m96.562 3.1367c-0.92578-0.92188-2.2773-1.2617-3.5312-0.89062l-7.582 2.207c-0.1875 0.058594-0.36328 0.16016-0.50391 0.30078l-4.5234 4.5547c-0.078125 0.074218-0.14453 0.16406-0.19531 0.25781l-3.2539 5.8906-3.5508 1.0859c-0.18359 0.054687-0.35156 0.15625-0.48828 0.29297l-7.7461 7.793h-0.003906c-0.16797 0.17188-0.28125 0.39062-0.32031 0.62891l-0.52734 3.0547h-2.2383c-0.3125 0-0.60938 0.125-0.83203 0.34766l-5.8945 5.9297-3.1602-3.1758 0.003906-0.003906c-2.2695-2.2891-5.375-3.543-8.5977-3.4727-3.2227 0.070312-6.2734 1.457-8.4414 3.8398l-29.387 32.219c-4.7539 5.2031-4.582 13.223 0.39063 18.219l11.75 11.82c4.9492 5.0078 12.977 5.1836 18.137 0.39453l32.023-29.562c2.3711-2.1914 3.75-5.2539 3.8164-8.4805 0.070312-3.2266-1.1758-6.3438-3.4492-8.6367l-2.9414-2.9609 5.9453-5.9805v-0.003906c0.10547-0.10156 0.1875-0.22266 0.24609-0.35938l1.3047-3.0117 3.2617-1.5625c0.40625-0.19531 0.66406-0.60547 0.66406-1.0586v-2.043l2.918-0.66797h0.003906c0.21484-0.046874 0.41406-0.15625 0.57031-0.31641l4.5273-4.5547-0.003906 0.003906c0.19531-0.19922 0.31641-0.45703 0.33984-0.73438l0.1875-2.332 2.6719-0.46094v0.003907c0.24219-0.042969 0.46094-0.15625 0.63281-0.33203l6.3555-6.3906c0.14453-0.14453 0.24609-0.32422 0.30078-0.52344l2.0898-7.7891c0.34766-1.2695-0.023438-2.625-0.96875-3.5391zm-29.77 46.266c1.8281 1.8398 2.8281 4.3438 2.7695 6.9336-0.054688 2.5898-1.1602 5.0508-3.0625 6.8125l-32.023 29.559c-4.2344 3.9297-10.824 3.7891-14.883-0.32422l-11.75-11.82c-4.0938-4.1094-4.2344-10.707-0.32031-14.988l29.383-32.215c1.7344-1.918 4.1797-3.0312 6.7617-3.0781 0.070312 0 0.14062-0.003906 0.20703-0.003906l0.003906 0.003906c2.5078-0.007812 4.9141 0.99609 6.6758 2.7812zm28.473-43.332-2.0078 7.4844-5.8711 5.9062-3.1992 0.55078c-0.52734 0.089843-0.92578 0.52734-0.96875 1.0625l-0.22656 2.8125-3.9844 4.0078-3.5 0.80078c-0.53516 0.12109-0.91406 0.59375-0.91406 1.1406v2.2383l-2.9922 1.4336h0.003907c-0.25391 0.125-0.45703 0.33203-0.57031 0.59375l-1.3906 3.2109-5.7812 5.8164-6.8359-6.875 5.5586-5.5938h2.7344c0.57031 0 1.0586-0.41016 1.1562-0.97266l0.63281-3.6641 7.2812-7.3242 3.7227-1.1406c0.28906-0.089844 0.53516-0.28906 0.68359-0.55469l3.4023-6.1602 4.1953-4.2227 7.293-2.1211c0.4375-0.13281 0.91406-0.011719 1.2344 0.3125 0.33594 0.32422 0.46875 0.80469 0.34375 1.2578z"/>
 </g>
</svg>
