<?xml version="1.0" encoding="UTF-8"?>
<svg width="100pt" height="100pt" version="1.1" viewBox="0 0 100 100" xmlns="http://www.w3.org/2000/svg">
 <g>
  <path d="m82.555 28.219v-17.688c-0.007813-4.707-3.8203-8.5195-8.5234-8.5234h-48.062c-4.7031 0.003907-8.5156 3.8164-8.5234 8.5234v17.688l-8.2305 8.8047c-0.36328 0.38672-0.5625 0.89453-0.5625 1.4219v49.898c0.007812 5.3281 4.3242 9.6445 9.6523 9.6484h24.129c2.9648-0.007813 5.7539-1.3867 7.5664-3.7305 1.8125 2.3438 4.6016 3.7227 7.5664 3.7305h24.129c5.3281-0.003907 9.6445-4.3203 9.6523-9.6484v-49.898c0-0.52734-0.19922-1.0352-0.5625-1.4219zm-32.555-22.047h14.309l-14.309 23.738-14.309-23.738zm-7.5664 87.656h-24.129c-3.0273-0.003906-5.4805-2.457-5.4844-5.4844v-49.074l8.2305-8.8086c0.36328-0.38281 0.5625-0.89453 0.5625-1.4219v-18.508c0.003907-2.4062 1.9531-4.3555 4.3555-4.3594h4.8555l17.094 28.355v53.816c-0.003907 3.0273-2.457 5.4805-5.4844 5.4844zm44.746-5.4844c-0.003907 3.0273-2.457 5.4805-5.4844 5.4844h-24.129c-3.0273-0.003906-5.4805-2.457-5.4844-5.4844v-53.816l17.09-28.355h4.8594c2.4023 0.003906 4.3516 1.9531 4.3555 4.3594v18.508c0 0.52734 0.19922 1.0391 0.5625 1.4219l8.2344 8.8047z"/>
  <path d="m36.809 52.926h-12.883c-1.1484 0-2.082 0.93359-2.082 2.0859 0 1.1484 0.93359 2.082 2.082 2.082h12.883c1.1523 0 2.0859-0.93359 2.0859-2.082 0-1.1523-0.93359-2.0859-2.0859-2.0859z"/>
  <path d="m76.074 52.926h-12.883c-1.1523 0-2.0859 0.93359-2.0859 2.0859 0 1.1484 0.93359 2.082 2.0859 2.082h12.883c1.1484 0 2.082-0.93359 2.082-2.082 0-1.1523-0.93359-2.0859-2.082-2.0859z"/>
 </g>
</svg>
