<?xml version="1.0" encoding="UTF-8"?>
<svg width="100pt" height="100pt" version="1.1" viewBox="0 0 100 100" xmlns="http://www.w3.org/2000/svg">
 <g>
  <path d="m70.32 17.672 0.10156-0.17578c0.24609-0.42969 0.14062-0.96875-0.24219-1.2773l-7.4922-5.9922c-0.015625-0.011718-0.027344-0.023437-0.042969-0.03125h-0.003906c-0.003906-0.003906-0.011719-0.007812-0.015625-0.011718-0.17969-0.12891-0.38281-0.19922-0.58203-0.18359h-24.047c-0.21094-0.003906-0.41016 0.058594-0.58984 0.18359-0.019531 0.011718-0.035156 0.027344-0.054688 0.039062l-7.4922 5.9961c-0.38281 0.30859-0.48828 0.84766-0.24219 1.2773l0.10156 0.17969c-4.332 1.4297-19.719 7.0117-19.719 14.156v45.332c0 0.39453 0.23047 0.75 0.58984 0.91406l11.203 5.0352 0.003906 5.8867c0 0.55078 0.44922 1 1 1h54.41c0.55078 0 1-0.44922 1-1v-5.8867l11.203-5.0352c0.35938-0.16016 0.58984-0.51953 0.58984-0.91016v-45.336c0-7.0078-14.973-12.582-19.68-14.16zm-8.0625-5.2266 6.0039 4.8008-0.1875 0.32422c-0.09375 0.10547-0.17188 0.22656-0.21484 0.36719v0.007812l-9.832 17.211-6.7227-7.2266zm-2.1367-0.44531-10.102 14.285-10.102-14.285zm-10.109 67.629c1.6523 1.9297 5.9141 5.9062 14.406 8.3711h-28.938c8.5352-2.4648 12.855-6.4492 14.531-8.3711zm-12.23-67.184 10.953 15.488-6.7227 7.2266-10.234-17.91zm-25.781 64.074v-44.688c0-5.2422 13.062-10.555 18.734-12.383l10.215 17.879c0.15625 0.27734 0.4375 0.46094 0.75391 0.49609 0.3125 0.039062 0.62891-0.078125 0.84766-0.3125l6.4688-6.9531v47.113c-1.0625 1.3906-7.7188 9.0898-25.227 10.277l0.003906-41.781c0-0.55078-0.44922-1-1-1s-1 0.44922-1 1v34.754zm76 0-9.7969 4.4023v-34.754c0-0.55078-0.44922-1-1-1s-1 0.44922-1 1v41.793c-17.605-1.1602-24.152-8.8945-25.188-10.277l0.003906-47.121 6.4688 6.9531c0.19141 0.20312 0.45703 0.32031 0.73047 0.32031 0.039062 0 0.078125 0 0.11328-0.007813 0.31641-0.035156 0.59375-0.21875 0.75391-0.49609l10.219-17.887c5.8789 1.9297 18.695 7.2227 18.695 12.387z"/>
  <path d="m39.957 47.5h2.668c0.55078 0 1-0.44922 1-1s-0.44922-1-1-1h-2.668c-0.55078 0-1 0.44922-1 1s0.44922 1 1 1z"/>
  <path d="m39.957 56.164h2.668c0.55078 0 1-0.44922 1-1 0-0.55078-0.44922-1-1-1h-2.668c-0.55078 0-1 0.44922-1 1 0 0.55469 0.44922 1 1 1z"/>
  <path d="m39.957 64.832h2.668c0.55078 0 1-0.44922 1-1s-0.44922-1-1-1h-2.668c-0.55078 0-1 0.44922-1 1s0.44922 1 1 1z"/>
  <path d="m39.957 73.5h2.668c0.55078 0 1-0.44922 1-1s-0.44922-1-1-1h-2.668c-0.55078 0-1 0.44922-1 1s0.44922 1 1 1z"/>
  <path d="m68.641 45.168h-10.68c-1.1016 0-2 0.89844-2 2v5.7852c0 1.1016 0.89844 2 2 2h10.68c1.1016 0 2-0.89844 2-2v-5.7852c0-1.1055-0.89844-2-2-2zm-10.68 7.7852v-5.7852h10.68v5.7852z"/>
 </g>
</svg>
