<?xml version="1.0" encoding="UTF-8"?>
<svg width="100pt" height="100pt" version="1.1" viewBox="0 0 100 100" xmlns="http://www.w3.org/2000/svg">
 <path d="m50 9c-13.461 0-22 9.5742-22 21.129v34.648c-3 0.21094-5.8242 1.5195-7.5 3.4258-1.668 1.957-2.5 4.4336-2.5 6.6953 0 2.8359 1.3633 5.3086 3.4688 7.3242s4.9531 3.6172 8.1562 4.9062c6.4062 2.5781 14.234 3.8672 20.375 3.8672s13.969-1.2891 20.375-3.8672c3.2031-1.2891 6.0508-2.8867 8.1562-4.9062 2.1055-2.0156 3.4688-4.4922 3.4688-7.3242 0-2.2656-0.83203-4.7383-2.5-6.6953-2.8789-3.1367-5.5-3.2188-8.5-3.8047 0.035156-6.3867 1-27.27 1-34.273 0-11.676-10.453-21.129-22-21.129zm0 2.0117c10.453 0 20 8.6602 20 19.117 0 6.6016-0.91016 26.277-1 33.516l-4.3125-1.6367-2.8438-4.7461c-0.33984-0.53906-1.2266-0.58984-1.625-0.09375l-2.2188 2.832-1-1.5078v-4.4961c3.1719-2.9219 6.8398-6.7773 7.8125-10.562 1.1211-0.16016 1.8555-0.68359 2.625-1.3516 0.30078-0.34766 0.5625-0.79688 0.5625-1.3828v-5.0312c0-0.52734-0.47656-1.0078-1-1.0078h-1v-10.062c0.007812-0.26562-0.097656-0.53125-0.28125-0.72266l-2-2.0117c-0.56641-0.41016-0.83203-0.26953-1.3438-0.0625-9.8555 7.9297-16.273 8.8125-26.094 5.8477-0.59766-0.17578-1.2852 0.34766-1.2812 0.97266v6.0352h-2c-0.52344 0-1 0.48047-1 1.0078v5.0312c0 0.75391 0.46875 1.1836 0.875 1.5078 0.98047 0.79297 2.1797 1.0742 3.3125 1.2891 1.3477 4.3438 3.8242 7.8047 6.8125 10.469v4.5273l-1 1.5078-2.2188-2.8281c-0.70312-0.57422-1.0547-0.34766-1.625 0.09375l-2.8438 4.7461-5.3125 2.0117v-33.895c0-10.578 7.4609-19.117 20-19.117zm12.875 12.859l1.125 1.1328v10.66c0 0.52734 0.47656 1.0078 1 1.0078h1v4.0234c-0.55469 0.55859-1.2617 0.79297-2 1.0078-0.46484-0.011719-0.91406 0.35547-1 0.81641-1 2.4688-3.0234 6.0547-5.9375 8.7422-2.2109 1.9609-4.2891 3.6094-7.0625 4.5273-2.5781-0.63281-4.7852-2.4531-6.5625-4.1484-2.6484-2.543-4.4375-5.6484-5.4375-9.0859-0.074219-0.47266-0.52344-0.85547-1-0.84766-1.1445-0.19141-2.0977-0.57031-3-1.1641v-3.8672h2c0.52344 0 1-0.48047 1-1.0078v-5.8477c9 3.168 17 1.168 25.875-5.9492zm-7.875 31.664v3.2695c0 0.1875 0.054688 0.375 0.15625 0.53516l1.5312 2.3281-6.6875 8.582-6.6875-8.582 1.5312-2.3281c0.10156-0.16016 0.15625-0.34766 0.15625-0.53516v-3.2383c1.5 0.98047 3.3438 2.2031 5 2.2305 2.0977-0.3125 3.4453-1.2305 5-2.2656zm-15.906 3.9922l10.125 12.953c0.375 0.46875 1.1875 0.46875 1.5625 0l10.125-12.953c1.1797 2.4531 1.8789 3.9102 4.2188 4.8086l1.5 4.5273h-7.625c-0.26562-0.011719-0.52734 0.097657-0.71875 0.28125l-8.2812 8.3359-8.2812-8.332c-0.19141-0.18359-0.45312-0.28906-0.71875-0.28125h-7.625l1.5-4.5273c2.4648-0.60938 2.9766-2.7109 4.2188-4.8086zm-6.5938 5.6914l-1.4375 4.3086c-0.21875 0.60547 0.29688 1.3516 0.9375 1.3516h8.5938l8.4062 8.457v9.6211c-7.2148-0.70312-14.082-1.6445-20-4.2773l-0.96875-17.828c1.5898-0.46484 3.1367-1.1289 4.4688-1.6367zm35 0c1.4727 0.53906 3 1.1875 4.4688 1.6367l-0.96875 17.824c-6.3281 2.5117-13.73 4.0898-20 4.2773v-9.6211l8.4062-8.457h8.5938c0.64062 0 1.1562-0.74609 0.9375-1.3516zm-29.5 11.695c-3.3125 0-6 1.3516-6 3.0195 0 1.668 2.6875 3.0195 6 3.0195s6-1.3516 6-3.0195c0-1.668-2.6875-3.0195-6-3.0195z"/>
</svg>
