<?xml version="1.0" encoding="UTF-8"?>
<svg width="100pt" height="100pt" version="1.1" viewBox="0 0 100 100" xmlns="http://www.w3.org/2000/svg">
 <g>
  <path d="m88.812 51.184c-1.3672-19.117-15.961-34.273-34.398-36.383 1.2891-1.1914 2.1016-2.8906 2.1016-4.7812 0-3.5977-2.9258-6.5195-6.5195-6.5195s-6.5195 2.9258-6.5195 6.5195c0 1.8906 0.8125 3.5898 2.1016 4.7812-18.434 2.1094-33.027 17.266-34.395 36.387l-3.1562-0.003906v2h83.945v-2zm-43.332-41.164c0-2.4922 2.0273-4.5195 4.5195-4.5195s4.5195 2.0273 4.5195 4.5195c0 2.4922-2.0273 4.5195-4.5195 4.5195s-4.5195-2.0273-4.5195-4.5195zm4.5195 6.5195c19.371 0 35.34 15.137 36.809 34.645h-73.613c1.4648-19.508 17.434-34.645 36.805-34.645z"/>
  <path d="m30.449 31.594 1.3867 1.4414c1.6055-1.5469 3.3555-2.9531 5.207-4.1836l-1.1055-1.6641c-1.9492 1.293-3.7969 2.7773-5.4883 4.4062z"/>
  <path d="m24.309 39.176 1.6953 1.0586c0.58203-0.93359 1.2148-1.8516 1.8789-2.7344l-1.5977-1.2031c-0.69922 0.92578-1.3633 1.8945-1.9766 2.8789z"/>
  <path d="m81.777 75.824c-4.9492-5.332-10.082-10.852-18.891-10.492-3.5938 0.14062-5.9961-0.49219-8.5742-1.1719-2.7148-0.71484-5.793-1.5273-10.633-1.5273-3.2461 0-6.9336 0.35547-11.27 1.0859l-0.83203 0.14062v0.84766c0 5.0742 8.2383 9.1562 19.328 9.8984-2.9062 1.3008-6.2109 2-9.6016 2-5.2109 0-10.145-1.6133-13.539-4.4336-1.2773-1.0586-2.5234-2.2266-3.7305-3.3516-1.7852-1.668-3.6289-3.3945-5.6562-4.8555-0.75391-0.54688-1.6836-0.60938-2.3125-0.60938-0.57422 0-1.1719 0.0625-1.75 0.12109-0.55078 0.054688-1.0703 0.10938-1.6094 0.10938h-0.007812l-1.1953-0.015626 0.19531 1.1797c0.070312 0.41797 0.089843 0.91797 0.11328 1.4453 0.058594 1.3516 0.11719 2.75 1.0391 3.5586 1.7031 1.4961 3.3984 3.1055 5.0352 4.6602 7.3984 7.0273 15.047 14.297 26.734 14.297h0.003906c1.3438 0 2.7305-0.097657 4.1328-0.28906 3.043-0.41797 5.4883-0.61328 7.6992-0.61328 7.875 0 13.395 2.6289 17.367 8.2734l0.65625 0.93359 4.3398-4.0117c3.3281-3.082 6.4297-5.9492 9.8281-9.0859l0.87109-0.80469-0.9375-0.72266c-2.4844-1.9141-4.6797-4.2773-6.8047-6.5664zm-4.3125 15.707-2.6797 2.4805c-4.3203-5.5898-10.18-8.2031-18.328-8.2031-2.3008 0-4.8359 0.19922-7.9727 0.63281-1.3086 0.17969-2.6055 0.26953-3.8594 0.26953h-0.003906c-10.891 0-17.918-6.6797-25.359-13.746-1.6523-1.5664-3.3594-3.1914-5.0938-4.7148-0.28125-0.24609-0.32812-1.3867-0.35938-2.1406-0.007813-0.1875-0.015625-0.38281-0.027344-0.57422 0.24609-0.019531 0.49219-0.046875 0.73438-0.070312 1.1992-0.12109 2.2969-0.16406 2.6875 0.12109 1.9258 1.3867 3.7227 3.0664 5.4609 4.6953 1.2266 1.1484 2.4961 2.3359 3.8203 3.4336 3.7422 3.1094 9.1445 4.8945 14.816 4.8945 5.0508 0 9.9531-1.4375 13.797-4.0547l2.6875-1.8281-3.2461-0.003906c-11.648 0-19.742-3.5742-20.836-7.1875 3.8125-0.60547 7.0859-0.90234 9.9766-0.90234 4.5781 0 7.3945 0.74219 10.121 1.4609 2.7188 0.71875 5.2656 1.3945 9.1641 1.2344 7.8945-0.3125 12.48 4.6172 17.344 9.8555 1.918 2.0664 3.8945 4.1914 6.125 6.0469-3.0664 2.8359-5.9219 5.4805-8.9688 8.3008z"/>
 </g>
</svg>
