<?xml version="1.0" encoding="UTF-8"?>
<svg width="100pt" height="100pt" version="1.1" viewBox="0 0 100 100" xmlns="http://www.w3.org/2000/svg">
 <path d="m99.996 99.996c0-17.613-12.863-32.227-29.707-34.953 0.34766-0.78125 0.54297-1.6367 0.54297-2.543 0-2.2656-1.207-4.2461-3.0117-5.3477 4.0078-5.6758 6.8008-12.598 6.8008-19.75 0 0 2.9492-12.562-4.0977-24.383l-0.007813-0.054687c-0.007813 0-0.015625 0-0.023437 0.003906-1.5273-2.5547-3.5234-5.0703-6.1172-7.418-2.7109-2.457-9.4023-5.5469-17.473-5.5469-5.5273 0-11.699 1.4492-17.684 5.5469-11.609 7.9492-10.438 28.004-10.438 28.004s0.8125 0.20312 2.2734 0.39844c-0.10547 1.125-0.16016 2.2734-0.16016 3.4531 0 7.5586 3.1211 14.852 7.4883 20.699l-0.050781 7.1328c-0.015625 0.035157-0.035156 0.078125-0.050781 0.11719-0.54297 1.0586-2.668 3.3008-10.828 6.4102-2.3008 0.875-4.0508 2.2109-9.2188 3.5977l-0.35547 0.10156c-4.707 1.5547-7.875 5.9219-7.875 10.844v13.691h95.512zm-13.32-22.098c2.8711 2.8711 5.125 6.2148 6.6992 9.9336 1.0859 2.5703 1.8164 5.25 2.1836 7.9961h-53.516c0.82812-4.5352 3.0078-8.707 6.3359-12.035 4.3281-4.3281 10.078-6.7109 16.199-6.7148h0.003906c1.1484 0 2.082-0.92969 2.082-2.082 0-1.1484-0.92969-2.082-2.082-2.082-13.539 0-24.762 9.9375-26.766 22.91h-4.2109c0.36719-2.7461 1.0938-5.4258 2.1836-7.9961 1.5703-3.7188 3.8281-7.0625 6.6992-9.9336 2.8711-2.8711 6.2148-5.125 9.9336-6.6992 3.8477-1.6289 7.9375-2.4531 12.156-2.4531h0.007813 0.007812c4.2188 0 8.3047 0.82422 12.156 2.4531 3.7148 1.582 7.0547 3.832 9.9258 6.7031zm-22.094-13.316h-0.003906c-1.1523 0-2.082-0.93359-2.082-2.082s0.93359-2.082 2.0859-2.082c1.1484 0 2.082 0.93359 2.082 2.082s-0.92969 2.082-2.0781 2.082zm4.1406-39.844c-0.91406-1.0312-1.9375-1.8789-3.0508-2.5312 0.84375-2.043 1.9023-3.2695 2.8516-4 1.1484 2.6094 1.918 5.4453 2.2891 8.4297 0.0625 0.46484 0.10547 0.92188 0.14453 1.3672-0.67578-1.2617-1.4102-2.332-2.2344-3.2656zm-44.984-1.418c0.59766-3.1055 1.4961-5.8477 2.668-8.1523 1.3633-2.6836 3.1016-4.7656 5.168-6.1797 4.668-3.1992 9.8281-4.8203 15.328-4.8203 7.0977 0 12.77 2.7422 14.68 4.4688 1.9414 1.7578 3.5977 3.7188 4.957 5.8594-1.6523 1.1094-3.4844 3.0117-4.7891 6.2812-0.6875-0.11719-1.3867-0.17578-2.1133-0.17578-3.1094 0-6.4609 1.0508-10.242 3.2148-9.1133 5.207-17.547 6.3008-23.016 6.3008-1.3086 0-2.4609-0.0625-3.4219-0.14844 0.085938-1.7734 0.29297-4.1094 0.78125-6.6484zm1.4727 10.945c0.37891 0.011719 0.76562 0.015625 1.168 0.015625 6.0977 0 15.238-1.2227 25.082-6.8477 3.3125-1.8945 5.9961-2.6641 8.1797-2.6641 5.2461 0 7.625 4.4531 9.0508 8.4805 0.49219 1.3789 1.1016 2.3281 1.7461 2.9766 0.011719 0.39063 0.019531 0.78125 0.019531 1.1758 0 6.3008-2.6328 13.133-7.2734 19.008-2.4336 0.55859-4.3242 2.5312-4.7539 5.0156-1.4023 1.2188-2.8398 2.2773-4.2852 3.1328-2.3906 1.4141-4.6562 2.1953-6.3828 2.1953-1.7266 0-3.9961-0.78125-6.3828-2.1953-2.6797-1.5898-5.3594-3.8711-7.75-6.5977-5.4453-6.2031-8.5625-13.695-8.5625-20.559-0.003906-1.0664 0.046875-2.1094 0.14453-3.1367zm18.273 35.867l-4.0195 4.2188-7.7852-6.5781c0.10937-0.17188 0.21484-0.34375 0.30469-0.52344 0.074219-0.14453 0.12891-0.26562 0.16016-0.33984l0.34375-0.76953 0.007813-0.88281 0.015625-2.4062c3.5312 3.4922 7.4141 6.0625 10.973 7.2812zm-39.316 16.172c0-3.1055 1.9883-5.8555 4.9453-6.8672l0.23047-0.066406c3.8984-1.0508 6.0469-2.0781 7.7773-2.9062 0.66797-0.31641 1.2461-0.59766 1.8047-0.8125 3.1016-1.1797 6.9844-2.8203 9.8125-4.9023l8.2852 7.0039c-4.0938 5.0586-6.8203 11.277-7.6211 18.082l-25.234-0.003907z"/>
</svg>
