<?xml version="1.0" encoding="UTF-8"?>
<svg width="100pt" height="100pt" version="1.1" viewBox="0 0 100 100" xmlns="http://www.w3.org/2000/svg">
 <g fill-rule="evenodd">
  <path d="m49.457 15.609c0.14844 0 0.30078 0.042969 0.42969 0.13281l39.438 26.43 2.9688-4.4336-42.848-28.719-41.734 28.277 2.9883 4.4141 38.324-25.969c0.13281-0.089844 0.28125-0.13281 0.4375-0.13281zm40.078 28.41c-0.15234 0-0.30078-0.042969-0.43359-0.13281l-39.645-26.57-38.531 26.109c-0.35156 0.23828-0.83594 0.14844-1.0742-0.20703l-3.8555-5.6914c-0.11719-0.16797-0.16016-0.37891-0.12109-0.58203 0.039062-0.20312 0.15625-0.37891 0.32812-0.49219l42.809-29.004c0.26172-0.17578 0.60156-0.17578 0.86328-0.003907l43.926 29.438c0.35547 0.23828 0.44922 0.71875 0.21094 1.0742l-3.832 5.7227c-0.11328 0.16797-0.29297 0.28906-0.49609 0.32812-0.046875 0.011719-0.097656 0.015626-0.14844 0.015626z"/>
  <path d="m84.633 92.688h-69.844c-0.42578 0-0.77344-0.34766-0.77344-0.77344v-52.043c0-0.42578 0.34766-0.77344 0.77344-0.77344 0.42969 0 0.77344 0.34375 0.77344 0.77344v51.27h68.293v-51.18c0-0.42578 0.34766-0.77344 0.77344-0.77344 0.42578 0 0.77344 0.34766 0.77344 0.77344v51.953c0 0.42578-0.34766 0.77344-0.77344 0.77344z"/>
  <path d="m50 27.504c-2.875 0-5.2148 2.3359-5.2148 5.2109s2.3398 5.2109 5.2109 5.2109c2.875 0 5.2109-2.3398 5.2109-5.2109 0-2.875-2.3359-5.2109-5.2109-5.2109zm0 11.973c-3.7305 0-6.7617-3.0312-6.7617-6.7617 0-3.7266 3.0312-6.7578 6.7617-6.7578 3.7266 0 6.7578 3.0312 6.7578 6.7578 0 3.7266-3.0312 6.7617-6.7578 6.7617z"/>
  <path d="m21.246 91.141h56.934v-48.211h-56.934zm57.707 1.5469h-58.48c-0.42969 0-0.77344-0.34766-0.77344-0.77344v-49.762c0-0.42578 0.34766-0.77344 0.77344-0.77344h58.48c0.42578 0 0.77344 0.34766 0.77344 0.77344v49.762c0 0.42578-0.34766 0.77344-0.77344 0.77344z"/>
  <path d="m78.953 48.918h-58.48c-0.42969 0-0.77344-0.34766-0.77344-0.77344s0.34766-0.77344 0.77344-0.77344h58.48c0.42578 0 0.77344 0.34766 0.77344 0.77344s-0.34766 0.77344-0.77344 0.77344z"/>
  <path d="m78.953 54.672h-58.48c-0.42969 0-0.77344-0.34766-0.77344-0.77344 0-0.42578 0.34766-0.77344 0.77344-0.77344h58.48c0.42578 0 0.77344 0.34766 0.77344 0.77344 0 0.42578-0.34766 0.77344-0.77344 0.77344z"/>
  <path d="m78.953 60.43h-58.48c-0.42969 0-0.77344-0.34766-0.77344-0.77344s0.34766-0.77344 0.77344-0.77344h58.48c0.42578 0 0.77344 0.34766 0.77344 0.77344s-0.34766 0.77344-0.77344 0.77344z"/>
  <path d="m70.859 92.688c-0.42578 0-0.77344-0.34766-0.77344-0.77344v-12.695h-16.441v12.695c0 0.42578-0.34766 0.77344-0.77344 0.77344-0.42578 0-0.77344-0.34766-0.77344-0.77344v-13.469c0-0.42578 0.34766-0.77344 0.77344-0.77344h17.992c0.42578 0 0.77344 0.34766 0.77344 0.77344v13.469c0 0.42578-0.34766 0.77344-0.77344 0.77344z"/>
  <path d="m64.168 84.633c-0.14062 0-0.28125-0.035156-0.40625-0.11328l-1.8633-1.1406-1.9453 1.1445c-0.23828 0.14062-0.53516 0.14453-0.77734 0.007812-0.24219-0.13672-0.39062-0.39453-0.39062-0.67188v-5.4102c0-0.42578 0.34766-0.77344 0.77344-0.77344 0.42578 0 0.77344 0.34766 0.77344 0.77344v4.0547l1.1758-0.69141c0.24609-0.14453 0.55078-0.14453 0.79688 0.007812l1.0859 0.66016v-4.0312c0-0.42578 0.34375-0.77344 0.77344-0.77344 0.42578 0 0.77344 0.34766 0.77344 0.77344v5.4102c0 0.28125-0.15234 0.53906-0.39844 0.67578-0.11719 0.066406-0.25 0.097656-0.375 0.097656z"/>
  <path d="m46.559 92.688c-0.42578 0-0.77344-0.34766-0.77344-0.77344v-12.695h-16.441v12.695c0 0.42578-0.34766 0.77344-0.77344 0.77344-0.42969 0-0.77344-0.34766-0.77344-0.77344v-13.469c0-0.42578 0.34375-0.77344 0.77344-0.77344h17.988c0.42578 0 0.77344 0.34766 0.77344 0.77344v13.469c0 0.42578-0.34766 0.77344-0.77344 0.77344z"/>
  <path d="m39.867 84.633c-0.14063 0-0.28125-0.035156-0.40234-0.11328l-1.8633-1.1406-1.9414 1.1445c-0.23828 0.14062-0.53516 0.14453-0.77734 0.007812-0.24219-0.13672-0.39062-0.39453-0.39062-0.67188v-5.4102c0-0.42578 0.34766-0.77344 0.77344-0.77344 0.42969 0 0.77344 0.34766 0.77344 0.77344v4.0547l1.1758-0.69141c0.24609-0.14453 0.55078-0.14453 0.79688 0.007812l1.082 0.66016v-4.0312c0-0.42578 0.34766-0.77344 0.77344-0.77344 0.42578 0 0.77344 0.34766 0.77344 0.77344v5.4102c0 0.28125-0.15234 0.53906-0.39453 0.67578-0.11719 0.066406-0.24609 0.097656-0.37891 0.097656z"/>
  <path d="m41.496 77.668h16.438v-11.914h-16.438zm17.215 1.5508h-17.988c-0.42969 0-0.77734-0.34766-0.77734-0.77734v-13.469c0-0.42969 0.34766-0.77734 0.77734-0.77734h17.988c0.42969 0 0.77734 0.34766 0.77734 0.77734v13.469c0 0.42578-0.34766 0.77734-0.77734 0.77734z"/>
  <path d="m47.41 71.16c-0.13281 0-0.26562-0.035156-0.38672-0.10156-0.23828-0.13672-0.39063-0.39453-0.39063-0.67188v-5.4102c0-0.42578 0.34766-0.77344 0.77344-0.77344s0.77344 0.34766 0.77344 0.77344v4.0547l1.1758-0.69531c0.24609-0.14453 0.55078-0.14453 0.79688 0.007812l1.082 0.66016v-4.0273c0-0.42578 0.34766-0.77344 0.77344-0.77344 0.42969 0 0.77344 0.34766 0.77344 0.77344v5.4102c0 0.28125-0.15234 0.53906-0.39453 0.67578-0.24219 0.13672-0.54297 0.13281-0.78125-0.015625l-1.8633-1.1406-1.9414 1.1445c-0.12109 0.070313-0.25781 0.10547-0.39453 0.10547z"/>
 </g>
</svg>
